<svg width="270" height="76" fill="none" xmlns="http://www.w3.org/2000/svg"><path d="M112.061 19.07V2.82h6.73a5.51 5.51 0 013.443 1.238c.939.929 1.408 1.857 1.408 2.94 0 .62-.156 1.239-.469 1.858-.313.619-.47.928-.783 1.083l-.469.31s.156.154.313.154c.156 0 .313.155.626.464l.782.774c.157.31.47.62.626 1.084.157.464.314.928.314 1.392 0 1.238-.47 2.476-1.566 3.405-.939.928-2.191 1.393-3.756 1.393h-7.199v.154zm2.504-13.928v4.333h4.069c.626 0 1.096-.155 1.565-.62.47-.464.626-.928.626-1.547 0-.619-.156-1.083-.626-1.547-.469-.465-.939-.62-1.565-.62h-4.069zm4.539 11.76c.782 0 1.408-.309 1.878-.773a2.55 2.55 0 00.782-1.857 2.55 2.55 0 00-.782-1.857 2.608 2.608 0 00-1.878-.774h-4.383v5.262h4.383zm8.927 2.168V2.82h2.504v13.928h7.982v2.321h-10.486zm14.396-13.929c1.722-1.547 3.756-2.476 6.104-2.476 2.504 0 4.539.774 6.104 2.476 1.722 1.548 2.504 3.56 2.504 5.88 0 2.322-.782 4.334-2.504 5.881-1.722 1.548-3.756 2.476-6.104 2.476-2.504 0-4.539-.773-6.104-2.476-1.722-1.547-2.504-3.559-2.504-5.88 0-2.322.782-4.333 2.504-5.88zm1.878 10.059c1.252 1.238 2.661 1.702 4.382 1.702 1.722 0 3.131-.619 4.383-1.702 1.252-1.238 1.721-2.63 1.721-4.333 0-1.702-.626-3.095-1.721-4.333-1.252-1.238-2.661-1.702-4.383-1.702-1.721 0-3.13.619-4.382 1.702-1.252 1.083-1.722 2.63-1.722 4.333 0 1.857.47 3.25 1.722 4.333zm26.769-12.226a5.247 5.247 0 011.878.773c.47.31.939.62 1.252.929l.783.774.313.309-1.565 1.702s-.157-.154-.157-.31l-.626-.618c-.313-.31-.626-.464-.939-.774-.313-.155-.782-.464-1.408-.619-.626-.155-1.253-.31-1.879-.31-1.721 0-3.13.62-4.382 1.703-1.252 1.083-1.722 2.63-1.722 4.333 0 1.702.626 3.095 1.722 4.333s2.661 1.702 4.382 1.702c.626 0 1.253-.154 1.879-.31.626-.154 1.095-.463 1.408-.618.313-.31.783-.465.939-.774.313-.31.47-.464.626-.62l.157-.309 1.721 1.703c0 .155-.156.155-.313.31l-.782.773c-.47.31-.939.774-1.409.928a5.248 5.248 0 01-1.878.774c-.782.155-1.565.31-2.348.31-2.504 0-4.538-.774-6.104-2.476-1.721-1.548-2.504-3.56-2.504-5.88 0-2.322.783-4.334 2.504-5.881 1.722-1.548 3.757-2.477 6.104-2.477.783.31 1.566.465 2.348.62zm10.015 7.738l7.356-7.892h3.287l-6.261 6.654 6.73 9.44h-3.13l-5.321-7.583-2.504 2.786v4.797h-2.505V2.665h2.505v8.047h-.157zm22.852-7.738a5.254 5.254 0 011.878.773c.469.31.94.62 1.252.929l.782.774.313.309-1.565 1.702s-.155-.154-.155-.31c-.158-.154-.314-.309-.627-.618-.313-.31-.625-.464-.938-.774-.314-.155-.783-.464-1.409-.619-.627-.155-1.252-.31-1.879-.31-1.72 0-3.13.62-4.382 1.703-1.252 1.238-1.722 2.63-1.722 4.333 0 1.702.627 3.095 1.722 4.333 1.096 1.238 2.662 1.702 4.382 1.702.627 0 1.252-.154 1.879-.31.626-.154 1.095-.463 1.409-.618.313-.31.782-.465.938-.774l.627-.62.155-.309 1.723 1.703c0 .155-.158.155-.313.31-.158.154-.469.463-.783.773-.469.31-.94.774-1.409.928a5.255 5.255 0 01-1.878.774c-.783.155-1.565.31-2.348.31-2.504 0-4.538-.774-6.104-2.476-1.721-1.548-2.504-3.56-2.504-5.88 0-2.322.783-4.334 2.504-5.881 1.722-1.548 3.757-2.477 6.104-2.477.783.31 1.565.465 2.348.62zM224.75 19.07h-2.66v-7.12h-8.139v7.12h-2.503V2.82h2.503v6.81h8.139V2.82h2.505v16.25h.155zm9.548-16.25h2.505l6.729 16.25h-2.659l-1.722-4.334h-7.2l-1.721 4.333h-2.661l6.729-16.249zm-1.407 9.595h5.322l-2.661-6.654-2.661 6.654zm13.462-9.595h2.505v16.25h-2.505V2.82zm21.129 0v16.25h-2.19l-9.078-11.607v11.606h-2.503V2.82h2.19l9.078 11.761V2.822h2.503zM116.92 30.674h2.504l6.731 16.249h-2.661l-1.722-4.333h-7.199l-1.722 4.333h-2.661l6.73-16.25zm-1.408 9.595h5.321l-2.66-6.655-2.661 6.655zm20.654.774a3.416 3.416 0 00-1.252-.774c-.47-.155-1.096-.31-1.722-.464-.626-.155-1.252-.31-1.878-.62a5.827 5.827 0 01-1.722-.773 3.672 3.672 0 01-1.252-1.393c-.313-.619-.469-1.238-.469-2.166 0-1.238.469-2.322 1.408-3.095.939-.774 2.348-1.238 3.913-1.238.626 0 1.252 0 1.722.154.469.155 1.095.31 1.408.465.313.154.626.464.939.619.313.154.47.31.626.464l.157.155-1.565 1.702s0-.155-.157-.155c-.156 0-.156-.155-.313-.31-.156-.154-.469-.309-.626-.463-.156-.156-.469-.31-.939-.31-.313-.155-.782-.155-1.252-.155-.783 0-1.565.155-2.035.62-.469.463-.782.928-.782 1.392 0 .464.156.928.469 1.238.313.31.783.619 1.252.774.47.154 1.096.31 1.722.464.626.155 1.252.31 1.878.619a5.826 5.826 0 011.722.774c.469.31.939.773 1.252 1.392.313.62.47 1.239.47 2.167 0 1.393-.47 2.63-1.566 3.56-1.095.928-2.504 1.392-4.225 1.392-.783 0-1.409-.155-2.192-.31-.626-.154-1.252-.464-1.721-.618-.47-.31-.783-.465-1.096-.774-.313-.31-.626-.464-.626-.62l-.156-.309 1.565-1.547.156.155c0 .154.313.31.47.464.313.154.469.464.782.619.313.154.626.31 1.252.464.47.155.939.155 1.566.155.939 0 1.878-.31 2.347-.774.626-.464.939-1.083.939-1.857 0-.464-.156-.774-.469-1.083zm13.623 0a3.416 3.416 0 00-1.252-.774c-.47-.155-1.096-.31-1.722-.464-.626-.155-1.252-.31-1.878-.62a5.827 5.827 0 01-1.722-.773 3.672 3.672 0 01-1.252-1.393c-.313-.619-.469-1.238-.469-2.166 0-1.238.469-2.322 1.408-3.095.939-.774 2.348-1.238 3.913-1.238.626 0 1.252 0 1.722.154.469.155 1.095.31 1.408.465.313.154.626.464.939.619.313.154.47.31.626.464l.157.155-1.565 1.702s0-.155-.157-.155l-.313-.31c-.156-.154-.469-.309-.626-.463-.156-.156-.469-.31-.939-.31-.313-.155-.782-.155-1.252-.155-.783 0-1.565.155-2.035.62-.469.463-.782.928-.782 1.392 0 .464.156.928.469 1.238.313.31.783.619 1.252.774.47.154 1.096.31 1.722.464.626.155 1.252.31 1.878.619a5.826 5.826 0 011.722.774c.469.31.939.773 1.252 1.392.313.62.47 1.239.47 2.167 0 1.393-.47 2.63-1.566 3.56-1.095.928-2.504 1.392-4.225 1.392-.783 0-1.409-.155-2.192-.31-.782-.154-1.252-.464-1.721-.618-.47-.31-.783-.465-1.096-.774-.313-.31-.626-.464-.626-.62l-.156-.309 1.565-1.547.156.155c0 .154.313.31.47.464.313.154.469.464.782.619.313.154.626.31 1.252.464.47.155.939.155 1.566.155.939 0 1.878-.31 2.347-.774.626-.464.939-1.083.939-1.857 0-.464-.156-.774-.469-1.083zm7.508-8.202c1.722-1.547 3.756-2.476 6.104-2.476 2.504 0 4.539.774 6.104 2.476 1.722 1.548 2.504 3.56 2.504 5.88 0 2.322-.782 4.334-2.504 5.881-1.722 1.548-3.756 2.477-6.104 2.477-2.504 0-4.539-.774-6.104-2.477-1.722-1.547-2.504-3.559-2.504-5.88 0-2.321.782-4.333 2.504-5.88zm1.878 10.214c1.252 1.238 2.661 1.702 4.383 1.702 1.721 0 3.13-.619 4.382-1.702 1.252-1.238 1.721-2.63 1.721-4.333 0-1.703-.625-3.095-1.721-4.333s-2.661-1.703-4.382-1.703c-1.722 0-3.131.62-4.383 1.703-1.252 1.083-1.721 2.63-1.721 4.333-.157 1.702.469 3.095 1.721 4.333zm26.298-12.382a5.26 5.26 0 011.879.774c.469.309.939.619 1.252.928l.782.774.313.31-1.565 1.702s-.156-.155-.156-.31l-.626-.619c-.313-.31-.626-.464-.94-.774-.313-.154-.782-.464-1.408-.619-.626-.155-1.252-.31-1.878-.31-1.722 0-3.13.62-4.383 1.703-1.252 1.238-1.721 2.63-1.721 4.333 0 1.702.626 3.095 1.721 4.333 1.253 1.238 2.661 1.703 4.383 1.703.626 0 1.252-.155 1.878-.31.626-.155 1.095-.464 1.408-.62.314-.309.783-.463.94-.773l.626-.619.156-.31 1.722 1.703c0 .155-.157.155-.313.31l-.783.773c-.469.31-.939.774-1.408.929a5.26 5.26 0 01-1.879.773c-.782.155-1.565.31-2.347.31-2.504 0-4.539-.774-6.104-2.476-1.722-1.547-2.504-3.56-2.504-5.88 0-2.322.782-4.334 2.504-5.881 1.722-1.548 3.756-2.476 6.104-2.476.782.31 1.565.464 2.347.619zm7.042.001h2.504v16.249h-2.504v-16.25zm11.738 0h2.503l6.731 16.249h-2.661l-1.722-4.333h-7.198l-1.723 4.333h-2.661l6.731-16.25zm-1.409 9.595h5.322l-2.661-6.655-2.661 6.655zm21.909-9.595v2.321h-4.85v13.928h-2.506V32.995h-4.852v-2.321h12.208zm2.192 0h2.505v16.249h-2.505v-16.25zm8.451 2.167c1.722-1.547 3.756-2.476 6.104-2.476 2.505 0 4.539.774 6.104 2.476 1.723 1.548 2.505 3.56 2.505 5.88 0 2.322-.782 4.334-2.505 5.881-1.721 1.548-3.757 2.477-6.104 2.477-2.503 0-4.539-.774-6.104-2.477-1.721-1.547-2.503-3.559-2.503-5.88 0-2.321.782-4.333 2.503-5.88zm1.722 10.214c1.252 1.238 2.661 1.702 4.382 1.702 1.723 0 3.13-.619 4.383-1.702 1.252-1.238 1.721-2.63 1.721-4.333 0-1.703-.625-3.095-1.721-4.333s-2.66-1.703-4.383-1.703c-1.721 0-3.13.62-4.382 1.703-1.251 1.083-1.722 2.63-1.722 4.333 0 1.702.626 3.095 1.722 4.333zm30.213-12.381v16.249h-2.191l-9.079-11.607v11.607H253.4v-16.25h2.192l9.078 11.762V30.674h2.661zM113.635 60.542c1.722-1.548 3.756-2.477 6.104-2.477 2.504 0 4.539.774 6.104 2.477 1.722 1.547 2.504 3.559 2.504 5.88 0 2.322-.782 4.333-2.504 5.88-1.722 1.548-3.756 2.477-6.104 2.477-2.504 0-4.539-.774-6.104-2.476-1.722-1.548-2.504-3.56-2.504-5.88 0-2.167.782-4.18 2.504-5.881zm1.878 10.213c1.252 1.238 2.661 1.703 4.382 1.703 1.722 0 3.131-.62 4.383-1.703 1.252-1.083 1.721-2.63 1.721-4.333 0-1.702-.626-3.095-1.721-4.333-1.096-1.238-2.661-1.702-4.383-1.702-1.721 0-3.13.619-4.382 1.702-1.252 1.083-1.722 2.63-1.722 4.333-.156 1.703.47 3.25 1.722 4.333zm29.108-12.382v2.322h-8.922v4.487h7.043v2.322h-7.043v7.118h-2.504V58.373h11.426zm20.499 12.845c.783-.929 1.252-1.858 1.252-3.096v-9.749h2.505v9.75c0 1.856-.626 3.404-2.035 4.797-1.409 1.238-2.974 2.012-4.852 2.012-1.878 0-3.6-.62-4.852-2.012-1.409-1.238-2.034-2.94-2.034-4.797v-9.75h2.504v9.75c0 1.237.469 2.166 1.252 3.095.782.928 1.878 1.238 2.974 1.238 1.565 0 2.504-.31 3.286-1.238zm12.055-4.95l7.356-7.893h3.287l-6.261 6.655 6.73 9.44h-3.13l-5.322-7.583-2.504 2.785v4.798h-2.504V58.22h2.504v8.048h-.156zm14.713-7.895h6.886c1.565 0 2.817.465 3.757 1.393.938.928 1.565 2.166 1.565 3.56 0 .618-.158 1.237-.313 1.856a2.99 2.99 0 01-.783 1.393l-.94.928c-.311.31-.625.465-.782.465l-.312.154 3.755 6.5h-2.972l-3.444-6.19h-3.757v6.19h-2.504V58.373h-.156zm8.921 3.095a2.608 2.608 0 00-1.878-.774h-4.383v5.262h4.383a2.61 2.61 0 001.878-.774 2.55 2.55 0 00.782-1.857 2.55 2.55 0 00-.782-1.857zm13.934-3.095h2.503l6.731 16.25h-2.661l-1.723-4.334h-7.2l-1.72 4.333h-2.661l6.731-16.249zm-1.41 9.595h5.322l-2.661-6.655-2.661 6.655zm14.549-9.595h2.505v16.25h-2.505v-16.25zm22.072 0v16.25h-2.192l-9.076-11.607v11.606h-2.505V58.373h2.191l9.079 11.761V58.373h2.503zM267.483 72.3v2.322h-11.739V58.373h11.582v2.322h-9.077v4.333h7.198v2.32h-7.198v4.953h9.234z" fill="#161616"/><path d="M93.284 20.771L75.13 2.976V2.82v35.903l18.155-17.951z" fill="#202060"/><path d="M75.129 38.72v35.903l18.155-17.951L75.13 38.72zM20.658 2.82L43.51 17.984l31.615 20.737V2.819H20.658zm0 71.803h54.466V38.721L43.666 59.457 20.658 74.623z" fill="#202060"/><path opacity=".9" d="M75.126 2.82L43.51 17.984 0 38.722l43.667 20.737 31.459 15.165V2.82z" fill="url(#paint0_linear_2395_1631)"/><defs><linearGradient id="paint0_linear_2395_1631" x1="-.046" y1="38.736" x2="75.15" y2="38.736" gradientUnits="userSpaceOnUse"><stop stop-color="#0FF"/><stop offset=".167" stop-color="#0FF"/><stop offset="1" stop-color="#906CFF"/></linearGradient></defs></svg>