<svg width="270" height="76" viewBox="0 0 270 76" fill="none" xmlns="http://www.w3.org/2000/svg">
<path d="M112.061 19.0693V2.82031H118.791C120.043 2.82031 121.295 3.28458 122.234 4.05835C123.173 4.98686 123.642 5.91536 123.642 6.99864C123.642 7.61765 123.486 8.23665 123.173 8.85566C122.86 9.47467 122.703 9.78418 122.39 9.93894L121.921 10.2484C121.921 10.2484 122.077 10.4032 122.234 10.4032C122.39 10.4032 122.547 10.5579 122.86 10.8674C123.173 11.177 123.329 11.3317 123.642 11.6412C123.799 11.9507 124.112 12.2602 124.268 12.7245C124.425 13.1887 124.582 13.653 124.582 14.1172C124.582 15.3553 124.112 16.5933 123.016 17.5218C122.077 18.4503 120.825 18.9146 119.26 18.9146H112.061V19.0693ZM114.565 5.1416V9.47469H118.634C119.26 9.47469 119.73 9.31991 120.199 8.85566C120.669 8.39139 120.825 7.92714 120.825 7.30813C120.825 6.68913 120.669 6.22486 120.199 5.76061C119.73 5.29636 119.26 5.1416 118.634 5.1416H114.565ZM119.104 16.9028C119.886 16.9028 120.512 16.5933 120.982 16.129C121.451 15.6648 121.764 15.0457 121.764 14.272C121.764 13.4982 121.451 12.8792 120.982 12.415C120.512 11.9507 119.886 11.6412 119.104 11.6412H114.721V16.9028H119.104Z" fill="#161616"/>
<path d="M128.031 19.0693V2.82031H130.535V16.748H138.517V19.0693H128.031Z" fill="#161616"/>
<path d="M142.427 5.14108C144.149 3.59356 146.183 2.66504 148.531 2.66504C151.035 2.66504 153.07 3.4388 154.635 5.14108C156.357 6.68861 157.139 8.70039 157.139 11.0217C157.139 13.343 156.357 15.3547 154.635 16.9023C152.913 18.4498 150.879 19.3783 148.531 19.3783C146.027 19.3783 143.992 18.6046 142.427 16.9023C140.705 15.3547 139.923 13.343 139.923 11.0217C139.923 8.70039 140.705 6.68861 142.427 5.14108ZM144.305 15.2C145.557 16.438 146.966 16.9023 148.687 16.9023C150.409 16.9023 151.818 16.2833 153.07 15.2C154.322 13.962 154.791 12.5692 154.791 10.8669C154.791 9.16464 154.165 7.77187 153.07 6.53383C151.818 5.29582 150.409 4.83157 148.687 4.83157C146.966 4.83157 145.557 5.45058 144.305 6.53383C143.053 7.61711 142.583 9.16464 142.583 10.8669C142.583 12.7239 143.053 14.1167 144.305 15.2Z" fill="#161616"/>
<path d="M171.074 2.97352C171.857 3.12828 172.483 3.43777 172.952 3.74728C173.422 4.05678 173.891 4.36627 174.204 4.67578C174.517 4.98528 174.83 5.29479 174.987 5.44954L175.3 5.75904L173.735 7.46132C173.735 7.46132 173.578 7.30658 173.578 7.15183C173.422 6.99707 173.265 6.84232 172.952 6.5328C172.639 6.22331 172.326 6.06855 172.013 5.75904C171.7 5.60428 171.231 5.29479 170.605 5.14005C169.979 4.98529 169.352 4.83054 168.726 4.83054C167.005 4.83054 165.596 5.44955 164.344 6.5328C163.092 7.61608 162.622 9.1636 162.622 10.8659C162.622 12.5682 163.248 13.9609 164.344 15.199C165.44 16.437 167.005 16.9012 168.726 16.9012C169.352 16.9012 169.979 16.7465 170.605 16.5917C171.231 16.437 171.7 16.1275 172.013 15.9727C172.326 15.6632 172.796 15.5084 172.952 15.199C173.265 14.8894 173.422 14.7347 173.578 14.5799L173.735 14.2704L175.456 15.9727C175.456 16.1275 175.3 16.1275 175.143 16.2822C174.987 16.437 174.674 16.7465 174.361 17.056C173.891 17.3655 173.422 17.8298 172.952 17.9845C172.483 18.294 171.857 18.6035 171.074 18.7583C170.292 18.913 169.509 19.0678 168.726 19.0678C166.222 19.0678 164.188 18.294 162.622 16.5917C160.901 15.0442 160.118 13.0324 160.118 10.7111C160.118 8.38986 160.901 6.37807 162.622 4.83054C164.344 3.28301 166.379 2.35449 168.726 2.35449C169.509 2.66401 170.292 2.81876 171.074 2.97352Z" fill="#161616"/>
<path d="M181.089 10.7122L188.445 2.8198H191.732L185.471 9.47415L192.201 18.914H189.071L183.75 11.3312L181.246 14.1167V18.914H178.741V2.66504H181.246V10.7122H181.089Z" fill="#161616"/>
<path d="M203.941 2.97352C204.723 3.12828 205.35 3.43777 205.819 3.74728C206.288 4.05678 206.759 4.36627 207.071 4.67578C207.384 4.98528 207.697 5.29479 207.853 5.44954L208.166 5.75904L206.601 7.46132C206.601 7.46132 206.446 7.30658 206.446 7.15183C206.288 6.99707 206.132 6.84232 205.819 6.5328C205.506 6.22331 205.194 6.06855 204.881 5.75904C204.567 5.60428 204.098 5.29479 203.472 5.14005C202.845 4.98529 202.22 4.83054 201.593 4.83054C199.873 4.83054 198.463 5.44955 197.211 6.5328C195.959 7.77081 195.489 9.1636 195.489 10.8659C195.489 12.5682 196.116 13.9609 197.211 15.199C198.307 16.437 199.873 16.9012 201.593 16.9012C202.22 16.9012 202.845 16.7465 203.472 16.5917C204.098 16.437 204.567 16.1275 204.881 15.9727C205.194 15.6632 205.663 15.5084 205.819 15.199C206.132 14.8894 206.288 14.7347 206.446 14.5799L206.601 14.2704L208.324 15.9727C208.324 16.1275 208.166 16.1275 208.011 16.2822C207.853 16.437 207.542 16.7465 207.228 17.056C206.759 17.3655 206.288 17.8298 205.819 17.9845C205.35 18.294 204.723 18.6035 203.941 18.7583C203.158 18.913 202.376 19.0678 201.593 19.0678C199.089 19.0678 197.055 18.294 195.489 16.5917C193.768 15.0442 192.985 13.0324 192.985 10.7111C192.985 8.38986 193.768 6.37807 195.489 4.83054C197.211 3.28301 199.246 2.35449 201.593 2.35449C202.376 2.66401 203.158 2.81876 203.941 2.97352Z" fill="#161616"/>
<path d="M224.75 19.0693H222.09V11.9507H213.951V19.0693H211.448V2.82031H213.951V9.62942H222.09V2.82031H224.595V19.0693H224.75Z" fill="#161616"/>
<path d="M234.298 2.82031H236.803L243.532 19.0693H240.873L239.151 14.7363H231.951L230.23 19.0693H227.569L234.298 2.82031ZM232.891 12.415H238.213L235.552 5.76061L232.891 12.415Z" fill="#161616"/>
<path d="M246.353 2.82031H248.858V19.0693H246.353V2.82031Z" fill="#161616"/>
<path d="M267.482 2.82031V19.0693H265.292L256.214 7.46289V19.0693H253.711V2.82031H255.901L264.979 14.5815V2.82031H267.482Z" fill="#161616"/>
<path d="M116.92 30.6738H119.424L126.155 46.9228H123.494L121.772 42.5898H114.573L112.851 46.9228H110.19L116.92 30.6738ZM115.512 40.2685H120.833L118.173 33.614L115.512 40.2685Z" fill="#161616"/>
<path d="M136.166 41.0428C135.853 40.7331 135.383 40.4237 134.914 40.2689C134.444 40.1142 133.818 39.9595 133.192 39.8047C132.566 39.65 131.94 39.4953 131.314 39.1858C130.688 39.031 130.062 38.7214 129.592 38.4119C129.123 38.1024 128.653 37.6382 128.34 37.0193C128.027 36.4001 127.871 35.7812 127.871 34.8526C127.871 33.6147 128.34 32.5313 129.279 31.7576C130.218 30.9837 131.627 30.5195 133.192 30.5195C133.818 30.5195 134.444 30.5195 134.914 30.6743C135.383 30.829 136.009 30.9837 136.322 31.1387C136.635 31.2934 136.948 31.6029 137.261 31.7576C137.574 31.9124 137.731 32.0671 137.887 32.2218L138.044 32.3766L136.479 34.0789C136.479 34.0789 136.479 33.9241 136.322 33.9241C136.166 33.9241 136.166 33.7694 136.009 33.6147C135.853 33.4599 135.54 33.3052 135.383 33.1505C135.227 32.9955 134.914 32.8408 134.444 32.8408C134.131 32.686 133.662 32.686 133.192 32.686C132.409 32.686 131.627 32.8408 131.157 33.3052C130.688 33.7694 130.375 34.2336 130.375 34.6978C130.375 35.1622 130.531 35.6264 130.844 35.9359C131.157 36.2454 131.627 36.5549 132.096 36.7096C132.566 36.8643 133.192 37.0191 133.818 37.174C134.444 37.3287 135.07 37.4835 135.696 37.793C136.322 37.9477 136.948 38.2572 137.418 38.5666C137.887 38.8761 138.357 39.3405 138.67 39.9595C138.983 40.5784 139.14 41.1976 139.14 42.126C139.14 43.5188 138.67 44.7567 137.574 45.6853C136.479 46.6137 135.07 47.0781 133.349 47.0781C132.566 47.0781 131.94 46.9234 131.157 46.7685C130.531 46.6137 129.905 46.3043 129.436 46.1495C128.966 45.8401 128.653 45.6853 128.34 45.3758C128.027 45.0664 127.714 44.9116 127.714 44.7569L127.558 44.4472L129.123 42.8997L129.279 43.0546C129.279 43.2093 129.592 43.3641 129.749 43.5188C130.062 43.6735 130.218 43.983 130.531 44.1378C130.844 44.2925 131.157 44.4472 131.783 44.602C132.253 44.7567 132.722 44.7569 133.349 44.7569C134.288 44.7569 135.227 44.4472 135.696 43.983C136.322 43.5188 136.635 42.8997 136.635 42.126C136.635 41.6618 136.479 41.3523 136.166 41.0428Z" fill="#161616"/>
<path d="M149.789 41.0428C149.476 40.7331 149.006 40.4237 148.537 40.2689C148.067 40.1142 147.441 39.9595 146.815 39.8047C146.189 39.65 145.563 39.4953 144.937 39.1858C144.311 39.031 143.685 38.7214 143.215 38.4119C142.746 38.1024 142.276 37.6382 141.963 37.0193C141.65 36.4001 141.494 35.7812 141.494 34.8526C141.494 33.6147 141.963 32.5313 142.902 31.7576C143.841 30.9837 145.25 30.5195 146.815 30.5195C147.441 30.5195 148.067 30.5195 148.537 30.6743C149.006 30.829 149.632 30.9837 149.945 31.1387C150.258 31.2934 150.571 31.6029 150.884 31.7576C151.197 31.9124 151.354 32.0671 151.51 32.2218L151.667 32.3766L150.102 34.0789C150.102 34.0789 150.102 33.9241 149.945 33.9241C149.945 33.9241 149.789 33.7694 149.632 33.6147C149.476 33.4599 149.163 33.3052 149.006 33.1505C148.85 32.9955 148.537 32.8408 148.067 32.8408C147.754 32.686 147.285 32.686 146.815 32.686C146.032 32.686 145.25 32.8408 144.78 33.3052C144.311 33.7694 143.998 34.2336 143.998 34.6978C143.998 35.1622 144.154 35.6264 144.467 35.9359C144.78 36.2454 145.25 36.5549 145.719 36.7096C146.189 36.8643 146.815 37.0191 147.441 37.174C148.067 37.3287 148.693 37.4835 149.319 37.793C149.945 37.9477 150.571 38.2572 151.041 38.5666C151.51 38.8761 151.98 39.3405 152.293 39.9595C152.606 40.5784 152.763 41.1976 152.763 42.126C152.763 43.5188 152.293 44.7567 151.197 45.6853C150.102 46.6137 148.693 47.0781 146.972 47.0781C146.189 47.0781 145.563 46.9234 144.78 46.7685C143.998 46.6137 143.528 46.3043 143.059 46.1495C142.589 45.8401 142.276 45.6853 141.963 45.3758C141.65 45.0664 141.337 44.9116 141.337 44.7569L141.181 44.4472L142.746 42.8997L142.902 43.0546C142.902 43.2093 143.215 43.3641 143.372 43.5188C143.685 43.6735 143.841 43.983 144.154 44.1378C144.467 44.2925 144.78 44.4472 145.406 44.602C145.876 44.7567 146.345 44.7569 146.972 44.7569C147.911 44.7569 148.85 44.4472 149.319 43.983C149.945 43.5188 150.258 42.8997 150.258 42.126C150.258 41.6618 150.102 41.3523 149.789 41.0428Z" fill="#161616"/>
<path d="M157.297 32.8412C159.019 31.2939 161.053 30.3652 163.401 30.3652C165.905 30.3652 167.94 31.1389 169.505 32.8412C171.227 34.3888 172.009 36.4006 172.009 38.7218C172.009 41.0433 171.227 43.055 169.505 44.6024C167.783 46.15 165.749 47.0786 163.401 47.0786C160.897 47.0786 158.862 46.3047 157.297 44.6024C155.575 43.055 154.793 41.0433 154.793 38.7218C154.793 36.4006 155.575 34.3888 157.297 32.8412ZM159.175 43.055C160.427 44.2929 161.836 44.7573 163.558 44.7573C165.279 44.7573 166.688 44.1382 167.94 43.055C169.192 41.8169 169.661 40.4241 169.661 38.7218C169.661 37.0195 169.036 35.6269 167.94 34.3888C166.844 33.1507 165.279 32.6865 163.558 32.6865C161.836 32.6865 160.427 33.3056 159.175 34.3888C157.923 35.4721 157.454 37.0195 157.454 38.7218C157.297 40.4241 157.923 41.8169 159.175 43.055Z" fill="#161616"/>
<path d="M185.473 30.6727C186.256 30.8274 186.882 31.1371 187.352 31.4465C187.821 31.756 188.291 32.0655 188.604 32.375C188.917 32.6844 189.23 32.9941 189.386 33.1488L189.699 33.4583L188.134 35.1606C188.134 35.1606 187.978 35.0059 187.978 34.8511C187.821 34.6962 187.665 34.5415 187.352 34.232C187.039 33.9225 186.726 33.7678 186.412 33.4583C186.099 33.3036 185.63 32.9941 185.004 32.8392C184.378 32.6844 183.752 32.5297 183.126 32.5297C181.404 32.5297 179.996 33.1488 178.743 34.232C177.491 35.4701 177.022 36.8629 177.022 38.565C177.022 40.2673 177.648 41.6602 178.743 42.8982C179.996 44.1361 181.404 44.6006 183.126 44.6006C183.752 44.6006 184.378 44.4456 185.004 44.2909C185.63 44.1361 186.099 43.8267 186.412 43.6719C186.726 43.3625 187.195 43.2077 187.352 42.8982C187.665 42.5886 187.821 42.4338 187.978 42.2791L188.134 41.9696L189.856 43.6719C189.856 43.8267 189.699 43.8267 189.543 43.9814C189.386 44.1361 189.073 44.4456 188.76 44.7553C188.291 45.0648 187.821 45.529 187.352 45.6837C186.882 45.9932 186.256 46.3027 185.473 46.4574C184.691 46.6123 183.908 46.7671 183.126 46.7671C180.622 46.7671 178.587 45.9932 177.022 44.2909C175.3 42.7435 174.518 40.7317 174.518 38.4103C174.518 36.089 175.3 34.0773 177.022 32.5297C178.744 30.9823 180.778 30.0537 183.126 30.0537C183.908 30.3632 184.691 30.5179 185.473 30.6727Z" fill="#161616"/>
<path d="M192.515 30.6738H195.019V46.9228H192.515V30.6738Z" fill="#161616"/>
<path d="M204.253 30.6738H206.756L213.487 46.9228H210.826L209.104 42.5898H201.906L200.183 46.9228H197.522L204.253 30.6738ZM202.844 40.2685H208.166L205.505 33.614L202.844 40.2685Z" fill="#161616"/>
<path d="M224.753 30.6738V32.9951H219.903V46.9228H217.397V32.9951H212.545V30.6738H224.753Z" fill="#161616"/>
<path d="M226.945 30.6738H229.45V46.9228H226.945V30.6738Z" fill="#161616"/>
<path d="M235.396 32.8412C237.118 31.2939 239.152 30.3652 241.5 30.3652C244.005 30.3652 246.039 31.1389 247.604 32.8412C249.327 34.3888 250.109 36.4006 250.109 38.7218C250.109 41.0433 249.327 43.055 247.604 44.6024C245.883 46.15 243.847 47.0786 241.5 47.0786C238.997 47.0786 236.961 46.3047 235.396 44.6024C233.675 43.055 232.893 41.0433 232.893 38.7218C232.893 36.4006 233.675 34.3888 235.396 32.8412ZM237.118 43.055C238.37 44.2929 239.779 44.7573 241.5 44.7573C243.223 44.7573 244.63 44.1382 245.883 43.055C247.135 41.8169 247.604 40.4241 247.604 38.7218C247.604 37.0195 246.979 35.6269 245.883 34.3888C244.787 33.1507 243.223 32.6865 241.5 32.6865C239.779 32.6865 238.37 33.3056 237.118 34.3888C235.867 35.4721 235.396 37.0195 235.396 38.7218C235.396 40.4241 236.022 41.8169 237.118 43.055Z" fill="#161616"/>
<path d="M267.331 30.6738V46.9228H265.14L256.061 35.3163V46.9228H253.4V30.6738H255.592L264.67 42.435V30.6738H267.331Z" fill="#161616"/>
<path d="M113.635 60.5416C115.357 58.994 117.391 58.0654 119.739 58.0654C122.243 58.0654 124.278 58.8393 125.843 60.5416C127.565 62.0892 128.347 64.101 128.347 66.4222C128.347 68.7435 127.565 70.7552 125.843 72.3028C124.121 73.8504 122.087 74.7788 119.739 74.7788C117.235 74.7788 115.2 74.0051 113.635 72.3028C111.913 70.7552 111.131 68.7435 111.131 66.4222C111.131 64.2557 111.913 62.2439 113.635 60.5416ZM115.513 70.7552C116.765 71.9933 118.174 72.4575 119.895 72.4575C121.617 72.4575 123.026 71.8384 124.278 70.7552C125.53 69.6719 125.999 68.1245 125.999 66.4222C125.999 64.7199 125.373 63.3271 124.278 62.0892C123.182 60.8511 121.617 60.3869 119.895 60.3869C118.174 60.3869 116.765 61.0058 115.513 62.0892C114.261 63.1723 113.791 64.7199 113.791 66.4222C113.635 68.1245 114.261 69.6719 115.513 70.7552Z" fill="#161616"/>
<path d="M144.621 58.373V60.6945H135.699V65.1823H142.742V67.5035H135.699V74.6222H133.195V58.373H144.621Z" fill="#161616"/>
<path d="M165.12 71.2176C165.903 70.2892 166.372 69.3605 166.372 68.1225V58.373H168.877V68.1225C168.877 69.9795 168.251 71.5271 166.842 72.9199C165.433 74.158 163.868 74.9317 161.99 74.9317C160.112 74.9317 158.39 74.3127 157.138 72.9199C155.729 71.6818 155.104 69.9795 155.104 68.1225V58.373H157.608V68.1225C157.608 69.3605 158.077 70.2892 158.86 71.2176C159.642 72.1462 160.738 72.4557 161.834 72.4557C163.399 72.4557 164.338 72.1462 165.12 71.2176Z" fill="#161616"/>
<path d="M177.175 66.2678L184.531 58.3754H187.818L181.557 65.0297L188.287 74.4697H185.157L179.835 66.8868L177.331 69.6724V74.4697H174.827V58.2207H177.331V66.2678H177.175Z" fill="#161616"/>
<path d="M191.888 58.373H198.774C200.339 58.373 201.591 58.8375 202.531 59.7659C203.469 60.6945 204.096 61.9324 204.096 63.3252C204.096 63.9442 203.938 64.5633 203.783 65.1823C203.625 65.8012 203.314 66.2656 203 66.5751C202.687 66.8846 202.374 67.194 202.06 67.5035C201.749 67.813 201.435 67.9677 201.278 67.9677L200.966 68.1225L204.721 74.6222H201.749L198.305 68.4321H194.548V74.6222H192.044V58.373H191.888ZM200.809 61.4682C200.339 61.004 199.713 60.6945 198.931 60.6945H194.548V65.9559H198.931C199.713 65.9559 200.339 65.6465 200.809 65.1823C201.278 64.718 201.591 64.0989 201.591 63.3252C201.591 62.5515 201.278 61.9324 200.809 61.4682Z" fill="#161616"/>
<path d="M214.743 58.373H217.246L223.977 74.6222H221.316L219.593 70.2892H212.393L210.673 74.6222H208.012L214.743 58.373ZM213.333 67.9677H218.655L215.994 61.3134L213.333 67.9677Z" fill="#161616"/>
<path d="M227.882 58.373H230.387V74.6222H227.882V58.373Z" fill="#161616"/>
<path d="M249.954 58.373V74.6222H247.762L238.686 63.0157V74.6222H236.181V58.373H238.372L247.451 70.1344V58.373H249.954Z" fill="#161616"/>
<path d="M267.483 72.3009V74.6222H255.744V58.373H267.326V60.6945H258.249V65.0275H265.447V67.3488H258.249V72.3009H267.483Z" fill="#161616"/>
<path d="M93.2842 20.7715L75.1289 2.97507V2.82031V2.97507V38.7229L93.2842 20.7715Z" fill="#202060"/>
<path d="M75.1289 38.7207V38.8754V74.6232L93.2842 56.6719L75.1289 38.7207Z" fill="#202060"/>
<path d="M20.6582 2.81934L43.509 17.9851L75.1244 38.722V2.81934H20.6582Z" fill="#202060"/>
<path d="M20.6582 74.6232H75.1244V38.7207L43.6655 59.4574L20.6582 74.6232Z" fill="#202060"/>
<path opacity="0.9" d="M75.1256 2.81934L43.5102 17.9851L0 38.7219L43.6667 59.4588L75.1256 74.6244V38.7219V2.81934Z" fill="url(#paint0_linear_2395_1631)"/>
<defs>
<linearGradient id="paint0_linear_2395_1631" x1="-0.0460144" y1="38.7361" x2="75.1502" y2="38.7361" gradientUnits="userSpaceOnUse">
<stop stop-color="#00FFFF"/>
<stop offset="0.1671" stop-color="#00FFFF"/>
<stop offset="1" stop-color="#906CFF"/>
</linearGradient>
</defs>
</svg>
