<svg width="247" height="51" fill="none" xmlns="http://www.w3.org/2000/svg"><path d="M0 23.477l3.391-4.956a10.927 10.927 0 007.597 3.395c1.526 0 3.006-.611 3.006-1.958 0-.939-.87-1.55-2.17-2.06a59.982 59.982 0 01-5.788-2.171 7.383 7.383 0 01-4.42-6.959c0-4.706 4.093-8.26 9.96-8.26a14.857 14.857 0 019.517 3.395l-3.13 5.148A10.767 10.767 0 0011.7 6.788c-1.956 0-2.86.838-2.86 1.743 0 1.131 1.13 1.629 2.125 1.991 1.424.543 3.629 1.267 5.437 2.025 2.815 1.2 5.098 3.19 5.098 7.026 0 4.888-4.058 8.554-10.603 8.554A14.299 14.299 0 010 23.477zm24.259-4.56V7.603h6.353v11.314a3.217 3.217 0 001.932 3.14 3.208 3.208 0 004.477-3.14V7.603h6.41v11.314c0 5.974-3.697 9.232-9.632 9.232-5.934 0-9.54-3.258-9.54-9.232zm44.852-1.3c0 5.793-4.058 10.533-9.732 10.533a8.124 8.124 0 01-5.652-2.172v9.889h-6.41V7.649h6.308v1.844a7.91 7.91 0 015.754-2.353c5.708 0 9.732 4.672 9.732 10.477zm-6.51.067a4.527 4.527 0 00-4.522-4.525c-1.2 0-2.35.477-3.197 1.325a4.527 4.527 0 003.197 7.726 4.52 4.52 0 004.521-4.526zm29.437 2.026H77.772a4.728 4.728 0 004.895 3.157 11.75 11.75 0 006.036-1.844l2.498 4.31a15.205 15.205 0 01-8.828 2.75c-7.46 0-11.044-4.956-11.044-10.432a10.192 10.192 0 013.036-7.603A10.173 10.173 0 0182.01 7.14c5.754 0 10.242 3.666 10.242 10.002-.003.86-.075 1.72-.215 2.568zm-14.334-4.39h8.467A4.096 4.096 0 0082 12.243a4.282 4.282 0 00-4.296 3.077zm17.634-7.672h6.115v2.466a6.125 6.125 0 015.325-3.01c.857.01 1.703.195 2.486.544l-.497 6.087c-.85-.3-1.744-.46-2.645-.475-2.498 0-4.409 1.448-4.409 5.759v8.621h-6.375V7.648zM111.491 0h6.229v10.364a7.069 7.069 0 016.262-3.259c3.945 0 7.698 2.648 7.698 8.26V27.64h-6.398V17.06c0-2.647-1.345-4.129-3.515-4.129a3.9 3.9 0 00-3.912 4.277V27.64h-6.364V0zm43.803 19.71h-14.255a4.702 4.702 0 004.884 3.157 11.75 11.75 0 006.036-1.844l2.498 4.31a15.203 15.203 0 01-8.828 2.75c-7.461 0-11.044-4.956-11.044-10.432a10.187 10.187 0 016.554-9.86 10.18 10.18 0 014.128-.651c5.754 0 10.242 3.666 10.242 10.002a16.25 16.25 0 01-.215 2.568zm-14.334-4.39h8.467a4.09 4.09 0 00-4.16-3.078 4.303 4.303 0 00-4.307 3.078zm17.635-7.672h6.115v2.466a6.124 6.124 0 015.324-3.01c.861.01 1.711.195 2.499.544l-.509 6.087a8.374 8.374 0 00-2.645-.475c-2.498 0-4.409 1.448-4.409 5.759v8.621h-6.375V7.648zm14.706 10.002a10.898 10.898 0 013.308-7.476 10.88 10.88 0 0115.144 0 10.898 10.898 0 013.308 7.476c0 5.827-4.318 10.534-10.897 10.534-6.579 0-10.863-4.707-10.863-10.534zm15.385 0a4.533 4.533 0 00-2.838-4.132 4.52 4.52 0 00-6.123 3.342 4.53 4.53 0 001.934 4.625 4.52 4.52 0 006.712-2.106c.221-.56.328-1.16.315-1.763v.034zm29.289 2.06H203.72a4.71 4.71 0 004.884 3.157 11.76 11.76 0 006.047-1.844l2.499 4.31a15.243 15.243 0 01-8.829 2.75c-7.46 0-11.044-4.956-11.044-10.432a10.187 10.187 0 016.554-9.86c1.317-.5 2.722-.722 4.128-.651 5.754 0 10.242 3.666 10.242 10.002-.007.86-.083 1.72-.226 2.568zm-14.334-4.39h8.478a4.09 4.09 0 00-4.171-3.077 4.305 4.305 0 00-4.307 3.077zm16.088 9.425l2.859-4.311a9.515 9.515 0 005.969 2.5c1.13 0 2.136-.407 2.136-1.278 0-.396-.214-.758-1.13-1.131-.916-.374-3.764-1.2-4.962-1.743a5.662 5.662 0 01-3.731-5.43c0-3.768 3.222-6.337 8.252-6.337a11.298 11.298 0 017.461 2.603l-2.747 4.208a9.04 9.04 0 00-4.816-1.708c-1.051 0-1.808.475-1.808 1.131 0 .657.407 1.132 1.808 1.437a25.33 25.33 0 014.703 1.743c2.43 1.233 3.391 2.783 3.391 5.069 0 3.846-3.222 6.664-8.58 6.664a12.663 12.663 0 01-8.805-3.417zm19.768-.001a3.393 3.393 0 013.55-3.395 3.44 3.44 0 010 6.88 3.467 3.467 0 01-3.282-2.134 3.481 3.481 0 01-.268-1.351zM68.246 49.045V38.74h1.564l3.654 6.738 3.64-6.738h1.534v10.304h-1.696v-6.943L73.99 47.48h-1.096l-2.953-5.35v6.914h-1.695zm14.838 0l4.662-10.304h1.535l4.662 10.304h-1.9l-1.023-2.383h-5.028l-1.008 2.383h-1.9zm5.407-8.273l-1.856 4.4h3.742l-1.856-4.4h-.03zm9.868 8.273V38.74h4.473c1.13 0 2.002.273 2.616.818.614.536.921 1.291.921 2.266 0 .77-.2 1.408-.599 1.914-.4.497-.975.833-1.725 1.009.497.156.906.53 1.228 1.125l1.724 3.172h-2.061l-1.783-3.289c-.175-.321-.385-.54-.628-.657-.234-.117-.536-.176-.906-.176h-1.389v4.122h-1.87zm1.871-5.51h2.28c1.364 0 2.046-.556 2.046-1.666 0-1.102-.682-1.652-2.046-1.652h-2.28v3.318zm11.438 5.51V38.74h1.871v4.56h.029l4.545-4.56h2.281l-5.014 4.955 5.262 5.349h-2.309l-4.765-4.765h-.029v4.765h-1.871zm12.994 0V38.74h6.855v1.49h-5.057v2.836h4.736v1.49h-4.736v2.997h5.057v1.49h-6.855zm14.423 0v-8.74h-3.537V38.74h8.945v1.564h-3.537v8.74h-1.871zm9.882 0V38.74h1.871v10.304h-1.871zm7.399 0V38.74h1.403l5.54 7.19v-7.19h1.739v10.304h-1.388l-5.554-7.22v7.22h-1.74zm19.177.146c-1.14 0-2.105-.214-2.894-.643a4.303 4.303 0 01-1.783-1.827c-.409-.79-.614-1.725-.614-2.806 0-1.092.21-2.032.629-2.821a4.35 4.35 0 011.812-1.842c.789-.438 1.734-.658 2.836-.658a6.29 6.29 0 012.031.322c.634.205 1.16.492 1.579.862l-.629 1.462a4.564 4.564 0 00-1.403-.775 5.062 5.062 0 00-1.578-.234c-1.092 0-1.92.317-2.485.95-.556.634-.833 1.545-.833 2.734 0 1.198.287 2.11.862 2.733.575.623 1.428.935 2.558.935.321 0 .648-.024.979-.073a7.275 7.275 0 001.009-.248v-2.397h-2.368v-1.389h3.932v4.955a7.23 7.23 0 01-1.696.556 9.487 9.487 0 01-1.944.204z" fill="#000"/></svg>