<svg width="249" height="76" fill="none" xmlns="http://www.w3.org/2000/svg"><g clip-path="url(#clip0_2395_1580)"><path d="M103.591.608h7.262v20.269a14.722 14.722 0 01-.973 5.423 12.558 12.558 0 01-2.764 4.294 12.48 12.48 0 01-4.326 2.822 15.018 15.018 0 01-5.634 1.007c-1.843.017-3.675-.3-5.408-.936a12.556 12.556 0 01-4.353-2.7 12.558 12.558 0 01-2.898-4.268 14.522 14.522 0 01-1.011-5.642V.608h7.235v20.307c-.006.93.136 1.855.422 2.739.26.808.681 1.554 1.238 2.191a5.682 5.682 0 002.017 1.463c1.77.7 3.735.7 5.505 0a5.749 5.749 0 002.017-1.463 6.373 6.373 0 001.249-2.191 8.6 8.6 0 00.422-2.74V.609zm19.851 23.007a3.824 3.824 0 00.382 1.782 3.778 3.778 0 001.16 1.395c1.027.79 2.482 1.189 4.358 1.189.877.013 1.753-.071 2.612-.252a5.165 5.165 0 001.741-.701c.421-.267.762-.646.985-1.096a3.36 3.36 0 00.313-1.484 3.15 3.15 0 00-.514-1.874 3.858 3.858 0 00-1.487-1.21c-.75-.354-1.53-.64-2.33-.855-.92-.252-1.96-.551-3.121-.898-.54-.16-1.211-.334-1.93-.548a21.825 21.825 0 01-2.201-.712 15.547 15.547 0 01-2.163-1.035 8.132 8.132 0 01-1.898-1.485 6.738 6.738 0 01-1.341-2.076 7.216 7.216 0 01-.503-2.81 12.3 12.3 0 01.735-4.383 8.254 8.254 0 012.272-3.286 10.22 10.22 0 013.888-2.06c1.829-.51 3.721-.75 5.618-.712a14.365 14.365 0 014.748.723 9.8 9.8 0 013.477 2.12 8.695 8.695 0 012.163 3.215 11.49 11.49 0 01.735 4.213h-7.11c0-.473-.083-.942-.244-1.386a2.953 2.953 0 00-.795-1.205 4.064 4.064 0 00-1.438-.816 6.587 6.587 0 00-2.163-.313 8.832 8.832 0 00-2.358.263 3.954 3.954 0 00-1.465.712c-.333.268-.59.62-.746 1.02a3.31 3.31 0 00-.211 1.166 2.207 2.207 0 00.503 1.435c.382.44.849.794 1.373 1.041a10.26 10.26 0 002.055.75c.789.203 1.622.395 2.568.548 1.082.269 2.066.548 3.029.855.914.28 1.807.627 2.671 1.04.783.377 1.527.83 2.222 1.354a7.802 7.802 0 011.699 1.791c.481.724.846 1.52 1.081 2.361.266.99.394 2.014.379 3.04a8.86 8.86 0 01-.911 4.186 8.74 8.74 0 01-2.761 3.248 12.253 12.253 0 01-4.115 1.912c-1.689.44-3.426.655-5.17.64a16.151 16.151 0 01-5.948-.942 11.41 11.41 0 01-3.964-2.503 9.44 9.44 0 01-2.233-3.479 11.303 11.303 0 01-.703-3.9l7.056.022zm24.253 10.824V.607h14.184a13.36 13.36 0 014.24.636 9.155 9.155 0 013.244 1.84 8.058 8.058 0 012.072 2.964c.505 1.277.754 2.645.729 4.02a6.918 6.918 0 01-.319 2.066 8.258 8.258 0 01-.843 1.884 7.435 7.435 0 01-1.239 1.49 4.937 4.937 0 01-1.465.986 8.645 8.645 0 012.163 1.184 8.966 8.966 0 011.795 1.78 8.284 8.284 0 011.217 2.268c.3.837.452 1.722.449 2.613a10.495 10.495 0 01-.941 4.656 8.894 8.894 0 01-2.45 3.122 9.823 9.823 0 01-3.434 1.77 13.86 13.86 0 01-3.888.547l-15.514.006zm7.408-20.268h6.328a2.848 2.848 0 001.151-.247 3.276 3.276 0 001.006-.712c.307-.318.554-.689.73-1.095.191-.458.286-.95.281-1.447a3.76 3.76 0 00-.27-1.43 3.889 3.889 0 00-.714-1.133 3.376 3.376 0 00-1.011-.734 2.677 2.677 0 00-1.146-.263h-6.355v7.06zm7.36 13.771a3.74 3.74 0 001.255-.235 3.939 3.939 0 001.233-.724c.389-.343.708-.762.935-1.232a3.9 3.9 0 00.373-1.77 4.084 4.084 0 00-.303-1.604 3.893 3.893 0 00-.821-1.222 3.616 3.616 0 00-1.206-.783 3.989 3.989 0 00-1.466-.274h-7.36v7.844h7.36zm24.31 6.496h-7.311l.092-33.88h7.738l22.965 33.88h-8.624l-3.515-5.204h-11.356l.011 5.204zm1.33-20.487l-1.33-2.191v11.854h7.5l-6.17-9.663zM96.222 56.2a3.59 3.59 0 01-.211 1.243c-.138.382-.353.73-.633 1.022-.28.291-.617.52-.99.67-.857.34-1.808.34-2.665 0a2.931 2.931 0 01-.984-.69 3.023 3.023 0 01-.606-1.018 3.66 3.66 0 01-.211-1.25V49.67h-1.298v6.519a4.66 4.66 0 00.346 1.807c.219.523.54.995.946 1.386.409.389.888.692 1.412.893.558.212 1.15.318 1.746.313.6.006 1.197-.102 1.758-.318a4.112 4.112 0 002.341-2.29 4.594 4.594 0 00.341-1.791v-6.52h-1.292v6.53zm10.538-3.891h-1.601l-4.191 4.535v-7.532h-1.282V60.39h1.282v-1.907l1.693-1.785 2.693 3.692h1.584l-3.363-4.585 3.185-3.495zm2.44 3.996a3.315 3.315 0 01.211-1.227c.115-.327.3-.624.54-.87.247-.244.542-.431.866-.549.366-.123.75-.185 1.135-.18h.99v-1.195h-1.022a4.065 4.065 0 00-1.904.438c-.26.134-.5.303-.714.505l-.194.197-.071-1.14h-1.141v8.08h1.304v-4.059zm12.149 2.861l.054 1.221h1.173v-8.08h-1.173l-.054 1.227a4.039 4.039 0 00-.297-.3 4.072 4.072 0 00-.833-.598 4.394 4.394 0 00-1-.389 4.224 4.224 0 00-1.131-.142 4.446 4.446 0 00-3.125 1.227 4.184 4.184 0 00-.925 1.353 4.27 4.27 0 000 3.33c.218.506.533.964.925 1.348.402.386.874.691 1.39.898.55.224 1.137.337 1.73.334a4.52 4.52 0 002.12-.547 4 4 0 00.838-.592 3.84 3.84 0 00.308-.29zm0-2.822a3 3 0 01-.254 1.233 2.936 2.936 0 01-.682.975 3.236 3.236 0 01-1.01.646 3.42 3.42 0 01-2.466 0 3.144 3.144 0 01-1.012-.646 3.058 3.058 0 01-.67-3.401c.156-.366.385-.696.67-.97.291-.28.632-.5 1.006-.647.394-.16.814-.24 1.238-.235.423-.005.842.075 1.234.235.374.148.717.368 1.01.647a2.948 2.948 0 01.92 2.164h.016zm5-4.035h-1.292v8.08h1.292v-8.08zm-.647-1.364a.944.944 0 00.633-.225.805.805 0 00.193-.266.81.81 0 000-.645.808.808 0 00-.193-.267.948.948 0 00-1.255 0 .806.806 0 00-.254.581.785.785 0 00.254.586.873.873 0 00.622.236zm4.59 5.088a2.833 2.833 0 01.216-1.128c.135-.326.334-.62.584-.866a2.774 2.774 0 011.915-.745 2.644 2.644 0 011.914.647 2.865 2.865 0 01.654 2.087v4.382h1.298v-4.382a4.034 4.034 0 00-.946-2.925 3.745 3.745 0 00-2.812-.97 3.992 3.992 0 00-1.893.465 3.85 3.85 0 00-.757.516c-.092.076-.173.158-.254.24l-.065-1.018h-1.141v8.08h1.287v-4.383zm9.33-5.09a.916.916 0 00.627-.225.775.775 0 00.264-.589.777.777 0 00-.264-.589.957.957 0 00-1.259 0 .79.79 0 00.005 1.168.859.859 0 00.627.235zm.639 1.366h-1.292v8.08h1.292v-8.08zm8.575 7.75a4.192 4.192 0 001.136-.893l.054 1.221h1.173v-8.08h-1.173l-.054 1.227a3.807 3.807 0 00-.292-.3 4.359 4.359 0 00-.833-.598 4.372 4.372 0 00-1-.389 4.224 4.224 0 00-1.131-.142 4.446 4.446 0 00-3.125 1.227 4.218 4.218 0 00-1.18 2.196 4.255 4.255 0 00.261 2.487c.218.506.532.964.924 1.348.404.385.875.69 1.39.898.55.224 1.138.337 1.73.334.38.002.758-.048 1.125-.148.346-.088.68-.218.995-.388zm1.119-3.715a2.99 2.99 0 01-.243 1.217c-.16.368-.392.699-.681.975a3.255 3.255 0 01-1.011.646 3.44 3.44 0 01-2.472 0 3.246 3.246 0 01-1.005-.646 3.152 3.152 0 01-.676-.96 3.034 3.034 0 01-.195-1.806 3.063 3.063 0 011.876-2.236 3.364 3.364 0 012.472 0c.374.15.717.369 1.011.647.285.276.515.605.676.97.166.375.25.782.248 1.193zm9.636-2.414c.24.287.421.619.533.977.112.358.153.736.121 1.11v4.382h1.298v-4.382a4.032 4.032 0 00-.946-2.925 3.743 3.743 0 00-2.812-.97 4.003 4.003 0 00-1.887.465c-.274.14-.53.313-.763.516l-.254.24-.065-1.018h-1.135v8.08h1.281V56.05a2.833 2.833 0 01.217-1.129c.135-.325.333-.62.584-.865.25-.238.544-.424.865-.548.334-.133.69-.2 1.049-.197a2.621 2.621 0 011.914.619zm7.79 2.026h-4.277v1.156h4.277v-1.156zm9.317 2.774c.21-.42.316-.884.308-1.353a2.777 2.777 0 00-.178-1.041 2.437 2.437 0 00-.482-.784 2.826 2.826 0 00-.692-.548 4.57 4.57 0 00-.816-.36 5.806 5.806 0 00-.871-.231c-.292-.06-.573-.104-.854-.148-.46-.05-.887-.11-1.271-.186a3.752 3.752 0 01-.957-.307 1.581 1.581 0 01-.584-.482 1.176 1.176 0 01-.195-.701c.001-.238.043-.473.125-.696a1.47 1.47 0 01.416-.608 2.32 2.32 0 01.816-.444 4.277 4.277 0 011.32-.175c.347-.004.692.04 1.027.132.281.072.545.198.779.372.202.143.37.33.492.548.112.23.169.483.168.74v.191h1.308v-.203a2.8 2.8 0 00-.265-1.205 2.723 2.723 0 00-.757-.959 3.461 3.461 0 00-1.168-.624 4.903 4.903 0 00-1.525-.224 5.671 5.671 0 00-1.876.268c-.461.15-.888.391-1.255.712-.311.286-.55.643-.697 1.04a3.475 3.475 0 00-.206 1.178 2.37 2.37 0 00.184.97 2.2 2.2 0 00.492.696c.211.191.45.349.709.465.263.122.536.219.816.29.285.077.574.137.865.182.292.043.568.082.828.11.416.06.827.136 1.206.23.333.081.655.206.957.372.246.14.457.338.616.575.155.248.23.539.217.833a1.66 1.66 0 01-.182.851 1.636 1.636 0 01-.586.638 4.395 4.395 0 01-2.38.548 3.186 3.186 0 01-1.963-.663 2.498 2.498 0 01-.589-.684 1.499 1.499 0 01-.211-.762v-.197h-1.298v.197c.002.423.102.84.292 1.216.199.406.477.768.817 1.063.378.324.81.576 1.276.745a4.631 4.631 0 001.666.29 7.47 7.47 0 001.876-.219c.5-.122.975-.336 1.4-.63.371-.262.674-.612.882-1.019zm10.576 1.659l3.055-8.08h-1.39l-2.293 6.212-2.157-5.993-.044-.132h-.995l-2.195 6.136-2.293-6.223h-1.384l3.05 8.08h1.13l2.19-5.955 2.196 5.955h1.13zm4.366-10.849a.788.788 0 00-.188.903c.044.101.11.191.193.264a.856.856 0 00.622.235.915.915 0 00.627-.224.79.79 0 000-1.178.954.954 0 00-1.254 0zm1.273 2.769h-1.293v8.08h1.293v-8.08zm2.711 7.486c.314.242.667.427 1.043.548.435.153.892.23 1.352.224a6.85 6.85 0 001.574-.17 3.72 3.72 0 001.189-.481c.318-.202.58-.48.763-.811.181-.336.272-.713.265-1.096a2.03 2.03 0 00-.157-.81 1.94 1.94 0 00-.417-.603 2.346 2.346 0 00-.594-.411 4.328 4.328 0 00-.687-.258 5.66 5.66 0 00-.719-.164l-.692-.099a9.117 9.117 0 01-1.082-.142 3.402 3.402 0 01-.741-.23.964.964 0 01-.395-.318.694.694 0 01-.124-.432c0-.165.035-.328.103-.477.075-.162.188-.303.33-.41a1.99 1.99 0 01.633-.308 3.706 3.706 0 011-.12c.257-.003.514.03.762.098.21.052.409.14.59.258.15.097.277.226.373.378.087.146.137.312.146.482v.186h1.265v-.197a2.029 2.029 0 00-.232-.948 2.2 2.2 0 00-.584-.728 2.997 2.997 0 00-.979-.482 4.276 4.276 0 00-1.26-.17 5.174 5.174 0 00-1.557.203 2.958 2.958 0 00-1.055.547 2.02 2.02 0 00-.595.806 2.443 2.443 0 00-.178.909 1.84 1.84 0 00.151.778c.094.208.228.394.395.548.164.162.357.292.568.383.21.102.429.182.654.241.229.066.462.116.698.148l.676.088c.352.038.702.095 1.049.17.268.053.528.141.773.262.179.083.337.207.46.362a.812.812 0 01.151.51 1.087 1.087 0 01-.573.958 3.594 3.594 0 01-1.893.394 2.602 2.602 0 01-.816-.12 2.347 2.347 0 01-.665-.329 1.585 1.585 0 01-.444-.449.99.99 0 01-.157-.499v-.191h-1.27v.197c.005.33.09.654.248.942.162.319.384.602.655.833zm13.616-.661c.178-.337.269-.714.265-1.096a2.029 2.029 0 00-.157-.81c-.1-.226-.241-.43-.417-.604a2.56 2.56 0 00-.594-.41 4.552 4.552 0 00-.687-.258 6.17 6.17 0 00-.719-.164l-.698-.099a8.854 8.854 0 01-1.081-.142 3.22 3.22 0 01-.741-.23 1.004 1.004 0 01-.4-.318.73.73 0 01-.125-.433 1.155 1.155 0 01.433-.887 2.08 2.08 0 01.638-.307c.325-.085.66-.125.995-.12.259-.003.517.03.768.098.209.053.408.14.589.258.15.097.278.226.373.378a.976.976 0 01.141.482v.186h1.265v-.197a2.014 2.014 0 00-.227-.948 2.279 2.279 0 00-.638-.75 2.949 2.949 0 00-.973-.482 4.333 4.333 0 00-1.26-.17 5.194 5.194 0 00-1.563.203c-.384.11-.742.296-1.054.547-.263.214-.467.49-.595.805-.113.29-.172.599-.173.91a1.92 1.92 0 00.146.778c.097.206.231.391.395.548.167.16.361.29.573.383.208.102.425.182.649.24.23.067.465.116.702.149l.671.087c.352.04.703.096 1.049.17.27.053.532.141.779.263.178.084.335.208.46.362a.854.854 0 01.151.51 1.105 1.105 0 01-.579.958 3.57 3.57 0 01-1.892.395 2.603 2.603 0 01-.812-.121 2.413 2.413 0 01-.67-.329 1.636 1.636 0 01-.438-.45.93.93 0 01-.157-.498v-.191h-1.271v.197c.004.33.089.654.249.942.171.314.403.59.682.81.315.24.668.426 1.043.549.436.154.896.23 1.357.224a6.916 6.916 0 001.574-.17c.421-.09.824-.252 1.19-.481.317-.19.586-.453.784-.767zM96.525 70.237a3.014 3.014 0 00-.708-.63 2.838 2.838 0 00-.438-.235l.216-.165a2.565 2.565 0 00.822-1.232c.08-.248.12-.507.119-.767a2.73 2.73 0 00-.876-2.043 2.988 2.988 0 00-.963-.598 3.405 3.405 0 00-1.19-.208H88.89v10.71h5.056c.414.002.826-.07 1.216-.214a3.236 3.236 0 001.028-.608c.295-.272.535-.6.708-.964a2.97 2.97 0 00.092-2.219 2.984 2.984 0 00-.465-.827zm-6.338-.148h3.715c.257-.002.51.048.747.148a1.95 1.95 0 011.022 1.003c.099.233.148.485.146.74a1.7 1.7 0 01-.157.744c-.1.227-.243.432-.422.603a1.999 1.999 0 01-.622.4 1.883 1.883 0 01-.74.142h-3.689v-3.78zm3.948-1.265a1.767 1.767 0 01-.676.131h-3.245V65.51h3.283c.23-.003.459.044.67.137a1.82 1.82 0 01.92.92 1.722 1.722 0 010 1.337c-.09.206-.218.392-.379.547-.166.16-.36.286-.573.373zm10.977 2.379c.066.79-.17 1.574-.66 2.191a2.548 2.548 0 01-1.947.701 2.51 2.51 0 01-1.952-.712 3.135 3.135 0 01-.654-2.164v-4.223h-1.282v4.245c-.01.596.08 1.19.27 1.753.154.476.416.909.765 1.263.35.354.777.62 1.247.775a5.373 5.373 0 003.244 0 3.163 3.163 0 001.244-.778c.349-.354.613-.785.768-1.26a5.19 5.19 0 00.27-1.753v-4.245h-1.287l-.026 4.207zm9.103.071a2.461 2.461 0 00-.6-.41 4.471 4.471 0 00-.681-.258 5.3 5.3 0 00-.72-.165l-.697-.098a9.808 9.808 0 01-1.082-.143 3.197 3.197 0 01-.74-.23.997.997 0 01-.4-.312.718.718 0 01-.125-.438 1.118 1.118 0 01.103-.477c.075-.162.188-.303.33-.41.19-.142.405-.246.632-.308a3.763 3.763 0 011.001-.12c.259-.002.517.03.768.099.207.051.405.138.584.257.15.097.277.226.373.378.087.146.137.312.146.482v.186h1.265v-.197a2.014 2.014 0 00-.227-.948 2.274 2.274 0 00-.617-.723 3.096 3.096 0 00-.978-.482 4.286 4.286 0 00-1.26-.17 5.343 5.343 0 00-1.557.197 2.97 2.97 0 00-1.082.548c-.262.214-.467.49-.595.806a2.4 2.4 0 00-.178.909 1.84 1.84 0 00.151.778c.094.207.229.393.395.548.157.158.34.288.541.383.21.1.429.181.654.241.229.066.462.116.698.148l.675.088c.373.043.725.098 1.05.17.267.054.527.143.773.263.179.08.337.204.459.361.106.147.16.327.152.51a1.11 1.11 0 01-.573.958 3.59 3.59 0 01-1.893.395 2.637 2.637 0 01-.817-.121 2.458 2.458 0 01-.665-.329 1.572 1.572 0 01-.438-.449.984.984 0 01-.162-.498V72.5h-1.271v.197c.006.328.091.65.249.937.171.316.405.594.687.816.316.24.668.425 1.044.548a3.94 3.94 0 001.357.219 6.852 6.852 0 001.573-.164c.419-.091.82-.254 1.185-.483.315-.203.577-.48.762-.81.181-.336.272-.713.265-1.096a1.928 1.928 0 00-.157-.81 1.94 1.94 0 00-.357-.581zm2.069-7.059a.802.802 0 00-.189.901.782.782 0 00.189.266.88.88 0 00.622.235.945.945 0 00.633-.225.791.791 0 000-1.177.941.941 0 00-1.255 0zm1.272 2.763h-1.292v8.08h1.292v-8.08zm6.783-.2a3.965 3.965 0 00-.995.12c-.31.081-.611.195-.898.34a3.972 3.972 0 00-.756.547 3.317 3.317 0 00-.255.242l-.065-1.02h-1.141v8.08h1.287v-4.36a2.852 2.852 0 01.217-1.128 2.54 2.54 0 01.584-.866 2.7 2.7 0 01.859-.548 2.82 2.82 0 011.055-.197 2.644 2.644 0 011.914.647 2.878 2.878 0 01.655 2.087v4.382h1.297v-4.382a4.015 4.015 0 00-.951-2.925 3.742 3.742 0 00-2.807-1.019zm12.84 1.208a4.386 4.386 0 00-1.412-.898 4.749 4.749 0 00-3.482 0 4.52 4.52 0 00-1.406.898c-.398.382-.718.84-.941 1.347a4.22 4.22 0 000 3.325c.224.509.544.969.941 1.353.408.39.885.696 1.406.904a4.566 4.566 0 001.741.329c.45.002.897-.059 1.33-.18a4.65 4.65 0 001.147-.521c.339-.217.646-.48.913-.784.261-.295.478-.627.644-.986l.13-.284h-1.412l-.054.098a2.76 2.76 0 01-.475.62 2.86 2.86 0 01-.628.476 3.202 3.202 0 01-.757.307 3.374 3.374 0 01-1.984-.094 3.143 3.143 0 01-.984-.547 3.066 3.066 0 01-.725-.893 2.986 2.986 0 01-.308-.948h7.538l.043-.301v-.186a4.038 4.038 0 00-.346-1.644 4.228 4.228 0 00-.919-1.391zm-6.278 2.426c.058-.302.16-.593.302-.865a3.05 3.05 0 01.709-.849c.286-.249.613-.444.968-.575a3.408 3.408 0 012.341 0c.349.131.672.326.952.575a3.02 3.02 0 01.979 1.731l-6.251-.017zm15.071.861a2.368 2.368 0 00-.595-.41 4.33 4.33 0 00-.687-.258 5.71 5.71 0 00-.719-.165l-.692-.098a9.667 9.667 0 01-1.082-.143 3.22 3.22 0 01-.741-.23.974.974 0 01-.4-.312.724.724 0 01-.124-.438 1.095 1.095 0 01.432-.887 1.86 1.86 0 01.633-.308 3.731 3.731 0 011-.12c.258-.002.514.03.763.099.209.051.409.138.589.257.15.097.278.226.373.378.088.146.138.311.146.482v.186h1.266v-.197c0-.33-.078-.654-.227-.947a2.261 2.261 0 00-.639-.75 3.137 3.137 0 00-.978-.483 4.276 4.276 0 00-1.26-.17 5.347 5.347 0 00-1.557.197 2.97 2.97 0 00-1.055.548c-.262.213-.467.49-.595.805a2.42 2.42 0 00-.178.91c-.004.267.047.532.151.778.094.207.229.393.395.547.165.161.358.291.568.384.21.1.429.181.654.24.229.067.462.116.698.149l.676.088c.373.043.724.098 1.049.17.267.054.527.142.773.262.18.081.338.205.46.362a.812.812 0 01.151.509 1.1 1.1 0 01-.573.959 3.593 3.593 0 01-1.893.394 2.634 2.634 0 01-.817-.12 2.458 2.458 0 01-.665-.33 1.572 1.572 0 01-.438-.448 1.004 1.004 0 01-.162-.499v-.192h-1.271v.198c.005.328.09.65.249.937.172.316.405.594.687.816.316.24.668.424 1.043.547.437.154.896.227 1.358.22a6.847 6.847 0 001.573-.165 3.7 3.7 0 001.185-.482c.315-.203.577-.481.762-.81a2.25 2.25 0 00.265-1.096 2.012 2.012 0 00-.157-.81 1.888 1.888 0 00-.394-.554zm7.69.001a2.565 2.565 0 00-.595-.41 4.496 4.496 0 00-.686-.258 5.84 5.84 0 00-.72-.165l-.697-.098a9.808 9.808 0 01-1.082-.143 3.22 3.22 0 01-.741-.23 1.062 1.062 0 01-.4-.312.76.76 0 01-.119-.438 1.17 1.17 0 01.103-.477c.074-.163.187-.305.33-.41.189-.144.404-.248.632-.308.325-.085.66-.125.995-.12.26-.002.518.03.768.099.21.052.409.139.59.257.15.097.277.226.373.378a.976.976 0 01.14.482v.186h1.266v-.197a2.038 2.038 0 00-.227-.948 2.2 2.2 0 00-.589-.723 3.087 3.087 0 00-.974-.482 4.305 4.305 0 00-1.26-.17 5.392 5.392 0 00-1.563.197 3.064 3.064 0 00-1.054.548 2.123 2.123 0 00-.595.806c-.114.29-.172.598-.173.909a1.92 1.92 0 00.146.778c.096.207.232.394.4.548.165.162.357.292.568.383.209.102.429.183.654.241.229.067.462.116.698.148l.67.088c.373.043.73.098 1.049.17.27.054.531.143.779.263.179.082.336.206.46.36a.813.813 0 01.151.51 1.089 1.089 0 01-.573.959 3.607 3.607 0 01-1.898.394 2.596 2.596 0 01-.811-.12 2.48 2.48 0 01-.671-.329 1.572 1.572 0 01-.438-.449.991.991 0 01-.157-.498V72.5h-1.27v.197c.002.329.088.651.248.937.17.316.402.594.682.816.316.239.668.424 1.043.548.437.152.896.226 1.358.219a6.858 6.858 0 001.573-.164c.421-.09.824-.254 1.19-.483.316-.203.578-.48.762-.81.178-.337.269-.714.265-1.096a2.027 2.027 0 00-.156-.81 1.98 1.98 0 00-.444-.581zm8.691-6.926l-4.689 10.709h1.395l1.141-2.602h5.457l1.141 2.602h1.395l-4.689-10.71h-1.151zm.578 1.862l2.206 5.062h-4.423l2.217-5.062zm11.956 5.063a2.468 2.468 0 00-.6-.41 4.472 4.472 0 00-.681-.258 6.145 6.145 0 00-.72-.165l-.697-.098a9.832 9.832 0 01-1.082-.143 3.22 3.22 0 01-.741-.23 1.009 1.009 0 01-.4-.312.724.724 0 01-.124-.438c0-.165.035-.327.103-.477.075-.162.188-.303.33-.41.19-.142.405-.245.632-.307a3.764 3.764 0 011-.12 2.8 2.8 0 01.768.098 1.9 1.9 0 01.584.257c.15.097.278.226.373.378.088.146.138.311.146.482v.186h1.266v-.197a2.038 2.038 0 00-.227-.947 2.204 2.204 0 00-.638-.75 3.153 3.153 0 00-.979-.483 4.276 4.276 0 00-1.26-.17 5.35 5.35 0 00-1.557.197c-.384.11-.742.297-1.055.548-.262.213-.467.49-.594.805a2.401 2.401 0 00-.179.91 1.94 1.94 0 00.151.778c.095.207.229.393.395.547.165.161.358.291.568.384.21.1.429.181.654.24.229.067.462.116.698.149l.676.088c.373.043.724.098 1.049.17.267.053.527.142.773.262.18.081.338.205.46.362a.812.812 0 01.151.509 1.099 1.099 0 01-.573.959 3.593 3.593 0 01-1.893.394 2.67 2.67 0 01-.816-.12 2.444 2.444 0 01-.665-.33 1.563 1.563 0 01-.439-.448 1.004 1.004 0 01-.162-.499v-.192h-1.27v.198c.005.328.09.65.248.937.172.316.405.594.687.816.316.24.669.424 1.044.547.436.153.895.227 1.357.22a6.86 6.86 0 001.574-.165c.419-.09.819-.254 1.184-.482a2.26 2.26 0 00.762-.81c.181-.336.273-.714.265-1.096a1.927 1.927 0 00-.157-.81 1.923 1.923 0 00-.389-.554zm7.707 0a2.44 2.44 0 00-.595-.41 4.541 4.541 0 00-.687-.258 5.817 5.817 0 00-.719-.165l-.697-.098a9.8 9.8 0 01-1.082-.143 3.331 3.331 0 01-.741-.23 1.046 1.046 0 01-.4-.312.761.761 0 01-.119-.438 1.134 1.134 0 01.103-.477 1.04 1.04 0 01.33-.41c.189-.144.404-.248.632-.307.325-.086.66-.126.995-.12.259-.003.518.03.768.098.209.052.408.14.589.257.15.097.278.226.373.378a.976.976 0 01.141.482v.186h1.266v-.197a2.027 2.027 0 00-.228-.947 2.173 2.173 0 00-.632-.75 3.153 3.153 0 00-.979-.483 4.303 4.303 0 00-1.26-.17 5.35 5.35 0 00-1.557.197 3.041 3.041 0 00-1.082.548 2.055 2.055 0 00-.589.805 2.401 2.401 0 00-.179.91 1.94 1.94 0 00.146.778c.098.206.234.392.4.547.165.163.357.293.568.384.21.102.429.182.654.24.229.067.462.117.698.149l.671.088c.373.043.73.098 1.049.17.269.054.53.142.778.262.179.083.337.206.46.362a.812.812 0 01.151.509 1.099 1.099 0 01-.573.959 3.591 3.591 0 01-1.892.394 2.61 2.61 0 01-.817-.12 2.474 2.474 0 01-.67-.33 1.546 1.546 0 01-.438-.448.972.972 0 01-.157-.499v-.192h-1.271v.198c.003.329.088.65.249.937.17.317.403.595.686.816.316.24.669.424 1.044.547.435.153.892.227 1.352.22a6.847 6.847 0 001.573-.165c.422-.09.824-.253 1.19-.482.316-.203.578-.481.763-.81.177-.337.269-.714.265-1.096a2.029 2.029 0 00-.157-.81 1.957 1.957 0 00-.373-.554zm9.041-3.287a4.45 4.45 0 00-1.412-.899 4.811 4.811 0 00-3.488 0 4.446 4.446 0 00-1.4.899c-.4.38-.722.839-.947 1.347a4.214 4.214 0 000 3.33c.222.51.542.97.941 1.353a4.45 4.45 0 001.406.9 4.78 4.78 0 003.483 0 4.445 4.445 0 001.411-.9 4.163 4.163 0 001.282-3.018c0-.573-.116-1.14-.341-1.665a4.214 4.214 0 00-.935-1.347zm0 3.012a3.013 3.013 0 01-1.92 2.832 3.358 3.358 0 01-2.466 0 3.108 3.108 0 01-1.006-.64 3.036 3.036 0 01-.865-2.776 3.01 3.01 0 01.871-1.59c.287-.279.625-.498.995-.647a3.345 3.345 0 012.466 0c.371.149.711.368 1 .647a3.016 3.016 0 01.925 2.191v-.017zm4.763-2.213a3.142 3.142 0 011.006-.614 3.398 3.398 0 012.06-.109c.272.072.533.178.779.318.235.139.451.308.643.503.195.195.359.418.487.663l.054.104h1.325l-.108-.274a4.023 4.023 0 00-1.574-1.89 4.144 4.144 0 00-1.157-.547 4.812 4.812 0 00-3.083.142 4.445 4.445 0 00-1.4.899 4.168 4.168 0 00-.936 4.673c.222.508.54.967.936 1.352.407.39.884.697 1.406.904a4.559 4.559 0 001.741.329c.452.003.901-.06 1.336-.186.413-.126.806-.31 1.168-.548.348-.228.662-.507.93-.827.265-.316.478-.673.633-1.058l.108-.274h-1.325l-.059.105a2.98 2.98 0 01-.493.657 3.04 3.04 0 01-.649.504 3.369 3.369 0 01-2.822.208 3.09 3.09 0 01-1.006-.608 3.108 3.108 0 01-.698-.964 3.077 3.077 0 01-.216-1.864 3.054 3.054 0 01.908-1.636l.006.038zm9.408-1.807h-1.292v8.08h1.292v-8.08zm-1.269-2.767a.786.786 0 00-.254.58.786.786 0 00.254.587.866.866 0 00.622.236.935.935 0 00.633-.225.789.789 0 00.26-.59.795.795 0 00-.26-.588.954.954 0 00-1.255 0zm10.976 3.996a3.213 3.213 0 00-.297-.301 4.07 4.07 0 00-.833-.597 4.656 4.656 0 00-.995-.39 4.283 4.283 0 00-1.13-.141 4.467 4.467 0 00-1.736.328 4.318 4.318 0 00-1.39.882 4.228 4.228 0 00-1.179 2.194 4.263 4.263 0 00.255 2.484c.219.506.532.964.924 1.348.404.387.878.693 1.395.898a4.63 4.63 0 002.855.186c.346-.09.679-.221.995-.389.3-.162.58-.36.833-.591.108-.093.209-.194.303-.301l.054 1.221h1.174V66.98h-1.174l-.054 1.227zm-.946.63c.288.274.52.604.681.97a3.082 3.082 0 010 2.427 2.98 2.98 0 01-.676.975 3.228 3.228 0 01-1.011.646 3.436 3.436 0 01-2.471 0 3.118 3.118 0 01-1.006-.646 3.052 3.052 0 01-.866-1.594 3.079 3.079 0 01.19-1.808 3.02 3.02 0 01.671-.97 3.217 3.217 0 012.244-.882 3.212 3.212 0 012.244.882zm7.323 5.119a1.215 1.215 0 01-.541-.307 1.607 1.607 0 01-.373-.613 3.12 3.12 0 01-.146-1.047v-3.834h3.006v-1.178h-2.963v-2.279h-1.082l-.21 2.236-1.444.13v1.097h1.444v3.834a4.372 4.372 0 00.216 1.485c.124.38.336.725.616 1.007.265.256.585.444.936.548a3.8 3.8 0 001.136.165h1.665v-1.145h-1.622c-.216 0-.432-.034-.638-.099zm5.342-6.978h-1.293v8.08h1.293v-8.08zm-1.27-2.763a.787.787 0 00-.192.903.866.866 0 00.814.499.916.916 0 00.627-.225.768.768 0 00.265-.597.775.775 0 00-.259-.58.946.946 0 00-1.255 0zm10.93 3.771a4.504 4.504 0 00-1.412-.899 4.811 4.811 0 00-3.488 0 4.446 4.446 0 00-1.4.899 4.21 4.21 0 00-.947 1.347 4.107 4.107 0 00.006 3.287c.221.51.541.97.941 1.353.408.386.885.691 1.406.898a4.774 4.774 0 003.482 0 4.461 4.461 0 001.412-.898c.399-.383.719-.843.94-1.353a4.232 4.232 0 000-3.33 4.205 4.205 0 00-.94-1.304zm0 3.012a2.986 2.986 0 01-.914 2.191 3.14 3.14 0 01-1.001.641 3.358 3.358 0 01-2.466 0 3.042 3.042 0 01-1.693-1.64 3.05 3.05 0 01.688-3.383 3.1 3.1 0 011-.646c.392-.16.81-.24 1.233-.236.42-.005.838.075 1.227.236.373.148.715.367 1.006.646.296.28.53.62.688.998.158.377.237.783.232 1.193zm10.04-3.254a3.768 3.768 0 00-2.812-.97 3.908 3.908 0 00-.99.121 4.5 4.5 0 00-.897.34 3.985 3.985 0 00-.763.548 3.718 3.718 0 00-.249.24l-.064-1.018h-1.141v8.08h1.281v-4.36a2.833 2.833 0 01.216-1.13c.137-.325.338-.62.59-.865.249-.236.541-.422.86-.547.334-.133.69-.2 1.049-.198a2.623 2.623 0 011.914.647 2.84 2.84 0 01.654 2.087V75.1h1.298v-4.382a4.036 4.036 0 00-.946-2.975zM84.733 49.305h-1.568v25.96h1.568v-25.96z" fill="#202020"/><path fill-rule="evenodd" clip-rule="evenodd" d="M34.15.608l36.56.12-.103 36.73c-3.158 7.423-13.438 7.554-18.316 12.325-4.931-4.755-15.725-5.68-18.25-12.473L34.149.608z" fill="#FFC700"/><path fill-rule="evenodd" clip-rule="evenodd" d="M34.15.58h36.561l-.065 22.662-36.56-.115L34.15.58z" fill="#005DD4"/><path fill-rule="evenodd" clip-rule="evenodd" d="M37.5 32.534l-.005.383v1.085l-.005 1.638-.006 2.065-.005 2.377-.01 2.548-.006 2.585-.006 2.498-.01 2.284-.006 1.934v1.463l-.005.86-.027.696-.103 1.046-.244 1.342-.448 1.594-.708 1.808-1.023 1.96-1.4 2.077-1.823 2.158-2.33 2.175-2.872 2.158-3.487 2.093-4.154 1.988-4.142-2.016-3.477-2.109-2.86-2.18-2.32-2.191-1.812-2.17-1.39-2.086-1.005-1.967-.698-1.813-.443-1.6-.233-1.342-.097-1.04-.022-.702v-.86l.006-1.463.005-1.933.006-2.285.01-2.497.006-2.586.005-2.547.006-2.378.01-2.065.006-1.637v-1.469l3.077-.668 3.077-.553 3.082-.411 3.077-.307 3.098-.175 3.088-.055 3.082.077 3.104.197 3.093.323 3.115.433 3.11.575 3.12.685z" fill="#DB2517"/><path fill-rule="evenodd" clip-rule="evenodd" d="M56.173 19.233v6.048a.786.786 0 01.656.156.808.808 0 01.302.61c0 .784-1.028.778-1.028.778a15.705 15.705 0 01-1.654-3.648l-.033-.12a10.935 10.935 0 01-.454-3.051c0-3.594.286-5.424.292-6.475.005-1.052-.438-5.358-1.422-6.892a.347.347 0 00-.044-.076l-.08-.137-.033-.05a1.007 1.007 0 00-.119-.175s-.054.071-.108.17a.857.857 0 01-.065.115l-.06.099c-1 1.533-1.438 5.834-1.443 6.885-.006 1.052.254 2.882.243 6.475a11.213 11.213 0 01-.509 3.166 15.21 15.21 0 01-1.67 3.643s-1.044 0-1.012-.783a.8.8 0 01.3-.554.777.777 0 01.604-.158v-6.037c0-7.598-5.803-9.592-5.803-9.592l-.038 13.525-.032 10.107h5.575A13.424 13.424 0 0050.209 36a7.234 7.234 0 011.757 3.473c.065.34.136.482.465.487.33.006.411-.148.476-.482a7.151 7.151 0 011.774-3.462 13.163 13.163 0 001.709-2.739h5.553l.027-10.106.038-13.52s-5.802 2-5.835 9.581zm-10.96-5.15s1.081.844 1.621 3.797c.374 2.13.05 5.763.05 5.763-.51.284-.94.695-1.25 1.194a1.283 1.283 0 00-.178.422h-.276l.032-11.175zm3 16.654v.597h-3.049v-3.988h.227c.043.06.135.203.178.257.833 1.408 2.64 1.556 2.64 1.556l.005 1.578zm2.164 0V29.64c1.119.077 1.081 1.693 1.081 1.693h-1.081v-.597zm1.2 3.796a2.182 2.182 0 01-1.081-1.25h1.081v1.25zm.898-6.026c0-.29-.54-.64-.941-1.002-.4-.362-.34-.197-.27-.625.07-.427 1.221-2.739 1.221-2.947 0 .214 1.158 2.53 1.223 2.958.064.427.124.269-.27.625-.395.356-.958.717-.958 1.03l-.005-.039zm.87 6.026v-1.244h1.082a2.183 2.183 0 01-1.076 1.238l-.005.006zm1.239-3.796v.597h-1.082s0-1.644 1.082-1.688v1.09zm5.196.613h-3.033v-2.19s1.811-.137 2.65-1.54c0-.054.118-.197.15-.257h.244l-.01 3.988zm0-6.026h-.275a1.198 1.198 0 00-.174-.421 3.469 3.469 0 00-1.227-1.2s-.32-3.637.08-5.763c.542-2.952 1.623-3.785 1.623-3.785l-.027 11.17z" fill="#fff"/><path d="M32.369 47.25h-9.55v-9.674h-7.646v9.674h-9.55v7.752h9.55v9.673h7.646v-9.673h9.55V47.25z" fill="#fff"/></g><defs><clipPath id="clip0_2395_1580"><path fill="#fff" transform="translate(0 .5)" d="M0 0h248.214v75H0z"/></clipPath></defs></svg>