<svg width="249" height="76" viewBox="0 0 249 76" fill="none" xmlns="http://www.w3.org/2000/svg">
<g clip-path="url(#clip0_2395_1580)">
<path d="M103.591 0.608398H110.853V20.8766C110.873 22.7306 110.542 24.5713 109.88 26.2997C109.26 27.9087 108.32 29.3708 107.116 30.5944C105.883 31.8283 104.41 32.789 102.79 33.4155C100.992 34.1099 99.0801 34.4519 97.1559 34.4234C95.3127 34.44 93.4814 34.1228 91.7484 33.4867C90.1305 32.8972 88.6488 31.9781 87.3953 30.7861C86.1465 29.5833 85.1596 28.1299 84.4966 26.5188C83.7885 24.7261 83.4447 22.8071 83.4857 20.8766V0.608398H90.7208V20.9149C90.7149 21.845 90.8574 22.7699 91.1428 23.6539C91.4032 24.4624 91.8245 25.2081 92.3811 25.845C92.9387 26.4771 93.6274 26.9765 94.3981 27.3077C96.1679 28.0074 98.1328 28.0074 99.903 27.3077C100.672 26.9748 101.361 26.4756 101.92 25.845C102.477 25.2069 102.902 24.4618 103.169 23.6539C103.457 22.7704 103.599 21.8451 103.591 20.9149V0.608398Z" fill="#202020"/>
<path d="M123.442 23.6151C123.424 24.2318 123.555 24.8437 123.824 25.3974C124.093 25.9512 124.491 26.43 124.984 26.7923C126.011 27.5811 127.466 27.981 129.342 27.981C130.219 27.9943 131.095 27.9098 131.954 27.7289C132.571 27.604 133.161 27.3664 133.695 27.0278C134.116 26.7611 134.457 26.382 134.68 25.9322C134.896 25.4686 135.003 24.9604 134.993 24.4477C135.023 23.7838 134.843 23.1274 134.479 22.5743C134.092 22.0509 133.58 21.6346 132.992 21.3637C132.242 21.0101 131.462 20.7241 130.662 20.5091C129.742 20.2571 128.702 19.9577 127.541 19.6107C127.001 19.4519 126.33 19.2766 125.611 19.0629C124.866 18.8648 124.131 18.6271 123.41 18.3508C122.664 18.0622 121.941 17.7161 121.247 17.3155C120.545 16.9186 119.906 16.4183 119.349 15.831C118.779 15.2292 118.324 14.5252 118.008 13.7549C117.655 12.8621 117.484 11.9062 117.505 10.9447C117.482 9.45053 117.731 7.96489 118.24 6.56239C118.719 5.2943 119.499 4.16539 120.512 3.27566C121.646 2.31351 122.972 1.61093 124.4 1.21597C126.229 0.705985 128.121 0.466137 130.018 0.503844C131.629 0.476601 133.234 0.72096 134.766 1.22693C136.058 1.68062 137.242 2.40268 138.243 3.34687C139.195 4.2394 139.934 5.33877 140.406 6.56239C140.912 7.90669 141.162 9.3362 141.141 10.7749H134.031C134.031 10.302 133.948 9.83285 133.787 9.38898C133.625 8.92662 133.352 8.51243 132.992 8.18384C132.573 7.81553 132.083 7.53778 131.554 7.36764C130.855 7.14377 130.124 7.03827 129.391 7.05539C128.597 7.03655 127.804 7.125 127.033 7.31835C126.502 7.45106 126.002 7.69349 125.568 8.03046C125.235 8.29813 124.978 8.64947 124.822 9.04937C124.682 9.42211 124.611 9.81746 124.611 10.2161C124.604 10.7401 124.782 11.2493 125.114 11.6513C125.496 12.0905 125.963 12.4449 126.487 12.6921C127.144 13.0147 127.833 13.2663 128.542 13.4426C129.331 13.6453 130.164 13.837 131.11 13.9904C132.192 14.2588 133.176 14.5382 134.139 14.845C135.053 15.1246 135.946 15.4725 136.81 15.8858C137.593 16.2615 138.337 16.7148 139.032 17.2388C139.689 17.7408 140.262 18.3455 140.731 19.0301C141.212 19.7538 141.577 20.5508 141.812 21.3911C142.078 22.3815 142.206 23.4049 142.191 24.4313C142.234 25.8813 141.921 27.3196 141.28 28.617C140.639 29.9144 139.69 31.0304 138.519 31.8648C137.275 32.7542 135.88 33.4024 134.404 33.7766C132.715 34.2168 130.978 34.4323 129.234 34.4175C127.211 34.4793 125.194 34.1598 123.286 33.4753C121.809 32.9262 120.459 32.0739 119.322 30.9719C118.332 29.9948 117.569 28.8065 117.089 27.4934C116.627 26.2462 116.389 24.9253 116.386 23.5931L123.442 23.6151Z" fill="#202020"/>
<path d="M147.695 34.4389V0.607479H161.879C163.317 0.589588 164.748 0.804094 166.119 1.24291C167.313 1.62613 168.417 2.25247 169.363 3.08348C170.267 3.89859 170.976 4.91224 171.435 6.04703C171.94 7.32439 172.189 8.69158 172.164 10.0678C172.163 10.7687 172.055 11.4651 171.845 12.1329C171.644 12.7946 171.36 13.4277 171.002 14.0174C170.655 14.5666 170.239 15.0675 169.763 15.5074C169.337 15.922 168.841 16.2559 168.298 16.4934C169.071 16.7819 169.799 17.1803 170.461 17.6766C171.139 18.1812 171.744 18.7806 172.256 19.4569C172.777 20.1435 173.187 20.9089 173.473 21.7247C173.773 22.5622 173.925 23.4468 173.922 24.3377C173.968 25.9426 173.646 27.5365 172.981 28.9939C172.408 30.2087 171.57 31.2762 170.531 32.1163C169.512 32.9288 168.346 33.53 167.097 33.8857C165.833 34.2522 164.525 34.4366 163.209 34.4334L147.695 34.4389ZM155.103 14.1707H161.431C161.827 14.1697 162.219 14.0858 162.582 13.9242C162.959 13.753 163.3 13.5114 163.588 13.2121C163.895 12.8944 164.142 12.5232 164.318 12.1165C164.509 11.6591 164.604 11.1669 164.599 10.6704C164.603 10.1804 164.511 9.69446 164.329 9.24063C164.158 8.82327 163.916 8.4395 163.615 8.10672C163.326 7.80077 162.983 7.55186 162.604 7.37267C162.245 7.20094 161.854 7.11115 161.458 7.10974H155.103V14.1707ZM162.463 27.9421C162.892 27.9361 163.316 27.8565 163.718 27.7066C164.169 27.5434 164.586 27.2984 164.951 26.9835C165.34 26.6398 165.659 26.2208 165.886 25.751C166.147 25.1994 166.275 24.593 166.259 23.9816C166.267 23.4314 166.164 22.8852 165.956 22.3766C165.762 21.92 165.483 21.5053 165.135 21.1551C164.788 20.8149 164.378 20.5485 163.929 20.3717C163.461 20.1889 162.964 20.096 162.463 20.0978H155.103V27.9421H162.463Z" fill="#202020"/>
<path d="M186.773 34.4384H179.462L179.554 0.557617H187.292L210.257 34.4384H201.633L198.118 29.2344H186.762L186.773 34.4384ZM188.103 13.9511L186.773 11.7599V23.6141H194.273L188.103 13.9511Z" fill="#202020"/>
<path d="M96.2215 56.1995C96.2254 56.6234 96.1537 57.0446 96.0109 57.4432C95.8732 57.8252 95.6577 58.1734 95.3782 58.465C95.0987 58.7565 94.7615 58.9854 94.3884 59.1358C93.5315 59.4752 92.5797 59.4752 91.7227 59.1358C91.3511 58.9766 91.0163 58.7418 90.7386 58.4456C90.4719 58.1499 90.2661 57.8037 90.133 57.4266C89.9908 57.0263 89.9192 56.6034 89.922 56.1777V49.6699H88.6242V56.1886C88.6183 56.8087 88.7358 57.4234 88.9701 57.9963C89.1885 58.5192 89.5104 58.991 89.9164 59.3822C90.3245 59.771 90.8043 60.0741 91.3278 60.2752C91.8861 60.4868 92.4782 60.5925 93.0744 60.5875C93.6747 60.5942 94.2709 60.4865 94.832 60.2696C95.3559 60.0703 95.8343 59.7643 96.2379 59.3713C96.6415 58.978 96.9599 58.5044 97.1734 57.9798C97.4052 57.4122 97.5214 56.803 97.5141 56.1886V49.6699H96.2215V56.1995Z" fill="#202020"/>
<path d="M106.76 52.3086H105.159L100.968 56.8445V49.3125H99.6865V60.3886H100.968V58.4822L102.661 56.6967L105.354 60.3886H106.938L103.575 55.8037L106.76 52.3086Z" fill="#202020"/>
<path d="M109.2 56.305C109.192 55.8864 109.264 55.4698 109.411 55.0779C109.526 54.7512 109.711 54.454 109.951 54.2071C110.198 53.9638 110.493 53.7769 110.817 53.6593C111.183 53.5357 111.567 53.4744 111.952 53.4786H112.942V52.2843H111.92C111.574 52.2821 111.229 52.3209 110.892 52.3994C110.589 52.473 110.295 52.5814 110.016 52.7226C109.756 52.8557 109.516 53.0255 109.302 53.2265L109.108 53.4237L109.037 52.2843H107.896V60.3642H109.2V56.305Z" fill="#202020"/>
<path d="M121.349 59.1656L121.403 60.3871H122.576V52.3072H121.403L121.349 53.5343C121.255 53.4287 121.156 53.3279 121.052 53.2332C120.8 52.9994 120.52 52.7987 120.219 52.636C119.902 52.4656 119.566 52.335 119.219 52.247C118.85 52.1487 118.47 52.1008 118.088 52.1047C117.494 52.0998 116.905 52.2114 116.353 52.4332C115.838 52.6427 115.367 52.9473 114.963 53.3318C114.569 53.7163 114.255 54.1762 114.038 54.6846C113.815 55.2107 113.7 55.7776 113.7 56.3501C113.7 56.9227 113.815 57.4892 114.038 58.0153C114.256 58.5213 114.571 58.9794 114.963 59.3628C115.365 59.7491 115.837 60.054 116.353 60.2611C116.903 60.4846 117.49 60.5984 118.083 60.5952C118.823 60.5896 119.55 60.4015 120.203 60.0477C120.506 59.8875 120.788 59.6885 121.041 59.4558C121.149 59.3649 121.252 59.2677 121.349 59.1656ZM121.349 56.3445C121.352 56.7691 121.266 57.1892 121.095 57.5769C120.936 57.9459 120.704 58.278 120.413 58.5522C120.119 58.829 119.776 59.0484 119.403 59.1984C118.608 59.5051 117.731 59.5051 116.937 59.1984C116.562 59.0505 116.218 58.8308 115.925 58.5522C115.641 58.2744 115.413 57.9434 115.255 57.5769C115.091 57.1941 115.006 56.7811 115.006 56.3635C115.006 55.9463 115.091 55.5332 115.255 55.1505C115.411 54.7846 115.64 54.4547 115.925 54.1808C116.216 53.9008 116.557 53.6811 116.931 53.5343C117.325 53.3744 117.745 53.2945 118.169 53.2987C118.592 53.2941 119.011 53.3744 119.403 53.5343C119.777 53.6825 120.12 53.9019 120.413 54.1808C120.699 54.4565 120.928 54.7857 121.09 55.1505C121.253 55.5262 121.336 55.9336 121.333 56.3445H121.349Z" fill="#202020"/>
<path d="M126.349 52.3086H125.057V60.3885H126.349V52.3086Z" fill="#202020"/>
<path d="M125.702 50.9449C125.933 50.9502 126.158 50.8706 126.335 50.7203C126.417 50.6463 126.482 50.5555 126.528 50.4541C126.572 50.3527 126.595 50.2428 126.595 50.1315C126.595 50.0203 126.572 49.9104 126.528 49.8086C126.482 49.7072 126.417 49.6167 126.335 49.5424C126.161 49.3886 125.938 49.3037 125.707 49.3037C125.477 49.3037 125.254 49.3886 125.08 49.5424C125.001 49.6164 124.937 49.7058 124.893 49.8058C124.849 49.9058 124.827 50.0139 124.826 50.1231C124.825 50.2336 124.847 50.3428 124.891 50.4439C124.935 50.5449 124.999 50.6354 125.08 50.7093C125.249 50.8671 125.472 50.9516 125.702 50.9449Z" fill="#202020"/>
<path d="M130.292 56.0332C130.286 55.6459 130.36 55.2617 130.508 54.9047C130.643 54.579 130.842 54.2846 131.092 54.0392C131.343 53.8019 131.637 53.6156 131.957 53.4913C132.291 53.3579 132.647 53.2906 133.007 53.2941C133.704 53.2473 134.391 53.4793 134.921 53.9406C135.16 54.2276 135.342 54.5596 135.454 54.9177C135.566 55.2762 135.607 55.6533 135.575 56.0276V60.41H136.873V56.0276C136.913 55.5008 136.85 54.9712 136.688 54.4695C136.525 53.9674 136.267 53.5029 135.927 53.1026C135.547 52.7572 135.102 52.4931 134.619 52.3265C134.135 52.16 133.624 52.0941 133.115 52.1329C132.779 52.1311 132.445 52.1716 132.12 52.2533C131.808 52.3329 131.507 52.4487 131.222 52.5983C130.951 52.7392 130.696 52.9121 130.465 53.1135C130.373 53.1899 130.292 53.2723 130.211 53.3543L130.146 52.3357H129.005V60.4153H130.292V56.0332Z" fill="#202020"/>
<path d="M139.622 50.9431C139.852 50.9494 140.075 50.8695 140.249 50.7184C140.332 50.6448 140.399 50.5543 140.444 50.4526C140.489 50.3512 140.513 50.241 140.513 50.1293C140.513 50.0181 140.489 49.9079 140.444 49.8061C140.399 49.7047 140.332 49.6142 140.249 49.5406C140.074 49.3881 139.851 49.3047 139.619 49.3047C139.389 49.3047 139.165 49.3881 138.99 49.5406C138.91 49.6142 138.846 49.704 138.802 49.804C138.758 49.904 138.736 50.0121 138.735 50.1212C138.734 50.2322 138.756 50.342 138.801 50.4434C138.846 50.5448 138.912 50.6346 138.995 50.7075C139.079 50.7871 139.177 50.8491 139.285 50.8895C139.393 50.93 139.508 50.948 139.622 50.9431Z" fill="#202020"/>
<path d="M140.261 52.3086H138.969V60.3885H140.261V52.3086Z" fill="#202020"/>
<path d="M148.836 60.0586C149.138 59.897 149.42 59.6984 149.675 59.467C149.779 59.372 149.878 59.2716 149.972 59.1656L150.026 60.3871H151.199V52.3072H150.026L149.972 53.5343C149.88 53.4287 149.783 53.328 149.68 53.2332C149.426 53.0019 149.147 52.8012 148.847 52.6361C148.53 52.4656 148.195 52.335 147.847 52.247C147.478 52.1487 147.098 52.1008 146.716 52.1047C146.122 52.0987 145.533 52.2104 144.981 52.4332C144.466 52.6427 143.995 52.9473 143.591 53.3318C142.987 53.9255 142.575 54.6917 142.411 55.5283C142.247 56.3649 142.338 57.2325 142.672 58.0153C142.89 58.5213 143.204 58.9794 143.596 59.3628C144 59.7484 144.471 60.0533 144.986 60.2611C145.536 60.485 146.124 60.5984 146.716 60.5952C147.096 60.597 147.474 60.547 147.841 60.4473C148.187 60.3593 148.521 60.2287 148.836 60.0586ZM149.955 56.3445C149.96 56.7628 149.877 57.1773 149.712 57.5607C149.552 57.9287 149.32 58.26 149.031 58.5357C148.736 58.8128 148.393 59.0318 148.02 59.1822C147.224 59.4885 146.344 59.4885 145.548 59.1822C145.177 59.0315 144.836 58.8121 144.543 58.5357C144.26 58.2618 144.031 57.9368 143.867 57.5769C143.619 57.0097 143.551 56.3783 143.672 55.7702C143.793 55.1621 144.097 54.6068 144.543 54.1808C144.833 53.9008 145.175 53.6811 145.548 53.5343C146.343 53.2206 147.225 53.2206 148.02 53.5343C148.394 53.6839 148.737 53.903 149.031 54.1808C149.316 54.4565 149.546 54.7857 149.707 55.1505C149.873 55.5259 149.957 55.9329 149.955 56.3445Z" fill="#202020"/>
<path d="M159.591 53.9299C159.831 54.2168 160.012 54.5489 160.124 54.907C160.236 55.2654 160.277 55.6425 160.245 56.0168V60.3992H161.543V56.0168C161.584 55.4901 161.521 54.9605 161.358 54.4587C161.196 53.9566 160.937 53.4922 160.597 53.0918C160.217 52.7464 159.772 52.4823 159.289 52.3158C158.806 52.1492 158.294 52.0834 157.785 52.1221C157.452 52.12 157.119 52.1605 156.796 52.2425C156.484 52.3211 156.182 52.4369 155.898 52.5876C155.624 52.727 155.368 52.8999 155.135 53.1027L154.881 53.3436L154.816 52.3249H153.681V60.4045H154.962V56.0496C154.957 55.6626 155.03 55.2781 155.179 54.9214C155.314 54.5957 155.512 54.3013 155.763 54.0559C156.013 53.8175 156.307 53.6316 156.628 53.508C156.962 53.3749 157.318 53.308 157.677 53.3108C158.37 53.2538 159.058 53.4763 159.591 53.9299Z" fill="#202020"/>
<path d="M167.381 55.9561H163.104V57.1117H167.381V55.9561Z" fill="#202020"/>
<path d="M176.698 58.7293C176.908 58.3107 177.014 57.8462 177.006 57.3765C177.014 57.0209 176.953 56.6677 176.828 56.3357C176.718 56.0459 176.555 55.78 176.346 55.5522C176.145 55.3343 175.912 55.1494 175.654 55.0043C175.394 54.8575 175.121 54.7364 174.838 54.6431C174.554 54.5438 174.263 54.467 173.967 54.4128C173.675 54.3526 173.394 54.3089 173.113 54.2649C172.653 54.2156 172.226 54.1554 171.842 54.0786C171.511 54.0198 171.189 53.9167 170.885 53.7719C170.655 53.6614 170.454 53.4959 170.301 53.2899C170.164 53.0832 170.095 52.8374 170.106 52.5888C170.107 52.3512 170.149 52.1159 170.231 51.8931C170.316 51.6579 170.459 51.4487 170.647 51.285C170.887 51.0832 171.165 50.9321 171.463 50.8413C171.892 50.7142 172.337 50.655 172.783 50.6659C173.13 50.6624 173.475 50.7064 173.81 50.7976C174.091 50.8698 174.355 50.9962 174.589 51.1698C174.791 51.3135 174.959 51.5005 175.081 51.7177C175.193 51.9476 175.25 52.2008 175.249 52.4571V52.649H176.557V52.4462C176.559 52.0297 176.469 51.6177 176.292 51.2413C176.115 50.8677 175.856 50.5399 175.535 50.2825C175.189 50.0008 174.792 49.7888 174.367 49.6582C173.873 49.5033 173.359 49.4276 172.842 49.4336C172.207 49.417 171.572 49.5079 170.966 49.7019C170.505 49.8512 170.078 50.0934 169.711 50.4142C169.4 50.6998 169.161 51.0568 169.014 51.4547C168.878 51.8321 168.808 52.2307 168.808 52.6325C168.801 52.9652 168.863 53.2959 168.992 53.6022C169.109 53.8645 169.277 54.1008 169.484 54.298C169.695 54.4895 169.934 54.6469 170.193 54.7635C170.456 54.8846 170.729 54.9818 171.009 55.0536C171.294 55.1297 171.583 55.1902 171.874 55.2346C172.166 55.2783 172.442 55.3167 172.702 55.3441C173.118 55.4043 173.529 55.4811 173.908 55.5741C174.241 55.6561 174.563 55.7811 174.865 55.9466C175.111 56.0878 175.322 56.2846 175.481 56.5219C175.636 56.7705 175.711 57.061 175.698 57.3547C175.714 57.6498 175.651 57.9441 175.516 58.2064C175.381 58.4688 175.178 58.6892 174.93 58.8445C174.203 59.2487 173.378 59.4385 172.55 59.3924C171.842 59.3966 171.151 59.1638 170.587 58.7293C170.351 58.5395 170.152 58.3075 169.998 58.0448C169.861 57.8149 169.788 57.5519 169.787 57.2832V57.086H168.489V57.2832C168.491 57.7061 168.591 58.1226 168.781 58.4994C168.98 58.9054 169.258 59.2667 169.598 59.5621C169.976 59.8857 170.408 60.1381 170.874 60.3071C171.407 60.5054 171.972 60.6036 172.54 60.5973C173.172 60.604 173.802 60.5304 174.416 60.3783C174.916 60.2557 175.391 60.0424 175.816 59.7483C176.187 59.486 176.49 59.1364 176.698 58.7293Z" fill="#202020"/>
<path d="M187.274 60.3885L190.329 52.3086H188.939L186.646 58.5206L184.489 52.5276L184.445 52.3963H183.45L181.255 58.5315L178.962 52.3086H177.578L180.628 60.3885H181.758L183.948 54.4339L186.144 60.3885H187.274Z" fill="#202020"/>
<path d="M191.64 49.5399C191.56 49.6135 191.496 49.7033 191.453 49.8033C191.409 49.9033 191.386 50.0114 191.386 50.1205C191.384 50.2314 191.407 50.3417 191.452 50.4427C191.496 50.5441 191.562 50.6343 191.645 50.7068C191.728 50.786 191.826 50.8473 191.933 50.8878C192.04 50.9283 192.153 50.9469 192.267 50.9424C192.497 50.9491 192.72 50.8688 192.894 50.7177C192.977 50.6441 193.043 50.5536 193.089 50.4522C193.134 50.3505 193.158 50.2403 193.158 50.129C193.158 50.0174 193.134 49.9072 193.089 49.8057C193.043 49.704 192.977 49.6135 192.894 49.5399C192.72 49.3881 192.497 49.3047 192.267 49.3047C192.037 49.3047 191.814 49.3881 191.64 49.5399Z" fill="#202020"/>
<path d="M192.913 52.3086H191.62V60.3885H192.913V52.3086Z" fill="#202020"/>
<path d="M195.624 59.7947C195.938 60.0366 196.291 60.2222 196.667 60.3426C197.102 60.4965 197.559 60.5725 198.019 60.5673C198.548 60.5718 199.076 60.5148 199.593 60.3975C200.014 60.3074 200.416 60.1444 200.782 59.9155C201.1 59.7141 201.362 59.4352 201.545 59.1046C201.726 58.769 201.817 58.3916 201.81 58.0092C201.814 57.7306 201.76 57.4546 201.653 57.1982C201.553 56.9725 201.412 56.7683 201.236 56.5958C201.06 56.4289 200.86 56.2902 200.642 56.1849C200.42 56.0796 200.191 55.9937 199.955 55.9275C199.719 55.8571 199.479 55.8021 199.236 55.763L198.544 55.6644C198.181 55.6387 197.82 55.5912 197.462 55.5222C197.207 55.474 196.959 55.3968 196.721 55.2919C196.564 55.2239 196.428 55.1141 196.326 54.9743C196.238 54.8482 196.194 54.6958 196.202 54.5416C196.202 54.3771 196.237 54.2144 196.305 54.0648C196.38 53.9028 196.493 53.7616 196.635 53.6542C196.826 53.5155 197.04 53.4116 197.268 53.3472C197.594 53.262 197.93 53.2211 198.268 53.2268C198.525 53.2243 198.782 53.2578 199.03 53.3254C199.24 53.3768 199.439 53.4641 199.62 53.5828C199.77 53.6799 199.897 53.8088 199.993 53.9609C200.08 54.107 200.13 54.2725 200.139 54.443V54.6292H201.404V54.4321C201.405 54.1014 201.325 53.7761 201.172 53.4842C201.031 53.2014 200.832 52.9532 200.588 52.7556C200.293 52.5359 199.961 52.3725 199.609 52.2736C199.199 52.1546 198.775 52.0972 198.349 52.1039C197.823 52.0919 197.298 52.1602 196.792 52.3067C196.407 52.4155 196.049 52.6021 195.737 52.8542C195.475 53.0676 195.27 53.3447 195.142 53.6595C195.025 53.9483 194.965 54.2571 194.964 54.569C194.957 54.8363 195.009 55.1018 195.115 55.3468C195.209 55.5546 195.343 55.7409 195.51 55.8947C195.674 56.0567 195.867 56.1866 196.078 56.2782C196.288 56.3796 196.507 56.4602 196.732 56.519C196.961 56.5852 197.194 56.6345 197.43 56.6669L198.106 56.7546C198.458 56.7933 198.808 56.85 199.155 56.9243C199.423 56.9778 199.683 57.0662 199.928 57.1873C200.107 57.2697 200.265 57.3937 200.388 57.549C200.494 57.6965 200.547 57.8761 200.539 58.0585C200.537 58.2556 200.484 58.449 200.383 58.6176C200.282 58.7863 200.138 58.9243 199.966 59.0169C199.382 59.319 198.728 59.4553 198.073 59.4113C197.797 59.4148 197.521 59.3743 197.257 59.2909C197.019 59.2173 196.795 59.1063 196.592 58.9623C196.415 58.844 196.265 58.6912 196.148 58.513C196.052 58.3644 195.998 58.1923 195.991 58.0144V57.8229H194.721V58.0201C194.726 58.35 194.811 58.6736 194.969 58.9623C195.131 59.281 195.353 59.5641 195.624 59.7947Z" fill="#202020"/>
<path d="M209.24 59.1337C209.418 58.7967 209.509 58.4199 209.505 58.0379C209.509 57.7597 209.455 57.4833 209.348 57.2273C209.248 57.0016 209.107 56.7971 208.931 56.6245C208.753 56.4601 208.553 56.3217 208.337 56.214C208.115 56.1094 207.885 56.0235 207.65 55.9562C207.414 55.8872 207.173 55.8323 206.931 55.7921L206.233 55.6935C205.87 55.6682 205.509 55.6206 205.152 55.5509C204.897 55.5045 204.648 55.4273 204.411 55.321C204.253 55.2516 204.115 55.1421 204.011 55.003C203.925 54.8759 203.881 54.7245 203.886 54.5703C203.888 54.4055 203.925 54.2432 203.995 54.0939C204.068 53.9323 204.179 53.7914 204.319 53.683C204.513 53.5446 204.728 53.4407 204.957 53.3763C205.282 53.2911 205.617 53.2506 205.952 53.2559C206.211 53.2534 206.469 53.2865 206.72 53.3544C206.929 53.4066 207.128 53.4939 207.309 53.6118C207.459 53.709 207.587 53.8379 207.682 53.9897C207.77 54.1351 207.819 54.3013 207.823 54.4717V54.658H209.088V54.4608C209.091 54.1309 209.013 53.8055 208.861 53.5133C208.705 53.2189 208.487 52.9626 208.223 52.7629C207.931 52.5432 207.601 52.3798 207.25 52.2809C206.84 52.1625 206.416 52.1052 205.99 52.1108C205.462 52.0985 204.935 52.1668 204.427 52.3136C204.043 52.4238 203.685 52.6101 203.373 52.8615C203.11 53.0745 202.906 53.3516 202.778 53.6664C202.665 53.9562 202.606 54.2647 202.605 54.5759C202.599 54.8428 202.649 55.1076 202.751 55.3537C202.848 55.5597 202.982 55.7453 203.146 55.9016C203.313 56.0626 203.507 56.1925 203.719 56.2851C203.927 56.3865 204.144 56.4671 204.368 56.5259C204.598 56.5921 204.833 56.6414 205.07 56.6738L205.741 56.7615C206.093 56.8002 206.444 56.8569 206.79 56.9316C207.06 56.984 207.322 57.0724 207.569 57.1942C207.747 57.2784 207.904 57.402 208.029 57.5559C208.132 57.7045 208.185 57.8833 208.18 58.0654C208.178 58.2633 208.123 58.4566 208.021 58.6256C207.919 58.7942 207.774 58.9319 207.601 59.0238C207.018 59.327 206.363 59.4636 205.709 59.4185C205.434 59.4214 205.16 59.3809 204.897 59.2978C204.659 59.2242 204.433 59.1133 204.227 58.9692C204.054 58.8495 203.905 58.6971 203.789 58.5199C203.69 58.3728 203.636 58.1995 203.632 58.0213V57.8298H202.361V58.027C202.365 58.3573 202.45 58.6812 202.61 58.9692C202.781 59.283 203.013 59.5587 203.292 59.7798C203.607 60.0196 203.96 60.2048 204.335 60.3277C204.771 60.4816 205.231 60.5576 205.692 60.5523C206.221 60.5562 206.75 60.4992 207.266 60.3826C207.687 60.2925 208.09 60.1295 208.456 59.9006C208.773 59.7111 209.042 59.4481 209.24 59.1337Z" fill="#202020"/>
<path d="M96.5248 70.2372C96.3229 69.9908 96.084 69.7781 95.8167 69.6073C95.6776 69.5158 95.5309 69.4372 95.3787 69.3717L95.5949 69.2073C95.7844 69.0485 95.9519 68.8644 96.0924 68.6594C96.2335 68.4489 96.343 68.2182 96.4167 67.9749C96.497 67.7274 96.537 67.4682 96.5356 67.208C96.5408 66.8154 96.4616 66.4267 96.3034 66.0686C96.1515 65.7263 95.9325 65.4186 95.6596 65.1647C95.379 64.9055 95.0526 64.7031 94.6973 64.5675C94.3159 64.4277 93.913 64.3573 93.5077 64.3594H88.8896V75.0686H93.9457C94.3604 75.0714 94.7724 74.9989 95.1621 74.8552C95.5389 74.7182 95.8873 74.5122 96.1897 74.2471C96.4849 73.9749 96.7254 73.6474 96.8982 73.283C97.0769 72.8879 97.1676 72.4577 97.1631 72.0232C97.1638 71.6953 97.105 71.3703 96.99 71.0644C96.8805 70.7651 96.7233 70.4855 96.5248 70.2372ZM90.1874 70.0894H93.9023C94.1585 70.0869 94.4122 70.1372 94.6486 70.2372C94.8753 70.3323 95.0828 70.47 95.2594 70.6425C95.4339 70.8122 95.5737 71.0151 95.6707 71.2397C95.7698 71.4732 95.8195 71.7249 95.8167 71.9791C95.8212 72.2365 95.7677 72.4911 95.6596 72.7242C95.5598 72.9513 95.4166 73.1559 95.2379 73.3267C95.0568 73.4978 94.8461 73.6334 94.6159 73.7267C94.3809 73.8235 94.1289 73.8721 93.8751 73.8689H90.1874V70.0894ZM94.1348 68.8239C93.92 68.9115 93.6905 68.9563 93.459 68.9552H90.2145V65.5098H93.4966C93.727 65.5073 93.9558 65.5541 94.1672 65.6467C94.3688 65.7355 94.5523 65.8619 94.7081 66.0193C94.8666 66.1767 94.9949 66.3622 95.0867 66.5672C95.1756 66.7781 95.2219 67.0056 95.2219 67.2355C95.2219 67.4651 95.1756 67.6925 95.0867 67.9038C94.9973 68.1098 94.8687 68.296 94.7081 68.4513C94.5416 68.6108 94.3472 68.7372 94.1348 68.8239Z" fill="#202020"/>
<path d="M105.112 71.2028C105.178 71.9922 104.942 72.7767 104.452 73.394C104.193 73.6408 103.886 73.8306 103.551 73.9514C103.216 74.0718 102.86 74.1211 102.505 74.0954C102.148 74.1225 101.79 74.0729 101.454 73.9503C101.118 73.8274 100.811 73.6341 100.553 73.3831C100.074 72.7707 99.8404 71.9982 99.8985 71.2193V66.9961H98.6171V71.2412C98.6063 71.8369 98.6977 72.4302 98.8875 72.9943C99.0408 73.4704 99.303 73.9028 99.6523 74.257C100.002 74.6109 100.429 74.8767 100.899 75.032C101.955 75.3662 103.087 75.3662 104.143 75.032C104.612 74.8743 105.038 74.6081 105.387 74.2542C105.736 73.9003 106 73.469 106.155 72.9943C106.345 72.4302 106.436 71.8369 106.425 71.2412V66.9961H105.138L105.112 71.2028Z" fill="#202020"/>
<path d="M114.215 71.274C114.036 71.1078 113.834 70.9694 113.615 70.8631C113.395 70.7588 113.167 70.6726 112.934 70.6057C112.698 70.5342 112.458 70.4793 112.214 70.4412L111.517 70.3426C111.154 70.3152 110.793 70.2676 110.435 70.2C110.18 70.1536 109.931 70.0764 109.695 69.9701C109.537 69.9021 109.399 69.7947 109.295 69.6578C109.207 69.5296 109.163 69.3754 109.17 69.2197C109.169 69.055 109.204 68.8919 109.273 68.743C109.348 68.5807 109.461 68.4398 109.603 68.3321C109.793 68.1912 110.008 68.0874 110.235 68.0254C110.562 67.9405 110.899 67.9 111.236 67.905C111.495 67.9025 111.753 67.9356 112.004 68.0036C112.211 68.055 112.409 68.1419 112.588 68.2609C112.738 68.3581 112.865 68.487 112.961 68.6391C113.048 68.7849 113.098 68.9507 113.107 69.1212V69.3074H114.372V69.1099C114.375 68.78 114.297 68.4546 114.145 68.1624C113.992 67.88 113.782 67.6335 113.528 67.4391C113.233 67.2215 112.901 67.0585 112.55 66.9571C112.14 66.8381 111.716 66.781 111.29 66.7874C110.764 66.7761 110.239 66.8426 109.733 66.9845C109.339 67.0905 108.971 67.2768 108.651 67.5324C108.389 67.7455 108.184 68.0226 108.056 68.3377C107.938 68.6261 107.878 68.9349 107.878 69.2469C107.871 69.5145 107.923 69.78 108.029 70.0247C108.123 70.2321 108.258 70.4183 108.424 70.5726C108.581 70.731 108.764 70.8606 108.965 70.956C109.175 71.0567 109.394 71.1374 109.619 71.1972C109.848 71.2631 110.081 71.3127 110.317 71.3451L110.992 71.4328C111.365 71.4764 111.717 71.5314 112.042 71.6025C112.309 71.6574 112.569 71.7458 112.815 71.8655C112.994 71.9465 113.152 72.0705 113.274 72.2271C113.38 72.3743 113.434 72.5543 113.426 72.7363C113.424 72.9338 113.37 73.1268 113.269 73.2955C113.169 73.4645 113.024 73.6025 112.853 73.6951C112.269 73.9976 111.614 74.1338 110.96 74.0895C110.683 74.0926 110.408 74.0518 110.143 73.969C109.907 73.894 109.682 73.7831 109.478 73.6402C109.304 73.5222 109.155 73.3694 109.04 73.1912C108.942 73.043 108.886 72.8705 108.878 72.6926V72.5007H107.607V72.6979C107.613 73.0264 107.698 73.3483 107.856 73.6349C108.027 73.9514 108.261 74.2293 108.543 74.4511C108.859 74.6905 109.211 74.8757 109.587 74.9986C110.023 75.1511 110.482 75.2254 110.944 75.218C111.473 75.224 112.001 75.169 112.517 75.0536C112.936 74.9627 113.337 74.7997 113.702 74.5715C114.017 74.3683 114.279 74.0902 114.464 73.7609C114.645 73.4254 114.736 73.0476 114.729 72.6652C114.736 72.3867 114.682 72.1099 114.572 71.8546C114.488 71.6412 114.367 71.4444 114.215 71.274Z" fill="#202020"/>
<path d="M116.284 64.2147C116.205 64.2883 116.141 64.378 116.097 64.478C116.054 64.578 116.031 64.6861 116.03 64.7953C116.029 64.9059 116.052 65.015 116.095 65.1161C116.139 65.2171 116.203 65.3076 116.284 65.3816C116.454 65.539 116.677 65.6235 116.906 65.6171C117.137 65.6224 117.362 65.5425 117.539 65.3925C117.621 65.3185 117.687 65.2277 117.732 65.1263C117.777 65.0249 117.8 64.9147 117.8 64.8034C117.8 64.6925 117.777 64.5823 117.732 64.4809C117.687 64.3795 117.621 64.2886 117.539 64.2147C117.366 64.0604 117.143 63.9756 116.912 63.9756C116.681 63.9756 116.458 64.0604 116.284 64.2147Z" fill="#202020"/>
<path d="M117.556 66.9785H116.264V75.0581H117.556V66.9785Z" fill="#202020"/>
<path d="M124.339 66.7776C124.004 66.7755 123.669 66.816 123.344 66.8981C123.034 66.979 122.733 67.0931 122.446 67.2378C122.174 67.3896 121.92 67.5734 121.69 67.7854C121.597 67.8621 121.516 67.9442 121.435 68.0266L121.37 67.0076H120.229V75.0875H121.516V70.7273C121.511 70.34 121.585 69.9558 121.733 69.5988C121.866 69.2723 122.065 68.9776 122.317 68.7333C122.567 68.4974 122.858 68.3114 123.176 68.1854C123.513 68.0526 123.87 67.9857 124.231 67.9882C124.928 67.9414 125.615 68.1734 126.145 68.6347C126.385 68.9213 126.567 69.2533 126.679 69.6114C126.792 69.9699 126.832 70.3474 126.8 70.7216V75.104H128.097V70.7216C128.138 70.1945 128.075 69.6643 127.912 69.1621C127.748 68.66 127.488 68.1956 127.146 67.7963C126.77 67.4431 126.328 67.1706 125.846 66.9952C125.363 66.8202 124.851 66.7459 124.339 66.7776Z" fill="#202020"/>
<path d="M137.179 67.9857C136.769 67.5977 136.29 67.2928 135.767 67.0875C134.647 66.6466 133.405 66.6466 132.285 67.0875C131.766 67.2966 131.289 67.6012 130.879 67.9857C130.481 68.3677 130.161 68.8258 129.938 69.3332C129.713 69.8582 129.598 70.4241 129.598 70.9959C129.598 71.5677 129.713 72.1336 129.938 72.6582C130.162 73.167 130.482 73.6266 130.879 74.0114C131.287 74.4001 131.764 74.7072 132.285 74.9153C132.839 75.1375 133.43 75.2491 134.026 75.2438C134.476 75.2463 134.923 75.1854 135.356 75.0632C135.76 74.9428 136.145 74.7678 136.503 74.5428C136.842 74.3259 137.149 74.0621 137.416 73.7593C137.677 73.4639 137.894 73.1318 138.06 72.7734L138.19 72.4885H136.778L136.724 72.5871C136.596 72.8153 136.435 73.0237 136.249 73.2061C136.062 73.3938 135.851 73.554 135.621 73.6829C135.383 73.817 135.128 73.9202 134.864 73.9896C134.208 74.1582 133.518 74.1259 132.88 73.8963C132.522 73.7748 132.189 73.5892 131.896 73.3487C131.6 73.0998 131.355 72.797 131.171 72.4558C131.016 72.1597 130.912 71.8392 130.863 71.5079H138.401L138.444 71.2068C138.444 71.1575 138.444 71.0917 138.444 71.0206C138.445 70.454 138.327 69.8938 138.098 69.3773C137.886 68.8558 137.574 68.3825 137.179 67.9857ZM130.901 70.4125C130.959 70.1104 131.061 69.8188 131.203 69.547C131.386 69.2227 131.626 68.935 131.912 68.698C132.198 68.4491 132.525 68.254 132.88 68.1227C133.636 67.8463 134.465 67.8463 135.221 68.1227C135.57 68.2544 135.893 68.4494 136.173 68.698C136.684 69.1452 137.029 69.7558 137.152 70.429L130.901 70.4125Z" fill="#202020"/>
<path d="M145.972 71.2728C145.795 71.1059 145.595 70.9675 145.377 70.8622C145.155 70.7569 144.926 70.6707 144.69 70.6045C144.454 70.5344 144.214 70.4795 143.971 70.4404L143.279 70.3418C142.916 70.3147 142.555 70.2671 142.197 70.1992C141.942 70.1527 141.693 70.0756 141.456 69.9692C141.298 69.9027 141.16 69.795 141.056 69.6569C140.969 69.5288 140.925 69.3745 140.932 69.2185C140.931 69.0541 140.966 68.8914 141.035 68.7421C141.11 68.5798 141.223 68.439 141.364 68.3312C141.554 68.1893 141.769 68.0854 141.997 68.0245C142.324 67.9393 142.66 67.8988 142.997 67.9041C143.255 67.9016 143.511 67.9347 143.76 68.0027C143.969 68.0541 144.169 68.1411 144.349 68.2601C144.499 68.3573 144.627 68.4861 144.722 68.6379C144.81 68.7837 144.86 68.9495 144.868 69.12V69.3062H146.134V69.109C146.134 68.7795 146.056 68.4545 145.907 68.1615C145.751 67.8668 145.533 67.6104 145.268 67.4112C144.972 67.1943 144.641 67.0312 144.29 66.9291C143.88 66.8097 143.456 66.7527 143.03 66.759C142.504 66.7478 141.979 66.8143 141.473 66.9562C141.088 67.0657 140.73 67.252 140.418 67.5041C140.156 67.7171 139.951 67.9942 139.823 68.3094C139.706 68.5978 139.645 68.9066 139.645 69.2185C139.641 69.4858 139.692 69.7509 139.796 69.9967C139.89 70.2038 140.025 70.39 140.191 70.5442C140.356 70.7052 140.549 70.8351 140.759 70.9277C140.969 71.0284 141.188 71.109 141.413 71.1689C141.642 71.2347 141.875 71.2844 142.111 71.3168L142.787 71.4045C143.16 71.4481 143.511 71.5031 143.836 71.5742C144.103 71.6291 144.363 71.7175 144.609 71.8372C144.789 71.9182 144.947 72.0421 145.069 72.1988C145.175 72.3464 145.228 72.5259 145.22 72.708C145.218 72.9055 145.165 73.0985 145.063 73.2671C144.963 73.4361 144.819 73.5742 144.647 73.6668C144.063 73.9689 143.409 74.1052 142.754 74.0611C142.477 74.0643 142.202 74.0235 141.937 73.9407C141.701 73.8657 141.476 73.7548 141.272 73.6119C141.098 73.4939 140.949 73.3411 140.834 73.1629C140.737 73.0147 140.681 72.8421 140.672 72.6643V72.4724H139.401V72.6696C139.406 72.9981 139.491 73.3203 139.65 73.6066C139.822 73.9231 140.055 74.2009 140.337 74.4228C140.653 74.6622 141.005 74.8474 141.38 74.9703C141.817 75.1235 142.276 75.1974 142.738 75.1897C143.267 75.1957 143.795 75.1407 144.311 75.0252C144.731 74.9344 145.131 74.7714 145.496 74.5432C145.811 74.34 146.073 74.0619 146.258 73.7326C146.438 73.3964 146.529 73.0189 146.523 72.6369C146.527 72.3587 146.474 72.0823 146.366 71.8263C146.269 71.6189 146.135 71.4312 145.972 71.2728Z" fill="#202020"/>
<path d="M153.662 71.2736C153.484 71.1092 153.283 70.9708 153.067 70.8631C152.845 70.7585 152.616 70.6726 152.381 70.6057C152.144 70.5356 151.904 70.4807 151.661 70.4412L150.964 70.3426C150.601 70.3152 150.24 70.2676 149.882 70.2C149.627 70.1536 149.378 70.0764 149.141 69.9701C148.985 69.9004 148.848 69.7933 148.741 69.6578C148.658 69.5278 148.616 69.3747 148.622 69.2197C148.623 69.055 148.657 68.8926 148.725 68.743C148.799 68.58 148.912 68.4384 149.055 68.3321C149.244 68.1891 149.459 68.0849 149.687 68.0254C150.012 67.9402 150.347 67.8997 150.682 67.905C150.942 67.9025 151.2 67.9356 151.45 68.0036C151.66 68.056 151.859 68.143 152.04 68.2609C152.19 68.3581 152.317 68.487 152.413 68.6388C152.501 68.7842 152.549 68.9507 152.553 69.1212V69.3071H153.819V69.1099C153.821 68.78 153.743 68.4546 153.592 68.1624C153.449 67.881 153.248 67.6345 153.003 67.4391C152.708 67.2215 152.379 67.0585 152.029 66.9571C151.62 66.8384 151.195 66.7814 150.769 66.7874C150.242 66.7761 149.715 66.8426 149.206 66.9845C148.823 67.0962 148.465 67.2824 148.152 67.5324C147.893 67.7486 147.689 68.0247 147.557 68.3377C147.443 68.6271 147.385 68.9356 147.384 69.2469C147.378 69.5138 147.428 69.7786 147.53 70.0247C147.626 70.2324 147.762 70.4187 147.93 70.5726C148.095 70.7349 148.287 70.8648 148.498 70.956C148.707 71.0585 148.927 71.1391 149.152 71.1972C149.381 71.2638 149.614 71.3131 149.85 71.3451L150.52 71.4328C150.893 71.4764 151.25 71.5314 151.569 71.6025C151.839 71.6574 152.1 71.7458 152.348 71.8655C152.527 71.9479 152.684 72.0719 152.808 72.2268C152.914 72.3743 152.967 72.5543 152.959 72.7363C152.958 72.9335 152.903 73.1268 152.803 73.2955C152.702 73.4645 152.558 73.6021 152.386 73.6951C151.8 73.9976 151.144 74.1338 150.488 74.0895C150.213 74.0926 149.939 74.0518 149.677 73.969C149.438 73.894 149.212 73.7831 149.006 73.6402C148.832 73.5222 148.683 73.3694 148.568 73.1912C148.472 73.0426 148.418 72.8701 148.411 72.6926V72.5007H147.141V72.6979C147.143 73.0268 147.229 73.349 147.389 73.6349C147.559 73.9511 147.791 74.2289 148.071 74.4511C148.387 74.6895 148.739 74.8747 149.114 74.9986C149.551 75.1507 150.01 75.225 150.472 75.218C151 75.224 151.529 75.169 152.045 75.0536C152.466 74.9638 152.869 74.8004 153.235 74.5715C153.551 74.3683 153.813 74.0902 153.997 73.7606C154.175 73.424 154.266 73.0472 154.262 72.6652C154.266 72.3867 154.213 72.1106 154.106 71.8546C153.995 71.6342 153.844 71.4374 153.662 71.2736Z" fill="#202020"/>
<path d="M162.353 64.3477L157.664 75.0568H159.059L160.2 72.4547H165.657L166.798 75.0568H168.193L163.504 64.3477H162.353ZM162.931 66.21L165.137 71.2716H160.714L162.931 66.21Z" fill="#202020"/>
<path d="M174.887 71.2728C174.708 71.1069 174.506 70.9685 174.287 70.8622C174.067 70.7576 173.839 70.6717 173.606 70.6045C173.369 70.5354 173.129 70.4805 172.886 70.4404L172.189 70.3418C171.826 70.3143 171.465 70.2668 171.107 70.1992C170.852 70.1527 170.603 70.0756 170.366 69.9692C170.209 69.9013 170.071 69.7939 169.966 69.6569C169.879 69.5288 169.835 69.3745 169.842 69.2185C169.842 69.0541 169.877 68.8918 169.945 68.7421C170.02 68.5798 170.133 68.439 170.275 68.3312C170.465 68.1904 170.68 68.0865 170.907 68.0245C171.234 67.9397 171.57 67.8992 171.907 67.9041C172.167 67.9016 172.425 67.9347 172.675 68.0027C172.883 68.0548 173.08 68.1421 173.259 68.2601C173.409 68.3573 173.537 68.4861 173.632 68.6379C173.72 68.784 173.77 68.9495 173.778 69.12V69.3062H175.044V69.109C175.046 68.7791 174.968 68.4538 174.817 68.1615C174.663 67.8657 174.445 67.6094 174.179 67.4112C173.882 67.1943 173.551 67.0312 173.2 66.9291C172.79 66.8097 172.366 66.7527 171.94 66.759C171.414 66.7478 170.89 66.8143 170.383 66.9562C169.999 67.0668 169.641 67.2531 169.328 67.5041C169.066 67.7171 168.861 67.9942 168.734 68.3094C168.616 68.5978 168.555 68.9066 168.555 69.2185C168.551 69.4858 168.603 69.7509 168.706 69.9967C168.801 70.2038 168.935 70.39 169.101 70.5442C169.266 70.7052 169.459 70.8351 169.669 70.9277C169.879 71.0284 170.098 71.109 170.323 71.1689C170.552 71.2347 170.785 71.2844 171.021 71.3168L171.697 71.4045C172.07 71.4481 172.421 71.5031 172.746 71.5742C173.013 71.6284 173.273 71.7168 173.519 71.8372C173.699 71.9182 173.857 72.0421 173.979 72.1988C174.085 72.3464 174.138 72.5259 174.13 72.708C174.129 72.9055 174.075 73.0985 173.974 73.2671C173.873 73.4361 173.729 73.5742 173.557 73.6668C172.973 73.9689 172.319 74.1052 171.664 74.0611C171.388 74.0636 171.112 74.0228 170.848 73.9407C170.611 73.8657 170.387 73.7548 170.183 73.6119C170.008 73.4939 169.859 73.3411 169.744 73.1629C169.647 73.0147 169.591 72.8421 169.582 72.6643V72.4724H168.312V72.6696C168.317 72.9981 168.402 73.3199 168.56 73.6066C168.732 73.9231 168.965 74.2009 169.247 74.4228C169.563 74.6622 169.916 74.8474 170.291 74.9703C170.727 75.1228 171.186 75.1971 171.648 75.1897C172.177 75.1957 172.705 75.1407 173.222 75.0252C173.641 74.9344 174.041 74.7714 174.406 74.5432C174.723 74.3414 174.985 74.0629 175.168 73.7326C175.349 73.3971 175.441 73.0192 175.433 72.6369C175.44 72.3583 175.386 72.0816 175.276 71.8263C175.18 71.6199 175.048 71.4326 174.887 71.2728Z" fill="#202020"/>
<path d="M182.594 71.2728C182.417 71.1069 182.216 70.9685 181.999 70.8622C181.777 70.7576 181.547 70.6717 181.312 70.6045C181.076 70.5347 180.836 70.4798 180.593 70.4404L179.896 70.3418C179.533 70.3143 179.171 70.2668 178.814 70.1992C178.559 70.1516 178.31 70.0745 178.073 69.9692C177.916 69.8995 177.779 69.7925 177.673 69.6569C177.59 69.5266 177.548 69.3738 177.554 69.2185C177.553 69.0541 177.589 68.8914 177.657 68.7421C177.73 68.5791 177.844 68.4376 177.987 68.3312C178.176 68.1883 178.391 68.084 178.619 68.0245C178.944 67.9393 179.279 67.8988 179.614 67.9041C179.873 67.9016 180.132 67.9347 180.382 68.0027C180.591 68.0548 180.79 68.1421 180.971 68.2601C181.121 68.3573 181.249 68.4861 181.344 68.6379C181.432 68.7833 181.481 68.9495 181.485 69.12V69.3062H182.751V69.109C182.753 68.7791 182.675 68.4538 182.523 68.1615C182.372 67.8657 182.155 67.609 181.891 67.4112C181.594 67.1943 181.263 67.0312 180.912 66.9291C180.502 66.8101 180.078 66.7531 179.652 66.759C179.126 66.7478 178.602 66.8143 178.095 66.9562C177.702 67.064 177.334 67.2502 177.013 67.5041C176.754 67.7192 176.552 67.9957 176.424 68.3094C176.306 68.5978 176.245 68.9066 176.245 69.2185C176.24 69.4854 176.289 69.7506 176.391 69.9967C176.489 70.203 176.625 70.389 176.791 70.5442C176.956 70.7066 177.148 70.8365 177.359 70.9277C177.569 71.0295 177.788 71.1101 178.013 71.1689C178.242 71.2354 178.475 71.2847 178.711 71.3168L179.382 71.4045C179.755 71.4481 180.112 71.5031 180.431 71.5742C180.7 71.6295 180.961 71.7175 181.209 71.8372C181.388 71.9196 181.546 72.0435 181.669 72.1988C181.775 72.3464 181.828 72.5259 181.82 72.708C181.819 72.9055 181.765 73.0985 181.664 73.2671C181.563 73.4361 181.419 73.5742 181.247 73.6668C180.663 73.9689 180.009 74.1052 179.355 74.0611C179.078 74.0647 178.802 74.0238 178.538 73.9407C178.299 73.8657 178.074 73.7548 177.868 73.6119C177.693 73.4939 177.544 73.3411 177.43 73.1629C177.333 73.0143 177.279 72.8418 177.273 72.6643V72.4724H176.002V72.6696C176.005 72.9985 176.09 73.3207 176.251 73.6066C176.421 73.9245 176.654 74.2023 176.937 74.4228C177.253 74.6622 177.606 74.8474 177.981 74.9703C178.416 75.1228 178.873 75.1971 179.333 75.1897C179.862 75.1957 180.39 75.1407 180.906 75.0252C181.328 74.9354 181.73 74.7724 182.096 74.5432C182.412 74.34 182.674 74.0619 182.859 73.7326C183.036 73.3957 183.128 73.0189 183.124 72.6369C183.128 72.3587 183.074 72.0823 182.967 71.8263C182.875 71.6214 182.749 71.4344 182.594 71.2728Z" fill="#202020"/>
<path d="M191.635 67.9856C191.224 67.5986 190.745 67.2937 190.223 67.087C189.101 66.6507 187.858 66.6507 186.735 67.087C186.217 67.2951 185.742 67.6 185.335 67.9856C184.935 68.3669 184.613 68.825 184.388 69.3331C184.162 69.8581 184.045 70.4253 184.045 70.9982C184.045 71.5715 184.162 72.1384 184.388 72.6637C184.61 73.1736 184.93 73.6338 185.329 74.0165C185.738 74.4032 186.215 74.7081 186.735 74.9151C187.856 75.3532 189.098 75.3532 190.218 74.9151C190.74 74.7081 191.219 74.4032 191.629 74.0165C192.029 73.6338 192.349 73.1736 192.57 72.6637C192.795 72.138 192.911 71.5711 192.911 70.9982C192.911 70.4253 192.795 69.8588 192.57 69.3331C192.349 68.8261 192.031 68.368 191.635 67.9856ZM191.635 70.9982C191.637 71.4077 191.557 71.8134 191.399 72.1901C191.24 72.5669 191.008 72.907 190.715 73.1894C190.427 73.4676 190.087 73.6856 189.715 73.8303C188.922 74.143 188.042 74.143 187.249 73.8303C186.876 73.6842 186.535 73.4665 186.243 73.1894C185.96 72.9137 185.732 72.5842 185.573 72.2201C185.325 71.6525 185.257 71.0211 185.378 70.413C185.499 69.8049 185.803 69.2496 186.249 68.8236C186.536 68.5451 186.874 68.3257 187.244 68.1771C188.037 67.863 188.917 67.863 189.71 68.1771C190.081 68.3257 190.421 68.5451 190.71 68.8236C191.005 69.1049 191.239 69.4444 191.398 69.8215C191.557 70.1986 191.638 70.6049 191.635 71.0148V70.9982Z" fill="#202020"/>
<path d="M196.398 68.7849C196.692 68.5187 197.033 68.3106 197.404 68.1715C198.063 67.9225 198.782 67.8841 199.464 68.062C199.736 68.1338 199.997 68.2405 200.243 68.3796C200.478 68.5187 200.694 68.688 200.886 68.8834C201.081 69.0778 201.245 69.3014 201.373 69.5465L201.427 69.6503H202.752L202.644 69.3764C202.487 68.9887 202.272 68.6285 202.005 68.3084C201.737 67.9877 201.421 67.7106 201.07 67.4866C200.714 67.2447 200.324 67.0599 199.913 66.9387C198.897 66.6465 197.815 66.6965 196.83 67.0813C196.312 67.2894 195.837 67.594 195.43 67.9796C195.034 68.363 194.716 68.8208 194.494 69.3271C194.266 69.8511 194.148 70.4172 194.148 70.9898C194.148 71.5623 194.266 72.1285 194.494 72.6525C194.716 73.1606 195.034 73.6201 195.43 74.0053C195.837 74.3954 196.314 74.7021 196.836 74.9091C197.39 75.1317 197.981 75.2433 198.577 75.238C199.029 75.2408 199.478 75.1782 199.913 75.0518C200.326 74.9257 200.719 74.7412 201.081 74.5039C201.429 74.2761 201.743 73.9975 202.011 73.6768C202.276 73.3606 202.489 73.0039 202.644 72.6194L202.752 72.3454H201.427L201.368 72.4496C201.234 72.6908 201.069 72.9123 200.875 73.107C200.682 73.3039 200.464 73.4732 200.226 73.6109C199.984 73.7496 199.724 73.8546 199.453 73.9232C198.776 74.1025 198.06 74.0658 197.404 73.819C197.033 73.6827 196.692 73.4764 196.398 73.2109C196.106 72.9384 195.869 72.6109 195.7 72.2468C195.436 71.6644 195.36 71.0116 195.484 70.3827C195.609 69.7539 195.927 69.181 196.392 68.7465L196.398 68.7849Z" fill="#202020"/>
<path d="M205.806 66.9785H204.514V75.0581H205.806V66.9785Z" fill="#202020"/>
<path d="M204.537 64.2112C204.457 64.2847 204.394 64.3745 204.35 64.4745C204.306 64.5742 204.284 64.6823 204.283 64.7918C204.282 64.902 204.304 65.0115 204.348 65.1126C204.392 65.2136 204.456 65.3041 204.537 65.3781C204.706 65.5365 204.929 65.6214 205.159 65.6136C205.39 65.62 205.615 65.54 205.792 65.389C205.874 65.315 205.939 65.2242 205.984 65.1228C206.029 65.021 206.052 64.9112 206.052 64.7999C206.052 64.6886 206.029 64.5788 205.984 64.4773C205.939 64.3759 205.874 64.2851 205.792 64.2112C205.617 64.059 205.395 63.9756 205.165 63.9756C204.934 63.9756 204.712 64.059 204.537 64.2112Z" fill="#202020"/>
<path d="M215.513 68.2072C215.421 68.1002 215.321 67.9995 215.216 67.9058C214.964 67.672 214.684 67.4717 214.383 67.309C214.067 67.1414 213.733 67.0108 213.388 66.9199C213.019 66.8224 212.639 66.7745 212.258 66.7777C211.663 66.7706 211.073 66.8822 210.522 67.1062C210.007 67.3076 209.536 67.6072 209.132 67.9882C208.529 68.5819 208.118 69.3467 207.953 70.1819C207.788 71.0171 207.877 71.8833 208.208 72.6664C208.427 73.172 208.74 73.6298 209.132 74.0139C209.536 74.4012 210.01 74.7065 210.527 74.9122C211.437 75.2738 212.435 75.3389 213.382 75.0984C213.728 75.0076 214.061 74.877 214.377 74.7093C214.677 74.5467 214.957 74.3481 215.21 74.1178C215.318 74.0245 215.419 73.9238 215.513 73.8167L215.567 75.0382H216.741V66.9801H215.567L215.513 68.2072ZM214.567 68.8372C214.855 69.1111 215.087 69.4407 215.248 69.8069C215.412 70.1896 215.497 70.6027 215.497 71.0203C215.497 71.4375 215.412 71.8505 215.248 72.2336C215.09 72.6012 214.86 72.9326 214.572 73.2086C214.278 73.4858 213.935 73.7048 213.561 73.8551C212.765 74.1615 211.886 74.1615 211.09 73.8551C210.717 73.7069 210.375 73.4875 210.084 73.2086C209.642 72.7794 209.339 72.2234 209.218 71.6153C209.098 71.0069 209.164 70.3759 209.408 69.8069C209.566 69.4421 209.794 69.1129 210.079 68.8372C210.37 68.559 210.712 68.34 211.084 68.1907C211.478 68.0312 211.899 67.9509 212.323 67.9551C212.747 67.9509 213.167 68.0312 213.561 68.1907C213.933 68.34 214.275 68.559 214.567 68.8372Z" fill="#202020"/>
<path d="M221.89 73.956C221.686 73.9025 221.5 73.7968 221.349 73.6493C221.18 73.4761 221.053 73.2662 220.976 73.0359C220.868 72.6979 220.819 72.344 220.83 71.9894V68.1549H223.836V66.9771H220.873V64.6982H219.791L219.581 66.9335L218.137 67.0648V68.1606H219.581V71.9951C219.567 72.4989 219.64 73.0011 219.797 73.4796C219.921 73.8599 220.133 74.2053 220.413 74.4873C220.678 74.7426 220.998 74.9306 221.349 75.0352C221.717 75.1475 222.1 75.2028 222.485 75.1997H224.15V74.0546H222.528C222.312 74.0542 222.096 74.0211 221.89 73.956Z" fill="#202020"/>
<path d="M227.232 66.9785H225.939V75.0581H227.232V66.9785Z" fill="#202020"/>
<path d="M225.962 64.2147C225.881 64.2876 225.815 64.3773 225.77 64.478C225.725 64.5788 225.702 64.6876 225.702 64.7981C225.702 64.9083 225.725 65.0175 225.77 65.1182C225.815 65.2185 225.881 65.3083 225.962 65.3816C226.131 65.54 226.354 65.6249 226.584 65.6171C226.814 65.6235 227.037 65.5435 227.211 65.3925C227.296 65.3189 227.364 65.2273 227.41 65.1238C227.456 65.0207 227.478 64.9083 227.476 64.7953C227.476 64.6854 227.453 64.577 227.408 64.477C227.363 64.3766 227.298 64.2876 227.217 64.2147C227.043 64.0604 226.82 63.9756 226.589 63.9756C226.359 63.9756 226.136 64.0604 225.962 64.2147Z" fill="#202020"/>
<path d="M236.892 67.9856C236.48 67.5996 236.002 67.2951 235.48 67.087C234.357 66.6507 233.115 66.6507 231.992 67.087C231.474 67.2951 230.999 67.6 230.592 67.9856C230.191 68.3669 229.87 68.825 229.645 69.3331C229.42 69.8511 229.304 70.4106 229.305 70.9764C229.303 71.543 229.421 72.1035 229.651 72.6197C229.872 73.1299 230.192 73.5901 230.592 73.9729C231 74.3592 231.477 74.6641 231.998 74.8711C233.118 75.3095 234.36 75.3095 235.48 74.8711C236.002 74.6641 236.481 74.3595 236.892 73.9729C237.291 73.5901 237.611 73.1299 237.832 72.6197C238.057 72.094 238.173 71.5275 238.173 70.9546C238.173 70.3817 238.057 69.8148 237.832 69.2894C237.605 68.7972 237.285 68.3546 236.892 67.9856ZM236.892 70.9982C236.896 71.4077 236.818 71.8137 236.661 72.1908C236.503 72.5676 236.271 72.9077 235.978 73.1894C235.687 73.4655 235.348 73.6827 234.977 73.8303C234.184 74.143 233.304 74.143 232.511 73.8303C232.138 73.6856 231.796 73.4676 231.506 73.1894C231.212 72.9074 230.978 72.5676 230.818 72.1908C230.658 71.8144 230.575 71.4084 230.575 70.9982C230.575 70.5884 230.658 70.1824 230.818 69.8056C230.978 69.4289 231.212 69.0891 231.506 68.807C231.795 68.5285 232.135 68.3092 232.506 68.1609C232.898 68.0007 233.316 67.9208 233.739 67.9253C234.159 67.9204 234.577 68.0003 234.966 68.1609C235.339 68.3088 235.681 68.5285 235.972 68.807C236.268 69.0877 236.502 69.4271 236.66 69.8046C236.818 70.1817 236.897 70.5884 236.892 70.9982Z" fill="#202020"/>
<path d="M246.932 67.7442C246.552 67.3988 246.107 67.135 245.623 66.9685C245.14 66.8016 244.629 66.7357 244.12 66.7745C243.786 66.7723 243.454 66.8128 243.13 66.8952C242.82 66.9762 242.519 67.0899 242.233 67.2347C241.958 67.3864 241.702 67.5706 241.47 67.7826C241.384 67.8593 241.297 67.9414 241.221 68.0234L241.157 67.0047H240.016V75.0847H241.297V70.7241C241.291 70.3368 241.365 69.9526 241.513 69.5956C241.65 69.2699 241.851 68.9755 242.103 68.7301C242.352 68.4942 242.644 68.3083 242.963 68.1826C243.297 68.0498 243.653 67.9829 244.012 67.9854C244.709 67.9357 245.397 68.1685 245.926 68.6315C246.167 68.9174 246.349 69.2495 246.462 69.6079C246.574 69.9667 246.614 70.3442 246.58 70.7188V75.1009H247.878V70.7188C247.925 70.184 247.865 69.6452 247.703 69.1343C247.54 68.6234 247.278 68.1505 246.932 67.7442Z" fill="#202020"/>
<path d="M84.7332 49.3047H83.165V75.2642H84.7332V49.3047Z" fill="#202020"/>
<path fill-rule="evenodd" clip-rule="evenodd" d="M34.1492 0.608398L70.7096 0.728913L70.6067 37.4581C67.4487 44.8806 57.169 45.0123 52.2913 49.7834C47.3597 45.0285 36.5662 44.1028 34.041 37.3102L34.1492 0.608398Z" fill="#FFC700"/>
<path fill-rule="evenodd" clip-rule="evenodd" d="M34.1508 0.580078H70.7111L70.6464 23.2421L34.0859 23.1271L34.1508 0.580078Z" fill="#005DD4"/>
<path fill-rule="evenodd" clip-rule="evenodd" d="M37.5005 32.5339L37.4953 32.9174V34.002L37.4897 35.6399L37.4845 37.7052L37.4789 40.0823L37.4681 42.6298L37.4626 45.2154L37.4574 47.7133L37.4466 49.9974L37.441 51.9312V53.3935L37.4358 54.2537L37.4087 54.9495L37.3058 55.9957L37.0624 57.3379L36.6136 58.9319L35.9055 60.7397L34.8834 62.7006L33.4828 64.7766L31.6604 66.9351L29.3298 69.1097L26.4584 71.2682L22.9705 73.3608L18.8175 75.3492L14.6754 73.3333L11.1983 71.2242L8.33774 69.0439L6.01791 66.853L4.20636 64.6837L2.81664 62.5967L1.81084 60.6302L1.11327 58.8168L0.669848 57.2171L0.437323 55.8752L0.339988 54.8344L0.318359 54.1333V53.2731L0.323766 51.8104L0.329173 49.877L0.334581 47.5925L0.345397 45.0946L0.350803 42.509L0.356212 39.9618L0.361618 37.5844L0.372433 35.5194L0.377842 33.8815V32.7968V32.4134L3.45473 31.7451L6.53161 31.1918L9.61392 30.781L12.6908 30.4742L15.7893 30.2989L18.877 30.2441L21.9593 30.3208L25.0632 30.518L28.1564 30.8413L31.2711 31.274L34.3804 31.8492L37.5005 32.5339Z" fill="#DB2517"/>
<path fill-rule="evenodd" clip-rule="evenodd" d="M56.1735 19.2331C56.1735 21.0298 56.1735 22.2897 56.1735 23.1772V25.2806C56.2875 25.2566 56.405 25.2581 56.5184 25.2852C56.6317 25.3122 56.7377 25.3642 56.8292 25.4373C56.9202 25.5105 56.9946 25.603 57.0468 25.7085C57.0989 25.814 57.1274 25.9297 57.1306 26.0475C57.1306 26.8309 56.1033 26.8254 56.1033 26.8254C55.399 25.6866 54.8427 24.4603 54.4485 23.1772L54.4162 23.0566C54.1214 22.0668 53.9684 21.0393 53.9618 20.0055C53.9618 16.4119 54.2483 14.5823 54.2538 13.5306C54.2591 12.4788 53.8158 8.17321 52.8317 6.63941C52.8205 6.61209 52.8059 6.58631 52.7882 6.56272L52.7072 6.42575L52.6749 6.37645C52.6415 6.31385 52.6015 6.25508 52.556 6.20117C52.556 6.20117 52.5018 6.27237 52.4475 6.371C52.4291 6.41096 52.4072 6.44941 52.3829 6.48603L52.3234 6.58462C51.3229 8.11842 50.8849 12.4186 50.8797 13.4703C50.8741 14.5221 51.1338 16.3517 51.123 19.9452C51.106 21.02 50.9346 22.0866 50.6144 23.1114C50.2199 24.3955 49.6581 25.6206 48.9437 26.7542C48.9437 26.7542 47.9001 26.7542 47.9324 25.9709C47.9421 25.8626 47.9738 25.7576 48.0252 25.6623C48.0767 25.5669 48.1469 25.4833 48.2317 25.4166C48.3162 25.3498 48.4135 25.3013 48.5175 25.2742C48.6211 25.247 48.7295 25.2418 48.8356 25.2587V23.1717C48.8356 22.2842 48.8356 21.0188 48.8356 19.2221C48.8356 11.6243 43.0331 9.63033 43.0331 9.63033L42.9952 23.1552L42.9629 33.2619H46.8401H48.538C48.9843 34.2396 49.5454 35.1592 50.2091 36.0007C51.0994 36.9726 51.7074 38.1743 51.9664 39.474C52.0314 39.8134 52.1016 39.956 52.4315 39.9613C52.7614 39.9669 52.8424 39.8134 52.9074 39.4793C53.1689 38.1807 53.7831 36.9817 54.6811 36.0173C55.36 35.1792 55.934 34.2592 56.3897 33.2784H58.0824H61.9433L61.9704 23.1717L62.0083 9.65223C62.0083 9.65223 56.2058 11.6517 56.1735 19.2331ZM45.2125 14.0838C45.2125 14.0838 46.294 14.9274 46.8345 17.88C47.2079 20.0109 46.8832 23.6428 46.8832 23.6428C46.3732 23.9266 45.9435 24.3376 45.6341 24.8369C45.55 24.9654 45.4895 25.1084 45.4558 25.2587H45.1801L45.2125 14.0838ZM48.2136 30.7366V31.3337H46.8617H45.1638V27.3458H45.3908C45.4343 27.4061 45.526 27.5485 45.5691 27.6033C46.4021 29.0111 48.2081 29.159 48.2081 29.159L48.2136 30.7366ZM50.3766 30.7366V29.6411C51.496 29.7178 51.4581 31.3337 51.4581 31.3337H50.3766V30.7366ZM51.577 34.5328C51.0688 34.2765 50.6801 33.8279 50.4955 33.2838H51.577V34.5328ZM52.4746 28.5071C52.4746 28.2168 51.9341 27.8662 51.5339 27.5047C51.1338 27.1431 51.1932 27.3075 51.2635 26.8802C51.3337 26.4529 52.4854 24.1412 52.4854 23.9331C52.4854 24.1467 53.6427 26.4639 53.7077 26.8912C53.7724 27.3184 53.8322 27.1596 53.4372 27.5156C53.0427 27.8717 52.4802 28.2332 52.4802 28.5455L52.4746 28.5071ZM53.3455 34.5328V33.2893H54.427C54.241 33.8282 53.8551 34.2724 53.3507 34.5273L53.3455 34.5328ZM54.5838 30.7366V31.3337H53.5023C53.5023 31.3337 53.5023 29.6904 54.5838 29.6465V30.7366ZM59.7803 31.3501H56.7468V29.159C56.7468 29.159 58.5583 29.022 59.3965 27.6197C59.3965 27.5649 59.5154 27.4225 59.5477 27.3623H59.791L59.7803 31.3501ZM59.7803 25.3245H59.5046C59.4743 25.1739 59.4156 25.0306 59.3315 24.9027C59.028 24.405 58.6059 23.9925 58.104 23.703C58.104 23.703 57.7848 20.0657 58.1849 17.9403C58.7259 14.9877 59.8074 14.1551 59.8074 14.1551L59.7803 25.3245Z" fill="white"/>
<path d="M32.3687 47.2501H22.819V37.5762H15.1728V47.2501H5.62305V55.0015H15.1728V64.6755H22.819V55.0015H32.3687V47.2501Z" fill="white"/>
</g>
<defs>
<clipPath id="clip0_2395_1580">
<rect width="248.214" height="75" fill="white" transform="translate(0 0.5)"/>
</clipPath>
</defs>
</svg>
