<svg width="109" height="39" fill="none" xmlns="http://www.w3.org/2000/svg"><path d="M0 .54h15.766v5.434H5.974v10.538h7.676v5.394H5.974V38.42H0V.539zm23.854 18.503L17.34.54h6.265l4.024 12.24h.125L31.86.538h5.643l-6.597 18.504 6.887 19.376h-6.306l-4.315-13.194h-.125l-4.44 13.194h-5.6l6.846-19.376zM40.578.54h8.505l3.776 27.133h.124L56.76.54h8.505v37.88h-5.6V9.749h-.125L55.182 38.46h-4.978L45.889 9.75h-.125v28.71h-5.186V.54zm33.729 0h8.049l6.182 37.879h-5.975l-1.078-7.51v.083h-6.763l-1.079 7.427h-5.518L74.307.539zm6.514 25.35L78.165 7.176h-.124L75.427 25.89h5.394zm10.081 3.567V9.543c0-6.058 3.03-9.543 8.88-9.543 5.849 0 8.878 3.485 8.878 9.543v3.236h-5.643V9.128c0-2.697-1.203-3.734-3.07-3.734-1.867 0-3.07 1.037-3.07 3.734v20.744c0 2.697 1.203 3.693 3.07 3.693 1.867 0 3.07-.954 3.07-3.693v-7.426h-2.987v-5.394h8.588v12.405c0 6.058-3.028 9.543-8.878 9.543s-8.838-3.485-8.838-9.543z" fill="#161616"/></svg>