<svg width="109" height="39" viewBox="0 0 109 39" fill="none" xmlns="http://www.w3.org/2000/svg">
<path d="M0 0.539062H15.766V5.97418H5.97448V16.5125H13.65V21.9061H5.97448V38.419H0V0.539062Z" fill="#161616"/>
<path d="M23.8536 19.0434L17.3397 0.539062H23.6046L27.6291 12.7785H27.7536L31.861 0.539062H37.5036L30.9068 19.0434L37.794 38.419H31.4876L27.1727 25.2253H27.0483L22.6089 38.419H17.0078L23.8536 19.0434Z" fill="#161616"/>
<path d="M40.5781 0.539062H49.0835L52.859 27.6732H52.9835L56.759 0.539062H65.2644V38.419H59.6633V9.74973H59.5388L55.1824 38.4604H50.2037L45.8888 9.74973H45.7643V38.4604H40.5781V0.539062Z" fill="#161616"/>
<path d="M74.3069 0.539062H82.3559L88.5378 38.419H82.5633L81.4846 30.9094V30.9923H74.7218L73.6431 38.419H68.125L74.3069 0.539062ZM80.8208 25.8891L78.1655 7.17738H78.041L75.4272 25.8891H80.8208Z" fill="#161616"/>
<path d="M90.9023 29.4575V9.54258C90.9023 3.48512 93.9311 0 99.7811 0C105.631 0 108.66 3.48512 108.66 9.54258V12.7788H103.017V9.12769C103.017 6.43087 101.814 5.39363 99.947 5.39363C98.08 5.39363 96.8768 6.43087 96.8768 9.12769V29.8724C96.8768 32.5692 98.08 33.565 99.947 33.565C101.814 33.565 103.017 32.6107 103.017 29.8724V22.4458H100.03V17.0522H108.618V29.4575C108.618 35.515 105.59 39.0001 99.7396 39.0001C93.8896 39.0001 90.9023 35.515 90.9023 29.4575Z" fill="#161616"/>
</svg>
