<svg width="138" height="56" fill="none" xmlns="http://www.w3.org/2000/svg"><mask id="mask0_2395_1745" style="mask-type:luminance" maskUnits="userSpaceOnUse" x="0" y="0" width="138" height="56"><path d="M138 0H0v55.186h138V0z" fill="#fff"/></mask><g mask="url(#mask0_2395_1745)" fill="#161616"><path d="M8.978 14.674c6.25 0 8.957-2.625 8.957-7.348 0-4.722-2.713-7.307-8.957-7.307C2.733.019.016 2.604.016 7.326c0 4.723 2.69 7.348 8.962 7.348zm0-11.582c3.827 0 5.292 1.342 5.292 4.238 0 2.895-1.49 4.27-5.292 4.27-3.802 0-5.298-1.343-5.298-4.274 0-2.93 1.465-4.234 5.298-4.234zM37.09 7.338C37.09 2.348 33.752 0 29.964 0h-10.65v14.676h10.65c3.788 0 7.128-2.35 7.128-7.338zM23.088 11.51V3.166h5.45c2.851 0 4.78.607 4.78 4.172 0 3.565-1.929 4.172-4.78 4.172h-5.45zm30.859.168h-11.74V8.7h11.74V5.975h-11.74V3h11.74V0H38.434v14.676h15.513v-2.998zm10.894.084c-4.641 0-5.861-.693-5.861-2.203h-3.664c0 4.11 3.48 5.107 9.323 5.107 5.27 0 8.873-.773 8.873-4.577 0-3.602-3.48-3.898-9.096-4.212-4.152-.244-5.008-.447-5.008-1.546 0-1.06.856-1.405 4.457-1.405 3.805 0 5.373.386 5.373 1.954h3.667c0-3.524-3.262-4.86-8.633-4.86-5.333 0-8.528.997-8.528 4.131 0 3.194 2.463 4.172 8.67 4.457 4.62.224 5.424.427 5.424 1.607.016 1.119-1.15 1.547-4.997 1.547zm12.545 2.914l1.571-3.124h8.784l1.573 3.124h4.172L85.896 0h-5.093l-7.569 14.676h4.152zM83.36 2.788l2.977 5.954h-5.969l2.992-5.954zM12.873 20.303H0V34.93h13.374c3.323 0 4.764-1.797 4.764-4.263 0-1.695-.816-2.904-2.068-3.678a4.28 4.28 0 001.149-2.841c0-2.153-1.024-3.845-4.346-3.845zM3.76 23.015h7.752c1.017 0 1.944 0 1.944 1.506 0 1.505-.92 1.525-1.922 1.525H3.761v-3.03zm8.693 9.007H3.76v-3.089h8.693c1.003 0 1.922 0 1.922 1.546s-.919 1.546-1.922 1.546v-.003zm24.889-11.701h-3.705v7.184c0 1.997-.556 4.324-5.352 4.324-4.795 0-5.353-2.307-5.353-4.324v-7.184h-3.705v7.184c0 5.024 2.712 7.432 9.058 7.432 6.347 0 9.057-2.43 9.057-7.432v-7.184zM48.219 32.04c-4.633 0-5.852-.692-5.852-2.204h-3.656c0 4.104 3.473 5.1 9.304 5.1 5.255 0 8.859-.772 8.859-4.578 0-3.597-3.475-3.898-9.082-4.205-4.145-.244-4.998-.448-4.998-1.544 0-1.057.848-1.402 4.45-1.402 3.799 0 5.363.386 5.363 1.95h3.657c0-3.515-3.252-4.856-8.615-4.856-5.322 0-8.513.995-8.513 4.125 0 3.19 2.46 4.164 8.656 4.45 4.612.223 5.424.426 5.424 1.604 0 1.131-1.153 1.56-4.997 1.56zm13.753-11.719h-3.761v14.627h3.761V20.321zm1.341 0v14.627h3.76v-10.97l9.968 10.97h5.12V20.321h-3.762v10.991l-9.99-10.99h-5.097zM99.006 31.96H87.304v-2.967h11.702v-2.717H87.304V23.31h11.702v-2.99H83.543v14.627h15.463V31.96zm10.387-5.819c-4.141-.242-4.989-.446-4.989-1.54 0-1.053.848-1.4 4.44-1.4 3.79 0 5.351.386 5.351 1.947h3.648c0-3.507-3.243-4.845-8.594-4.845-5.311 0-8.494.994-8.494 4.116 0 3.182 2.452 4.155 8.636 4.44 4.601.221 5.413.425 5.413 1.6 0 1.115-1.156 1.54-4.987 1.54-4.623 0-5.838-.688-5.838-2.188h-3.643c0 4.095 3.466 5.085 9.284 5.085 5.255 0 8.838-.77 8.838-4.56-.005-3.586-3.471-3.896-9.065-4.195zm19.517.018c-4.145-.243-4.999-.446-4.999-1.545 0-1.056.848-1.402 4.45-1.402 3.798 0 5.363.387 5.363 1.952h3.658c0-3.516-3.251-4.857-8.615-4.857-5.324 0-8.512.997-8.512 4.126 0 3.189 2.458 4.165 8.655 4.45 4.612.222 5.424.425 5.424 1.603 0 1.119-1.158 1.545-4.999 1.545-4.632 0-5.851-.69-5.851-2.194h-3.648c0 4.104 3.473 5.099 9.306 5.099 5.255 0 8.859-.771 8.859-4.577-.009-3.59-3.484-3.895-9.091-4.2zM8.924 40.636c5.638 0 8.475 2.143 8.831 6.225h-3.692c-.339-2.284-2.102-3.174-5.132-3.174-3.7 0-5.255 1.314-5.255 4.204 0 2.89 1.576 4.238 5.255 4.238 3.01 0 4.79-.91 5.132-3.22h3.7c-.364 4.103-3.195 6.271-8.832 6.271-6.225.007-8.9-2.58-8.9-7.289s2.675-7.255 8.893-7.255zm25.13 11.404v3.136H19.102V40.644h3.739V52.04h11.213zm38.821-1.093c0 2.454-1.434 4.238-4.746 4.238H54.824V40.632h12.817c3.305 0 4.324 1.685 4.324 3.828a4.26 4.26 0 01-1.142 2.827c1.242.77 2.052 1.977 2.052 3.66zm-14.308-4.595h7.736c.999 0 1.914 0 1.914-1.526s-.915-1.497-1.934-1.497h-7.716v3.023zm10.566 4.407c0-1.54-.916-1.54-1.914-1.54h-8.645v3.079h8.645c.998.002 1.914.002 1.914-1.537v-.002zM53.457 40.636H49.77v7.152c0 1.988-.555 4.305-5.33 4.305s-5.328-2.296-5.328-4.305v-7.152H35.43v7.152c0 5.002 2.712 7.399 9.018 7.399 6.305 0 9.018-2.419 9.018-7.4l-.009-7.15z"/></g></svg>