<svg width="141" height="29" fill="none" xmlns="http://www.w3.org/2000/svg"><path d="M66.163 5.544l1.819-3.998v3.182c0 .272 0 .455-.09.544a.54.54 0 01-.454.183h-.183v.09h2.001v-.09h-.182c-.183 0-.373-.09-.373-.183-.09-.09-.09-.272-.09-.544V1.636c0-.272 0-.455.09-.544a.685.685 0 01.455-.183h.182v-.09h-1.364L66.25 4.547 64.524.82H63.16v.089a.696.696 0 01.455.09c.104.037.197.1.272.182.037.15.067.302.09.455v3.089c0 .272 0 .454-.09.544a.541.541 0 01-.455.182h-.182v.09h1.635v-.09h-.182c-.183 0-.373-.09-.373-.182-.09-.09-.09-.272-.09-.544V1.546l1.82 3.998h.103zm12.36-.909c.085.141.146.295.183.455 0 .09 0 .182-.09.182-.09.09-.182.09-.372.09v.09h1.818v-.09a.686.686 0 01-.455-.183 1.29 1.29 0 01-.372-.637L77.614.637h-.108l-1.617 3.909c-.098.227-.223.44-.373.637-.09.09-.183.09-.373.09v.089h1.454v-.09a1.89 1.89 0 01-.455-.09c-.09-.089-.09-.089-.09-.182a.954.954 0 01.09-.454l.373-.745h1.818l.183.82.007.014zm-2-.998l.819-1.908.82 1.908h-1.64zM89.883.745a.336.336 0 01-.09.272l-.089.09c-.09 0-.09 0-.272-.09a1.29 1.29 0 00-.637-.183h-.454c-.412-.02-.82.075-1.182.272-.418.235-.763.58-.998 1a2.783 2.783 0 00-.272 1.18 2.47 2.47 0 00.559 1.532 2.663 2.663 0 002.09.909c.306.015.612-.015.91-.09l.819-.271v-1.64c0-.272 0-.455.09-.544a.47.47 0 01.372-.183h.09v-.093H89v.075c.183 0 .373 0 .373.09.09 0 .09.089.182.182.038.149.067.302.09.454v1.364c-.3.186-.647.28-.999.272a2.05 2.05 0 01-.91-.272 2.131 2.131 0 01-.744-.82 2.884 2.884 0 01-.291-1.27 2.657 2.657 0 01.373-1.453 1.49 1.49 0 011.363-.746 1.454 1.454 0 011.092.373c.223.227.38.51.455.82h.09L89.984.52l-.09.183-.01.041zm9.904 3.89c.085.141.147.295.183.455 0 .09 0 .182-.09.182-.089.09-.182.09-.372.09v.09h1.844v-.09a.684.684 0 01-.454-.183 3.03 3.03 0 01-.373-.637L98.883.637h-.09l-1.64 3.909a2.99 2.99 0 01-.372.637c-.09.09-.182.09-.372.09v.089h1.453v-.09a1.89 1.89 0 01-.455-.09c-.09-.089-.09-.089-.09-.182a.954.954 0 01.09-.454l.373-.745h1.818l.183.82.007.014zm-2-.998l.82-1.908.819 1.908h-1.64zM107.512.82l-.09 1.18h.09c.089-.271.089-.454.182-.543l.272-.272c.09-.09.272-.09.544-.09h1.547l-2.981 4.27v.09h3.815l.183-1.27h-.09a1.75 1.75 0 01-.454.82 1.41 1.41 0 01-.745.182h-1.908l3.089-4.442-3.454.075zm11.268 4.546a.334.334 0 01-.272-.09c-.09 0-.09-.09-.183-.183a4.636 4.636 0 01-.089-.454V1.658c0-.272 0-.455.089-.544a.687.687 0 01.455-.183h.182V.82h-1.997v.089h.183a.68.68 0 01.372.09c.09 0 .09.089.183.182v3.544c0 .272 0 .454-.09.544a.684.684 0 01-.454.182h-.183v.09h2.001v-.09l-.183-.09-.014.005zm5.727-4.472h.272c.089.09.272.09.272.183l.272.272v3.353c0 .272 0 .455-.09.544a.684.684 0 01-.454.183h-.183v.09h1.636v-.09h-.183a.465.465 0 01-.372-.183c-.09-.09-.09-.272-.09-.544V1.818l3.089 3.816h.09V1.636c0-.272 0-.455.089-.544a.548.548 0 01.444-.183h.182v-.09h-1.636v.09h.183a.687.687 0 01.455.183c.089.089.089.272.089.544v2.727L125.667.82h-1.249l.09.089V.894zm13.541.183c.272 0 .372 0 .454.09.082.089.183.089.272.182.09.093.09.272.183.544h.089l-.089-.999h-3.637v.09h.183c.182 0 .372 0 .454.182.09.09.09.272.09.544v3.47c0 .089-.09.089-.183.182a.336.336 0 01-.272.09h-.183v.089h3.637l.373-1.182h-.183c-.182.272-.272.544-.454.638a.475.475 0 01-.373.182 3.397 3.397 0 01-.544.09h-1.092l-.089-.09V3.182h.998a.697.697 0 01.455.09.193.193 0 01.183.182c.048.147.078.3.089.455h.089V2.273h-.089a.766.766 0 01-.168.544c0 .09-.182.09-.454.09h-.999V1.091l1.26-.015zM8.727 6.089c-1.182 0-2.635 0-4.364.09-.998.089-2.455.089-4.363.182v.637h1.729c1.092 0 1.628.637 1.628 1.818v16.448c0 .82-.179 1.367-.536 1.64-.272.271-.91.372-1.819.372H.548v.637h9.636v-.466H9.002c-.993 0-1.72-.181-2.18-.544-.372-.372-.637-1.092-.637-2.09V18.72c.983.187 1.981.278 2.981.271 2.389.012 4.29-.544 5.832-1.542 1.818-1.181 2.634-2.906 2.634-5.18a5.567 5.567 0 00-1.818-4.18c-1.36-1.275-3.723-2.001-7.087-2.001zm4.91 9.27c-1.092 1.988-2.91 2.981-5.45 2.981a9.423 9.423 0 01-1.908-.272V6.89c.78-.124 1.568-.185 2.358-.183 3.816 0 5.727 1.819 5.727 5.362a5.615 5.615 0 01-.726 3.29zm26.456 11.924c-.745-.182-1.27-.909-1.725-2l-7.27-19.377h-2.98l.272.745-6.402 17.342a16.44 16.44 0 01-.998 2.362c-.358.728-1.267 1.092-2.728 1.092v.637h8.097v-.637h-.544c-1.908 0-2.817-.454-2.817-1.27.201-.742.45-1.47.745-2.18l1.971-5.455h7.281l2.363 6.36c.212.458.338.95.372 1.453 0 .544-.372.91-.998 1.092h-2.74v.637h9.543v-.637a3.563 3.563 0 01-1.453-.182l.011.018zM26.27 16.995l2.981-8.197 3.09 8.197h-6.07zm39.988.997c-1.454-.909-2.363-1.546-2.728-1.818-.999-.82-1.546-1.725-1.546-2.634a2.175 2.175 0 01.909-1.908 3.19 3.19 0 012.09-.637 3.879 3.879 0 012.638.928 5.403 5.403 0 011.73 2.235h.454l-.455-3.454h-.454a.495.495 0 01-.455.272 5.039 5.039 0 01-.91-.183 7.17 7.17 0 00-2.727-.454 5.387 5.387 0 00-2.455.544c-1.546.745-2.363 1.908-2.363 3.454 0 1.092.545 2.18 1.454 3.182a21.204 21.204 0 002.906 2.18c1.453.91 2.362 1.546 2.728 1.818.998.91 1.546 1.819 1.546 2.728a2.665 2.665 0 01-1.17 2.381 4.136 4.136 0 01-2.635.82 4.527 4.527 0 01-2.98-1.092 5.27 5.27 0 01-1.636-2.728h-.574l.544 4.1h.455a.656.656 0 01.544-.273c.09 0 .372.09.998.183a11.18 11.18 0 002.817.544 6.152 6.152 0 003.816-1.181 4.057 4.057 0 001.725-3.454 4.496 4.496 0 00-1.453-3.272c-.373-.637-1.364-1.364-2.817-2.273l.004-.008zm19.994-5.816c-1.092-.999-2.98-1.546-5.544-1.546-.91 0-2.001 0-3.354.089-.82 0-1.908.09-3.454.183v.544h1.375c.82 0 1.27.454 1.27 1.453v12.728c0 .638-.182 1.092-.454 1.271-.42.215-.893.31-1.364.272h-.373v.544h7.542v-.54h-.909c-.61.04-1.215-.12-1.725-.455-.272-.272-.455-.82-.455-1.636v-4.728c.747.155 1.51.217 2.273.182 1.819 0 3.272-.372 4.472-1.18a4.567 4.567 0 002.09-3.999 4.13 4.13 0 00-1.364-3.182h-.026zm-1.725 5.545c-.82 1.546-2.273 2.272-4.27 2.272a12.675 12.675 0 01-1.453-.182v-8.634c.632-.085 1.27-.115 1.907-.09 2.981 0 4.472 1.365 4.472 4.182a6.936 6.936 0 01-.637 2.455l-.02-.003zm18.541 7.724l-5.637-15.087h-2.363l.272.637-4.907 13.451a7.08 7.08 0 01-.82 1.819c-.373.544-.998.82-2.18.909v.544h6.271v-.544h-.454c-1.453 0-2.18-.373-2.18-.999.127-.59.309-1.169.544-1.725l1.546-4.274h5.634l1.819 4.907c.137.351.228.718.272 1.092 0 .455-.272.745-.82.82a4.92 4.92 0 01-1.364.09h-.745v.543h7.452v-.547c-.454 0-.819-.09-1.181-.09-.454-.09-.82-.637-1.181-1.546h.022zm-9.453-6.443l2.273-6.36 2.362 6.36h-4.635zm22.357 8.451a6.94 6.94 0 01-5.362-2.455c-1.546-1.636-2.273-3.637-2.273-6.089a8.494 8.494 0 01.909-4.099c1.271-2.545 3.454-3.726 6.454-3.726a6.598 6.598 0 012.728.544 6.205 6.205 0 013.45 3.648h.544l-.272-3.909h-.373a.684.684 0 01-.454.183 3.964 3.964 0 01-1.271-.373 15.193 15.193 0 00-4.471-.745c-1.74-.041-3.46.365-4.997 1.181a8.021 8.021 0 00-3.428 3.29 8.872 8.872 0 00-1.271 4.636 8.387 8.387 0 001.181 4.471 8.058 8.058 0 003.544 3.19 10.248 10.248 0 004.725.998c.607.02 1.215-.01 1.818-.089 1.092-.183 2.18-.373 3.272-.637h.998c.183-.272.373-.745.638-1.181.432-.88.797-1.792 1.091-2.728h-.555c-1.546 2.635-3.726 3.909-6.632 3.909l.007-.019zm23.903-3.815a7.433 7.433 0 01-.745 1.818c-.454.82-1.271 1.181-2.455 1.181h-4.163a1.55 1.55 0 01-1.181-.372 1.82 1.82 0 01-.372-1.182v-5.816h4.546c.745 0 1.181.182 1.453.544.258.478.413 1.005.454 1.546h.544v-5.183h-.544a4.81 4.81 0 01-.372 1.453 1.29 1.29 0 01-1.256.63h-4.818v-6.625h5.727c1.092 0 1.725.91 2.001 2.817h.455l-.183-3.816h-12.907v.544h.637a2.55 2.55 0 011.364.272c.546.274.819.91.819 1.908v11.454c-.002.46-.064.92-.182 1.364-.272.637-.999.91-2.363.91h-.745v.543h14.45l.444-3.998h-.637l.029.008zM37.082 6.633a9.74 9.74 0 013.272-.637c1.725 0 5.634 4.725 7.452 4.635 4.725-.272 2.545.373 1.092 1.454-2.728 1.095-11.816-5.452-11.816-5.452zm11.272 21.91s1.636-11.816 10.359-21.72c-.544-.999-2.907-.82-3.726-.373-8.269 13.366-6.633 22.092-6.633 22.092z" fill="#161616"/><path d="M48.355 28.542a38.31 38.31 0 00-1.454-4.997c-.637-6 5.452-12.814 5.452-12.814s-6.36 7.362-10.434 2.09c-2-2.545-2-2.545-4.817-6 3.543-1.363 6.632 3.816 10.724 3.816 3.998 0 6.36-5.816 9.907-4.363-8.834 11.54-9.378 22.268-9.378 22.268z" fill="#161616"/><path d="M48.26 0a3.57 3.57 0 013.636 3.503v.041a3.57 3.57 0 01-3.503 3.637h-.13a3.55 3.55 0 01-3.547-3.544A3.568 3.568 0 0148.218.001h.041z" fill="#161616"/><path d="M50.716 2.092a2.906 2.906 0 01-.089 3.815C49.628 7 47.993 7.09 47.083 6.18c-.909-.998 2.18-.745 3.183-1.907.994-1.088-.552-3.09.45-2.18z" fill="#161616"/></svg>