<svg width="168" height="53" fill="none" xmlns="http://www.w3.org/2000/svg"><path d="M155.581 19.798c0 2.509-.871 4.497-2.612 5.964-1.741 1.468-4.074 2.202-6.999 2.202h-6.185v-16.33h6.185c2.925 0 5.258.734 6.999 2.201 1.741 1.468 2.612 3.456 2.612 5.963z" fill="#161616"/><path d="M113.505 12.612l-4.64 10.084h9.277l-4.637-10.084zm0 0l-4.64 10.084h9.277l-4.637-10.084zm54.442-3.674s.994-8.823-9.644-8.887c-10.614-.065-108.718 0-109.105 0-.112 0-9.018-.345-9.018 8.75v22.08s-.135 8.077 9.019 8.077H159.45s8.385-.542 8.5-8.885c.115-8.342-.005-21.135-.005-21.135h.001zM69.169 32.97H47.73V6.63h6.773v21.373h14.666v4.967zm26.45 0H72.97V6.63h22.106v4.892H79.697v5.72h13.581v4.74h-13.58v6.097h15.92l.001 4.891zm27.248 0l-2.59-5.644h-13.584l-2.591 5.644h-6.937l13.038-26.34h6.682l13.08 26.34h-7.098zm37.544-6.245c-1.353 1.98-3.247 3.517-5.684 4.61-2.437 1.093-5.244 1.639-8.42 1.637h-13.289V6.629h13.289c3.176 0 5.983.546 8.42 1.638 2.437 1.091 4.332 2.628 5.683 4.61 1.351 1.981 2.027 4.289 2.027 6.923 0 2.634-.676 4.942-2.027 6.924h.001zm-51.546-4.028h9.277l-4.637-10.084-4.64 10.084zm4.64-10.084l-4.64 10.084h9.277l-4.637-10.084zm0 0l-4.64 10.084h9.277l-4.637-10.084zM38.373 8.798s.606-8.77-8.144-8.792C21.48-.014 9.028.023 9.028.023S-.06-.766.008 8.663c.067 9.427 0 21.382 0 21.382s-.605 8.813 8.683 8.882c9.288.068 20.663 0 20.663 0s8.952.75 9.019-8.677c.067-9.428 0-21.452 0-21.452zm-2.89 13.177c0 3.781-1.43 6.69-4.288 8.726-2.86 2.035-6.857 3.054-11.993 3.055-5.136 0-9.134-1.019-11.993-3.056-2.86-2.036-4.29-4.945-4.29-8.726V7.544h8.322v14.211c0 4.614 2.671 6.921 8.014 6.921 2.602 0 4.588-.558 5.96-1.675 1.37-1.116 2.055-2.865 2.053-5.246V7.543h8.217l-.002 14.432zM8.555 48.78c.298.397.452.887.452 1.467 0 .821-.313 1.453-.938 1.896-.626.442-1.54.664-2.743.664H.575v-9.381h4.49c1.12 0 1.979.219 2.579.656a2.093 2.093 0 01.903 1.783c.007.428-.104.85-.322 1.219-.218.359-.53.65-.903.844a2.42 2.42 0 011.234.85v.001zm-5.869-3.72v2.211H4.8c.525 0 .923-.093 1.195-.281.271-.188.407-.465.406-.831 0-.367-.135-.64-.406-.824-.271-.183-.67-.27-1.195-.27H2.688l-.002-.005zm3.752 5.829c.284-.188.427-.478.427-.87 0-.779-.565-1.167-1.694-1.167H2.688v2.318h2.48c.56 0 .983-.093 1.27-.281zm5.631.964c-.73-.742-1.096-1.8-1.096-3.175v-5.252h2.126v5.173c0 1.679.683 2.518 2.048 2.518.665 0 1.173-.203 1.522-.608.35-.406.525-1.043.526-1.91v-5.173h2.1v5.252c0 1.376-.365 2.434-1.096 3.175-.73.741-1.753 1.112-3.066 1.113-1.312 0-2.336-.371-3.07-1.113h.006zm10.663.814c-.678-.2-1.223-.462-1.634-.784l.722-1.634a4.88 4.88 0 001.405.71 5.193 5.193 0 001.625.271c.602 0 1.049-.09 1.34-.27.29-.181.434-.425.432-.73a.706.706 0 00-.256-.556 1.925 1.925 0 00-.656-.356c-.27-.09-.632-.188-1.084-.293a14.829 14.829 0 01-1.715-.51 2.788 2.788 0 01-1.149-.818c-.32-.376-.48-.875-.48-1.5a2.65 2.65 0 01.434-1.481c.29-.443.725-.794 1.307-1.052.582-.26 1.293-.389 2.133-.389.578 0 1.155.072 1.715.214.52.124 1.018.33 1.475.609l-.657 1.649c-.849-.492-1.697-.738-2.546-.738-.595 0-1.036.1-1.32.295a.903.903 0 00-.426.778c0 .321.164.561.492.716.328.154.829.31 1.502.463a15.08 15.08 0 011.72.508c.444.169.839.445 1.149.804.32.367.48.863.478 1.488a2.592 2.592 0 01-.44 1.467c-.292.443-.732.794-1.318 1.052-.587.257-1.3.387-2.14.389a7.357 7.357 0 01-2.107-.303l-.001.001zm7.944-9.241h2.129v9.38h-2.13v-9.38zm13.169 0v9.38h-1.75l-4.58-5.694v5.695h-2.097v-9.381h1.759l4.569 5.695v-5.695h2.1zm9.759 7.638v1.743h-7.116v-9.381h6.944v1.742h-4.83v2.041h4.266v1.689H48.6v2.167h5.003v-.001zm3.046 1.603c-.678-.2-1.223-.462-1.634-.784l.722-1.634a4.88 4.88 0 001.405.71 5.193 5.193 0 001.625.271c.602 0 1.049-.09 1.34-.27.29-.181.434-.425.432-.73a.706.706 0 00-.256-.556 1.925 1.925 0 00-.656-.356c-.27-.09-.632-.188-1.084-.293a14.829 14.829 0 01-1.715-.51 2.787 2.787 0 01-1.149-.818c-.32-.376-.48-.875-.48-1.5a2.65 2.65 0 01.434-1.481c.29-.443.725-.794 1.307-1.052.582-.26 1.293-.389 2.133-.389.578 0 1.154.072 1.715.214.52.127 1.016.335 1.471.616l-.656 1.649c-.85-.492-1.698-.738-2.547-.738-.595 0-1.035.1-1.319.296a.903.903 0 00-.427.777c0 .322.164.562.492.716.328.154.829.31 1.503.463.581.135 1.154.305 1.715.509.444.168.839.444 1.149.803.32.367.479.863.478 1.488a2.591 2.591 0 01-.44 1.467c-.293.443-.732.794-1.319 1.052-.586.257-1.3.387-2.14.389a7.36 7.36 0 01-2.104-.31l.005.001zm8.797-.003c-.678-.2-1.223-.462-1.635-.784l.723-1.634a4.88 4.88 0 001.405.71 5.19 5.19 0 001.625.271c.602 0 1.049-.09 1.34-.27.29-.181.434-.425.432-.73a.704.704 0 00-.256-.556 1.924 1.924 0 00-.656-.356c-.271-.09-.632-.188-1.084-.293a14.825 14.825 0 01-1.715-.51 2.786 2.786 0 01-1.149-.825c-.32-.377-.48-.875-.48-1.5a2.651 2.651 0 01.434-1.482c.289-.442.725-.793 1.307-1.052.582-.258 1.293-.388 2.132-.388.579 0 1.155.072 1.716.214.52.127 1.016.334 1.47.616l-.656 1.649c-.848-.492-1.697-.738-2.546-.738-.595 0-1.035.1-1.32.295a.904.904 0 00-.426.778c0 .321.164.561.492.716.328.154.829.31 1.503.463a15.14 15.14 0 011.72.508c.443.169.838.445 1.148.804.32.367.48.863.479 1.488a2.591 2.591 0 01-.44 1.467c-.293.443-.733.794-1.32 1.052-.586.257-1.299.387-2.14.389a7.358 7.358 0 01-2.106-.303l.003.001zm13.925-.321a4.59 4.59 0 01-1.785-1.729 5.133 5.133 0 010-4.997 4.588 4.588 0 011.785-1.728 5.22 5.22 0 012.553-.623 5.278 5.278 0 012.16.429c.632.275 1.19.698 1.626 1.232l-1.373 1.288c-.621-.732-1.391-1.099-2.31-1.1a3.022 3.022 0 00-1.521.377 2.696 2.696 0 00-1.045 1.07 3.411 3.411 0 000 3.108c.24.446.602.816 1.044 1.065.465.26.99.392 1.523.382.92 0 1.69-.37 2.31-1.112l1.366 1.286a4.28 4.28 0 01-1.625 1.247 5.315 5.315 0 01-2.167.43 5.19 5.19 0 01-2.54-.624h-.001zm9.888-.007a4.623 4.623 0 01-1.798-1.734 5.083 5.083 0 010-4.971 4.623 4.623 0 011.798-1.735 5.587 5.587 0 015.153 0 4.678 4.678 0 011.798 1.735 5.033 5.033 0 010 4.97 4.665 4.665 0 01-1.798 1.735 5.58 5.58 0 01-5.153 0zm4.051-1.6a2.709 2.709 0 001.03-1.066 3.417 3.417 0 000-3.108 2.721 2.721 0 00-1.03-1.066 3.021 3.021 0 00-2.94 0 2.715 2.715 0 00-1.031 1.066 3.417 3.417 0 000 3.108c.238.444.594.813 1.03 1.065a3.021 3.021 0 002.941 0zm13.981 2.071l-.014-5.628-2.703 4.635h-.959l-2.69-4.514v5.508H98.93v-9.382h1.76l3.442 5.828 3.386-5.828h1.745l.026 9.38h-1.997v.002zm12.984 0l-.013-5.628-2.704 4.635h-.959l-2.689-4.514v5.508h-1.997v-9.382h1.76l3.439 5.828 3.386-5.828h1.746l.026 9.38h-1.995v.002zm5.624-.954c-.731-.742-1.096-1.8-1.095-3.175v-5.253h2.125v5.173c0 1.68.683 2.519 2.048 2.519.666 0 1.174-.203 1.523-.609.35-.406.526-1.042.527-1.91v-5.173h2.1v5.253c0 1.375-.365 2.434-1.095 3.175-.73.74-1.754 1.111-3.07 1.112-1.314 0-2.338-.37-3.07-1.112h.007zm18.211-8.427v9.38h-1.745l-4.582-5.694v5.695h-2.1v-9.381h1.759l4.568 5.695v-5.695h2.1zm2.619 0h2.127v9.38h-2.127v-9.38zm6.656 1.769h-2.941v-1.77h8.008v1.77h-2.94v7.611h-2.127v-7.61zm10.903 4.287v3.325h-2.127v-3.351l-3.557-6.03h2.258l2.455 4.167 2.455-4.167h2.088l-3.571 6.056h-.001z" fill="#161616"/></svg>