<svg width="154" height="47" viewBox="0 0 154 47" fill="none" xmlns="http://www.w3.org/2000/svg">
<path d="M58.4341 40.8479C62.5082 35.3206 61.783 26.0695 55.5469 22.5848C56.3617 21.6858 57.2988 20.8465 57.9778 19.8307C59.6373 17.34 59.9497 14.518 59.6455 11.609C59.4944 9.96585 58.9695 8.379 58.1109 6.96991C58.023 6.85953 57.9815 6.7193 57.9952 6.57888C58.0089 6.43846 58.0767 6.30888 58.1842 6.21755C60.0855 3.84911 62.53 2.24932 65.3765 1.21992C67.8215 0.286228 70.4365 -0.119213 73.0494 0.0302636C77.6179 0.35348 81.7926 1.69252 85.0383 5.13111C87.0253 7.22278 88.217 9.94433 88.4063 12.8231C88.5095 14.1431 88.1646 14.6429 86.725 14.6293C84.7722 14.613 82.8193 14.5831 80.8691 14.6429C79.9321 14.6728 79.4404 14.2925 79.0982 13.4614C78.2834 11.4922 76.9009 10.0961 74.7905 9.57737C73.3953 9.22092 71.9412 9.15895 70.5208 9.39539C67.112 9.98478 64.9337 12.3831 64.8957 15.8407C64.8414 20.9578 64.8305 26.0777 64.912 31.1921C64.9609 34.3917 67.3022 36.8145 70.4746 37.2708C72.5144 37.5641 74.4781 37.4256 76.3142 36.4233C77.8081 35.6085 78.6066 34.2993 78.8809 32.6425C78.9481 32.1765 79.0388 31.7142 79.1525 31.2573C79.2045 30.9805 79.3563 30.7324 79.5791 30.5601C79.8019 30.3879 80.0802 30.3035 80.3612 30.323C82.5205 30.323 84.6771 30.3067 86.8364 30.323C87.8549 30.323 88.2895 30.7494 88.3628 31.7924C88.5888 34.7553 87.7027 37.6962 85.8776 40.0412C83.6477 43.0126 80.6464 44.884 77.1019 45.8564C70.8087 47.5838 65.1021 46.3398 60.0149 42.2657C59.4445 41.8311 58.9447 41.315 58.4341 40.8479Z" fill="#161616"/>
<path d="M18.787 17.7497C18.931 17.4944 19.0369 17.3314 19.1211 17.1576C21.476 12.3447 23.8471 7.53718 26.183 2.70795C26.7262 1.59978 27.484 1.02397 28.7225 1.03212C31.0041 1.03212 33.2856 1.01039 35.5671 1.03212C36.6346 1.03212 37.0338 1.71658 36.583 2.76771C36.1946 3.67217 35.741 4.54947 35.301 5.42949C31.4586 13.0817 27.6171 20.7338 23.7765 28.386C23.5989 28.7527 23.5061 29.1546 23.5049 29.5621C23.4805 34.1251 23.4832 38.6882 23.4805 43.2512C23.4805 43.4984 23.4805 43.7455 23.4805 43.9927C23.4343 45.128 23.0513 45.5735 21.9078 45.5925C19.735 45.6341 17.5557 45.6341 15.3702 45.5925C14.2837 45.5735 13.9578 45.234 13.8193 44.1638C13.7894 43.857 13.7785 43.5486 13.7867 43.2403C13.7867 38.6556 13.7867 34.0708 13.7731 29.4887C13.7764 29.1228 13.6975 28.7608 13.5423 28.4294C11.1249 23.7759 8.70306 19.1304 6.27668 14.4931C4.53294 11.1415 2.79101 7.79159 1.05089 4.44354C0.765704 3.90032 0.475081 3.3571 0.198039 2.81388C-0.277279 1.83337 0.121988 1.07829 1.19213 1.07829C3.65835 1.05656 6.12458 1.07829 8.5908 1.07829C9.73428 1.07829 10.4921 1.58349 10.9837 2.58573C13.0407 6.66532 15.1076 10.744 17.1845 14.8218C17.6028 15.6457 18.0293 16.4668 18.4638 17.2853C18.5628 17.446 18.6707 17.6011 18.787 17.7497Z" fill="#161616"/>
<path d="M41.8106 35.914C40.2271 35.914 38.6463 35.914 37.0629 35.914C35.7727 35.914 35.3164 35.4631 35.3164 34.1838C35.3164 26.8684 35.3164 19.5531 35.3164 12.2377C35.3164 11.0861 35.7999 10.608 36.9596 10.608C39.8985 10.608 42.8373 10.5836 45.7734 10.6379C46.567 10.6838 47.3509 10.8364 48.1038 11.0915C48.5553 11.2162 48.9596 11.4724 49.2652 11.8273C49.5708 12.1823 49.7641 12.6201 49.8204 13.0851C50.1599 15.1874 49.8204 16.722 48.3021 17.4553C47.3515 17.9089 46.2216 17.9985 45.1596 18.1995C44.6686 18.2477 44.1746 18.2576 43.682 18.2294C42.7748 18.2593 42.2316 18.7265 42.0741 19.6173C42.0252 19.858 41.9979 20.1025 41.9926 20.348C41.9926 22.0754 41.9709 23.8001 41.9926 25.5276C42.017 27.0703 42.6091 27.6108 44.1437 27.6434C45.19 27.6309 46.2361 27.6853 47.2754 27.8064C49.7389 28.1812 50.8579 29.8082 50.5347 32.4238C50.2631 34.5478 48.8833 35.8325 46.7322 35.8705C45.0889 35.8977 43.4457 35.8705 41.8025 35.8705L41.8106 35.914Z" fill="#161616"/>
<path d="M99.6947 12.753V8.69514L97.0547 1.44043H98.0434L99.5508 5.80249C99.6133 5.99534 99.711 6.28596 99.8468 6.67436C99.9827 7.06277 100.086 7.35339 100.156 7.54623L100.759 5.7862L102.27 1.44043H103.266L100.624 8.69514V12.753H99.6947Z" fill="#161616"/>
<path d="M108.549 12.1399C108.297 12.3936 107.996 12.595 107.666 12.7324C107.336 12.8698 106.981 12.9406 106.623 12.9406C106.265 12.9406 105.911 12.8698 105.58 12.7324C105.25 12.595 104.95 12.3936 104.698 12.1399C104.219 11.6075 103.98 10.8515 103.98 9.87192V7.15582C103.98 6.1744 104.219 5.41751 104.698 4.88516C104.95 4.6314 105.25 4.43003 105.58 4.29262C105.911 4.15521 106.265 4.08447 106.623 4.08447C106.981 4.08447 107.336 4.15521 107.666 4.29262C107.996 4.43003 108.297 4.6314 108.549 4.88516C109.024 5.42838 109.266 6.17531 109.266 7.15582V9.87192C109.266 10.8497 109.024 11.6075 108.549 12.1399ZM106.623 12.0041C107.78 12.0041 108.359 11.2934 108.359 9.87192V7.15582C108.359 5.73258 107.78 5.02187 106.623 5.02368C105.466 5.02549 104.888 5.7362 104.888 7.15582V9.87192C104.888 11.2934 105.466 12.0041 106.623 12.0041Z" fill="#161616"/>
<path d="M116.206 4.27014H117.097V12.7552H116.358L116.206 11.7068C116.024 12.093 115.732 12.4169 115.367 12.6382C115.002 12.8594 114.579 12.9681 114.153 12.9508C112.735 12.9508 112.025 11.8644 112.023 9.69148V4.25928H112.914V9.55296C112.914 10.4149 113.03 11.0486 113.262 11.4542C113.374 11.6484 113.538 11.8073 113.736 11.9129C113.934 12.0185 114.157 12.0666 114.381 12.0518C114.644 12.0565 114.904 11.9944 115.136 11.8713C115.368 11.7483 115.565 11.5683 115.709 11.3483C116.071 10.7715 116.244 10.0968 116.206 9.41716V4.27014Z" fill="#161616"/>
<path d="M122.987 4.07503C124.405 4.07503 125.115 5.16148 125.117 7.33436V12.753H124.226V7.46745C124.226 6.60373 124.11 5.96997 123.878 5.56618C123.767 5.37158 123.604 5.21226 123.406 5.10655C123.209 5.00084 122.985 4.95304 122.762 4.96863C122.499 4.96371 122.239 5.02538 122.006 5.1479C121.774 5.27042 121.576 5.44981 121.431 5.66939C121.07 6.24645 120.896 6.92097 120.934 7.60054V12.753H120.043V4.26788H120.782L120.934 5.31901C121.116 4.93285 121.408 4.60892 121.773 4.38768C122.138 4.16644 122.561 4.0577 122.987 4.07503Z" fill="#161616"/>
<path d="M101.582 23.0019C101.829 23.0714 102.06 23.1894 102.261 23.3489C102.462 23.5083 102.629 23.7061 102.753 23.9308C103.06 24.5021 103.208 25.1459 103.179 25.794C103.179 26.7935 102.946 27.5595 102.479 28.0864C102.232 28.3543 101.93 28.5644 101.592 28.7015C101.255 28.8386 100.892 28.8994 100.528 28.8795H98.1328V17.5561H100.306C100.648 17.5374 100.99 17.597 101.306 17.7301C101.621 17.8633 101.903 18.0667 102.128 18.3247C102.566 18.8354 102.785 19.5597 102.783 20.4976C102.807 21.0723 102.695 21.6445 102.457 22.168C102.286 22.5498 101.972 22.8492 101.582 23.0019ZM100.317 18.4931H98.9585V22.5972H100.344C101.416 22.5972 101.953 21.8973 101.954 20.4976C101.954 19.1613 101.408 18.4931 100.317 18.4931ZM100.528 27.9289C100.78 27.9475 101.032 27.9099 101.267 27.8188C101.502 27.7276 101.714 27.5852 101.886 27.402C102.183 27.0507 102.332 26.5075 102.332 25.7723C102.371 25.1708 102.183 24.5765 101.805 24.1073C101.623 23.9118 101.401 23.7585 101.154 23.658C100.906 23.5576 100.64 23.5126 100.374 23.5261H98.9585V27.9207L100.528 27.9289Z" fill="#161616"/>
<path d="M110.202 20.3786H111.093V28.861H110.354L110.202 27.8099C110.02 28.196 109.728 28.5199 109.363 28.7412C108.998 28.9624 108.576 29.0712 108.149 29.0538C106.731 29.0538 106.021 27.9674 106.02 25.7945V20.3623H106.91V25.6614C106.91 26.5215 107.026 27.1553 107.258 27.5627C107.37 27.7573 107.534 27.9165 107.732 28.0222C107.93 28.1279 108.153 28.1757 108.377 28.1602C108.643 28.1661 108.906 28.1035 109.141 27.9784C109.376 27.8533 109.575 27.6699 109.719 27.4459C110.075 26.8684 110.244 26.1948 110.202 25.5175V20.3786Z" fill="#161616"/>
<path d="M116.384 29.053C116.065 29.0642 115.747 29.0031 115.454 28.8743C115.162 28.7454 114.902 28.5521 114.695 28.3087C114.25 27.7511 114.027 27.049 114.067 26.3369H114.855C114.827 26.8087 114.973 27.2744 115.265 27.646C115.407 27.8035 115.582 27.9271 115.778 28.008C115.974 28.0888 116.186 28.1248 116.398 28.1132C116.584 28.1245 116.771 28.0965 116.946 28.031C117.121 27.9655 117.28 27.8639 117.413 27.7329C117.668 27.4421 117.798 27.0624 117.775 26.6764C117.78 26.5016 117.749 26.3278 117.684 26.1653C117.62 26.0028 117.523 25.8551 117.4 25.7312C117.141 25.4716 116.835 25.2633 116.498 25.1173C116.145 24.9598 115.792 24.7941 115.439 24.6148C115.073 24.4252 114.761 24.1447 114.534 23.8C114.257 23.3383 114.128 22.8024 114.166 22.2651C114.203 21.7277 114.405 21.2148 114.744 20.796C114.94 20.5891 115.178 20.4265 115.442 20.3192C115.706 20.2119 115.99 20.1624 116.275 20.174C116.576 20.1679 116.875 20.2305 117.148 20.3571C117.421 20.4838 117.661 20.671 117.851 20.9046C118.271 21.4464 118.482 22.1213 118.446 22.8059H117.655C117.682 22.3632 117.551 21.9254 117.286 21.5701C117.161 21.4223 117.003 21.3055 116.826 21.2287C116.648 21.1519 116.455 21.1172 116.262 21.1274C116.085 21.1172 115.907 21.1443 115.741 21.207C115.575 21.2697 115.424 21.3666 115.298 21.4913C115.052 21.7738 114.927 22.1416 114.95 22.5153C114.945 22.684 114.975 22.8519 115.04 23.0079C115.105 23.1638 115.202 23.3042 115.325 23.4198C115.594 23.6632 115.904 23.8572 116.24 23.9929C116.593 24.1504 116.946 24.3188 117.297 24.5035C117.697 24.714 118.03 25.0336 118.256 25.4254C118.483 25.8171 118.594 26.265 118.576 26.7171C118.604 27.3391 118.388 27.9474 117.973 28.412C117.77 28.6268 117.523 28.7952 117.248 28.9058C116.974 29.0165 116.679 29.0666 116.384 29.053Z" fill="#161616"/>
<path d="M122.913 18.6034C122.77 18.7379 122.581 18.8127 122.384 18.8127C122.188 18.8127 121.999 18.7379 121.856 18.6034C121.729 18.4425 121.66 18.2435 121.66 18.0385C121.66 17.8335 121.729 17.6345 121.856 17.4735C121.998 17.3379 122.188 17.2622 122.384 17.2622C122.581 17.2622 122.77 17.3379 122.913 17.4735C123.041 17.6339 123.111 17.8331 123.111 18.0385C123.111 18.2438 123.041 18.4431 122.913 18.6034ZM121.943 28.8622V20.3798H122.834V28.8622H121.943Z" fill="#161616"/>
<path d="M129.275 20.188C130.53 20.188 131.159 21.2699 131.16 23.4337V28.8659H130.362V23.5804C130.362 22.7194 130.261 22.0893 130.055 21.6791C129.969 21.4923 129.828 21.3356 129.652 21.2291C129.476 21.1226 129.272 21.0712 129.066 21.0816C128.825 21.0818 128.589 21.147 128.382 21.2703C128.175 21.3936 128.005 21.5705 127.89 21.7823C127.567 22.3729 127.415 23.0414 127.45 23.7135V28.8524H126.668V20.3808H127.323L127.458 21.432C127.849 20.6008 128.461 20.188 129.275 20.188Z" fill="#161616"/>
<path d="M138.338 26.2603H139.101C139.051 27.153 138.82 27.8366 138.409 28.311C138.202 28.548 137.944 28.7352 137.654 28.8584C137.364 28.9816 137.05 29.0377 136.736 29.0226C136.425 29.0326 136.117 28.9656 135.839 28.8277C135.561 28.6898 135.321 28.4852 135.141 28.2322C134.75 27.7026 134.555 26.9611 134.555 26.0023V23.2074C134.555 22.2477 134.753 21.5044 135.15 20.9775C135.331 20.7249 135.572 20.5208 135.851 20.383C136.13 20.2452 136.438 20.1779 136.749 20.1871C137.067 20.1766 137.383 20.243 137.67 20.3806C137.957 20.5182 138.207 20.7229 138.398 20.9775C138.805 21.5044 139.012 22.2486 139.012 23.2074V25.0815H135.329V26.0023C135.329 27.3893 135.807 28.0837 136.763 28.0855C136.97 28.1002 137.178 28.0681 137.372 27.9914C137.565 27.9148 137.738 27.7956 137.879 27.6428C138.172 27.2406 138.332 26.7576 138.338 26.2603ZM136.763 21.1242C135.807 21.1242 135.329 21.8186 135.329 23.2074V24.1934H138.243V23.2074C138.243 21.8168 137.75 21.1223 136.763 21.1242Z" fill="#161616"/>
<path d="M144.469 29.0521C144.158 29.061 143.85 28.9986 143.567 28.8696C143.285 28.7405 143.036 28.5484 142.839 28.3078C142.401 27.7478 142.18 27.0488 142.215 26.3387H142.983C142.954 26.8085 143.094 27.2733 143.38 27.6478C143.514 27.8026 143.681 27.925 143.869 28.0059C144.058 28.0868 144.262 28.1241 144.466 28.115C144.648 28.1257 144.83 28.0973 145 28.0317C145.17 27.9661 145.324 27.8648 145.452 27.7347C145.7 27.4406 145.826 27.0623 145.803 26.6782C145.808 26.5043 145.779 26.3311 145.716 26.1688C145.654 26.0065 145.559 25.8583 145.439 25.733C145.189 25.4739 144.892 25.2654 144.564 25.1191C144.222 24.9616 143.879 24.7959 143.537 24.6167C143.225 24.427 142.956 24.173 142.75 23.8716C142.543 23.5701 142.403 23.2281 142.34 22.8683C142.276 22.5085 142.289 22.1392 142.379 21.785C142.469 21.4308 142.633 21.0998 142.861 20.8141C143.048 20.6077 143.279 20.4449 143.536 20.3374C143.793 20.23 144.071 20.1803 144.349 20.1921C144.644 20.1817 144.937 20.2407 145.204 20.3643C145.472 20.4879 145.706 20.6727 145.889 20.9037C146.299 21.4499 146.504 22.123 146.468 22.805H145.702C145.728 22.3646 145.602 21.9285 145.346 21.5692C145.226 21.4335 145.08 21.3231 144.917 21.2447C144.754 21.1662 144.576 21.1212 144.395 21.1124C144.214 21.1035 144.033 21.1309 143.863 21.1931C143.693 21.2552 143.537 21.3508 143.404 21.4741C143.164 21.7592 143.043 22.1261 143.067 22.4981C143.062 22.6658 143.092 22.8329 143.154 22.9886C143.217 23.1443 143.311 23.2852 143.431 23.4026C143.686 23.6496 143.984 23.8492 144.309 23.992C144.651 24.1495 144.993 24.3179 145.335 24.5026C145.693 24.6999 145.995 24.9861 146.21 25.3337C146.465 25.7484 146.592 26.2295 146.574 26.7162C146.603 27.335 146.394 27.9415 145.99 28.4111C145.798 28.6219 145.563 28.7884 145.3 28.8991C145.037 29.0098 144.754 29.062 144.469 29.0521Z" fill="#161616"/>
<path d="M151.854 29.0502C151.541 29.0607 151.229 28.999 150.943 28.87C150.657 28.741 150.405 28.548 150.205 28.306C149.765 27.7461 149.542 27.0456 149.578 26.3341H150.349C150.321 26.8043 150.462 27.2691 150.749 27.6433C150.885 27.8006 151.055 27.9246 151.247 28.0056C151.439 28.0866 151.646 28.1225 151.854 28.1104C152.037 28.1214 152.22 28.0931 152.391 28.0275C152.562 27.9619 152.717 27.8606 152.845 27.7302C153.096 27.437 153.222 27.0582 153.199 26.6736C153.203 26.4998 153.174 26.3268 153.111 26.1646C153.049 26.0023 152.955 25.8541 152.835 25.7284C152.582 25.4697 152.282 25.2614 151.952 25.1146C151.607 24.957 151.262 24.7914 150.92 24.6121C150.606 24.4239 150.336 24.1706 150.128 23.8694C149.92 23.5682 149.779 23.226 149.715 22.8657C149.65 22.5055 149.664 22.1356 149.754 21.781C149.844 21.4263 150.009 21.0951 150.238 20.8095C150.427 20.6035 150.659 20.4411 150.918 20.3337C151.176 20.2263 151.455 20.1764 151.735 20.1876C152.031 20.1775 152.325 20.2368 152.595 20.3608C152.864 20.4849 153.101 20.6702 153.285 20.9019C153.697 21.4477 153.902 22.1208 153.867 22.8032H153.095C153.122 22.3622 152.995 21.9257 152.737 21.5673C152.49 21.2994 152.146 21.1405 151.782 21.1258C151.418 21.111 151.063 21.2415 150.795 21.4886C150.56 21.7698 150.441 22.1304 150.463 22.4962C150.458 22.664 150.488 22.831 150.55 22.9867C150.613 23.1424 150.707 23.2834 150.827 23.4007C151.085 23.6474 151.384 23.8469 151.71 23.9901C152.055 24.1476 152.4 24.316 152.745 24.5007C153.104 24.6986 153.407 24.9846 153.625 25.3319C153.882 25.7459 154.011 26.2271 153.994 26.7144C154.023 27.3336 153.813 27.9401 153.408 28.4092C153.211 28.623 152.97 28.7912 152.702 28.9019C152.434 29.0127 152.144 29.0633 151.854 29.0502Z" fill="#161616"/>
<path d="M102.263 44.3026C102.02 44.5782 101.72 44.7982 101.385 44.9477C101.049 45.0971 100.686 45.1725 100.318 45.1686C99.9509 45.1648 99.5887 45.0818 99.2564 44.9253C98.924 44.7688 98.6293 44.5425 98.3923 44.2618C97.9007 43.6589 97.6562 42.8169 97.6562 41.7413V36.7763C97.6562 35.6898 97.8971 34.8487 98.3787 34.253C98.6017 33.9626 98.8902 33.7291 99.2206 33.5714C99.551 33.4138 99.914 33.3365 100.28 33.3458C100.646 33.3325 101.01 33.4029 101.345 33.5516C101.679 33.7004 101.976 33.9235 102.211 34.2041C102.691 34.7745 102.955 35.5893 103.004 36.6486H102.162C102.066 35.0606 101.439 34.2657 100.28 34.2639C100.028 34.256 99.7783 34.3097 99.552 34.4205C99.3257 34.5313 99.1299 34.6957 98.9817 34.8994C98.6585 35.3259 98.4955 35.9506 98.4955 36.779V41.744C98.4955 42.5588 98.6612 43.1971 98.9953 43.6208C99.1514 43.8261 99.3545 43.9909 99.5875 44.1015C99.8205 44.2121 100.077 44.2652 100.334 44.2564C101.468 44.2564 102.102 43.4624 102.236 41.8744H103.078C103.015 42.9038 102.741 43.7186 102.263 44.3026Z" fill="#161616"/>
<path d="M115.429 36.4909H116.244V44.9733H115.576L115.437 43.9222C115.039 44.7515 114.42 45.1661 113.582 45.1661C112.298 45.1661 111.656 44.0797 111.656 41.9068V36.4746H112.471V41.7574C112.471 42.6193 112.576 43.2531 112.786 43.6587C112.877 43.8478 113.021 44.0057 113.202 44.1126C113.382 44.2194 113.59 44.2704 113.799 44.259C114.044 44.2609 114.285 44.1965 114.496 44.0727C114.708 43.9488 114.882 43.7701 115 43.5555C115.331 42.9689 115.487 42.2997 115.451 41.6271L115.429 36.4909Z" fill="#161616"/>
<path d="M122.215 36.3017C122.526 36.2907 122.835 36.3598 123.112 36.5025C123.389 36.6452 123.624 36.8566 123.796 37.1165C124.172 37.6597 124.361 38.4492 124.361 39.485V41.9295C124.361 42.9724 124.165 43.7764 123.777 44.3359C123.599 44.6057 123.355 44.8248 123.067 44.9715C122.78 45.1183 122.459 45.1876 122.136 45.1728C121.814 45.158 121.501 45.0596 121.228 44.8871C120.955 44.7147 120.732 44.4742 120.58 44.1893L120.477 44.9824H119.844V32.271H120.607V37.255C120.76 36.9624 120.991 36.7182 121.275 36.5498C121.559 36.3814 121.885 36.2955 122.215 36.3017ZM123.573 41.924V39.4795C123.573 38.681 123.448 38.0989 123.198 37.7331C123.069 37.5511 122.895 37.4054 122.694 37.3102C122.492 37.2151 122.269 37.1736 122.047 37.1899C121.831 37.1915 121.621 37.2518 121.438 37.3643C121.254 37.4768 121.105 37.6371 121.006 37.8281C120.722 38.3327 120.585 38.9065 120.61 39.485V41.9566C120.572 42.5594 120.712 43.1599 121.012 43.6841C121.117 43.865 121.268 44.0152 121.45 44.12C121.631 44.2248 121.837 44.2805 122.047 44.2816C123.064 44.2816 123.573 43.4957 123.573 41.924Z" fill="#161616"/>
<path d="M131.617 5.01506H132.249V4.27085C132.249 4.27085 129.962 4.19208 129.205 4.27085C128.894 4.29351 128.601 4.42217 128.374 4.63529C128.147 4.8484 128 5.13302 127.958 5.44149C127.8 6.54224 127.8 7.65981 127.958 8.76057C128.01 9.14775 128.197 9.50431 128.485 9.76824C128.335 10.13 128.257 10.5174 128.254 10.909C128.371 11.3627 128.649 11.7584 129.036 12.0226C129.036 12.0226 127.904 12.7641 127.893 13.511C127.893 13.9864 127.79 15.5209 128.042 16.1755C128.129 16.3763 128.257 16.557 128.417 16.7061C128.578 16.8552 128.767 16.9695 128.974 17.042C129.726 17.0977 130.481 17.0977 131.234 17.042C131.913 16.936 132.179 16.3086 132.249 15.9555C132.402 15.176 132.388 13.4404 132.103 12.7777C131.847 12.1883 131.684 12.3051 129.859 11.5147C128.295 10.8384 129.205 9.99368 129.205 9.99368C129.205 9.99368 130.622 10.0344 131.065 9.86602C131.508 9.69762 131.714 9.14082 131.777 8.80946C131.908 7.93405 131.918 7.04483 131.807 6.16669C131.774 5.88882 131.71 5.61551 131.617 5.35186C131.489 5.01778 131.617 5.01506 131.617 5.01506ZM131.405 13.2992C131.641 15.0293 131.502 15.7627 131.008 16.1103C130.756 16.2896 129.129 16.5558 128.697 15.7084C128.539 15.3987 128.556 13.8804 128.697 13.3209C128.792 12.9488 129.691 12.2834 129.691 12.2834C129.691 12.2834 131.293 12.5006 131.405 13.2992ZM131.016 8.41019C130.992 8.70353 130.579 9.15712 129.93 9.15712C129.115 9.15712 128.686 8.75242 128.686 8.02994C128.686 7.67413 128.626 6.29706 128.626 6.04175C128.626 5.56643 129.08 5.15901 129.886 5.15901C130.378 5.15901 130.986 5.35186 131.052 6.0499C131.115 6.836 131.103 7.62632 131.016 8.41019Z" fill="#161616"/>
<path d="M107.364 43.4256V32.2896H106.465L106.508 43.3522C106.535 43.7467 106.661 44.1279 106.875 44.4604C107.486 45.0498 108.983 44.914 108.983 44.914V43.9308C108.983 43.9308 107.913 44.2621 107.364 43.4256Z" fill="#161616"/>
<path d="M72.6475 17.0996V25.1746C72.6286 25.5639 72.6559 25.9542 72.7289 26.3371C72.7831 26.5094 72.8993 26.6555 73.0549 26.7472C73.3072 26.8728 73.5886 26.9282 73.8697 26.9075H74.0979V27.1791H68.9047V26.9075H69.1763C69.4848 26.9291 69.7942 26.8799 70.0807 26.7635C70.2481 26.6798 70.378 26.5364 70.4447 26.3615C70.5295 25.9719 70.5615 25.5727 70.5398 25.1746V20.0547C70.5558 19.7679 70.5339 19.4802 70.4746 19.1992C70.4262 19.0787 70.3405 18.9768 70.2301 18.9085C70.1084 18.8261 69.9642 18.7834 69.8173 18.7863C69.5041 18.8029 69.1974 18.8824 68.9155 19.0199L68.7852 18.7483L72.4084 17.0996H72.6475Z" fill="#161616"/>
<path d="M82.1619 22.2398C82.1703 23.1766 82.031 24.1088 81.7491 25.0021C81.6126 25.4708 81.3856 25.9082 81.0809 26.2896C80.8174 26.6135 80.4949 26.8845 80.1303 27.0881C79.777 27.286 79.3781 27.388 78.9732 27.3842C78.5144 27.391 78.0634 27.2646 77.6749 27.0202C77.2653 26.7487 76.9181 26.3932 76.6564 25.9772C76.4067 25.5674 76.2174 25.1237 76.0942 24.6599C75.8846 23.9102 75.7795 23.1351 75.7818 22.3566C75.7706 21.3537 75.9229 20.3555 76.2327 19.4015C76.4308 18.7322 76.8242 18.1373 77.3626 17.6931C77.8099 17.3116 78.3786 17.1021 78.9665 17.1021C79.5544 17.1021 80.123 17.3116 80.5703 17.6931C81.0763 18.104 81.4535 18.6518 81.6568 19.2711C81.9954 20.2241 82.1663 21.2285 82.1619 22.2398ZM79.9185 22.2398C79.9185 20.5124 79.9094 19.5047 79.8913 19.2168C79.8424 18.5432 79.7256 18.0905 79.5409 17.8588C79.4677 17.7766 79.3762 17.7127 79.2739 17.6721C79.1716 17.6316 79.0612 17.6155 78.9515 17.6252C78.8615 17.6203 78.7715 17.6335 78.6866 17.6638C78.6017 17.6941 78.5237 17.741 78.4572 17.8017C78.2399 18.0532 78.111 18.369 78.0905 18.7008C78.0289 19.1299 77.9982 20.6292 77.9982 23.1986C77.9691 24.138 78.0173 25.0783 78.1421 26.0098C78.1724 26.2679 78.2826 26.51 78.4572 26.7024C78.6114 26.8239 78.8043 26.8856 79.0004 26.8762C79.1029 26.8827 79.2055 26.8649 79.2999 26.8243C79.3943 26.7837 79.4778 26.7215 79.5436 26.6427C79.779 26.2649 79.9007 25.8274 79.894 25.3824L79.9185 22.2398Z" fill="#161616"/>
<path d="M89.624 22.2398C89.6314 23.1767 89.4912 24.1089 89.2084 25.0021C89.0711 25.471 88.8432 25.9084 88.5375 26.2896C88.2747 26.6142 87.952 26.8853 87.5869 27.0881C87.2336 27.286 86.8347 27.388 86.4298 27.3841C85.9738 27.389 85.526 27.2627 85.1397 27.0202C84.73 26.7487 84.3828 26.3932 84.1211 25.9772C83.8715 25.5674 83.6821 25.1237 83.5589 24.6599C83.3507 23.9099 83.2456 23.135 83.2466 22.3566C83.2366 21.3537 83.3888 20.3558 83.6974 19.4015C83.897 18.7329 84.2902 18.1384 84.8273 17.6931C85.2746 17.3116 85.8433 17.1021 86.4312 17.1021C87.0191 17.1021 87.5877 17.3116 88.035 17.6931C88.542 18.1032 88.9193 18.6513 89.1215 19.2711C89.4592 20.2243 89.6292 21.2287 89.624 22.2398ZM87.3805 22.2398C87.3805 20.5124 87.3705 19.5047 87.3506 19.2168C87.3017 18.5432 87.1849 18.0905 87.0002 17.8588C86.927 17.7766 86.8355 17.7127 86.7332 17.6721C86.6309 17.6316 86.5205 17.6155 86.4108 17.6252C86.3208 17.6203 86.2308 17.6335 86.1459 17.6638C86.061 17.6941 85.983 17.741 85.9165 17.8017C85.703 18.046 85.5744 18.3528 85.5498 18.6763C85.4846 19.1055 85.4529 20.6048 85.4547 23.1742C85.4257 24.1136 85.4739 25.0538 85.5987 25.9854C85.6302 26.2431 85.7402 26.4849 85.9138 26.678C86.068 26.7995 86.2609 26.8612 86.457 26.8518C86.5595 26.8582 86.6621 26.8404 86.7565 26.7998C86.8509 26.7593 86.9343 26.697 87.0002 26.6182C87.2356 26.2405 87.3573 25.803 87.3506 25.3579L87.3805 22.2398Z" fill="#161616"/>
</svg>
