<svg width="154" height="47" fill="none" xmlns="http://www.w3.org/2000/svg"><path d="M58.434 40.848c4.074-5.527 3.349-14.778-2.887-18.263.815-.9 1.752-1.739 2.43-2.754 1.66-2.491 1.973-5.313 1.669-8.222a10.82 10.82 0 00-1.535-4.64.543.543 0 01.073-.751c1.902-2.369 4.346-3.969 7.192-4.998A18.54 18.54 0 0173.05.03c4.569.323 8.744 1.663 11.99 5.101a12.344 12.344 0 013.367 7.692c.103 1.32-.241 1.82-1.681 1.806-1.953-.016-3.906-.046-5.856.014-.937.03-1.429-.35-1.77-1.182-.816-1.969-2.198-3.365-4.309-3.884a10.37 10.37 0 00-4.27-.182c-3.408.59-5.586 2.988-5.624 6.446a578.476 578.476 0 00.016 15.351c.049 3.2 2.39 5.623 5.563 6.079 2.04.293 4.003.155 5.84-.848 1.493-.815 2.292-2.124 2.566-3.78.067-.467.158-.929.272-1.386a1.15 1.15 0 011.208-.934c2.16 0 4.316-.016 6.475 0 1.019 0 1.454.426 1.527 1.47a11.95 11.95 0 01-2.485 8.248c-2.23 2.972-5.232 4.843-8.776 5.815-6.293 1.728-12 .484-17.087-3.59-.57-.435-1.07-.951-1.58-1.418zM18.787 17.75c.144-.256.25-.419.334-.592 2.355-4.813 4.726-9.62 7.062-14.45.543-1.108 1.301-1.684 2.54-1.676 2.281 0 4.563-.022 6.844 0 1.068 0 1.467.685 1.016 1.736-.388.904-.842 1.781-1.282 2.661L23.776 28.386c-.177.367-.27.769-.271 1.176-.024 4.563-.022 9.126-.024 13.69v.74c-.047 1.136-.43 1.582-1.573 1.6a171.25 171.25 0 01-6.538 0c-1.086-.018-1.412-.358-1.55-1.428a7.472 7.472 0 01-.033-.924c0-4.584 0-9.17-.014-13.751a2.446 2.446 0 00-.23-1.06c-2.418-4.653-4.84-9.299-7.266-13.936C4.533 11.142 2.79 7.792 1.05 4.443.766 3.9.475 3.358.198 2.814c-.475-.98-.076-1.735.994-1.735 2.466-.021 4.933 0 7.399 0 1.143 0 1.901.505 2.393 1.508 2.057 4.08 4.124 8.158 6.2 12.236.419.824.845 1.645 1.28 2.463.099.161.207.316.323.465zM41.81 35.914h-4.747c-1.29 0-1.747-.45-1.747-1.73V12.238c0-1.152.484-1.63 1.644-1.63 2.938 0 5.877-.024 8.813.03a8.856 8.856 0 012.33.454 2.363 2.363 0 011.717 1.993c.34 2.102 0 3.637-1.518 4.37-.95.454-2.08.544-3.142.745a9.542 9.542 0 01-1.478.03c-.907.03-1.45.497-1.608 1.387a4.08 4.08 0 00-.081.731c0 1.727-.022 3.452 0 5.18.024 1.542.616 2.083 2.15 2.115a24.528 24.528 0 013.132.163c2.464.375 3.583 2.002 3.26 4.618-.272 2.124-1.652 3.409-3.803 3.447-1.643.027-3.286 0-4.93 0l.009.043zm57.885-23.161V8.695l-2.64-7.255h.988l1.508 4.362a85.102 85.102 0 00.605 1.744l.603-1.76 1.511-4.346h.996l-2.642 7.255v4.058h-.93zm8.854-.613a2.718 2.718 0 01-3.851 0c-.479-.533-.718-1.289-.718-2.268V7.156c0-.982.239-1.738.718-2.27a2.713 2.713 0 013.851 0c.475.542.717 1.29.717 2.27v2.716c0 .978-.242 1.736-.717 2.268zm-1.926-.136c1.157 0 1.736-.71 1.736-2.132V7.156c0-1.423-.579-2.134-1.736-2.132-1.157.001-1.735.712-1.735 2.132v2.716c0 1.421.578 2.132 1.735 2.132zm9.583-7.734h.891v8.485h-.739l-.152-1.048a2.173 2.173 0 01-2.053 1.244c-1.418 0-2.128-1.087-2.13-3.26V4.26h.891v5.294c0 .862.116 1.496.348 1.901a1.198 1.198 0 001.119.598 1.552 1.552 0 001.328-.704 3.287 3.287 0 00.497-1.93V4.27zm6.781-.195c1.418 0 2.128 1.086 2.13 3.26v5.418h-.891V7.467c0-.863-.116-1.497-.348-1.9a1.187 1.187 0 00-1.116-.598 1.562 1.562 0 00-1.331.7 3.295 3.295 0 00-.497 1.932v5.152h-.891V4.268h.739l.152 1.051a2.172 2.172 0 012.053-1.244zm-21.405 18.927a1.937 1.937 0 011.171.929c.307.571.455 1.215.426 1.863 0 1-.233 1.765-.7 2.292a2.467 2.467 0 01-1.951.794h-2.395V17.556h2.173a2.259 2.259 0 011.822.769c.438.51.657 1.235.655 2.173a3.667 3.667 0 01-.326 1.67 1.596 1.596 0 01-.875.834zm-1.265-4.509h-1.358v4.104h1.385c1.072 0 1.609-.7 1.61-2.1 0-1.336-.546-2.004-1.637-2.004zm.211 9.436a1.697 1.697 0 001.358-.527c.297-.351.446-.895.446-1.63a2.406 2.406 0 00-.527-1.665 1.833 1.833 0 00-1.431-.58h-1.415v4.394l1.569.008zm9.674-7.55h.891v8.482h-.739l-.152-1.051a2.173 2.173 0 01-2.053 1.244c-1.418 0-2.128-1.087-2.129-3.26v-5.432h.89v5.3c0 .86.116 1.493.348 1.9a1.198 1.198 0 001.119.598 1.552 1.552 0 001.342-.714 3.287 3.287 0 00.483-1.929V20.38zm6.182 8.674a2.126 2.126 0 01-1.689-.744 2.9 2.9 0 01-.628-1.972h.788c-.028.472.118.937.41 1.309a1.42 1.42 0 001.133.467 1.334 1.334 0 001.015-.38c.255-.29.385-.67.362-1.057a1.285 1.285 0 00-.375-.945 2.906 2.906 0 00-.902-.614 23.257 23.257 0 01-1.059-.502 2.412 2.412 0 01-.905-.815 2.624 2.624 0 01.21-3.004 1.998 1.998 0 011.531-.622 1.981 1.981 0 011.576.73 2.86 2.86 0 01.595 1.902h-.791a1.876 1.876 0 00-.369-1.236 1.26 1.26 0 00-1.024-.443 1.27 1.27 0 00-.964.364c-.246.283-.371.65-.348 1.024a1.188 1.188 0 00.375.905c.269.243.579.437.915.573.353.157.706.326 1.057.51a2.394 2.394 0 011.279 2.214 2.383 2.383 0 01-.603 1.695 2.049 2.049 0 01-1.589.641zm6.529-10.45a.772.772 0 01-1.057 0 .912.912 0 010-1.13.766.766 0 011.057 0 .906.906 0 010 1.13zm-.97 10.26V20.38h.891v8.482h-.891zm7.332-8.675c1.255 0 1.884 1.082 1.885 3.246v5.432h-.798V23.58c0-.86-.101-1.49-.307-1.9a1.031 1.031 0 00-.989-.598 1.338 1.338 0 00-1.176.7 3.63 3.63 0 00-.44 1.931v5.14h-.782V20.38h.655l.135 1.051c.391-.831 1.003-1.244 1.817-1.244zm9.063 6.072h.763c-.05.893-.281 1.577-.692 2.051a2.085 2.085 0 01-1.673.712 1.882 1.882 0 01-1.595-.79c-.391-.53-.586-1.272-.586-2.23v-2.796c0-.96.198-1.703.595-2.23a1.894 1.894 0 011.599-.79 1.98 1.98 0 011.649.79c.407.527.614 1.272.614 2.23v1.874h-3.683v.921c0 1.387.478 2.082 1.434 2.084a1.388 1.388 0 001.116-.443c.293-.402.453-.885.459-1.383zm-1.575-5.136c-.956 0-1.434.695-1.434 2.083v.986h2.914v-.986c0-1.39-.493-2.085-1.48-2.083zm7.706 7.928a2.033 2.033 0 01-1.63-.744 2.96 2.96 0 01-.624-1.97h.768c-.029.47.111.935.397 1.31a1.355 1.355 0 001.086.467 1.275 1.275 0 00.986-.38 1.5 1.5 0 00.351-1.057 1.303 1.303 0 00-.364-.945 2.803 2.803 0 00-.875-.614 22.355 22.355 0 01-1.027-.502 2.571 2.571 0 01-.676-3.803 1.901 1.901 0 011.488-.622 1.878 1.878 0 011.54.712 2.91 2.91 0 01.579 1.901h-.766c.026-.44-.1-.877-.356-1.236a1.36 1.36 0 00-1.942-.095c-.24.285-.361.652-.337 1.024a1.217 1.217 0 00.364.904c.255.248.553.447.878.59.342.157.684.326 1.026.51.358.198.66.484.875.832.255.414.382.896.364 1.382a2.425 2.425 0 01-.584 1.695 1.963 1.963 0 01-1.521.641zm7.385-.002a2.05 2.05 0 01-1.649-.744 2.95 2.95 0 01-.627-1.972h.771c-.028.47.113.935.4 1.31a1.354 1.354 0 001.105.466 1.284 1.284 0 00.991-.38c.251-.293.377-.672.354-1.056a1.32 1.32 0 00-.364-.946 2.863 2.863 0 00-.883-.613c-.345-.158-.69-.324-1.032-.503a2.565 2.565 0 01-.682-3.802 1.921 1.921 0 011.497-.622 1.904 1.904 0 011.55.714c.412.546.617 1.219.582 1.901h-.772c.027-.44-.1-.877-.358-1.236a1.375 1.375 0 00-1.942-.078 1.437 1.437 0 00-.332 1.007 1.216 1.216 0 00.364.904c.258.247.557.447.883.59.345.158.69.326 1.035.51a2.416 2.416 0 011.249 2.214 2.42 2.42 0 01-.586 1.695 1.997 1.997 0 01-1.554.641zm-49.591 15.253a2.564 2.564 0 01-1.945.866 2.554 2.554 0 01-1.926-.907c-.491-.603-.736-1.445-.736-2.52v-4.966c0-1.086.241-1.927.723-2.523a2.323 2.323 0 011.901-.907 2.409 2.409 0 011.931.858c.48.57.744 1.385.793 2.445h-.842c-.096-1.588-.723-2.383-1.882-2.385a1.545 1.545 0 00-1.298.635c-.323.427-.486 1.052-.486 1.88v4.965c0 .815.165 1.453.5 1.877a1.613 1.613 0 001.338.635c1.134 0 1.768-.794 1.902-2.382h.842c-.063 1.03-.337 1.845-.815 2.429zm13.166-7.813h.815v8.483h-.668l-.139-1.05c-.398.828-1.017 1.243-1.855 1.243-1.284 0-1.926-1.086-1.926-3.26v-5.431h.815v5.282c0 .862.105 1.496.315 1.902a1.06 1.06 0 001.013.6 1.357 1.357 0 001.201-.703 3.54 3.54 0 00.451-1.929l-.022-5.136zm6.786-.188a1.819 1.819 0 011.581.815c.376.543.565 1.332.565 2.368v2.444c0 1.043-.196 1.847-.584 2.407a1.865 1.865 0 01-2.549.551 1.86 1.86 0 01-.648-.698l-.103.793h-.633V32.271h.763v4.984a1.776 1.776 0 011.608-.953zm1.358 5.622V39.48c0-.799-.125-1.381-.375-1.747a1.3 1.3 0 00-1.151-.543 1.178 1.178 0 00-1.041.638 3.104 3.104 0 00-.396 1.657v2.472a3.087 3.087 0 00.402 1.727 1.196 1.196 0 001.035.598c1.017 0 1.526-.786 1.526-2.358zm8.044-36.909h.632v-.744s-2.287-.079-3.044 0a1.358 1.358 0 00-1.247 1.17 11.68 11.68 0 000 3.32c.052.387.239.743.527 1.007-.15.362-.228.75-.231 1.141.117.454.395.85.782 1.114 0 0-1.132.741-1.143 1.488 0 .475-.103 2.01.149 2.665a1.59 1.59 0 00.932.866c.752.056 1.507.056 2.26 0 .679-.106.945-.733 1.015-1.087.153-.779.139-2.515-.146-3.177-.256-.59-.419-.473-2.244-1.263-1.564-.677-.654-1.521-.654-1.521s1.417.04 1.86-.128c.443-.168.649-.725.712-1.057a9.666 9.666 0 00.03-2.642 3.796 3.796 0 00-.19-.815c-.128-.334 0-.337 0-.337zm-.212 8.284c.236 1.73.097 2.464-.397 2.811-.252.18-1.879.446-2.311-.402-.158-.31-.141-1.828 0-2.387.095-.372.994-1.038.994-1.038s1.602.218 1.714 1.016zm-.389-4.889c-.024.294-.437.747-1.086.747-.815 0-1.244-.405-1.244-1.127 0-.356-.06-1.733-.06-1.988 0-.476.454-.883 1.26-.883.492 0 1.1.193 1.166.89a12.41 12.41 0 01-.036 2.361zm-23.652 35.016V32.29h-.899l.043 11.062c.027.395.153.776.367 1.108.611.59 2.108.454 2.108.454v-.983s-1.07.331-1.619-.505z" fill="#161616"/><path d="M72.647 17.1v8.075c-.018.389.009.78.082 1.162a.73.73 0 00.326.41c.252.126.534.181.815.16h.228v.272h-5.193v-.271h.271a2.03 2.03 0 00.905-.145.747.747 0 00.364-.402c.085-.39.117-.788.095-1.186v-5.12a3.263 3.263 0 00-.065-.856.609.609 0 00-.245-.29.711.711 0 00-.413-.123 2.34 2.34 0 00-.901.234l-.13-.272 3.622-1.648h.24zm9.515 5.14a8.913 8.913 0 01-.413 2.762 3.737 3.737 0 01-.668 1.288 3.299 3.299 0 01-.95.798c-.354.198-.753.3-1.158.296-.459.007-.91-.12-1.298-.364a3.465 3.465 0 01-1.019-1.043 4.997 4.997 0 01-.562-1.317 8.462 8.462 0 01-.312-2.303 9.234 9.234 0 01.45-2.956 3.504 3.504 0 011.13-1.708 2.472 2.472 0 013.208 0c.506.411.884.959 1.087 1.578.338.953.51 1.957.505 2.969zm-2.244 0c0-1.728-.009-2.735-.027-3.023-.049-.674-.165-1.127-.35-1.358a.706.706 0 00-.59-.234.678.678 0 00-.494.177 1.518 1.518 0 00-.366.899c-.062.429-.093 1.928-.093 4.498-.029.939.02 1.88.144 2.81.03.259.14.501.315.693a.815.815 0 00.543.174.653.653 0 00.544-.233 2.32 2.32 0 00.35-1.26l.024-3.143zm9.706 0a8.918 8.918 0 01-.416 2.762 3.736 3.736 0 01-.67 1.288 3.26 3.26 0 01-.951.798c-.353.198-.752.3-1.157.296a2.378 2.378 0 01-1.29-.364 3.464 3.464 0 01-1.019-1.043 5 5 0 01-.562-1.317 8.57 8.57 0 01-.312-2.303 9.327 9.327 0 01.45-2.956c.2-.668.593-1.263 1.13-1.708a2.472 2.472 0 013.208 0c.507.41.884.958 1.087 1.578.337.953.507 1.958.502 2.969zm-2.243 0c0-1.728-.01-2.735-.03-3.023-.05-.674-.166-1.127-.35-1.358a.706.706 0 00-.59-.234.678.678 0 00-.495.177 1.502 1.502 0 00-.366.874c-.065.43-.097 1.929-.095 4.498-.03.94.019 1.88.144 2.811.031.258.141.5.315.693a.815.815 0 00.543.174.655.655 0 00.543-.234c.236-.377.357-.815.35-1.26l.03-3.118z" fill="#161616"/></svg>