<svg width="9" height="5" viewBox="0 0 9 5" fill="none" xmlns="http://www.w3.org/2000/svg">
<path fill-rule="evenodd" clip-rule="evenodd" d="M5.09691 4.80911C4.97363 4.93134 4.80646 5 4.63215 5C4.45785 5 4.29067 4.93134 4.1674 4.80911L0.44873 1.12092C0.385946 1.06078 0.335867 0.98884 0.301416 0.909297C0.266964 0.829754 0.24883 0.744202 0.248072 0.657634C0.247313 0.571066 0.263946 0.485216 0.296998 0.405091C0.330051 0.324966 0.378862 0.252172 0.440583 0.190957C0.502304 0.129742 0.575699 0.0813313 0.656486 0.0485497C0.737272 0.0157682 0.823833 -0.000727636 0.911117 2.46164e-05C0.9984 0.000776869 1.08466 0.0187623 1.16486 0.0529313C1.24506 0.0871004 1.31759 0.136769 1.37823 0.199038L4.63215 3.42629L7.88607 0.199038C8.01005 0.0802769 8.1761 0.0145621 8.34846 0.0160475C8.52082 0.017533 8.68569 0.0860998 8.80757 0.20698C8.92945 0.327861 8.99858 0.491383 9.00008 0.662327C9.00158 0.833271 8.93532 0.99796 8.81558 1.12092L5.09691 4.80911Z" fill="#161616"/>
</svg>
