<svg width="178" height="61" viewBox="0 0 178 61" fill="none" xmlns="http://www.w3.org/2000/svg">
<path d="M42.7257 50.5391H40.8945V60.3526H42.7257V50.5391Z" fill="#161616"/>
<path d="M51.7458 57.4343L46.308 50.5391H44.9297V60.3526H46.6362V53.4381L52.074 60.3526H53.4491V50.5391H51.7458V57.4343Z" fill="#161616"/>
<path d="M27.8088 56.3111C27.8088 57.182 27.6053 57.8406 27.1984 58.2867C26.969 58.5207 26.6897 58.702 26.3805 58.8177C26.0713 58.9334 25.7398 58.9806 25.4098 58.956C24.5763 58.956 23.9659 58.7329 23.5786 58.2867C23.198 57.8427 23.0109 57.1831 23.0109 56.3111V50.5195H21.1797V56.3111C21.1797 57.6861 21.5254 58.7254 22.2167 59.429C22.9081 60.1325 23.9724 60.4811 25.4098 60.4747C26.8013 60.4747 27.8471 60.1261 28.5472 59.429C29.2473 58.7318 29.6017 57.6926 29.6105 56.3111V50.5195H27.8088V56.3111Z" fill="#161616"/>
<path d="M17.6078 55.2882C18.0149 55.1493 18.378 54.9086 18.6612 54.59C19.0649 54.0972 19.2564 53.4694 19.1951 52.8402C19.1338 52.211 18.8245 51.6302 18.333 51.2212C17.7456 50.7643 16.9088 50.5391 15.8192 50.5391H11.4414V60.3526H15.9932C17.0871 60.3526 17.9436 60.1156 18.5628 59.6415C18.8686 59.3974 19.1114 59.0861 19.2716 58.7328C19.4318 58.3795 19.5049 57.9942 19.4849 57.6081C19.4991 57.3105 19.4524 57.0131 19.3476 56.7335C19.2427 56.4539 19.0819 56.1977 18.8745 55.98C18.5295 55.634 18.0894 55.3937 17.6078 55.2882ZM13.1971 51.8872H15.4943C16.0044 51.8489 16.5132 51.9767 16.9416 52.2508C17.1035 52.372 17.2323 52.5307 17.3165 52.7126C17.4007 52.8945 17.4376 53.094 17.424 53.2933C17.4366 53.4948 17.3994 53.6963 17.3154 53.8807C17.2314 54.065 17.1031 54.2267 16.9416 54.3519C16.5091 54.6156 16.0022 54.7373 15.4943 54.6994H13.1971V51.8872ZM17.214 58.6441C16.7779 58.8856 16.2796 58.9974 15.7799 58.9659H13.1971V56.0282H15.7799C16.2827 55.9996 16.7826 56.1207 17.214 56.3757C17.3912 56.5041 17.5315 56.6754 17.6212 56.8727C17.7109 57.07 17.747 57.2868 17.7259 57.5019C17.7481 57.7208 17.7127 57.9416 17.6231 58.1432C17.5334 58.3449 17.3926 58.5207 17.214 58.6538V58.6441Z" fill="#161616"/>
<path d="M36.3804 54.9354L34.7888 54.6136C34.3576 54.5542 33.9482 54.3906 33.5975 54.1374C33.4859 54.0318 33.3988 53.9038 33.3422 53.7623C33.2856 53.6207 33.2607 53.4688 33.2694 53.3169C33.2631 53.1112 33.3109 52.9073 33.408 52.7248C33.5051 52.5422 33.6483 52.3872 33.824 52.2744C34.2959 51.9893 34.8458 51.8533 35.3992 51.8851C35.9491 51.8777 36.4963 51.9626 37.0171 52.1361C37.5069 52.2944 37.9605 52.5447 38.3528 52.8729L38.9205 51.5344C38.4834 51.1465 37.9647 50.8576 37.4011 50.6882C36.7678 50.4735 36.1021 50.3647 35.432 50.3664C34.7174 50.3513 34.0072 50.4794 33.3448 50.7429C32.7899 50.9624 32.3081 51.3289 31.9534 51.8015C31.6161 52.2716 31.4424 52.8357 31.4578 53.4102C31.4363 53.7347 31.4835 54.06 31.5964 54.3656C31.7094 54.6713 31.8857 54.9507 32.1142 55.1863C32.6973 55.6817 33.4121 56.0042 34.1751 56.1162L35.7766 56.438C36.2141 56.4977 36.6318 56.6551 36.9974 56.8981C37.1114 56.9929 37.2006 57.113 37.2577 57.2484C37.3148 57.3839 37.3381 57.5307 37.3256 57.6767C37.3291 57.8623 37.2857 58.0458 37.1993 58.2109C37.1128 58.376 36.9859 58.5174 36.83 58.6227C36.3416 58.9038 35.7767 59.0307 35.2121 58.9863C34.7883 58.9877 34.3653 58.95 33.9487 58.8737C33.1784 58.7241 32.4512 58.4099 31.8188 57.9534L31.2773 59.3692C31.8014 59.742 32.3862 60.0249 33.0068 60.2057C33.733 60.4056 34.4842 60.5042 35.2384 60.4985C35.9518 60.5143 36.6613 60.3907 37.3256 60.135C37.867 59.9202 38.338 59.5641 38.6875 59.1053C39.0115 58.6538 39.1804 58.1129 39.1699 57.5609C39.1859 57.2464 39.1333 56.9322 39.0156 56.6392C38.8979 56.3463 38.7178 56.0813 38.4873 55.862C37.8879 55.3651 37.1576 55.0439 36.3804 54.9354Z" fill="#161616"/>
<path d="M55.6484 60.3526H62.3924V58.9305H57.4107V56.0765H62.0675V54.6575H57.4107V51.9451H62.3924V50.5391H55.6484V60.3526Z" fill="#161616"/>
<path d="M111.502 56.3436C111.364 56.2524 111.213 56.1809 111.055 56.1312C111.218 56.0882 111.377 56.0333 111.531 55.9671C112.006 55.7581 112.406 55.414 112.68 54.9793C112.966 54.513 113.11 53.9758 113.093 53.4317C113.115 53.0329 113.045 52.6345 112.887 52.2661C112.73 51.8978 112.489 51.5692 112.184 51.3049C111.587 50.7922 110.74 50.5369 109.644 50.5391H105.27V60.3526H107.101V56.3693H108.663C108.992 56.3606 109.319 56.413 109.628 56.5237C109.771 56.5813 109.9 56.6687 110.005 56.7798C110.11 56.8909 110.19 57.0231 110.238 57.1673L111.715 60.3559H113.733L112.269 57.2767C112.108 56.9011 111.842 56.5777 111.502 56.3436ZM109.345 55.0565H107.101V51.9548H109.345C109.863 51.9191 110.378 52.0564 110.806 52.3441C110.979 52.4823 111.116 52.6594 111.205 52.8605C111.295 53.0615 111.333 53.2806 111.318 53.4992C111.332 53.7196 111.293 53.9402 111.204 54.143C111.115 54.3459 110.979 54.5255 110.806 54.6672C110.377 54.9516 109.862 55.0854 109.345 55.0469V55.0565Z" fill="#161616"/>
<path d="M68.594 54.9354L67.0057 54.6136C66.5733 54.5547 66.1627 54.391 65.8111 54.1374C65.6995 54.0318 65.6124 53.9038 65.5558 53.7623C65.4992 53.6207 65.4743 53.4688 65.4829 53.3169C65.4767 53.1112 65.5244 52.9073 65.6216 52.7248C65.7187 52.5422 65.8619 52.3872 66.0376 52.2744C66.5096 51.9896 67.0594 51.8537 67.6128 51.8851C68.1638 51.878 68.712 51.9629 69.234 52.1361C69.7224 52.2952 70.1748 52.5454 70.5664 52.8729L71.1341 51.5344C70.697 51.1465 70.1783 50.8576 69.6147 50.6882C68.9813 50.4735 68.3157 50.3647 67.6456 50.3664C66.931 50.3513 66.2208 50.4794 65.5584 50.7429C65.0034 50.9624 64.5217 51.3289 64.167 51.8015C63.8297 52.2716 63.656 52.8357 63.6714 53.4102C63.6557 53.7331 63.7078 54.0557 63.8247 54.3579C63.9416 54.6602 64.1206 54.9356 64.3508 55.167C64.9338 55.6624 65.6486 55.9849 66.4117 56.0969L68.0132 56.4187C68.4515 56.4792 68.87 56.6365 69.2373 56.8788C69.3506 56.9741 69.4394 57.0943 69.4964 57.2296C69.5535 57.3649 69.5771 57.5115 69.5654 57.6574C69.569 57.843 69.5256 58.0265 69.4391 58.1916C69.3526 58.3566 69.2258 58.4981 69.0699 58.6034C68.7395 58.8458 68.2002 58.967 67.452 58.967C67.0282 58.9684 66.6051 58.9307 66.1885 58.8544C65.4182 58.7048 64.691 58.3906 64.0587 57.9341L63.4844 59.3692C64.0084 59.742 64.5932 60.0249 65.2138 60.2057C65.94 60.4056 66.6912 60.5042 67.4454 60.4985C68.1589 60.5143 68.8684 60.3907 69.5326 60.135C70.074 59.9202 70.545 59.5641 70.8945 59.1053C71.2185 58.6538 71.3875 58.1129 71.3769 57.5609C71.3929 57.2464 71.3403 56.9322 71.2226 56.6392C71.1049 56.3463 70.9248 56.0813 70.6943 55.862C70.0967 55.3662 69.3689 55.045 68.594 54.9354Z" fill="#161616"/>
<path d="M134.281 50.5391L130.822 58.1679L127.366 50.5391H125.762V60.3526H127.422V54.2071L130.261 60.3526H131.354L134.209 54.1781V60.3526H135.869V50.5391H134.281Z" fill="#161616"/>
<path d="M121.812 56.3111C121.812 57.182 121.609 57.8406 121.202 58.2867C120.972 58.5207 120.693 58.702 120.384 58.8177C120.075 58.9334 119.743 58.9806 119.413 58.956C118.58 58.956 117.969 58.7329 117.582 58.2867C117.201 57.8427 117.014 57.1831 117.014 56.3111V50.5195H115.18V56.3111C115.18 57.6861 115.525 58.7254 116.217 59.429C116.908 60.1325 117.974 60.4811 119.413 60.4747C120.805 60.4747 121.85 60.1261 122.55 59.429C123.251 58.7318 123.605 57.6926 123.614 56.3111V50.5195H121.812V56.3111Z" fill="#161616"/>
<path d="M77.7293 54.9354L76.141 54.6136C75.7098 54.5542 75.3004 54.3906 74.9497 54.1374C74.8374 54.0323 74.7498 53.9044 74.6932 53.7627C74.6365 53.621 74.612 53.4689 74.6215 53.3169C74.6147 53.1114 74.6617 52.9076 74.7583 52.7251C74.8548 52.5425 74.9976 52.3873 75.1729 52.2744C75.6462 51.9898 76.197 51.8539 76.7514 51.8851C77.3013 51.878 77.8485 51.9629 78.3693 52.1361C78.8587 52.2952 79.3122 52.5453 79.7049 52.8729L80.2694 51.5344C79.8335 51.1466 79.3159 50.8577 78.7532 50.6882C78.1198 50.4738 77.4543 50.3651 76.7842 50.3664C76.0696 50.3513 75.3594 50.4794 74.697 50.7429C74.1426 50.9633 73.661 51.3296 73.3056 51.8015C72.9683 52.2716 72.7946 52.8357 72.81 53.4102C72.7941 53.7334 72.8465 54.0563 72.964 54.3586C73.0814 54.661 73.2614 54.9362 73.4926 55.167C74.074 55.6631 74.788 55.9857 75.5503 56.0969L77.155 56.4187C77.5925 56.4784 78.0102 56.6358 78.3758 56.8788C78.4892 56.9741 78.578 57.0943 78.635 57.2296C78.6921 57.3649 78.7157 57.5115 78.704 57.6574C78.7069 57.8432 78.6629 58.0268 78.5759 58.1919C78.4888 58.3569 78.3615 58.4983 78.2052 58.6034C77.8748 58.8458 77.3355 58.967 76.5873 58.967C76.1635 58.9684 75.7404 58.9307 75.3238 58.8544C74.9391 58.7745 74.5632 58.6582 74.2015 58.5069C73.8482 58.3472 73.5109 58.1554 73.194 57.9341L72.6328 59.3692C73.1576 59.7427 73.7436 60.0256 74.3656 60.2057C75.0906 60.4056 75.8407 60.5042 76.5939 60.4985C77.3073 60.5143 78.0168 60.3907 78.681 60.135C79.2229 59.9211 79.6942 59.5648 80.043 59.1053C80.3669 58.6538 80.5359 58.1129 80.5254 57.5609C80.5412 57.2467 80.4888 56.9328 80.3717 56.64C80.2546 56.3471 80.0754 56.082 79.8461 55.862C79.2436 55.3639 78.5098 55.0426 77.7293 54.9354Z" fill="#161616"/>
<path d="M86.1523 60.3526H87.9836V56.1344H92.427V54.7283H87.9836V51.9451H92.7519V50.5391H86.1523V60.3526Z" fill="#161616"/>
<path d="M101.123 51.0222C100.334 50.6101 99.4536 50.3945 98.5597 50.3945C97.6657 50.3945 96.7856 50.6101 95.9966 51.0222C95.2794 51.4282 94.7014 52.0341 94.3361 52.7629C93.9573 53.6048 93.7617 54.5149 93.7617 55.4351C93.7617 56.3552 93.9573 57.2653 94.3361 58.1072C94.6983 58.8352 95.2683 59.4444 95.9769 59.8608C96.7659 60.2729 97.6461 60.4885 98.54 60.4885C99.4339 60.4885 100.314 60.2729 101.103 59.8608C101.818 59.4463 102.395 58.8371 102.764 58.1072C103.177 57.271 103.381 56.3498 103.358 55.4206C103.381 54.5007 103.177 53.5888 102.764 52.7629C102.403 52.0374 101.832 51.4321 101.123 51.0222ZM100.703 58.0236C100.446 58.3345 100.118 58.5812 99.7459 58.7434C99.3733 58.9056 98.9667 58.9787 98.5597 58.9567C98.1496 58.9835 97.7391 58.9126 97.3631 58.7502C96.9871 58.5877 96.6567 58.3384 96.4003 58.0236C95.9168 57.4015 95.6761 56.5435 95.6783 55.4495C95.6805 54.3556 95.9212 53.4976 96.4003 52.8755C96.6749 52.5851 97.0077 52.3535 97.3779 52.1951C97.7481 52.0367 98.1476 51.955 98.5515 51.955C98.9553 51.955 99.3549 52.0367 99.725 52.1951C100.095 52.3535 100.428 52.5851 100.703 52.8755C101.206 53.4868 101.456 54.3448 101.454 55.4495C101.452 56.5542 101.201 57.4123 100.703 58.0236Z" fill="#161616"/>
<path d="M149.896 13.6797H0V45.6011H136.307L149.896 60.2636V45.6011V13.6797Z" fill="#161616"/>
<path d="M149.896 13.6797H0V45.6011H136.307L149.896 60.2636V45.6011V13.6797Z" fill="#FF7701"/>
<path d="M59.1348 31.84H63.1024V34.8066C62.7185 34.8999 62.3378 34.9803 61.9604 35.0382C61.359 35.1421 60.7497 35.1959 60.139 35.1991C58.2925 35.1991 56.9426 34.7369 56.0894 33.8123C55.2361 32.8878 54.8095 31.5204 54.8095 29.71C54.8095 27.8802 55.2722 26.4935 56.1977 25.5496C57.1231 24.6058 58.5364 24.1264 60.4377 24.1114C61.03 24.1058 61.6218 24.1499 62.2065 24.2433C62.7311 24.3331 63.2424 24.4854 63.7292 24.697C64.2931 24.9233 64.8301 25.2092 65.3307 25.5496L66.8994 21.7915C66.0631 21.1595 65.1121 20.689 64.0968 20.4048C62.8958 20.0678 61.6506 19.9062 60.4016 19.9253C58.135 19.9253 56.1955 20.3254 54.583 21.1255C53.0242 21.8754 51.7278 23.0625 50.8583 24.5361C49.974 26.1199 49.5336 27.9051 49.5817 29.71C49.5402 31.4574 49.9416 33.1876 50.75 34.7454C51.5407 36.1811 52.7525 37.3512 54.2286 38.1046C55.7601 38.9068 57.6449 39.3069 59.883 39.3047C61.18 39.305 62.4737 39.18 63.7456 38.9315C64.9469 38.7094 66.1154 38.3419 67.2243 37.8375V28.4294H59.1512L59.1348 31.84Z" fill="white"/>
<path d="M40.1316 31.0536C40.1316 32.4221 39.8417 33.4614 39.262 34.1714C38.6822 34.8814 37.7764 35.2278 36.5447 35.2106C35.3108 35.2106 34.4039 34.8642 33.8241 34.1714C33.2444 33.4785 32.9545 32.4392 32.9545 31.0536V20.2168H27.9531V31.0149C27.9531 33.7692 28.6685 35.8391 30.0994 37.2248C31.5302 38.6105 33.6787 39.3034 36.5447 39.3034C39.4064 39.3034 41.545 38.6105 42.9605 37.2248C44.376 35.8391 45.0827 33.7692 45.0805 31.0149V20.2168H40.1316V31.0536Z" fill="white"/>
<path d="M16.5153 20.2168H11.4844V39.0106H24.7262V34.9307H16.5153V20.2168Z" fill="white"/>
<path d="M78.7171 20.2168L69.7383 39.0106H74.779L76.4626 35.1978H85.0935L86.7967 39.0106H91.8243L82.7996 20.2168H78.7171ZM80.7288 25.2812H80.8666L83.5314 31.4654H78.0837L80.7288 25.2812Z" fill="white"/>
<path d="M134.692 24.5087C133.941 23.0822 132.778 21.9047 131.348 21.1238C129.749 20.3348 127.985 19.9238 126.195 19.9238C124.406 19.9238 122.641 20.3348 121.043 21.1238C119.613 21.9047 118.449 23.0822 117.699 24.5087C116.888 26.0854 116.487 27.8338 116.531 29.5989C116.491 31.3647 116.892 33.1132 117.699 34.6923C118.465 36.1163 119.627 37.2986 121.049 38.1029C122.648 38.892 124.412 39.303 126.202 39.303C127.991 39.303 129.756 38.892 131.354 38.1029C132.782 37.3078 133.944 36.1229 134.698 34.6923C135.523 33.1186 135.934 31.3678 135.893 29.5989C135.936 27.8301 135.522 26.0794 134.692 24.5087ZM129.526 33.7303C128.782 34.7084 127.668 35.1975 126.182 35.1975C124.697 35.1975 123.591 34.7084 122.864 33.7303C122.14 32.735 121.778 31.3578 121.778 29.5989C121.778 27.84 122.14 26.4725 122.864 25.4965C123.591 24.5184 124.697 24.0293 126.182 24.0293C127.668 24.0293 128.782 24.5184 129.526 25.4965C130.268 26.4618 130.642 27.8421 130.642 29.5989C130.642 31.3557 130.268 32.736 129.526 33.7303Z" fill="white"/>
<path d="M107.244 31.0664L98.3274 20.2168H94.6289V39.0106H99.3316V28.1674L108.196 39.0106H111.894V20.2168H107.244V31.0664Z" fill="white"/>
<path d="M177.898 0.5L49.7891 0.5V16.5552H171.063L177.898 23.9298V16.5552V0.5Z" fill="#161616"/>
<path d="M55.1848 12.4297V5.51085H57.9719C58.7898 5.51085 59.48 5.65152 60.0427 5.93285C60.6054 6.20764 61.0306 6.60347 61.3185 7.12034C61.6129 7.63067 61.7601 8.24567 61.7601 8.96536C61.7601 9.67851 61.6129 10.2935 61.3185 10.8104C61.0306 11.3273 60.6054 11.7264 60.0427 12.0077C59.48 12.289 58.7898 12.4297 57.9719 12.4297H55.1848ZM57.0004 10.9576H57.8542C58.5673 10.9576 59.094 10.794 59.4342 10.4669C59.781 10.1398 59.9544 9.63925 59.9544 8.96536C59.9544 8.28493 59.781 7.78442 59.4342 7.46383C59.094 7.1367 58.5673 6.97313 57.8542 6.97313H57.0004V10.9576ZM62.8519 12.4297V5.51085H67.8178V6.89462H64.589V8.2195H67.5823V9.61308H64.589V11.0361H67.8178V12.4297H62.8519ZM70.3932 12.4297V6.97313H68.293V5.51085H74.3089V6.97313H72.2088V12.4297H70.3932ZM73.4413 12.4297L76.6799 5.51085H78.152L81.4103 12.4297H79.5947L78.7605 10.5258L79.4573 11.0263H75.3943L76.0813 10.5258L75.2569 12.4297H73.4413ZM77.4062 7.3755L76.2579 10.1136L75.9831 9.65234H78.8586L78.6133 10.1136L77.4552 7.3755H77.4062ZM81.8377 12.4297V5.51085H83.6533V12.4297H81.8377ZM84.9333 12.4297V5.51085H86.7489V10.9282H89.7127V12.4297H84.9333ZM93.0927 12.5376C92.5366 12.5376 92.0066 12.4722 91.5028 12.3414C91.0056 12.204 90.5869 12.0208 90.2466 11.7918L90.757 10.3884C90.9729 10.5258 91.2084 10.6435 91.4636 10.7417C91.7187 10.8398 91.9837 10.9183 92.2585 10.9772C92.5398 11.0296 92.8244 11.0557 93.1123 11.0557C93.5441 11.0557 93.8418 11.0001 94.0054 10.8889C94.1755 10.7777 94.2605 10.6337 94.2605 10.4571C94.2605 10.3001 94.2049 10.179 94.0937 10.094C93.9825 10.0024 93.7731 9.92386 93.4656 9.85843L92.2683 9.61308C91.6337 9.48223 91.1593 9.25651 90.8453 8.93592C90.5312 8.60879 90.3742 8.18352 90.3742 7.66011C90.3742 7.20212 90.4953 6.80629 90.7373 6.47262C90.986 6.1324 91.3327 5.8707 91.7776 5.68751C92.2225 5.49777 92.7427 5.4029 93.338 5.4029C93.8287 5.4029 94.29 5.4716 94.7218 5.60899C95.1536 5.73985 95.5069 5.92304 95.7817 6.15857L95.2714 7.47364C95.0097 7.28391 94.7153 7.13997 94.3881 7.04183C94.061 6.93715 93.6979 6.88481 93.2988 6.88481C92.9193 6.88481 92.6314 6.94369 92.4352 7.06146C92.2454 7.17268 92.1505 7.33298 92.1505 7.54234C92.1505 7.68628 92.2062 7.81059 92.3174 7.91527C92.4352 8.01341 92.6478 8.09519 92.9553 8.16062L94.133 8.39615C94.7676 8.52046 95.2419 8.74291 95.556 9.0635C95.8766 9.38409 96.0369 9.80282 96.0369 10.3197C96.0369 10.7646 95.9126 11.1539 95.6639 11.4875C95.4219 11.8212 95.0816 12.0797 94.6433 12.2629C94.2049 12.446 93.6881 12.5376 93.0927 12.5376ZM103.387 12.5376C102.635 12.5376 101.984 12.3904 101.434 12.096C100.891 11.8016 100.469 11.3861 100.168 10.8496C99.8737 10.3131 99.7265 9.68505 99.7265 8.96536C99.7265 8.24567 99.8737 7.62085 100.168 7.0909C100.469 6.5544 100.891 6.13895 101.434 5.84453C101.984 5.55011 102.635 5.4029 103.387 5.4029C103.865 5.4029 104.3 5.46833 104.692 5.59918C105.085 5.72349 105.415 5.90341 105.684 6.13895L105.144 7.56197C104.843 7.34606 104.565 7.19558 104.31 7.11053C104.061 7.01893 103.776 6.97313 103.456 6.97313C102.867 6.97313 102.412 7.14651 102.092 7.49327C101.778 7.83349 101.621 8.32419 101.621 8.96536C101.621 9.61308 101.778 10.1103 102.092 10.4571C102.412 10.7973 102.867 10.9674 103.456 10.9674C103.776 10.9674 104.061 10.9249 104.31 10.8398C104.565 10.7482 104.843 10.5945 105.144 10.3786L105.684 11.8016C105.415 12.0371 105.085 12.2203 104.692 12.3512C104.3 12.4755 103.865 12.5376 103.387 12.5376ZM106.215 8.96536C106.215 8.24567 106.356 7.62085 106.637 7.0909C106.918 6.5544 107.321 6.13895 107.844 5.84453C108.367 5.55011 108.986 5.4029 109.699 5.4029C110.418 5.4029 111.04 5.55011 111.563 5.84453C112.087 6.13895 112.489 6.5544 112.771 7.0909C113.058 7.62085 113.202 8.24567 113.202 8.96536C113.202 9.67851 113.058 10.3033 112.771 10.8398C112.489 11.3763 112.087 11.7951 111.563 12.096C111.04 12.3904 110.418 12.5376 109.699 12.5376C108.986 12.5376 108.367 12.3904 107.844 12.096C107.327 11.7951 106.925 11.3763 106.637 10.8398C106.356 10.3033 106.215 9.67851 106.215 8.96536ZM108.109 8.96536C108.109 9.61308 108.24 10.1201 108.502 10.4865C108.763 10.8464 109.162 11.0263 109.699 11.0263C110.235 11.0263 110.638 10.8464 110.906 10.4865C111.174 10.1201 111.308 9.61308 111.308 8.96536C111.308 8.31764 111.174 7.81386 110.906 7.45402C110.638 7.09417 110.235 6.91425 109.699 6.91425C109.162 6.91425 108.763 7.09417 108.502 7.45402C108.24 7.80732 108.109 8.3111 108.109 8.96536ZM114.318 12.4297V5.51085H115.889L118.156 10.5847H117.832L120.089 5.51085H121.669V12.4297H120.03V8.19006H120.452L118.489 12.4297H117.469L115.496 8.19006H115.947V12.4297H114.318ZM122.962 12.4297V5.51085H124.778V12.4297H122.962ZM126.058 12.4297V5.51085H127.393L130.896 9.85843H130.612V5.51085H132.29V12.4297H130.955L127.471 8.08211H127.756V12.4297H126.058ZM137.095 12.5376C136.29 12.5376 135.61 12.3904 135.054 12.096C134.504 11.8016 134.086 11.3894 133.798 10.8595C133.516 10.3295 133.376 9.71122 133.376 9.00462C133.376 8.27184 133.529 7.63721 133.837 7.10071C134.151 6.55768 134.599 6.13895 135.181 5.84453C135.764 5.55011 136.464 5.4029 137.282 5.4029C137.785 5.4029 138.23 5.46178 138.616 5.57955C139.009 5.69732 139.346 5.86743 139.627 6.08988L139.068 7.47364C138.865 7.33625 138.672 7.23157 138.489 7.1596C138.312 7.08109 138.129 7.02547 137.939 6.99276C137.756 6.96005 137.543 6.94369 137.301 6.94369C136.621 6.94369 136.111 7.12034 135.77 7.47364C135.437 7.8204 135.27 8.33073 135.27 9.00462C135.27 9.67197 135.424 10.1758 135.731 10.516C136.039 10.8562 136.526 11.0263 137.193 11.0263C137.396 11.0263 137.615 11.0067 137.851 10.9674C138.093 10.9282 138.338 10.8693 138.587 10.7908L138.263 11.4385V9.78974H136.83V8.53355H139.745V11.9979C139.372 12.1745 138.953 12.3086 138.489 12.4002C138.031 12.4918 137.566 12.5376 137.095 12.5376ZM146.36 12.5376C145.804 12.5376 145.274 12.4722 144.77 12.3414C144.273 12.204 143.854 12.0208 143.514 11.7918L144.024 10.3884C144.24 10.5258 144.476 10.6435 144.731 10.7417C144.986 10.8398 145.251 10.9183 145.526 10.9772C145.807 11.0296 146.092 11.0557 146.38 11.0557C146.812 11.0557 147.109 11.0001 147.273 10.8889C147.443 10.7777 147.528 10.6337 147.528 10.4571C147.528 10.3001 147.472 10.179 147.361 10.094C147.25 10.0024 147.041 9.92386 146.733 9.85843L145.536 9.61308C144.901 9.48223 144.427 9.25651 144.113 8.93592C143.799 8.60879 143.642 8.18352 143.642 7.66011C143.642 7.20212 143.763 6.80629 144.005 6.47262C144.253 6.1324 144.6 5.8707 145.045 5.68751C145.49 5.49777 146.01 5.4029 146.606 5.4029C147.096 5.4029 147.557 5.4716 147.989 5.60899C148.421 5.73985 148.774 5.92304 149.049 6.15857L148.539 7.47364C148.277 7.28391 147.983 7.13997 147.656 7.04183C147.329 6.93715 146.965 6.88481 146.566 6.88481C146.187 6.88481 145.899 6.94369 145.703 7.06146C145.513 7.17268 145.418 7.33298 145.418 7.54234C145.418 7.68628 145.474 7.81059 145.585 7.91527C145.703 8.01341 145.915 8.09519 146.223 8.16062L147.4 8.39615C148.035 8.52046 148.509 8.74291 148.823 9.0635C149.144 9.38409 149.304 9.80282 149.304 10.3197C149.304 10.7646 149.18 11.1539 148.931 11.4875C148.689 11.8212 148.349 12.0797 147.911 12.2629C147.472 12.446 146.956 12.5376 146.36 12.5376ZM150.157 8.96536C150.157 8.24567 150.298 7.62085 150.579 7.0909C150.861 6.5544 151.263 6.13895 151.786 5.84453C152.31 5.55011 152.928 5.4029 153.641 5.4029C154.361 5.4029 154.982 5.55011 155.506 5.84453C156.029 6.13895 156.432 6.5544 156.713 7.0909C157.001 7.62085 157.145 8.24567 157.145 8.96536C157.145 9.67851 157.001 10.3033 156.713 10.8398C156.432 11.3763 156.029 11.7951 155.506 12.096C154.982 12.3904 154.361 12.5376 153.641 12.5376C152.928 12.5376 152.31 12.3904 151.786 12.096C151.269 11.7951 150.867 11.3763 150.579 10.8398C150.298 10.3033 150.157 9.67851 150.157 8.96536ZM152.051 8.96536C152.051 9.61308 152.182 10.1201 152.444 10.4865C152.706 10.8464 153.105 11.0263 153.641 11.0263C154.178 11.0263 154.58 10.8464 154.848 10.4865C155.117 10.1201 155.251 9.61308 155.251 8.96536C155.251 8.31764 155.117 7.81386 154.848 7.45402C154.58 7.09417 154.178 6.91425 153.641 6.91425C153.105 6.91425 152.706 7.09417 152.444 7.45402C152.182 7.80732 152.051 8.3111 152.051 8.96536ZM158.045 8.96536C158.045 8.24567 158.185 7.62085 158.467 7.0909C158.748 6.5544 159.15 6.13895 159.674 5.84453C160.197 5.55011 160.816 5.4029 161.529 5.4029C162.248 5.4029 162.87 5.55011 163.393 5.84453C163.917 6.13895 164.319 6.5544 164.6 7.0909C164.888 7.62085 165.032 8.24567 165.032 8.96536C165.032 9.67851 164.888 10.3033 164.6 10.8398C164.319 11.3763 163.917 11.7951 163.393 12.096C162.87 12.3904 162.248 12.5376 161.529 12.5376C160.816 12.5376 160.197 12.3904 159.674 12.096C159.157 11.7951 158.755 11.3763 158.467 10.8398C158.185 10.3033 158.045 9.67851 158.045 8.96536ZM159.939 8.96536C159.939 9.61308 160.07 10.1201 160.331 10.4865C160.593 10.8464 160.992 11.0263 161.529 11.0263C162.065 11.0263 162.468 10.8464 162.736 10.4865C163.004 10.1201 163.138 9.61308 163.138 8.96536C163.138 8.31764 163.004 7.81386 162.736 7.45402C162.468 7.09417 162.065 6.91425 161.529 6.91425C160.992 6.91425 160.593 7.09417 160.331 7.45402C160.07 7.80732 159.939 8.3111 159.939 8.96536ZM166.119 12.4297V5.51085H167.454L170.957 9.85843H170.672V5.51085H172.351V12.4297H171.016L167.532 8.08211H167.817V12.4297H166.119Z" fill="white"/>
</svg>
