<svg width="49" height="48" viewBox="0 0 49 48" fill="none" xmlns="http://www.w3.org/2000/svg">
<ellipse cx="24.4013" cy="24" rx="24.4013" ry="24" fill="white"/>
<path d="M19.1812 24.6853H21.5275V34.1857C21.5275 34.3733 21.682 34.5253 21.8727 34.5253H25.8509C26.0416 34.5253 26.1962 34.3733 26.1962 34.1857V24.73H28.8934C29.0688 24.73 29.2164 24.6006 29.2364 24.4293L29.646 20.9317C29.6573 20.8354 29.6263 20.7391 29.5608 20.6669C29.4953 20.5946 29.4015 20.5533 29.3031 20.5533H26.1963V18.3608C26.1963 17.6999 26.5581 17.3647 27.2718 17.3647C27.3735 17.3647 29.3031 17.3647 29.3031 17.3647C29.4939 17.3647 29.6484 17.2127 29.6484 17.0252V13.8147C29.6484 13.6272 29.4939 13.4752 29.3031 13.4752H26.5036C26.4839 13.4742 26.44 13.4727 26.3754 13.4727C25.8897 13.4727 24.2013 13.5664 22.8675 14.7732C21.3898 16.1106 21.5952 17.7118 21.6443 17.9894V20.5532H19.1812C18.9905 20.5532 18.8359 20.7052 18.8359 20.8928V24.3457C18.8359 24.5332 18.9905 24.6853 19.1812 24.6853Z" fill="#161616"/>
</svg>
