<svg width="50" height="48" viewBox="0 0 50 48" fill="none" xmlns="http://www.w3.org/2000/svg">
<ellipse cx="25.2021" cy="24" rx="24.4013" ry="24" fill="white"/>
<path d="M20.3478 20.2363H16.0413C15.8502 20.2363 15.6953 20.3887 15.6953 20.5766V34.1841C15.6953 34.3721 15.8502 34.5244 16.0413 34.5244H20.3478C20.539 34.5244 20.6938 34.3721 20.6938 34.1841V20.5766C20.6938 20.3887 20.539 20.2363 20.3478 20.2363Z" fill="#161616"/>
<path d="M18.1972 13.4727C16.6303 13.4727 15.3555 14.7251 15.3555 16.2646C15.3555 17.8048 16.6303 19.0577 18.1972 19.0577C19.763 19.0577 21.0367 17.8047 21.0367 16.2646C21.0368 14.7251 19.763 13.4727 18.1972 13.4727Z" fill="#161616"/>
<path d="M31.3032 19.8984C29.5735 19.8984 28.2949 20.6298 27.5194 21.4607V20.5769C27.5194 20.389 27.3645 20.2366 27.1734 20.2366H23.0491C22.858 20.2366 22.7031 20.389 22.7031 20.5769V34.1844C22.7031 34.3724 22.858 34.5247 23.0491 34.5247H27.3462C27.5374 34.5247 27.6922 34.3724 27.6922 34.1844V27.4519C27.6922 25.1832 28.3188 24.2993 29.9267 24.2993C31.6779 24.2993 31.817 25.7162 31.817 27.5686V34.1845C31.817 34.3725 31.9719 34.5248 32.163 34.5248H36.4617C36.6529 34.5248 36.8077 34.3725 36.8077 34.1845V26.7206C36.8077 23.3471 36.1537 19.8984 31.3032 19.8984Z" fill="#161616"/>
</svg>
