<svg width="169" height="35" viewBox="0 0 169 35" fill="none" xmlns="http://www.w3.org/2000/svg">
<g clip-path="url(#clip0_2395_2245)">
<path d="M168.345 0.00195312H76.0195V10.4914H168.345V0.00195312Z" fill="white"/>
<path d="M80.3164 2.11914H81.1782V8.43171H80.3164V2.11914Z" fill="#161616"/>
<path d="M84.5714 2.60504C84.5714 3.08335 84.2166 3.55609 83.5013 4.0066L83.2422 3.63952C83.5081 3.47057 83.7393 3.25358 83.9237 2.99992H83.8899C83.8258 2.99849 83.7626 2.98451 83.704 2.95878C83.6455 2.93305 83.5926 2.8961 83.5486 2.85005C83.5046 2.804 83.4703 2.74978 83.4477 2.69054C83.425 2.6313 83.4145 2.56821 83.4168 2.50494C83.424 2.3623 83.4865 2.22787 83.5914 2.12951C83.6962 2.03115 83.8354 1.97639 83.98 1.97656C84.0616 1.97633 84.1424 1.99278 84.2173 2.02487C84.2921 2.05696 84.3594 2.104 84.415 2.16303C84.4705 2.22206 84.5131 2.29181 84.54 2.36788C84.567 2.44395 84.5777 2.5247 84.5714 2.60504Z" fill="#161616"/>
<path d="M86.5469 8.43171V2.11914H86.9581L89.7179 6.12915L92.4608 2.11914H92.8833V8.43171H92.0215V4.17142L89.8249 7.35828H89.5996L87.403 4.17142V8.43171H86.5469Z" fill="#161616"/>
<path d="M98.3594 8.43332V2.12075H100.742C101.14 2.10051 101.538 2.16671 101.908 2.31468C102.278 2.46266 102.61 2.68882 102.882 2.97726C103.439 3.61884 103.725 4.447 103.682 5.29093C103.729 6.13323 103.435 6.95947 102.865 7.58793C102.579 7.87673 102.233 8.10161 101.851 8.24743C101.469 8.39325 101.06 8.45664 100.652 8.43332H98.3594ZM99.2267 7.6213H100.686C100.977 7.63621 101.267 7.58477 101.535 7.47097C101.802 7.35716 102.04 7.18404 102.229 6.96502C102.609 6.49158 102.809 5.90078 102.792 5.29649C102.815 4.69128 102.615 4.0983 102.229 3.62797C102.04 3.40827 101.803 3.23432 101.535 3.11956C101.268 3.00481 100.977 2.95231 100.686 2.96613H99.2267V7.6213Z" fill="#161616"/>
<path d="M105.781 8.43171V2.11914H109.758V2.93115H106.643V4.8277H109.527V5.63971H106.643V7.60857H109.758V8.42058L105.781 8.43171Z" fill="#161616"/>
<path d="M111.34 7.23591L111.982 6.71867C112.111 7.01471 112.325 7.26736 112.597 7.44602C112.869 7.62467 113.187 7.72169 113.514 7.72534C114.24 7.72534 114.691 7.30821 114.691 6.76872C114.691 6.42389 114.466 6.13469 114.021 5.88998C113.908 5.8288 113.683 5.72869 113.368 5.57852C113.052 5.42835 112.804 5.31711 112.647 5.22256C112.367 5.07819 112.131 4.86316 111.963 4.59936C111.794 4.33556 111.7 4.03245 111.689 3.7209C111.682 3.49338 111.725 3.26707 111.816 3.0577C111.906 2.84832 112.042 2.66089 112.213 2.50843C112.595 2.16457 113.099 1.98452 113.615 2.00788C113.982 1.99653 114.346 2.0761 114.674 2.23932C115.001 2.40254 115.282 2.6442 115.491 2.94225L114.928 3.49842C114.783 3.29198 114.591 3.12299 114.366 3.00583C114.142 2.88866 113.892 2.82678 113.638 2.82545C113.514 2.81078 113.388 2.82159 113.268 2.85718C113.149 2.89277 113.038 2.95237 112.943 3.03227C112.848 3.11217 112.77 3.21063 112.715 3.32147C112.66 3.43232 112.629 3.55315 112.624 3.6764C112.631 3.85043 112.687 4.01901 112.787 4.16269C112.887 4.30638 113.025 4.41931 113.187 4.48842C113.427 4.62912 113.675 4.75541 113.931 4.86662C114.319 5.04459 114.59 5.18364 114.736 5.26706C115.011 5.40518 115.243 5.61504 115.406 5.87388C115.568 6.13273 115.656 6.43065 115.66 6.73535C115.668 6.98437 115.619 7.23198 115.514 7.45875C115.409 7.68551 115.253 7.88528 115.057 8.04236C114.633 8.38708 114.097 8.56707 113.548 8.54848C113.09 8.5646 112.638 8.4491 112.246 8.21607C111.854 7.98303 111.539 7.64249 111.34 7.23591Z" fill="#161616"/>
<path d="M117.824 2.11914H118.692V8.43171H117.824V2.11914Z" fill="#161616"/>
<path d="M121.511 7.60944C121.207 7.30453 120.968 6.94182 120.809 6.54321C120.65 6.14459 120.575 5.71834 120.588 5.29019C120.573 4.85452 120.652 4.42071 120.819 4.01717C120.986 3.61364 121.237 3.24952 121.556 2.9487C121.865 2.64449 122.233 2.40493 122.637 2.24437C123.042 2.08381 123.475 2.00557 123.911 2.01433C124.413 2.00987 124.91 2.11126 125.37 2.3117C125.829 2.51215 126.24 2.80705 126.575 3.17674L125.961 3.73291C125.706 3.44637 125.392 3.21825 125.038 3.06453C124.685 2.91081 124.302 2.83521 123.916 2.84303C123.593 2.83604 123.271 2.89406 122.971 3.01357C122.671 3.13308 122.399 3.31158 122.17 3.53824C121.939 3.76887 121.758 4.04369 121.638 4.34589C121.518 4.64809 121.461 4.9713 121.472 5.29575C121.462 5.61379 121.518 5.93051 121.635 6.22666C121.753 6.52281 121.931 6.79222 122.157 7.0185C122.384 7.24479 122.655 7.42322 122.953 7.54297C123.252 7.66272 123.572 7.7213 123.894 7.71511C124.278 7.70804 124.657 7.62576 125.009 7.47301C125.361 7.32026 125.679 7.10008 125.944 6.82523V5.56827H123.804V4.78408H126.755V7.20343C126.404 7.62569 125.96 7.96443 125.458 8.19453C124.956 8.42464 124.408 8.54021 123.854 8.53269C123.421 8.54529 122.989 8.46986 122.586 8.31105C122.183 8.15225 121.817 7.91344 121.511 7.60944Z" fill="#161616"/>
<path d="M133.166 2.11914H134.051V8.43171H133.6L129.77 3.98232V8.43171H128.914V2.11914H129.303L133.195 6.62415L133.166 2.11914Z" fill="#161616"/>
<path d="M136.492 8.43171V2.11914H140.474V2.93115H137.36V4.8277H140.243V5.63971H137.365V7.60857H140.48V8.42058L136.492 8.43171Z" fill="#161616"/>
<path d="M142.629 8.4331V2.12052H145.006C145.405 2.10098 145.804 2.16747 146.174 2.31537C146.545 2.46328 146.878 2.68906 147.152 2.97704C147.707 3.61916 147.991 4.44745 147.946 5.2907C147.97 5.70742 147.911 6.12479 147.772 6.51892C147.633 6.91306 147.416 7.27625 147.135 7.5877C146.848 7.87621 146.502 8.1009 146.121 8.2467C145.739 8.3925 145.33 8.45605 144.921 8.4331H142.629ZM143.491 7.62107H144.955C145.245 7.63597 145.535 7.58451 145.802 7.47067C146.068 7.35684 146.305 7.1837 146.493 6.96479C146.873 6.49136 147.073 5.90055 147.056 5.29627C147.079 4.69105 146.879 4.09808 146.493 3.62775C146.305 3.40815 146.069 3.23421 145.802 3.11942C145.536 3.00464 145.246 2.9521 144.955 2.9659H143.491V7.62107Z" fill="#161616"/>
<path d="M157.665 6.62461C157.669 6.86068 157.624 7.09499 157.534 7.31374C157.444 7.53248 157.311 7.73121 157.142 7.89824C156.952 8.08579 156.725 8.23215 156.475 8.32793C156.224 8.4237 155.957 8.46678 155.688 8.45441H153.047V2.1196H155.576C155.813 2.10711 156.049 2.14316 156.271 2.22548C156.493 2.3078 156.696 2.43459 156.866 2.5979C157.014 2.74328 157.132 2.91667 157.211 3.10776C157.29 3.29885 157.33 3.50374 157.327 3.71025C157.333 3.98482 157.254 4.25455 157.1 4.4832C156.946 4.71186 156.724 4.88852 156.466 4.98946C156.824 5.08649 157.139 5.30142 157.357 5.59873C157.575 5.89603 157.684 6.25793 157.665 6.62461ZM153.903 2.91493V4.678H155.452C155.581 4.68631 155.71 4.66869 155.831 4.62624C155.953 4.58378 156.064 4.51737 156.159 4.43103C156.254 4.34469 156.33 4.24021 156.383 4.12395C156.436 4.0077 156.464 3.8821 156.466 3.75475C156.46 3.63453 156.43 3.51668 156.377 3.40842C156.323 3.30016 156.248 3.20376 156.156 3.12514C156.064 3.04652 155.956 2.98733 155.84 2.95118C155.724 2.91504 155.601 2.90269 155.48 2.91493H153.903ZM155.548 7.63128C155.71 7.64109 155.873 7.61803 156.026 7.56351C156.179 7.509 156.319 7.42418 156.438 7.31426C156.544 7.21939 156.629 7.10355 156.687 6.97422C156.745 6.84489 156.775 6.70495 156.775 6.56342C156.777 6.40541 156.744 6.24896 156.679 6.10451C156.614 5.96005 156.519 5.8309 156.399 5.72565C156.28 5.6204 156.139 5.54148 155.987 5.49414C155.834 5.44679 155.673 5.43211 155.514 5.45108H153.903V7.60903L155.548 7.63128Z" fill="#161616"/>
<path d="M164.053 2.11914L161.862 6.16252V8.43171H161V6.16252L158.832 2.11914H159.79L161.423 5.31714L163.084 2.11914H164.053Z" fill="#161616"/>
<path d="M0 26.0976L2.3656 22.6939C3.04246 23.4146 3.86107 23.9916 4.77138 24.3894C5.68169 24.7872 6.66458 24.9975 7.66 25.0075C8.78648 25.0075 9.7496 24.5348 9.7496 23.6616C9.7496 23.1054 9.24269 22.616 8.2345 22.2434L6.57296 21.6872C5.76702 21.4163 4.97722 21.1006 4.20737 20.7417C2.16846 19.6683 1.13211 18.0776 1.13211 15.9642C1.12247 15.1869 1.29248 14.4178 1.6292 13.7152C1.96592 13.0126 2.46048 12.3951 3.07526 11.9097C4.48462 10.794 6.25502 10.2191 8.0599 10.2912C10.4792 10.2534 12.8311 11.0788 14.6835 12.616L12.4926 16.1477C11.2345 15.2112 9.7135 14.6826 8.13876 14.6349C6.84895 14.6349 6.1449 15.1577 6.1449 15.8251C6.1449 16.3813 6.6518 16.8207 7.63183 17.1933L9.27085 17.794C10.2002 18.1166 10.9606 18.3891 11.4112 18.5893C13.7767 19.5848 14.9652 21.1978 14.9652 23.4113C14.977 24.2196 14.8021 25.0199 14.4537 25.7514C14.1052 26.4829 13.5925 27.1263 12.9544 27.6327C11.6177 28.7228 9.82846 29.279 7.58678 29.3012C6.16226 29.3448 4.74528 29.0807 3.43486 28.5273C2.12444 27.974 0.952186 27.1448 0 26.0976Z" fill="white"/>
<path d="M16.6602 15.2305H21.121V23.0169C21.0755 23.3324 21.0991 23.6538 21.1903 23.9595C21.2815 24.2652 21.4382 24.5479 21.6497 24.7886C21.8612 25.0294 22.1226 25.2224 22.4161 25.3547C22.7097 25.487 23.0287 25.5554 23.3514 25.5554C23.6741 25.5554 23.9931 25.487 24.2867 25.3547C24.5803 25.2224 24.8416 25.0294 25.0531 24.7886C25.2646 24.5479 25.4213 24.2652 25.5125 23.9595C25.6037 23.6538 25.6273 23.3324 25.5818 23.0169V15.2305H30.037V22.9668C30.037 27.0213 27.4968 29.3072 23.3401 29.3072C19.1835 29.3072 16.6602 27.0213 16.6602 22.9668V15.2305Z" fill="white"/>
<path d="M45.7407 16.9692C47.027 18.3583 47.714 20.1879 47.6557 22.0693C47.6938 23.9674 46.9991 25.8087 45.7126 27.2195C45.1091 27.8932 44.3641 28.4288 43.5295 28.7891C42.6948 29.1493 41.7907 29.3254 40.88 29.3051C39.4198 29.3318 38.0062 28.7974 36.9374 27.8146V34.9948H32.4766V15.2284H36.8585V16.5076C37.379 15.9825 38.0028 15.568 38.6915 15.2897C39.3801 15.0114 40.1192 14.875 40.8631 14.8891C41.7832 14.864 42.6977 15.0382 43.5424 15.3995C44.387 15.7608 45.1412 16.3004 45.752 16.9803M39.9901 18.9603C39.5704 18.9533 39.1536 19.0306 38.7651 19.1875C38.3765 19.3444 38.0243 19.5777 37.7299 19.8731C37.4354 20.1686 37.2048 20.52 37.0521 20.9062C36.8995 21.2923 36.8278 21.705 36.8416 22.1193C36.8348 22.9458 37.1516 23.7429 37.7259 24.344C38.0147 24.6456 38.3645 24.8837 38.7527 25.0428C39.1409 25.2019 39.5587 25.2784 39.9789 25.2673C40.3997 25.2834 40.819 25.2092 41.2079 25.0498C41.5969 24.8904 41.9462 24.6496 42.2318 24.344C42.8061 23.7429 43.123 22.9458 43.1161 22.1193C43.1322 21.7063 43.0629 21.2944 42.9125 20.9087C42.762 20.523 42.5336 20.1717 42.241 19.876C41.9485 19.5804 41.5981 19.3467 41.2111 19.1893C40.8241 19.0319 40.4086 18.9539 39.9901 18.9603Z" fill="white"/>
<path d="M63.1912 23.5124H53.267C53.7739 24.9585 54.906 25.6759 56.6464 25.6759C58.1467 25.6848 59.6142 25.2425 60.8537 24.4079L62.5885 27.3667C60.8009 28.6361 58.645 29.2995 56.4436 29.2577C53.9766 29.2577 52.0842 28.5625 50.7493 27.1943C50.0935 26.5157 49.5802 25.7158 49.239 24.8404C48.8977 23.9651 48.7353 23.0318 48.7611 22.0942C48.7318 21.1419 48.9 20.1938 49.2555 19.3081C49.611 18.4224 50.1462 17.6179 50.8281 16.944C52.2489 15.6564 54.0958 14.9236 56.0238 14.8827C57.9517 14.8417 59.8289 15.4954 61.3043 16.7215C61.9808 17.3669 62.5105 18.147 62.8581 19.01C63.2058 19.873 63.3635 20.7993 63.3207 21.7271C63.3183 22.3179 63.2674 22.9075 63.1686 23.4902M53.1937 20.4813H59.1415C58.9846 19.8497 58.6084 19.2923 58.0785 18.9062C57.5485 18.5201 56.8983 18.3296 56.2408 18.3678C55.5698 18.3177 54.9022 18.5018 54.3546 18.8881C53.807 19.2743 53.4141 19.8382 53.2444 20.4813" fill="white"/>
<path d="M65.207 28.9617V15.2298H69.4651V16.8983C69.8392 16.2582 70.3804 15.729 71.0323 15.366C71.6843 15.0031 72.4229 14.8196 73.1712 14.8349C73.77 14.8328 74.3621 14.96 74.9059 15.2075L74.5567 19.3844C73.9653 19.1762 73.3428 19.0672 72.715 19.0618C70.676 19.0618 69.6453 20.3799 69.6453 23.0162V28.9394L65.207 28.9617Z" fill="white"/>
<path d="M76.0391 28.9646V9.98242H80.376V17.0959C80.8457 16.3857 81.4935 15.8076 82.2564 15.4178C83.0193 15.0279 83.8714 14.8396 84.7298 14.8712C86.1457 14.8438 87.5149 15.3718 88.5373 16.3395C89.568 17.3072 90.0974 18.7255 90.0974 20.5441V28.9757H85.6141V21.701C85.6141 19.9101 84.6847 18.8645 83.1752 18.8645C81.5588 18.8645 80.4548 20.0325 80.4548 21.8011V28.9646H76.0391Z" fill="white"/>
<path d="M106.196 23.5118H96.2716C96.7729 24.9579 97.905 25.6753 99.651 25.6753C101.151 25.6842 102.619 25.2419 103.858 24.4073L105.599 27.3661C103.81 28.634 101.655 29.2974 99.4539 29.2571C96.9813 29.2571 95.0945 28.5619 93.7596 27.1937C93.1071 26.5098 92.5985 25.705 92.263 24.8257C91.9275 23.9465 91.7719 23.0103 91.8052 22.0713C91.7751 21.1195 91.9425 20.1716 92.297 19.2859C92.6515 18.4003 93.1856 17.5955 93.8666 16.9212C95.2882 15.6331 97.1361 14.9002 99.065 14.8592C100.994 14.8183 102.872 15.4722 104.348 16.6987C105.025 17.344 105.555 18.1241 105.902 18.9872C106.25 19.8502 106.408 20.7764 106.365 21.7043C106.362 22.295 106.312 22.8847 106.213 23.4673M96.2378 20.4584H102.112C101.956 19.8278 101.58 19.2712 101.052 18.8852C100.523 18.4992 99.8739 18.3081 99.2173 18.345C98.5461 18.2937 97.878 18.4774 97.3301 18.8639C96.7822 19.2503 96.3896 19.8148 96.221 20.4584" fill="white"/>
<path d="M108.215 28.9595V15.2276H112.473V16.8961C113.015 16.0081 113.869 15.3476 114.872 15.04C115.875 14.7325 116.957 14.7992 117.914 15.2276L117.559 19.4044C116.97 19.1959 116.349 19.0869 115.723 19.0819C113.678 19.0819 112.648 20.4 112.648 23.0363V28.9595H108.215Z" fill="white"/>
<path d="M120.454 27.2445C119.11 25.8583 118.359 24.0134 118.359 22.0943C118.359 20.1753 119.11 18.3303 120.454 16.9441C121.941 15.585 123.893 14.8301 125.92 14.8301C127.946 14.8301 129.898 15.585 131.386 16.9441C132.74 18.325 133.498 20.172 133.498 22.0943C133.498 24.0167 132.74 25.8636 131.386 27.2445C129.892 28.5905 127.942 29.3366 125.92 29.3366C123.897 29.3366 121.948 28.5905 120.454 27.2445ZM128.159 24.3357C128.455 24.0369 128.687 23.6828 128.843 23.2941C128.999 22.9054 129.074 22.49 129.065 22.0721C129.067 21.6634 128.986 21.2584 128.829 20.8806C128.671 20.5027 128.439 20.1594 128.147 19.8704C127.854 19.5814 127.506 19.3524 127.124 19.1967C126.741 19.041 126.331 18.9616 125.917 18.9631C125.503 18.9522 125.092 19.0284 124.71 19.1867C124.329 19.3449 123.985 19.5815 123.703 19.8807C123.406 20.1637 123.17 20.5045 123.012 20.8816C122.854 21.2587 122.777 21.664 122.785 22.0721C122.775 22.4901 122.85 22.9059 123.006 23.2948C123.162 23.6837 123.395 24.0376 123.692 24.3357C123.979 24.6268 124.324 24.8565 124.705 25.0105C125.085 25.1645 125.494 25.2396 125.906 25.2311C126.323 25.2417 126.739 25.1677 127.126 25.0137C127.514 24.8597 127.865 24.629 128.159 24.3357Z" fill="white"/>
<path d="M149.037 23.5118H139.119C139.62 24.9579 140.752 25.6753 142.498 25.6753C143.998 25.6842 145.466 25.2419 146.705 24.4073L148.446 27.3661C146.658 28.634 144.502 29.2974 142.301 29.2571C139.828 29.2571 137.942 28.5619 136.607 27.1937C135.947 26.5129 135.431 25.7096 135.089 24.8302C134.747 23.9508 134.585 23.013 134.613 22.0713C134.583 21.1195 134.75 20.1716 135.105 19.2859C135.459 18.4003 135.993 17.5955 136.674 16.9212C138.096 15.6331 139.944 14.9002 141.873 14.8592C143.802 14.8183 145.68 15.4722 147.156 16.6987C147.833 17.344 148.362 18.1241 148.71 18.9872C149.058 19.8502 149.215 20.7764 149.172 21.7043C149.17 22.295 149.119 22.8847 149.02 23.4673M139.045 20.4584H144.937C144.78 19.8278 144.405 19.2712 143.876 18.8852C143.347 18.4992 142.698 18.3081 142.042 18.345C141.371 18.2937 140.702 18.4774 140.155 18.8639C139.607 19.2503 139.214 19.8148 139.045 20.4584Z" fill="white"/>
<path d="M149.859 26.9702L151.848 24.0114C152.972 25.068 154.452 25.6779 156.004 25.7244C156.984 25.7244 157.491 25.4296 157.491 24.8568C157.491 24.5342 157.238 24.3006 156.731 24.0837C156.658 24.0837 156.168 23.9113 155.199 23.5887C154.23 23.2661 153.611 23.0325 153.284 22.8879C151.543 22.0926 150.687 20.8523 150.687 19.1615C150.675 18.5536 150.81 17.9515 151.081 17.4058C151.352 16.86 151.752 16.3864 152.247 16.0247C153.459 15.1552 154.937 14.7249 156.432 14.8067C158.322 14.7746 160.162 15.4096 161.62 16.5976L159.705 19.4841C158.733 18.7684 157.565 18.3594 156.353 18.3106C155.627 18.3106 155.097 18.661 155.097 19.0837C155.097 19.5064 155.526 19.8568 156.353 20.0792C157.482 20.3735 158.58 20.7739 159.631 21.275C161.321 22.0926 161.997 23.166 161.997 24.7566C162.009 25.3942 161.87 26.0257 161.59 26.6005C161.311 27.1752 160.898 27.6771 160.386 28.0659C159.123 28.9699 157.584 29.4176 156.027 29.334C154.892 29.3596 153.763 29.1641 152.705 28.7585C151.646 28.3529 150.68 27.7452 149.859 26.9702Z" fill="white"/>
<path d="M163.512 26.97C163.512 26.3372 163.766 25.7303 164.22 25.2828C164.673 24.8354 165.287 24.584 165.928 24.584C166.569 24.584 167.184 24.8354 167.637 25.2828C168.09 25.7303 168.344 26.3372 168.344 26.97C168.352 27.2811 168.296 27.5906 168.181 27.8802C168.065 28.1697 167.892 28.4335 167.671 28.6559C167.451 28.8783 167.188 29.0548 166.897 29.175C166.606 29.2953 166.294 29.3568 165.979 29.356C165.656 29.3657 165.335 29.311 165.035 29.1952C164.735 29.0794 164.461 28.9049 164.23 28.682C164 28.4592 163.818 28.1926 163.694 27.8984C163.571 27.6042 163.509 27.2884 163.512 26.97Z" fill="white"/>
</g>
<defs>
<clipPath id="clip0_2395_2245">
<rect width="168.345" height="35" fill="white"/>
</clipPath>
</defs>
</svg>
