<svg width="20" height="16" fill="none" xmlns="http://www.w3.org/2000/svg"><path d="M19.688 1.894a8.06 8.06 0 01-2.32.635A4.05 4.05 0 0019.144.295a8.087 8.087 0 01-2.565.98A4.04 4.04 0 009.696 4.96 11.466 11.466 0 011.37.739a4.039 4.039 0 001.25 5.393 4.01 4.01 0 01-1.83-.506v.051a4.042 4.042 0 003.24 3.96 4.025 4.025 0 01-1.823.07 4.043 4.043 0 003.773 2.806A8.104 8.104 0 010 14.185 11.425 11.425 0 006.191 16c7.43 0 11.493-6.155 11.493-11.493 0-.175-.004-.35-.012-.522a8.19 8.19 0 002.016-2.09z" fill="#161616"/></svg>