<svg width="10" height="18" fill="none" xmlns="http://www.w3.org/2000/svg"><path d="M.824 9.543h1.858v7.52c0 .15.122.27.273.27h3.15c.15 0 .273-.12.273-.27V9.579h2.135a.272.272 0 00.271-.238l.325-2.769a.266.266 0 00-.068-.21.275.275 0 00-.204-.09h-2.46V4.536c0-.523.287-.789.852-.789h1.608c.151 0 .274-.12.274-.269V.937a.271.271 0 00-.274-.269H6.621c-.016 0-.05-.002-.101-.002-.385 0-1.722.074-2.778 1.03-1.17 1.058-1.007 2.326-.968 2.546v2.03H.824a.271.271 0 00-.273.268v2.734c0 .148.122.269.273.269z" fill="#161616"/></svg>