<svg width="18" height="18" fill="none" xmlns="http://www.w3.org/2000/svg"><path d="M4.75 6.02H1.34a.272.272 0 00-.274.27v10.773c0 .148.123.269.274.269h3.41c.151 0 .274-.12.274-.27V6.29a.272.272 0 00-.274-.27zM3.047.666c-1.24 0-2.25.992-2.25 2.21 0 1.22 1.01 2.212 2.25 2.212s2.248-.992 2.248-2.212c0-1.218-1.009-2.21-2.248-2.21zm10.375 5.087c-1.37 0-2.382.579-2.996 1.237v-.7a.272.272 0 00-.274-.27H6.887a.272.272 0 00-.274.27v10.773c0 .149.123.27.274.27h3.402a.272.272 0 00.274-.27v-5.33c0-1.796.496-2.496 1.769-2.496 1.386 0 1.496 1.122 1.496 2.588v5.238c0 .149.123.27.274.27h3.404c.15 0 .273-.121.273-.27v-5.91c0-2.67-.517-5.4-4.357-5.4z" fill="#161616"/></svg>