<svg width="61" height="76" fill="none" xmlns="http://www.w3.org/2000/svg"><mask id="mask0_2395_2206" style="mask-type:luminance" maskUnits="userSpaceOnUse" x="0" y="0" width="35" height="53"><path d="M34.158 0H.211v52.936h33.947V0z" fill="#fff"/></mask><g mask="url(#mask0_2395_2206)"><path d="M18.436 0c7.632 0 13.846 6.169 13.846 13.797 0 5.127-2.377 9.545-6.214 11.962a.23.23 0 00-.126.209c0 .083.042.167.126.208 4.962 1.918 8.09 7.003 8.09 12.922 0 7.627-6.172 13.796-13.804 13.796H2.13a1.94 1.94 0 01-1.918-1.917V1.917A1.94 1.94 0 012.129 0h16.307z" fill="#161616"/><path d="M11.736 43.608a.463.463 0 01-.459-.459V32.062c0-.25.209-.458.46-.458h.708c.25 0 .459.208.459.458v4.919h4.337v-4.919c0-.25.209-.458.459-.458h.709c.25 0 .459.208.459.458v11.087c0 .25-.209.459-.46.459H17.7a.463.463 0 01-.459-.459v-4.793h-4.337v4.752c0 .25-.209.458-.459.458l-.709.042zm-.031-22.261a.463.463 0 01-.459-.458V9.759c0-.25.209-.458.459-.458h6.673c.25 0 .458.209.458.459v.458c0 .25-.208.459-.458.459h-5.505v3.876h4.712c.25 0 .459.209.459.459v.458c0 .25-.209.459-.459.459h-4.712v4.918c0 .25-.209.459-.46.459h-.708v.041z" fill="#fff"/></g><path d="M1.832 65.422c.958 0 1.625-.417 1.625-1.46 0-.75-.375-1.168-.875-1.293.5-.208.625-.5.625-1.043 0-.792-.417-1.376-1.5-1.376H.458c-.125 0-.208.083-.208.208v4.797c0 .126.083.209.208.209l1.374-.042zm-.916-2.377h.875c.708 0 .958.291.958.917 0 .626-.25.918-.958.918H.958v-1.835H.916zm0-2.211h.833c.625 0 .791.292.791.834s-.125.793-.75.793H.917v-1.627zm5.997 4.38c.084-.042.125-.167.042-.25l-.125-.168c-.042-.083-.208-.125-.292-.041-.208.125-.416.25-.708.25-.624 0-.832-.25-.874-1.293h2.082c.084 0 .125-.042.125-.125v-.125c0-1.377-.5-1.878-1.416-1.878-.874 0-1.457.543-1.457 1.961 0 1.418.541 2.002 1.54 2.002.459-.041.792-.125 1.083-.333zm-.416-2.003h-1.5c.042-.917.334-1.126.75-1.126.542 0 .75.25.75 1.126zm2.207 2.211c.125 0 .208-.083.208-.208v-2.587c.292-.25.5-.375.875-.375h.125c.041 0 .125-.042.125-.084l.041-.542c0-.041-.041-.041-.041-.083h-.084c-.416 0-.79.25-1.04.584l-.084-.334c-.042-.125-.125-.209-.25-.209h-.125c-.125 0-.208.084-.208.21v3.378c0 .125.083.209.208.209l.25.041zm2.665 0c.125 0 .209-.083.209-.208v-2.628c.25-.25.624-.46.916-.46.333 0 .458.126.458.543v2.545c0 .125.083.208.208.208h.25c.125 0 .208-.083.208-.208V62.46c0-.626-.375-.918-.916-.918-.458 0-.833.25-1.166.584l-.042-.292c-.041-.125-.125-.209-.25-.209h-.124c-.125 0-.209.084-.209.209v3.379c0 .125.084.208.209.208h.25zm8.038-.5l.084.292c.041.125.124.167.25.167h.124c.125 0 .209-.084.209-.209v-4.797c0-.125-.084-.209-.209-.209h-.291c-.125 0-.209.084-.209.209v4.004c-.208.209-.582.501-1.124.501-.666 0-.791-.334-.791-1.085v-3.379c0-.125-.084-.208-.208-.208h-.292c-.125 0-.208.083-.208.209v3.503c0 1.21.708 1.586 1.416 1.586.541 0 .958-.25 1.25-.584zm2.499.5c.125 0 .208-.083.208-.208v-2.628c.25-.25.625-.46.916-.46.334 0 .458.126.458.543v2.545c0 .125.084.208.209.208h.25c.125 0 .208-.083.208-.208V62.46c0-.626-.375-.918-.916-.918-.459 0-.833.25-1.166.584l-.042-.292c-.042-.125-.125-.209-.25-.209h-.125c-.125 0-.208.084-.208.209v3.379c0 .125.083.208.208.208h.25zm4.165 0c.124 0 .208-.083.208-.208v-3.38a.197.197 0 00-.208-.208h-.792c-.125 0-.208.084-.208.209v.041c0 .126.083.21.208.21l.375.04v3.046c0 .125.083.209.208.209l.209.041zm.291-4.922a.463.463 0 00-.458-.459.463.463 0 00-.458.459c0 .25.208.459.458.459.291 0 .458-.209.458-.46zm2.457 4.922a.281.281 0 00.25-.167l1.125-3.378c.041-.084-.042-.21-.125-.21h-.292c-.125 0-.208.084-.25.21l-.583 1.96c-.083.292-.208.751-.25 1.001a8.147 8.147 0 00-.25-.96l-.583-1.96c-.041-.125-.125-.208-.25-.208h-.333c-.083 0-.166.083-.125.208l1.125 3.38c.042.124.125.166.25.166l.291-.042zm4.706-.208c.084-.042.125-.167.042-.25l-.125-.168c-.042-.083-.167-.125-.292-.041-.208.125-.416.25-.707.25-.625 0-.833-.25-.875-1.293h2.082c.084 0 .125-.042.125-.125v-.125c0-1.377-.5-1.878-1.416-1.878-.874 0-1.458.543-1.458 1.961 0 1.418.542 2.002 1.542 2.002.458-.041.79-.125 1.082-.333zm-.416-2.003h-1.5c.042-.917.334-1.126.75-1.126.542 0 .75.25.75 1.126zm2.207 2.211c.125 0 .208-.083.208-.208v-2.587c.292-.25.5-.375.875-.375h.125c.041 0 .125-.042.125-.084v-.5c0-.042-.042-.042-.042-.084h-.083c-.417 0-.791.25-1.041.584l-.084-.333c-.041-.125-.125-.209-.25-.209h-.124c-.125 0-.209.084-.209.209v3.379c0 .125.084.208.209.208h.291zm4.415-1.043c0-.834-.542-1.084-1.083-1.251-.5-.125-.667-.25-.667-.584 0-.334.209-.459.584-.459.208 0 .416.042.624.125.125.042.208 0 .25-.125l.083-.167a.2.2 0 00-.083-.25c-.25-.084-.5-.167-.874-.167-.834 0-1.167.5-1.167 1.043 0 .75.417 1.001.958 1.168.583.167.791.25.791.667 0 .334-.166.543-.666.543a1.5 1.5 0 01-.833-.25c-.083-.042-.208-.042-.25.083l-.083.125c-.042.083-.042.209.083.25.292.167.667.292 1.083.292.791.084 1.25-.25 1.25-1.043zm1.707 1.043c.125 0 .208-.083.208-.208v-3.38c0-.124-.083-.208-.208-.208h-.791c-.125 0-.209.084-.209.209v.041c0 .126.084.21.209.21l.375.04v3.046c0 .125.083.209.208.209l.208.041zm.333-4.922a.463.463 0 00-.458-.459.463.463 0 00-.458.459c0 .25.167.459.458.459.25 0 .458-.209.458-.46zm1.291 1.669v2.544c0 .584.375.793.916.793.167 0 .292-.042.417-.084.125-.041.166-.125.125-.25l-.042-.125c-.041-.084-.125-.167-.25-.125-.083.041-.125.041-.25.041-.208 0-.291-.125-.291-.333v-2.461h.583c.125 0 .208-.084.208-.21v-.124c0-.125-.083-.209-.208-.209h-.583v-.917a.18.18 0 00-.167-.167l-.25.041c-.125.042-.166.126-.166.25v.793h-.25c-.125 0-.208.084-.208.209v.125c0 .125.083.209.208.209h.208zm3.873 3.378l1.166-3.712c.042-.084-.041-.209-.124-.209h-.292c-.125 0-.208.084-.25.209l-.625 2.044c-.125.375-.166.75-.25 1.043a11.51 11.51 0 00-.208-1.043l-.583-2.044c-.041-.125-.125-.209-.25-.209h-.333c-.083 0-.166.084-.125.209l1.083 3.42a.229.229 0 00.208.126c-.208.625-.374.834-.833.959-.125.042-.166.125-.125.25l.042.126c.042.125.125.166.25.125.625-.042.916-.292 1.25-1.294zM3.04 71.888c0-1.418-.625-1.96-1.54-1.96-.917 0-1.5.542-1.5 1.96s.625 2.002 1.54 2.002c.917 0 1.5-.584 1.5-2.002zm-2.374 0c0-1.168.25-1.46.833-1.46s.833.292.833 1.46-.25 1.46-.833 1.46-.833-.292-.833-1.46zm3.457-1.377v3.046c0 .125.083.208.208.208h.25c.125 0 .208-.083.208-.208V70.51h.5c.125 0 .208-.083.208-.208v-.125c0-.125-.083-.209-.208-.209h-.5v-.625c0-.376.125-.543.458-.543.084 0 .209 0 .292.042.125.042.208-.042.25-.125l.041-.125a.2.2 0 00-.083-.25 1.39 1.39 0 00-.625-.126c-.54 0-.999.25-.999 1.127v.584h-.208c-.125 0-.208.083-.208.208v.125c0 .125.083.209.208.209h.208v.041zm4.165 3.254a.281.281 0 00.25-.166l.374-1.335h1.583l.375 1.335c.041.125.125.166.25.166h.374c.084 0 .167-.083.125-.166l-1.416-4.84c-.041-.125-.125-.166-.25-.166H9.58a.281.281 0 00-.25.166l-1.46 4.799c-.042.083.042.167.125.167h.292v.041zm1.416-4.463c.083.417.166.709.374 1.501l.25.877h-1.25l.25-.877c.25-.792.334-1.084.376-1.501zm3.29 5.965c.125 0 .208-.083.208-.209v-1.626c.25.25.583.417 1 .417.874 0 1.29-.584 1.29-2.003 0-1.543-.583-1.96-1.29-1.96-.417 0-.75.208-1.042.542l-.041-.25c-.042-.125-.125-.209-.25-.209h-.125c-.125 0-.208.084-.208.209v4.88c0 .126.083.21.208.21h.25zm.208-2.336v-2.044c.25-.25.541-.459.874-.459.5 0 .708.25.708 1.46s-.25 1.418-.75 1.418c-.29 0-.624-.166-.832-.375zm3.873 2.336c.125 0 .208-.083.208-.209v-1.626c.25.25.583.417 1 .417.874 0 1.29-.584 1.29-2.003 0-1.543-.582-1.96-1.29-1.96-.417 0-.75.208-1.041.542l-.042-.25c-.042-.125-.125-.209-.25-.209h-.125c-.125 0-.208.084-.208.209v4.88c0 .126.083.21.208.21h.25zm.167-2.336v-2.044c.25-.25.541-.459.874-.459.5 0 .708.25.708 1.46s-.25 1.418-.75 1.418c-.291 0-.583-.166-.832-.375zm4.372.876c.125-.042.167-.125.167-.25l-.042-.209c0-.041-.041-.041-.083-.041h-.083c-.167 0-.25-.084-.25-.25V68.55c0-.125-.083-.209-.208-.209h-.25c-.125 0-.208.084-.208.209v4.38c0 .668.208.918.666.918.125 0 .208-.042.291-.042zm1.791-.042c.125 0 .208-.083.208-.208v-3.38c0-.124-.083-.208-.208-.208h-.791c-.125 0-.208.084-.208.209v.041c0 .126.083.21.208.21l.375.04v3.046c0 .125.083.209.208.209l.208.041zm.333-4.922a.463.463 0 00-.458-.459.462.462 0 00-.458.459c0 .25.208.459.458.459s.458-.209.458-.46zm3.582 4.714c.083-.042.125-.167.042-.25l-.125-.167c-.042-.084-.209-.126-.292-.042-.208.125-.416.25-.708.25-.624 0-.833-.25-.874-1.293h2.04c.084 0 .125-.042.125-.125v-.125c0-1.377-.5-1.878-1.416-1.878-.874 0-1.457.543-1.457 1.961 0 1.418.541 2.002 1.54 2.002.5-.041.833-.125 1.125-.333zm-.416-2.003h-1.5c.042-.917.333-1.126.75-1.126.541 0 .75.25.75 1.126zm3.873 1.836l.041.209c.042.125.125.166.25.166h.125c.125 0 .208-.083.208-.208v-5.048c0-.125-.083-.208-.208-.208h-.25c-.125 0-.208.083-.208.208v1.836c-.25-.25-.583-.46-1-.46-.874 0-1.29.585-1.29 2.003 0 1.544.54 1.96 1.29 1.96.375 0 .75-.166 1.042-.458zm-1.666-1.544c0-1.21.25-1.418.75-1.418.333 0 .624.209.832.417v2.044c-.25.25-.541.418-.874.418-.5 0-.708-.25-.708-1.46zm8.246.543c0-1.043-.625-1.335-1.416-1.669-.625-.25-.833-.375-.833-.918 0-.5.333-.709.791-.709.292 0 .541.084.75.209a.2.2 0 00.25-.084l.083-.208c.041-.084 0-.209-.083-.25-.292-.167-.625-.25-1.083-.25-.916 0-1.458.458-1.458 1.334 0 .876.375 1.21 1.25 1.544.624.25 1 .417 1 1.042 0 .543-.25.835-.959.835-.416 0-.708-.084-1.04-.334-.084-.042-.21-.042-.25.042l-.084.167a.257.257 0 00.041.292c.375.25.875.417 1.375.417 1.29 0 1.666-.71 1.666-1.46zm3.331 1.126c.084-.083.084-.209 0-.25l-.125-.125a.256.256 0 00-.291-.042c-.167.125-.333.209-.541.209-.584 0-.833-.293-.833-1.419 0-1.168.208-1.418.79-1.418.25 0 .417.083.584.208.083.084.208.042.291-.041l.125-.167c.084-.084.042-.209-.041-.25-.25-.209-.542-.293-.916-.293-.917 0-1.5.543-1.5 1.961 0 1.335.542 2.002 1.5 2.002.416-.041.707-.125.957-.375zm1.791.25c.125 0 .208-.083.208-.208v-3.38c0-.124-.083-.208-.208-.208h-.833c-.125 0-.208.084-.208.209v.041c0 .126.083.21.208.21l.375.04v3.046c0 .125.083.209.208.209l.25.041zm.292-4.922a.462.462 0 00-.458-.459.462.462 0 00-.459.459c0 .25.167.459.459.459.291 0 .458-.209.458-.46zm3.623 4.714c.083-.042.125-.167.042-.25l-.125-.167c-.042-.084-.209-.126-.292-.042-.208.125-.416.25-.708.25-.624 0-.833-.25-.874-1.293h2.082c.083 0 .125-.042.125-.125v-.125c0-1.377-.5-1.878-1.416-1.878-.875 0-1.458.543-1.458 1.961 0 1.418.542 2.002 1.541 2.002.458-.041.75-.125 1.083-.333zm-.458-2.003h-1.5c.042-.917.334-1.126.75-1.126.542 0 .75.25.75 1.126zm2.207 2.211c.125 0 .208-.083.208-.208v-2.628c.25-.25.625-.46.917-.46.333 0 .458.126.458.543v2.545c0 .125.083.208.208.208h.25c.125 0 .208-.083.208-.208v-2.754c0-.625-.375-.917-.916-.917-.458 0-.833.25-1.166.584l-.042-.292c-.042-.125-.125-.209-.25-.209h-.125c-.125 0-.208.084-.208.209v3.379c0 .125.083.208.208.208h.25zm5.706-.25c.083-.083.083-.209 0-.25l-.125-.125a.256.256 0 00-.292-.042c-.166.125-.333.209-.541.209-.583 0-.833-.293-.833-1.419 0-1.168.208-1.418.791-1.418a.9.9 0 01.583.208c.084.084.208.042.292-.041l.125-.167c.083-.084.041-.209-.042-.25-.25-.209-.541-.293-.916-.293-.916 0-1.5.543-1.5 1.961 0 1.335.542 2.002 1.5 2.002.416-.041.75-.125.958-.375zm3.415.042c.083-.042.125-.167.041-.25l-.125-.167c-.041-.084-.166-.126-.291-.042-.208.125-.417.25-.708.25-.625 0-.833-.25-.875-1.293h2.04c.084 0 .126-.042.126-.125v-.125c0-1.377-.5-1.878-1.416-1.878-.875 0-1.458.543-1.458 1.961 0 1.418.542 2.002 1.541 2.002.5-.041.833-.125 1.125-.333zm-.459-2.003h-1.499c.042-.917.333-1.126.75-1.126.583 0 .75.25.75 1.126zm3.957 1.168c0-.834-.541-1.084-1.083-1.251-.5-.125-.666-.25-.666-.584 0-.334.166-.459.583-.459.208 0 .416.042.625.125.125.042.208 0 .25-.125l.083-.167a.2.2 0 00-.084-.25c-.25-.084-.5-.167-.874-.167-.833 0-1.166.5-1.166 1.043 0 .75.416 1.001.958 1.168.583.167.79.25.79.667 0 .334-.166.543-.665.543a1.5 1.5 0 01-.833-.25c-.084-.042-.209-.042-.25.083l-.084.125c-.041.084-.041.209.084.25.291.167.666.292 1.083.292.833.084 1.249-.25 1.249-1.043z" fill="#161616"/></svg>