<svg width="61" height="76" viewBox="0 0 61 76" fill="none" xmlns="http://www.w3.org/2000/svg">
<mask id="mask0_2395_2206" style="mask-type:luminance" maskUnits="userSpaceOnUse" x="0" y="0" width="35" height="53">
<path d="M34.1583 0H0.210938V52.936H34.1583V0Z" fill="white"/>
</mask>
<g mask="url(#mask0_2395_2206)">
<path d="M18.4358 0C26.0677 0 32.2816 6.16892 32.2816 13.7967C32.2816 18.9236 29.9045 23.3419 26.0677 25.7594C25.9842 25.8011 25.9425 25.8845 25.9425 25.9678C25.9425 26.0512 25.9842 26.1346 26.0677 26.1762C31.0305 28.0936 34.1583 33.1788 34.1583 39.0976C34.1583 46.7254 27.9861 52.8943 20.3542 52.8943H2.12934C1.08673 52.8943 0.210938 52.019 0.210938 50.977V1.91737C0.210938 0.87532 1.08673 0 2.12934 0H18.4358Z" fill="#161616"/>
<path d="M11.7361 43.6079C11.4859 43.6079 11.2773 43.3995 11.2773 43.1494V32.062C11.2773 31.8119 11.4859 31.6035 11.7361 31.6035H12.4451C12.6953 31.6035 12.9038 31.8119 12.9038 32.062V36.9805H17.2411V32.062C17.2411 31.8119 17.4496 31.6035 17.6998 31.6035H18.4088C18.659 31.6035 18.8675 31.8119 18.8675 32.062V43.1494C18.8675 43.3995 18.659 43.6079 18.4088 43.6079H17.6998C17.4496 43.6079 17.2411 43.3995 17.2411 43.1494V38.356H12.9038V43.1077C12.9038 43.3578 12.6953 43.5662 12.4451 43.5662L11.7361 43.6079Z" fill="white"/>
<path d="M11.7048 21.3473C11.4546 21.3473 11.2461 21.1389 11.2461 20.8888V9.75977C11.2461 9.50968 11.4546 9.30127 11.7048 9.30127H18.3775C18.6278 9.30127 18.8363 9.50968 18.8363 9.75977V10.2183C18.8363 10.4684 18.6278 10.6768 18.3775 10.6768H12.8726V14.5532H17.5852C17.8354 14.5532 18.0439 14.7616 18.0439 15.0117V15.4702C18.0439 15.7203 17.8354 15.9287 17.5852 15.9287H12.8726V20.8472C12.8726 21.0972 12.664 21.3057 12.4138 21.3057H11.7048V21.3473Z" fill="white"/>
</g>
<path d="M1.83244 65.4223C2.7903 65.4223 3.45664 65.0051 3.45664 63.9622C3.45664 63.2114 3.08182 62.7942 2.58207 62.6691C3.08182 62.4605 3.20676 62.1685 3.20676 61.6262C3.20676 60.8336 2.7903 60.2496 1.7075 60.2496H0.458109C0.33317 60.2496 0.249878 60.333 0.249878 60.4582V65.2554C0.249878 65.3806 0.33317 65.464 0.458109 65.464L1.83244 65.4223ZM0.916218 63.0445H1.79079C2.49878 63.0445 2.74865 63.3365 2.74865 63.9622C2.74865 64.588 2.49878 64.88 1.79079 64.88H0.957864V63.0445H0.916218ZM0.916218 60.8336H1.74914C2.37384 60.8336 2.54042 61.1256 2.54042 61.6679C2.54042 62.2102 2.41548 62.4605 1.79079 62.4605H0.916218V60.8336ZM6.91328 65.2137C6.99658 65.172 7.03822 65.0468 6.95493 64.9634L6.82999 64.7965C6.78834 64.7131 6.62176 64.6714 6.53847 64.7548C6.33024 64.88 6.122 65.0051 5.83048 65.0051C5.20579 65.0051 4.99755 64.7548 4.95591 63.712H7.03822C7.12151 63.712 7.16316 63.6702 7.16316 63.5868V63.4617C7.16316 62.0851 6.6634 61.5845 5.74719 61.5845C4.87261 61.5845 4.28957 62.1268 4.28957 63.5451C4.28957 64.9634 4.83097 65.5474 5.83048 65.5474C6.28859 65.5057 6.62176 65.4223 6.91328 65.2137ZM6.49682 63.2114H4.99755C5.0392 62.2936 5.33072 62.0851 5.74719 62.0851C6.28859 62.0851 6.49682 62.3353 6.49682 63.2114ZM8.70407 65.4223C8.82901 65.4223 8.9123 65.3388 8.9123 65.2137V62.6274C9.20383 62.3771 9.41206 62.2519 9.78688 62.2519C9.82852 62.2519 9.87017 62.2519 9.91181 62.2519C9.95346 62.2519 10.0368 62.2102 10.0368 62.1685L10.0784 61.6262C10.0784 61.5845 10.0368 61.5845 10.0368 61.5428C9.99511 61.5428 9.99511 61.5428 9.95346 61.5428C9.537 61.5428 9.16218 61.7931 8.9123 62.1268L8.82901 61.7931C8.78736 61.6679 8.70407 61.5845 8.57913 61.5845H8.4542C8.32926 61.5845 8.24596 61.6679 8.24596 61.7931V65.172C8.24596 65.2971 8.32926 65.3806 8.4542 65.3806L8.70407 65.4223ZM11.3694 65.4223C11.4944 65.4223 11.5777 65.3388 11.5777 65.2137V62.5856C11.8275 62.3353 12.2024 62.1268 12.4939 62.1268C12.8271 62.1268 12.952 62.2519 12.952 62.6691V65.2137C12.952 65.3388 13.0353 65.4223 13.1602 65.4223H13.4101C13.535 65.4223 13.6183 65.3388 13.6183 65.2137V62.4605C13.6183 61.8348 13.2435 61.5428 12.7021 61.5428C12.244 61.5428 11.8692 61.7931 11.536 62.1268L11.4944 61.8348C11.4527 61.7096 11.3694 61.6262 11.2445 61.6262H11.1196C10.9946 61.6262 10.9113 61.7096 10.9113 61.8348V65.2137C10.9113 65.3388 10.9946 65.4223 11.1196 65.4223H11.3694ZM19.4072 64.9217L19.4905 65.2137C19.5321 65.3388 19.6154 65.3806 19.7403 65.3806H19.8653C19.9902 65.3806 20.0735 65.2971 20.0735 65.172V60.3747C20.0735 60.2496 19.9902 60.1662 19.8653 60.1662H19.5738C19.4488 60.1662 19.3655 60.2496 19.3655 60.3747V64.3794C19.1573 64.588 18.7825 64.88 18.2411 64.88C17.5747 64.88 17.4498 64.5463 17.4498 63.7954V60.4165C17.4498 60.2913 17.3665 60.2079 17.2416 60.2079H16.95C16.8251 60.2079 16.7418 60.2913 16.7418 60.4165V63.9205C16.7418 65.1303 17.4498 65.5057 18.1578 65.5057C18.6992 65.5057 19.1156 65.2554 19.4072 64.9217ZM21.9059 65.4223C22.0309 65.4223 22.1142 65.3388 22.1142 65.2137V62.5856C22.3641 62.3353 22.7389 62.1268 23.0304 62.1268C23.3636 62.1268 23.4885 62.2519 23.4885 62.6691V65.2137C23.4885 65.3388 23.5718 65.4223 23.6967 65.4223H23.9466C24.0716 65.4223 24.1548 65.3388 24.1548 65.2137V62.4605C24.1548 61.8348 23.78 61.5428 23.2386 61.5428C22.7805 61.5428 22.4057 61.7931 22.0725 62.1268L22.0309 61.8348C21.9892 61.7096 21.9059 61.6262 21.781 61.6262H21.6561C21.5311 61.6262 21.4478 61.7096 21.4478 61.8348V65.2137C21.4478 65.3388 21.5311 65.4223 21.6561 65.4223H21.9059ZM26.0706 65.4223C26.1955 65.4223 26.2788 65.3388 26.2788 65.2137V61.8348C26.2788 61.7096 26.1955 61.6262 26.0706 61.6262H25.2793C25.1544 61.6262 25.0711 61.7096 25.0711 61.8348V61.8765C25.0711 62.0016 25.1544 62.0851 25.2793 62.0851L25.6541 62.1268V65.172C25.6541 65.2971 25.7374 65.3806 25.8623 65.3806L26.0706 65.4223ZM26.3621 60.4999C26.3621 60.2496 26.1539 60.041 25.904 60.041C25.6541 60.041 25.4459 60.2496 25.4459 60.4999C25.4459 60.7502 25.6541 60.9587 25.904 60.9587C26.1955 60.9587 26.3621 60.7502 26.3621 60.4999ZM28.8192 65.4223C28.9442 65.4223 29.0275 65.3389 29.0691 65.2554L30.1936 61.8765C30.2352 61.7931 30.1519 61.6679 30.0686 61.6679H29.7771C29.6522 61.6679 29.5689 61.7513 29.5272 61.8765L28.9442 63.8371C28.8609 64.1291 28.7359 64.588 28.6943 64.8383C28.6526 64.588 28.5277 64.1291 28.4444 63.8788L27.8614 61.9182C27.8197 61.7931 27.7364 61.7096 27.6115 61.7096H27.2783C27.195 61.7096 27.1117 61.7931 27.1534 61.9182L28.2778 65.2971C28.3195 65.4223 28.4028 65.464 28.5277 65.464L28.8192 65.4223ZM33.5253 65.2137C33.6085 65.172 33.6502 65.0468 33.5669 64.9634L33.442 64.7965C33.4003 64.7131 33.2754 64.6714 33.1504 64.7548C32.9422 64.88 32.734 65.0051 32.4425 65.0051C31.8178 65.0051 31.6095 64.7548 31.5679 63.712H33.6502C33.7335 63.712 33.7751 63.6702 33.7751 63.5868V63.4617C33.7751 62.0851 33.2754 61.5845 32.3592 61.5845C31.4846 61.5845 30.9015 62.1268 30.9015 63.5451C30.9015 64.9634 31.4429 65.5474 32.4425 65.5474C32.9006 65.5057 33.2337 65.4223 33.5253 65.2137ZM33.1088 63.2114H31.6095C31.6512 62.2936 31.9427 62.0851 32.3592 62.0851C32.9006 62.0851 33.1088 62.3353 33.1088 63.2114ZM35.316 65.4223C35.441 65.4223 35.5243 65.3388 35.5243 65.2137V62.6274C35.8158 62.3771 36.024 62.2519 36.3988 62.2519C36.4405 62.2519 36.4821 62.2519 36.5238 62.2519C36.5654 62.2519 36.6487 62.2102 36.6487 62.1685V61.6679C36.6487 61.6262 36.6071 61.6262 36.6071 61.5845C36.5654 61.5845 36.5654 61.5845 36.5238 61.5845C36.1073 61.5845 35.7325 61.8348 35.4826 62.1685L35.3993 61.8348C35.3577 61.7096 35.2744 61.6262 35.1495 61.6262H35.0245C34.8996 61.6262 34.8163 61.7096 34.8163 61.8348V65.2137C34.8163 65.3388 34.8996 65.4223 35.0245 65.4223H35.316ZM39.7306 64.3794C39.7306 63.5451 39.1892 63.2948 38.6478 63.1279C38.148 63.0028 37.9814 62.8777 37.9814 62.5439C37.9814 62.2102 38.1896 62.0851 38.5645 62.0851C38.7727 62.0851 38.9809 62.1268 39.1891 62.2102C39.3141 62.2519 39.3974 62.2102 39.439 62.0851L39.5223 61.9182C39.564 61.8348 39.5223 61.7096 39.439 61.6679C39.1891 61.5845 38.9393 61.501 38.5645 61.501C37.7315 61.501 37.3984 62.0016 37.3984 62.5439C37.3984 63.2948 37.8148 63.5451 38.3562 63.712C38.9393 63.8788 39.1475 63.9622 39.1475 64.3794C39.1475 64.7131 38.9809 64.9217 38.4812 64.9217C38.1896 64.9217 37.8981 64.8383 37.6482 64.6714C37.5649 64.6297 37.44 64.6297 37.3984 64.7548L37.3151 64.88C37.2734 64.9634 37.2734 65.0886 37.3984 65.1303C37.6899 65.2971 38.0647 65.4223 38.4812 65.4223C39.2724 65.5057 39.7306 65.172 39.7306 64.3794ZM41.438 65.4223C41.563 65.4223 41.6463 65.3388 41.6463 65.2137V61.8348C41.6463 61.7096 41.563 61.6262 41.438 61.6262H40.6468C40.5218 61.6262 40.4385 61.7096 40.4385 61.8348V61.8765C40.4385 62.0016 40.5218 62.0851 40.6468 62.0851L41.0216 62.1268V65.172C41.0216 65.2971 41.1049 65.3806 41.2298 65.3806L41.438 65.4223ZM41.7712 60.4999C41.7712 60.2496 41.563 60.041 41.3131 60.041C41.0632 60.041 40.855 60.2496 40.855 60.4999C40.855 60.7502 41.0216 60.9587 41.3131 60.9587C41.563 60.9587 41.7712 60.7502 41.7712 60.4999ZM43.0623 62.1685V64.7131C43.0623 65.2971 43.4371 65.5057 43.9785 65.5057C44.1451 65.5057 44.27 65.464 44.3949 65.4223C44.5199 65.3806 44.5615 65.2971 44.5199 65.172L44.4782 65.0468C44.4366 64.9634 44.3533 64.88 44.2284 64.9217C44.1451 64.9634 44.1034 64.9634 43.9785 64.9634C43.7702 64.9634 43.687 64.8383 43.687 64.6297V62.1685H44.27C44.3949 62.1685 44.4782 62.0851 44.4782 61.9599V61.8348C44.4782 61.7096 44.3949 61.6262 44.27 61.6262H43.687V60.7085C43.687 60.625 43.6037 60.5416 43.5204 60.5416L43.2705 60.5833C43.1455 60.625 43.1039 60.7085 43.1039 60.8336V61.6262H42.854C42.7291 61.6262 42.6458 61.7096 42.6458 61.8348V61.9599C42.6458 62.0851 42.7291 62.1685 42.854 62.1685H43.0623ZM46.9354 65.5474L48.1015 61.8348C48.1431 61.7513 48.0598 61.6262 47.9765 61.6262H47.685C47.5601 61.6262 47.4768 61.7096 47.4351 61.8348L46.8104 63.8788C46.6855 64.2543 46.6438 64.6297 46.5605 64.9217C46.5189 64.6297 46.4356 64.2125 46.3523 63.8788L45.7693 61.8348C45.7276 61.7096 45.6443 61.6262 45.5194 61.6262H45.1862C45.1029 61.6262 45.0196 61.7096 45.0613 61.8348L46.1441 65.2554C46.1857 65.3389 46.269 65.3806 46.3523 65.3806C46.1441 66.0063 45.9775 66.2149 45.5194 66.34C45.3944 66.3817 45.3528 66.4652 45.3944 66.5903L45.4361 66.7155C45.4777 66.8406 45.561 66.8823 45.686 66.8406C46.3107 66.7989 46.6022 66.5486 46.9354 65.5474ZM3.04018 71.8881C3.04018 70.4698 2.41548 69.9275 1.49927 69.9275C0.583048 69.9275 0 70.4698 0 71.8881C0 73.3065 0.624694 73.8905 1.54091 73.8905C2.45713 73.8905 3.04018 73.3065 3.04018 71.8881ZM0.66634 71.8881C0.66634 70.7201 0.916218 70.4281 1.49927 70.4281C2.08231 70.4281 2.33219 70.7201 2.33219 71.8881C2.33219 73.0562 2.08231 73.3482 1.49927 73.3482C0.916218 73.3482 0.66634 73.0562 0.66634 71.8881ZM4.12298 70.5115V73.5567C4.12298 73.6819 4.20627 73.7653 4.33121 73.7653H4.58109C4.70603 73.7653 4.78932 73.6819 4.78932 73.5567V70.5115H5.28908C5.41402 70.5115 5.49731 70.4281 5.49731 70.303V70.1778C5.49731 70.0527 5.41402 69.9692 5.28908 69.9692H4.78932V69.3435C4.78932 68.9681 4.91426 68.8012 5.24743 68.8012C5.33072 68.8012 5.45566 68.8012 5.53896 68.8429C5.66389 68.8846 5.74719 68.8012 5.78883 68.7178L5.83048 68.5926C5.87213 68.5092 5.83048 68.3841 5.74719 68.3423C5.5806 68.2589 5.37237 68.2172 5.12249 68.2172C4.58109 68.2172 4.12298 68.4675 4.12298 69.3435V69.9275H3.91475C3.78981 69.9275 3.70652 70.011 3.70652 70.1361V70.2612C3.70652 70.3864 3.78981 70.4698 3.91475 70.4698H4.12298V70.5115ZM8.28761 73.7653C8.41255 73.7653 8.49584 73.6819 8.53749 73.5985L8.9123 72.2636H10.4949L10.8697 73.5985C10.9113 73.7236 10.9946 73.7653 11.1196 73.7653H11.4944C11.5777 73.7653 11.661 73.6819 11.6193 73.5985L10.2033 68.7595C10.1617 68.6344 10.0784 68.5926 9.95346 68.5926H9.57864C9.45371 68.5926 9.37041 68.6761 9.32877 68.7595L7.87115 73.5567C7.8295 73.6402 7.91279 73.7236 7.99609 73.7236H8.28761V73.7653ZM9.70358 69.3018C9.78688 69.7189 9.87017 70.011 10.0784 70.8035L10.3283 71.6796H9.07889L9.32877 70.8035C9.57864 70.011 9.66194 69.7189 9.70358 69.3018ZM12.9936 75.2671C13.1186 75.2671 13.2019 75.1836 13.2019 75.0585V73.4316C13.4517 73.6819 13.7849 73.8488 14.2014 73.8488C15.076 73.8488 15.4924 73.2647 15.4924 71.8464C15.4924 70.303 14.9094 69.8858 14.2014 69.8858C13.7849 69.8858 13.4517 70.0944 13.1602 70.4281L13.1186 70.1778C13.0769 70.0527 12.9936 69.9692 12.8687 69.9692H12.7438C12.6188 69.9692 12.5355 70.0527 12.5355 70.1778V75.0585C12.5355 75.1836 12.6188 75.2671 12.7438 75.2671H12.9936ZM13.2019 72.931V70.887C13.4517 70.6367 13.7433 70.4281 14.0764 70.4281C14.5762 70.4281 14.7844 70.6784 14.7844 71.8881C14.7844 73.0979 14.5346 73.3065 14.0348 73.3065C13.7433 73.3065 13.4101 73.1396 13.2019 72.931ZM17.075 75.2671C17.1999 75.2671 17.2832 75.1836 17.2832 75.0585V73.4316C17.5331 73.6819 17.8663 73.8488 18.2827 73.8488C19.1573 73.8488 19.5738 73.2647 19.5738 71.8464C19.5738 70.303 18.9907 69.8858 18.2827 69.8858C17.8663 69.8858 17.5331 70.0944 17.2416 70.4281L17.1999 70.1778C17.1583 70.0527 17.075 69.9692 16.95 69.9692H16.8251C16.7002 69.9692 16.6169 70.0527 16.6169 70.1778V75.0585C16.6169 75.1836 16.7002 75.2671 16.8251 75.2671H17.075ZM17.2416 72.931V70.887C17.4914 70.6367 17.783 70.4281 18.1161 70.4281C18.6159 70.4281 18.8241 70.6784 18.8241 71.8881C18.8241 73.0979 18.5742 73.3065 18.0745 73.3065C17.783 73.3065 17.4914 73.1396 17.2416 72.931ZM21.6144 73.807C21.7394 73.7653 21.781 73.6819 21.781 73.5567L21.7394 73.3482C21.7394 73.3065 21.6977 73.3065 21.6561 73.3065C21.6144 73.3065 21.6144 73.3065 21.5728 73.3065C21.4062 73.3065 21.3229 73.223 21.3229 73.0562V68.5509C21.3229 68.4258 21.2396 68.3423 21.1147 68.3423H20.8648C20.7398 68.3423 20.6566 68.4258 20.6566 68.5509V72.931C20.6566 73.5985 20.8648 73.8488 21.3229 73.8488C21.4478 73.8488 21.5311 73.807 21.6144 73.807ZM23.4052 73.7653C23.5301 73.7653 23.6134 73.6819 23.6134 73.5567V70.1778C23.6134 70.0527 23.5301 69.9692 23.4052 69.9692H22.6139C22.489 69.9692 22.4057 70.0527 22.4057 70.1778V70.2195C22.4057 70.3447 22.489 70.4281 22.6139 70.4281L22.9887 70.4698V73.515C22.9887 73.6402 23.072 73.7236 23.197 73.7236L23.4052 73.7653ZM23.7384 68.8429C23.7384 68.5926 23.5301 68.3841 23.2803 68.3841C23.0304 68.3841 22.8222 68.5926 22.8222 68.8429C22.8222 69.0932 23.0304 69.3018 23.2803 69.3018C23.5301 69.3018 23.7384 69.0932 23.7384 68.8429ZM27.32 73.5567C27.4033 73.515 27.4449 73.3899 27.3616 73.3065L27.2367 73.1396C27.195 73.0562 27.0284 73.0144 26.9451 73.0979C26.7369 73.223 26.5287 73.3482 26.2372 73.3482C25.6125 73.3482 25.4042 73.0979 25.3626 72.055H27.4033C27.4865 72.055 27.5282 72.0133 27.5282 71.9299V71.8047C27.5282 70.4281 27.0284 69.9275 26.1122 69.9275C25.2376 69.9275 24.6546 70.4698 24.6546 71.8881C24.6546 73.3065 25.196 73.8905 26.1955 73.8905C26.6953 73.8488 27.0284 73.7653 27.32 73.5567ZM26.9035 71.5544H25.4042C25.4459 70.6367 25.7374 70.4281 26.1539 70.4281C26.6953 70.4281 26.9035 70.6784 26.9035 71.5544ZM30.7766 73.3899L30.8182 73.5985C30.8599 73.7236 30.9432 73.7653 31.0681 73.7653H31.1931C31.318 73.7653 31.4013 73.6819 31.4013 73.5567V68.5092C31.4013 68.3841 31.318 68.3006 31.1931 68.3006H30.9432C30.8182 68.3006 30.735 68.3841 30.735 68.5092V70.3447C30.4851 70.0944 30.1519 69.8858 29.7354 69.8858C28.8609 69.8858 28.4444 70.4698 28.4444 71.8881C28.4444 73.4316 28.9858 73.8488 29.7354 73.8488C30.1103 73.8488 30.4851 73.6819 30.7766 73.3899ZM29.1108 71.8464C29.1108 70.6367 29.3606 70.4281 29.8604 70.4281C30.1936 70.4281 30.4851 70.6367 30.6933 70.8453V72.8893C30.4434 73.1396 30.1519 73.3065 29.8187 73.3065C29.319 73.3065 29.1108 73.0562 29.1108 71.8464ZM37.3567 72.3887C37.3567 71.3458 36.732 71.0538 35.9407 70.7201C35.316 70.4698 35.1078 70.3447 35.1078 69.8024C35.1078 69.3018 35.441 69.0932 35.8991 69.0932C36.1906 69.0932 36.4405 69.1767 36.6487 69.3018C36.732 69.3435 36.857 69.3018 36.8986 69.2184L36.9819 69.0098C37.0235 68.9264 36.9819 68.8012 36.8986 68.7595C36.6071 68.5926 36.2739 68.5092 35.8158 68.5092C34.8996 68.5092 34.3582 68.9681 34.3582 69.8441C34.3582 70.7201 34.733 71.0538 35.6076 71.3876C36.2323 71.6378 36.6071 71.8047 36.6071 72.4304C36.6071 72.9727 36.3572 73.2647 35.6492 73.2647C35.2328 73.2647 34.9412 73.1813 34.6081 72.931C34.5248 72.8893 34.3998 72.8893 34.3582 72.9727L34.2749 73.1396C34.2332 73.223 34.2332 73.3482 34.3165 73.4316C34.6914 73.6819 35.1911 73.8488 35.6909 73.8488C36.9819 73.8488 37.3567 73.1396 37.3567 72.3887ZM40.6884 73.515C40.7717 73.4316 40.7717 73.3065 40.6884 73.2647L40.5635 73.1396C40.4802 73.0562 40.3552 73.0562 40.2719 73.0979C40.1054 73.223 39.9388 73.3065 39.7306 73.3065C39.1475 73.3065 38.8976 73.0145 38.8976 71.8881C38.8976 70.7201 39.1059 70.4698 39.6889 70.4698C39.9388 70.4698 40.1054 70.5533 40.2719 70.6784C40.3552 70.7618 40.4802 70.7201 40.5635 70.6367L40.6884 70.4698C40.7717 70.3864 40.7301 70.2612 40.6468 70.2195C40.3969 70.011 40.1054 69.9275 39.7306 69.9275C38.8143 69.9275 38.2313 70.4698 38.2313 71.8881C38.2313 73.223 38.7727 73.8905 39.7306 73.8905C40.147 73.8488 40.4385 73.7653 40.6884 73.515ZM42.4792 73.7653C42.6041 73.7653 42.6874 73.6819 42.6874 73.5567V70.1778C42.6874 70.0527 42.6041 69.9692 42.4792 69.9692H41.6463C41.5213 69.9692 41.438 70.0527 41.438 70.1778V70.2195C41.438 70.3447 41.5213 70.4281 41.6463 70.4281L42.0211 70.4698V73.515C42.0211 73.6402 42.1044 73.7236 42.2293 73.7236L42.4792 73.7653ZM42.7707 68.8429C42.7707 68.5926 42.5625 68.3841 42.3126 68.3841C42.0627 68.3841 41.8545 68.5926 41.8545 68.8429C41.8545 69.0932 42.0211 69.3018 42.3126 69.3018C42.6041 69.3018 42.7707 69.0932 42.7707 68.8429ZM46.394 73.5567C46.4772 73.515 46.5189 73.3899 46.4356 73.3065L46.3107 73.1396C46.269 73.0562 46.1024 73.0144 46.0191 73.0979C45.8109 73.223 45.6027 73.3482 45.3112 73.3482C44.6865 73.3482 44.4782 73.0979 44.4366 72.055H46.5189C46.6022 72.055 46.6438 72.0133 46.6438 71.9299V71.8047C46.6438 70.4281 46.1441 69.9275 45.2279 69.9275C44.3533 69.9275 43.7702 70.4698 43.7702 71.8881C43.7702 73.3065 44.3116 73.8905 45.3112 73.8905C45.7693 73.8488 46.0608 73.7653 46.394 73.5567ZM45.9358 71.5544H44.4366C44.4782 70.6367 44.7698 70.4281 45.1862 70.4281C45.7276 70.4281 45.9358 70.6784 45.9358 71.5544ZM48.1431 73.7653C48.268 73.7653 48.3513 73.6819 48.3513 73.5567V70.9287C48.6012 70.6784 48.976 70.4698 49.2676 70.4698C49.6007 70.4698 49.7257 70.595 49.7257 71.0121V73.5567C49.7257 73.6819 49.809 73.7653 49.9339 73.7653H50.1838C50.3087 73.7653 50.392 73.6819 50.392 73.5567V70.8035C50.392 70.1778 50.0172 69.8858 49.4758 69.8858C49.0177 69.8858 48.6429 70.1361 48.3097 70.4698L48.268 70.1778C48.2264 70.0527 48.1431 69.9692 48.0182 69.9692H47.8932C47.7683 69.9692 47.685 70.0527 47.685 70.1778V73.5567C47.685 73.6819 47.7683 73.7653 47.8932 73.7653H48.1431ZM53.8486 73.515C53.9319 73.4316 53.9319 73.3065 53.8486 73.2647L53.7237 73.1396C53.6404 73.0562 53.5155 73.0562 53.4322 73.0979C53.2656 73.223 53.099 73.3065 52.8908 73.3065C52.3077 73.3065 52.0579 73.0145 52.0579 71.8881C52.0579 70.7201 52.2661 70.4698 52.8491 70.4698C53.099 70.4698 53.2656 70.5533 53.4322 70.6784C53.5155 70.7618 53.6404 70.7201 53.7237 70.6367L53.8486 70.4698C53.9319 70.3864 53.8903 70.2612 53.807 70.2195C53.5571 70.011 53.2656 69.9275 52.8908 69.9275C51.9746 69.9275 51.3915 70.4698 51.3915 71.8881C51.3915 73.223 51.9329 73.8905 52.8908 73.8905C53.3072 73.8488 53.6404 73.7653 53.8486 73.515ZM57.2636 73.5567C57.3469 73.515 57.3886 73.3899 57.3053 73.3065L57.1803 73.1396C57.1387 73.0562 57.0138 73.0144 56.8888 73.0979C56.6806 73.223 56.4724 73.3482 56.1808 73.3482C55.5561 73.3482 55.3479 73.0979 55.3063 72.055H57.3469C57.4302 72.055 57.4719 72.0133 57.4719 71.9299V71.8047C57.4719 70.4281 56.9721 69.9275 56.0559 69.9275C55.1813 69.9275 54.5983 70.4698 54.5983 71.8881C54.5983 73.3065 55.1397 73.8905 56.1392 73.8905C56.6389 73.8488 56.9721 73.7653 57.2636 73.5567ZM56.8055 71.5544H55.3063C55.3479 70.6367 55.6394 70.4281 56.0559 70.4281C56.6389 70.4281 56.8055 70.6784 56.8055 71.5544ZM60.7619 72.7224C60.7619 71.8881 60.2205 71.6378 59.6791 71.471C59.1794 71.3458 59.0128 71.2207 59.0128 70.887C59.0128 70.5533 59.1794 70.4281 59.5958 70.4281C59.8041 70.4281 60.0123 70.4698 60.2205 70.5533C60.3455 70.595 60.4287 70.5533 60.4704 70.4281L60.5537 70.2612C60.5953 70.1778 60.5537 70.0527 60.4704 70.011C60.2205 69.9275 59.9706 69.8441 59.5958 69.8441C58.7629 69.8441 58.4297 70.3447 58.4297 70.887C58.4297 71.6379 58.8462 71.8881 59.3876 72.055C59.9706 72.2219 60.1789 72.3053 60.1789 72.7224C60.1789 73.0562 60.0123 73.2647 59.5125 73.2647C59.221 73.2647 58.9295 73.1813 58.6796 73.0145C58.5963 72.9727 58.4714 72.9727 58.4297 73.0979L58.3464 73.223C58.3048 73.3065 58.3048 73.4316 58.4297 73.4733C58.7213 73.6402 59.0961 73.7653 59.5125 73.7653C60.3455 73.8488 60.7619 73.515 60.7619 72.7224Z" fill="#161616"/>
</svg>
