<svg width="129" height="58" fill="none" xmlns="http://www.w3.org/2000/svg"><path d="M20.506 54.4A20.51 20.51 0 013.419 34.178v-5.124H0v5.124A23.926 23.926 0 0020.496 57.86l.01-3.458zm6.869 0a20.51 20.51 0 0017.087-20.223v-5.124h3.419v5.124a23.925 23.925 0 01-20.496 23.682l-.01-3.458zM20.506 0H0v22.216h3.42V3.419h17.086V0zm6.869 0v3.42h17.087v18.796h3.419V0H27.375z" fill="#161616"/><path d="M19.942 19.433H13.88v-9.177h-3.161v11.962h9.223v-2.785zm14.51 2.785l4.613-11.962h-3.472l-2.588 7.967-2.602-7.967h-3.52l4.528 11.962h3.041zM15.366 36.416h2.216v1.835a3.537 3.537 0 01-.677.186c-.3.047-.605.07-.91.07a3.858 3.858 0 01-1.446-.258 2.956 2.956 0 01-1.056-.724 3.02 3.02 0 01-.644-1.097 4.379 4.379 0 01-.222-1.423 3.88 3.88 0 01.241-1.394 3.27 3.27 0 01.68-1.092 3.08 3.08 0 011.027-.723 3.22 3.22 0 011.295-.258c.502-.01 1 .09 1.46.29.39.162.74.41 1.024.723l.128.147 2.006-2.286-.116-.114a5.477 5.477 0 00-1.982-1.16 7.816 7.816 0 00-2.616-.429 7.285 7.285 0 00-2.54.437 6.158 6.158 0 00-2.059 1.258A5.787 5.787 0 009.8 32.391a6.993 6.993 0 000 5.163 5.9 5.9 0 001.36 1.987 6.116 6.116 0 002.076 1.283c.835.317 1.72.482 2.614.485.85.005 1.699-.09 2.527-.285a9.096 9.096 0 002.032-.738l.09-.046v-6.428h-5.132v2.604zm19.029-7.369h-2.94L26.439 41.01h3.424l.853-2.282h4.268l.902 2.282h3.487l-4.977-11.963zm-.217 7.166H31.55l1.328-3.65 1.3 3.65zm30.915-1.838a3.75 3.75 0 00-2.952-1.392c-2.41 0-4.157 1.73-4.157 4.1 0 2.341 1.787 4.099 4.157 4.099a3.824 3.824 0 002.952-1.384v1.186h1.22V28.445h-1.22v5.93zm-2.952 5.712c-1.67 0-2.838-1.23-2.838-2.985s1.187-2.988 2.822-2.988a2.987 2.987 0 11.017 5.973zm7.876-6.896h-1.22v7.82h1.22v-7.82zm8.683-3.939h-1.317v11.76h6.735v-1.22h-5.419v-10.54zm13.442 10.064v-6.125h-1.22v4.073c0 1.852-1.145 2.821-2.279 2.821-1.4 0-2.001-.745-2.001-2.493v-4.4h-1.22V38.2c0 1.929 1.051 3.007 2.959 3.007a3.219 3.219 0 002.541-1.315v.427c0 .213.018.425.05.634v.058h1.25v-.077a72.383 72.383 0 01-.08-1.618zm8.675-4.931a3.619 3.619 0 00-2.934-1.399c-2.267 0-3.977 1.739-3.977 4.042a3.985 3.985 0 004.075 3.976c1.206 0 2.195-.463 2.836-1.343v1.283c0 1.835-1.058 2.893-2.893 2.893a3.572 3.572 0 01-2.894-1.384l-.91.94c1.004 1.069 2.193 1.566 3.746 1.566 2.652 0 4.188-1.462 4.188-4.008v-7.757h-1.22l-.017 1.19zm-2.804 5.507A2.843 2.843 0 0195.225 37c0-1.565 1.269-2.894 2.77-2.894 1.708 0 2.856 1.206 2.856 2.988a2.794 2.794 0 01-.829 1.998 2.777 2.777 0 01-2.01.801zm12.378-.596v-3.564c0-1.666-1.136-2.744-2.893-2.744-1.447 0-2.544.384-3.282 1.138l.75.87a3.306 3.306 0 012.302-.886c1.317 0 1.903.602 1.903 1.953v.094h-.424c-3.376 0-4.895.841-4.895 2.73 0 1.364 1.114 2.317 2.71 2.317 1.206 0 2.035-.415 2.676-1.339.002.364.035.727.099 1.085v.056h1.187l-.012-.077a15.64 15.64 0 01-.121-1.633zm-3.484.786c-1.054 0-1.736-.528-1.736-1.345 0-1.003 1.176-1.555 3.313-1.555h.687v.342c0 1.625-.825 2.558-2.264 2.558zm9.122-7.097a3.168 3.168 0 00-2.542 1.312 7.57 7.57 0 00-.05-1.054v-.06h-1.249l.084 1.688v6.127h1.22V37.07c0-2.17 1.254-2.954 2.329-2.954 1.348 0 1.951.77 1.951 2.494v4.403h1.22v-5.011c-.005-1.939-1.056-3.017-2.963-3.017zm8.592.036a4.031 4.031 0 00-4.14 4.1c0 2.38 1.741 4.099 4.14 4.099 2.4 0 4.157-1.727 4.157-4.1 0-2.372-1.748-4.099-4.157-4.099zm0 7.092c-1.635 0-2.821-1.254-2.821-2.986 0-1.73 1.155-2.985 2.804-2.985 1.65 0 2.863 1.228 2.863 2.985 0 1.758-1.175 2.986-2.846 2.986zM70.072 29.63h-1.353v1.354h1.353V29.63zm-5.96-7.122c1.81 0 3.48-.83 4.36-2.17l-1.083-.768c-.762 1.15-1.835 1.71-3.277 1.71-2.728 0-4.71-2.083-4.71-4.955s1.977-4.948 4.71-4.948c1.085 0 2.425.685 2.93 1.495l1.145-.849a5.12 5.12 0 00-4.075-1.866c-3.492 0-6.128 2.652-6.128 6.175 0 3.523 2.631 6.176 6.128 6.176zm7.511-8.113h-1.22v7.82h1.22v-7.82zm20.745 6.106V16.94c0-1.669-1.136-2.747-2.894-2.747-1.447 0-2.544.384-3.282 1.139l.75.87a3.306 3.306 0 012.303-.885c1.317 0 1.902.6 1.902 1.95v.095h-.424c-3.376 0-4.895.841-4.895 2.73 0 1.364 1.114 2.317 2.71 2.317 1.206 0 2.036-.415 2.677-1.338 0 .363.033.726.096 1.085l.013.055h1.188v-.077a15.604 15.604 0 01-.144-1.633zm-3.473.787c-1.053 0-1.736-.529-1.736-1.344 0-1.005 1.177-1.557 3.313-1.557h.688v.342c-.013 1.625-.837 2.559-2.265 2.559zm.531-8.332h1.129l-1.717-2.472-.02-.029h-1.685l2.271 2.479.022.022zm-17.753-2.124H70.32v1.353h1.353v-1.353zm5.414 10.463c-.743 0-1.046-.36-1.046-1.245v-4.528h2.216V14.4H76.04v-2.17h-1.22v2.17h-1.626v1.12h1.626v4.84c0 1.288.735 2.057 1.972 2.057a5.521 5.521 0 001.531-.267v-1.08a6.298 6.298 0 01-1.237.224zm6.397 0c-.745 0-1.05-.36-1.05-1.245v-4.528h2.217V14.4h-2.218v-2.17h-1.206v2.17h-1.625v1.12h1.625v4.84c0 1.288.738 2.057 1.972 2.057a5.503 5.503 0 001.532-.267v-1.08a6.299 6.299 0 01-1.247.224z" fill="#161616"/></svg>