<svg width="79" height="40" fill="none" xmlns="http://www.w3.org/2000/svg"><g opacity=".83" fill="#161616"><path d="M0 30.406L6.683.076h21.462L26.87 5.76H11.91l-1.408 6.41h14.64l-1.273 5.683H9.23l-1.5 6.866h14.958l-1.228 5.687H0z"/><path opacity=".9" d="M78.39 30.44h-8.773L57.668.13l8.801-.054 11.92 30.364z"/><path d="M78.406 13.648V5.73l-32.43 24.713 8.76-.03 23.67-16.765z"/><path d="M66.485 0l-8.801.053L45.977 30.44l8.759-.03L66.486 0z"/><path d="M23.094 30.408L29.778.082h14.74c5.274 0 8.23 3.41 8.23 7.275 0 4.092-3.236 7.546-6.911 7.91 2.819.729 4.364 3.456 4.364 6.138 0 4.23-2.954 9.003-10.548 9.003h-16.56zm20.642-9.547c0-1.82-1.274-3.093-3.32-3.093h-8.093l-1.546 7.042h8.366c2.91.002 4.593-1.825 4.593-3.953v.004zm2.093-12.414c0-1.591-1.319-2.819-3.09-2.819h-7.686l-1.457 6.594h8.14c3.092-.004 4.091-2.005 4.091-3.779l.002.004zm20.634 27.419a.653.653 0 10.636.653.612.612 0 00-.636-.653zm-37.951.474h-.715v.717h.715a.36.36 0 000-.717zm.221-1.09a.312.312 0 00-.199-.31.313.313 0 00-.128-.022h-.61v.665h.61a.317.317 0 00.327-.334zm12.783.566a.552.552 0 00-.582.423h1.151a.554.554 0 00-.569-.423zm-21.088.05a.653.653 0 10.636.653.61.61 0 00-.636-.653zm30.072.602h.876l-.438-1.376-.438 1.376zm-39.66-.58a.632.632 0 10.615.632.6.6 0 00-.615-.632zm48.245 0a.631.631 0 10.616.632.6.6 0 00-.616-.632zm-41.741-.072a.552.552 0 00-.582.423h1.142a.55.55 0 00-.56-.423z"/><path d="M0 32.812v6.953h78.734v-6.953H0zm4.079 5.044H1.726v-3.744h2.326v.824h-1.47v.62h1.333v.813H2.583v.665h1.496v.822zm2.984 0h-.809v-.251a.91.91 0 01-.76.327c-.542 0-1-.38-1-1.108v-1.642h.809v1.522a.444.444 0 00.466.488c.295 0 .497-.172.497-.55v-1.46h.803l-.006 2.674zm2.193-1.818c-.331-.053-.803.08-.803.61v1.208H7.65V35.19h.802v.476a.807.807 0 01.803-.53v.901zm1.576 1.894a1.412 1.412 0 111.418-1.412 1.401 1.401 0 01-1.418 1.412zm3.47 0a.999.999 0 01-.796-.327v1.32h-.803v-3.743h.803v.253a1 1 0 01.796-.328c.7 0 1.279.615 1.279 1.413 0 .797-.571 1.412-1.28 1.412zm4.347-1.09h-1.903c.1.277.346.38.641.38a.703.703 0 00.512-.202l.642.368a1.355 1.355 0 01-1.165.55c-.914 0-1.481-.613-1.481-1.41a1.37 1.37 0 011.422-1.413 1.349 1.349 0 011.359 1.412c.001.106-.008.21-.027.314zm3.213 1.014h-.803v-.251a1.001 1.001 0 01-.798.327c-.698 0-1.275-.617-1.275-1.412 0-.796.57-1.413 1.275-1.413a1.003 1.003 0 01.798.328v-.253h.803v2.674zm3.154 0h-.813v-1.523a.439.439 0 00-.465-.487c-.293 0-.498.171-.498.55v1.462h-.807v-2.676h.8v.253a.92.92 0 01.76-.328c.54 0 1 .381 1 1.108l.023 1.64zm3.485 0h-1.573v-3.742h1.466c.653 0 1.182.422 1.182 1.068a.95.95 0 01-.325.732.97.97 0 01.46.847c-.01.663-.55 1.095-1.22 1.095h.01zm4.187 0h-.803v-.251a.91.91 0 01-.762.327c-.54 0-.999-.38-.999-1.108v-1.642h.8v1.522a.443.443 0 00.466.488c.295 0 .497-.172.497-.55v-1.46h.803l-.002 2.674zm1.523.076c-.537 0-.952-.204-1.152-.638l.695-.395a.442.442 0 00.457.315c.19 0 .287-.059.287-.165 0-.293-1.315-.14-1.315-1.064 0-.582.49-.878 1.047-.878a1.167 1.167 0 011.043.571l-.684.368a.395.395 0 00-.36-.234c-.136 0-.222.053-.222.15 0 .305 1.315.1 1.315 1.09-.002.617-.537.88-1.113.88h.002zm2.314-.074h-.803v-2.674h.795l.008 2.674zm-.401-2.91a.482.482 0 11.337-.143.485.485 0 01-.34.143h.002zm3.555 2.91h-.801v-1.523a.443.443 0 00-.467-.487c-.293 0-.498.171-.498.55v1.462h-.8v-2.678h.8v.253a.919.919 0 01.761-.328c.54 0 1 .381 1 1.108l.005 1.643zm3.165-1.017h-1.903c.1.278.346.381.64.381a.712.712 0 00.515-.202l.642.368a1.36 1.36 0 01-1.167.55c-.914 0-1.48-.613-1.48-1.41a1.37 1.37 0 011.42-1.413 1.349 1.349 0 011.36 1.412c0 .106-.009.21-.029.314h.002zm1.344 1.091c-.537 0-.952-.204-1.152-.638l.695-.395a.44.44 0 00.457.315c.19 0 .287-.059.287-.165 0-.293-1.317-.14-1.317-1.064 0-.582.493-.878 1.049-.878a1.167 1.167 0 011.043.571l-.685.368a.381.381 0 00-.358-.234c-.137 0-.224.053-.224.15 0 .305 1.317.1 1.317 1.09-.002.617-.537.88-1.114.88h.002zm2.34 0c-.536 0-.941-.204-1.143-.638l.697-.395a.438.438 0 00.453.315c.19 0 .29-.059.29-.165 0-.293-1.316-.14-1.316-1.064 0-.582.491-.878 1.049-.878a1.166 1.166 0 011.04.571l-.682.368a.392.392 0 00-.358-.234c-.14 0-.225.053-.225.15 0 .305 1.313.1 1.313 1.09-.01.617-.542.88-1.12.88h.001zm5.283-.076l-.19-.588h-1.392l-.19.588h-.937l1.274-3.742h1.09l1.274 3.742h-.93zm2.164.076c-.535 0-.94-.204-1.142-.638l.697-.395a.437.437 0 00.453.315c.19 0 .289-.059.289-.165 0-.293-1.315-.14-1.315-1.064 0-.582.49-.878 1.047-.878a1.167 1.167 0 011.043.571l-.684.368a.394.394 0 00-.36-.234c-.136 0-.222.053-.222.15 0 .305 1.313.1 1.313 1.09-.01.617-.542.88-1.12.88h.001zm2.343 0c-.537 0-.942-.204-1.142-.638l.695-.395a.44.44 0 00.455.315c.19 0 .289-.059.289-.165 0-.293-1.315-.14-1.315-1.064 0-.582.489-.878 1.047-.878a1.168 1.168 0 011.043.571l-.686.368a.39.39 0 00-.357-.234c-.14 0-.225.053-.225.15 0 .305 1.315.1 1.315 1.09-.01.617-.544.88-1.125.88h.006zm2.768 0a1.413 1.413 0 111.42-1.412 1.402 1.402 0 01-1.422 1.412h.002zm3.146-.792a.55.55 0 00.52-.3l.698.401a1.362 1.362 0 01-1.209.691 1.412 1.412 0 111.209-2.14l-.699.406a.553.553 0 00-.52-.299.62.62 0 100 1.241zm2.34.718h-.8v-2.674h.8v2.674zm-.4-2.91a.482.482 0 11.338-.142.485.485 0 01-.34.142h.001zm3.732 2.908h-.802v-.251a1.007 1.007 0 01-.797.327c-.7 0-1.277-.617-1.277-1.412 0-.796.57-1.413 1.277-1.413a1.007 1.007 0 01.797.328v-.253h.802v2.674zm2.156-1.904h-.554v.952c0 .23.2.251.554.23v.728c-1.05.106-1.355-.208-1.355-.952v-.952h-.428v-.761h.428v-.508l.801-.24v.748h.554v.755zm1.254 1.904h-.803v-2.672h.802l.001 2.672zm-.401-2.91a.482.482 0 11.339-.141.487.487 0 01-.341.143l.002-.002zm2.272 2.984a1.412 1.412 0 111.418-1.412 1.4 1.4 0 01-1.42 1.414l.002-.002zm4.439-.074h-.803v-1.523a.439.439 0 00-.465-.487c-.295 0-.496.171-.496.55v1.462h-.804v-2.676h.804v.253a.91.91 0 01.761-.328c.54 0 1 .381 1 1.108l.003 1.64z"/><path d="M73.178 35.888a.633.633 0 10.617.632.6.6 0 00-.617-.632zm-59.048-.022a.653.653 0 10.637.653.61.61 0 00-.636-.653z"/><path d="M78.734 32.812H0v6.953h78.734v-6.953z"/></g></svg>