<svg width="79" height="40" viewBox="0 0 79 40" fill="none" xmlns="http://www.w3.org/2000/svg">
<g opacity="0.83">
<path d="M0 30.4059L6.68264 0.0761719H28.1447L26.8714 5.75955H11.9111L10.5026 12.17H25.1432L23.8698 17.8534H9.22931L7.72948 24.7188H22.6879L21.4602 30.4059H0Z" fill="#161616"/>
<path opacity="0.9" d="M78.3897 30.4402H69.6172L57.668 0.129465L66.469 0.0761719L78.3897 30.4402Z" fill="#161616"/>
<path d="M78.4057 13.6484V5.73047L45.9766 30.4435L54.7358 30.413L78.4057 13.6484Z" fill="#161616"/>
<path d="M66.4851 0L57.684 0.0532934L45.9766 30.4402L54.7358 30.4097L66.4851 0Z" fill="#161616"/>
<path d="M23.0938 30.408L29.7783 0.0820312H44.5178C49.792 0.0820312 52.7479 3.49282 52.7479 7.35661C52.7479 11.4488 49.5122 14.9034 45.8368 15.2669C48.6557 15.9959 50.2012 18.7234 50.2012 21.4052C50.2012 25.6344 47.2472 30.408 39.6528 30.408H23.0938ZM43.7355 20.8608C43.7355 19.0412 42.4622 17.7679 40.4161 17.7679H32.3231L30.7775 24.8103H39.1427C42.053 24.8122 43.7355 22.985 43.7355 20.857V20.8608ZM45.8292 8.44722C45.8292 6.85603 44.5102 5.62837 42.7382 5.62837H35.0525L33.5964 12.2216H41.7351C44.828 12.2177 45.8273 10.2173 45.8273 8.44342L45.8292 8.44722Z" fill="#161616"/>
<path d="M66.4629 35.8658C66.3331 35.8624 66.2053 35.8978 66.0957 35.9674C65.9861 36.037 65.8998 36.1378 65.8477 36.2567C65.7957 36.3757 65.7803 36.5074 65.8035 36.6352C65.8267 36.7629 65.8875 36.8808 65.9781 36.9739C66.0687 37.0669 66.1849 37.1308 66.312 37.1574C66.4391 37.184 66.5712 37.1721 66.6915 37.1233C66.8118 37.0744 66.9148 36.9908 66.9873 36.8831C67.0599 36.7754 67.0986 36.6485 67.0987 36.5186C67.1046 36.4328 67.0924 36.3467 67.0628 36.266C67.0332 36.1852 66.9869 36.1116 66.9269 36.05C66.8669 35.9883 66.7945 35.9401 66.7146 35.9083C66.6346 35.8766 66.5489 35.8621 66.4629 35.8658Z" fill="#161616"/>
<path d="M28.5125 36.3398H27.7969V37.0574H28.5125C28.6032 37.0508 28.688 37.0101 28.7498 36.9436C28.8117 36.877 28.8461 36.7895 28.8461 36.6986C28.8461 36.6077 28.8117 36.5202 28.7498 36.4537C28.688 36.3871 28.6032 36.3464 28.5125 36.3398Z" fill="#161616"/>
<path d="M28.7333 35.2495C28.7358 35.2056 28.729 35.1618 28.7134 35.1208C28.6979 35.0798 28.6739 35.0424 28.6431 35.0112C28.6123 34.98 28.5752 34.9556 28.5344 34.9396C28.4935 34.9236 28.4498 34.9163 28.4059 34.9183H27.7969V35.5825H28.4059C28.4498 35.5839 28.4934 35.5762 28.5342 35.5598C28.5749 35.5435 28.6118 35.5189 28.6425 35.4876C28.6733 35.4564 28.6972 35.419 28.7128 35.378C28.7285 35.3371 28.7354 35.2933 28.7333 35.2495Z" fill="#161616"/>
<path d="M41.516 35.8163C41.3844 35.8055 41.2533 35.8421 41.1465 35.9196C41.0396 35.9972 40.9641 36.1104 40.9336 36.2389H42.0851C42.0546 36.113 41.981 36.0018 41.877 35.9246C41.773 35.8474 41.6453 35.8091 41.516 35.8163Z" fill="#161616"/>
<path d="M20.4278 35.8658C20.298 35.8624 20.1701 35.8978 20.0605 35.9674C19.9509 36.037 19.8646 36.1378 19.8126 36.2567C19.7605 36.3757 19.7451 36.5074 19.7683 36.6352C19.7916 36.7629 19.8523 36.8808 19.9429 36.9739C20.0335 37.0669 20.1498 37.1308 20.2769 37.1574C20.4039 37.184 20.5361 37.1721 20.6564 37.1233C20.7767 37.0744 20.8797 36.9908 20.9522 36.8831C21.0247 36.7754 21.0635 36.6485 21.0635 36.5186C21.0695 36.4328 21.0573 36.3467 21.0277 36.266C20.9981 36.1852 20.9517 36.1116 20.8917 36.05C20.8317 35.9883 20.7594 35.9401 20.6794 35.9083C20.5995 35.8766 20.5137 35.8621 20.4278 35.8658Z" fill="#161616"/>
<path d="M50.5 36.4679H51.3755L50.9378 35.0918L50.5 36.4679Z" fill="#161616"/>
<path d="M10.8404 35.8879C10.7148 35.8845 10.591 35.9187 10.4848 35.986C10.3787 36.0533 10.295 36.1508 10.2446 36.2659C10.1941 36.381 10.1791 36.5086 10.2015 36.6323C10.2239 36.756 10.2827 36.8702 10.3704 36.9603C10.458 37.0503 10.5706 37.1123 10.6936 37.1381C10.8166 37.1639 10.9445 37.1524 11.061 37.1051C11.1775 37.0578 11.2772 36.9769 11.3474 36.8726C11.4176 36.7684 11.4552 36.6455 11.4552 36.5198C11.4597 36.4371 11.447 36.3544 11.418 36.2768C11.3889 36.1993 11.3441 36.1286 11.2863 36.0692C11.2285 36.0098 11.1591 35.963 11.0824 35.9319C11.0056 35.9007 10.9233 35.8857 10.8404 35.8879Z" fill="#161616"/>
<path d="M59.0846 35.888C58.9591 35.8849 58.8354 35.9194 58.7295 35.987C58.6236 36.0545 58.5403 36.1521 58.4901 36.2673C58.4399 36.3825 58.4252 36.51 58.4478 36.6336C58.4705 36.7571 58.5294 36.8711 58.6172 36.961C58.7049 37.0509 58.8174 37.1127 58.9404 37.1383C59.0634 37.1639 59.1912 37.1523 59.3076 37.105C59.4239 37.0577 59.5235 36.9767 59.5937 36.8725C59.6638 36.7683 59.7013 36.6455 59.7013 36.5199C59.7058 36.437 59.6931 36.3541 59.6639 36.2764C59.6347 36.1987 59.5897 36.1279 59.5317 36.0685C59.4738 36.0091 59.4041 35.9624 59.3271 35.9313C59.2502 35.9002 59.1676 35.8855 59.0846 35.888Z" fill="#161616"/>
<path d="M17.3441 35.8163C17.2126 35.8055 17.0815 35.8421 16.9746 35.9196C16.8678 35.9972 16.7922 36.1104 16.7617 36.2389H17.9037C17.8742 36.1143 17.8021 36.004 17.7 35.9269C17.5978 35.8497 17.472 35.8107 17.3441 35.8163Z" fill="#161616"/>
<path d="M0 32.812V39.7649H78.7337V32.812H0ZM4.07886 37.8559H1.72633V34.112H4.05222V34.9361H2.58284V35.5566H3.91518V36.3694H2.58284V37.0336H4.07886V37.8559ZM7.06331 37.8559H6.25439V37.6046C6.16247 37.7156 6.04552 37.8031 5.91316 37.86C5.78079 37.917 5.63681 37.9416 5.49305 37.932C4.9525 37.932 4.49379 37.5513 4.49379 36.8243V35.1817H5.30271V36.7044C5.29628 36.7681 5.30376 36.8325 5.32462 36.8932C5.34548 36.9538 5.37924 37.0092 5.42356 37.0555C5.46788 37.1018 5.52172 37.1379 5.58136 37.1614C5.641 37.1849 5.70503 37.1952 5.76903 37.1916C6.06405 37.1916 6.2658 37.0203 6.2658 36.6415V35.1817H7.06902L7.06331 37.8559ZM9.25596 36.0382C8.92478 35.9849 8.45275 36.1181 8.45275 36.6472V37.8559H7.65144V35.1912H8.45275V35.667C8.51212 35.5043 8.62227 35.365 8.76691 35.2697C8.91155 35.1744 9.08302 35.1282 9.25596 35.1379V36.0382ZM10.8319 37.932C10.5528 37.9309 10.2804 37.8471 10.0489 37.6912C9.81737 37.5354 9.63724 37.3144 9.53123 37.0562C9.42521 36.7981 9.39806 36.5143 9.45319 36.2407C9.50833 35.9671 9.64328 35.716 9.84102 35.5191C10.0388 35.3221 10.2904 35.1882 10.5642 35.1342C10.838 35.0801 11.1217 35.1084 11.3794 35.2155C11.6371 35.3226 11.8574 35.5036 12.0123 35.7357C12.1672 35.9678 12.2499 36.2406 12.2499 36.5197C12.2514 36.7061 12.2158 36.8909 12.145 37.0633C12.0742 37.2357 11.9697 37.3923 11.8377 37.5238C11.7056 37.6553 11.5486 37.7592 11.3759 37.8293C11.2032 37.8994 11.0183 37.9343 10.8319 37.932ZM14.3017 37.932C14.1531 37.9401 14.0045 37.915 13.8669 37.8583C13.7292 37.8017 13.606 37.715 13.5061 37.6046V38.9255H12.7029V35.1817H13.5061V35.4348C13.606 35.3244 13.7292 35.2378 13.8669 35.1811C14.0045 35.1245 14.1531 35.0993 14.3017 35.1074C15.0021 35.1074 15.5808 35.7222 15.5808 36.5197C15.5808 37.3172 15.0098 37.932 14.3017 37.932ZM18.649 36.8414H16.7456C16.8465 37.1193 17.092 37.2221 17.387 37.2221C17.4816 37.2247 17.5757 37.2082 17.6637 37.1736C17.7517 37.1389 17.8317 37.0868 17.899 37.0203L18.5405 37.3877C18.4073 37.5689 18.2311 37.7141 18.0277 37.8102C17.8243 37.9062 17.6002 37.95 17.3756 37.9377C16.462 37.9377 15.8948 37.3248 15.8948 36.5273C15.8889 36.3395 15.9218 36.1524 15.9913 35.9778C16.0608 35.8031 16.1654 35.6447 16.2988 35.5122C16.4321 35.3797 16.5913 35.2761 16.7664 35.2078C16.9415 35.1395 17.1288 35.1079 17.3166 35.1151C17.5 35.1138 17.6816 35.1499 17.8506 35.2212C18.0195 35.2924 18.1722 35.3973 18.2994 35.5294C18.4265 35.6615 18.5254 35.8181 18.5901 35.9897C18.6548 36.1612 18.6839 36.3442 18.6756 36.5273C18.6771 36.6326 18.6681 36.7378 18.649 36.8414ZM21.8618 37.8559H21.0586V37.6046C20.9584 37.7152 20.8349 37.8019 20.6969 37.8586C20.5589 37.9152 20.41 37.9403 20.2611 37.932C19.5626 37.932 18.9858 37.3153 18.9858 36.5197C18.9858 35.7241 19.5568 35.1074 20.2611 35.1074C20.41 35.0992 20.5589 35.1243 20.6969 35.1809C20.8349 35.2375 20.9584 35.3243 21.0586 35.4348V35.1817H21.8618V37.8559ZM25.0156 37.8559H24.2029V36.3332C24.21 36.2694 24.203 36.2049 24.1825 36.1442C24.162 36.0834 24.1284 36.0278 24.0842 35.9814C24.0399 35.935 23.9861 35.8988 23.9263 35.8754C23.8666 35.852 23.8025 35.8419 23.7385 35.8459C23.4454 35.8459 23.2398 36.0172 23.2398 36.396V37.8578H22.4328V35.1817H23.2322V35.4348C23.3246 35.3245 23.4417 35.2373 23.5739 35.1805C23.7061 35.1236 23.8499 35.0986 23.9935 35.1074C24.5322 35.1074 24.9928 35.4881 24.9928 36.2152L25.0156 37.8559ZM28.5007 37.8559H26.9285V34.1139H28.3941C29.0469 34.1139 29.576 34.5364 29.576 35.1817C29.5784 35.3201 29.5505 35.4575 29.4943 35.584C29.438 35.7106 29.3549 35.8234 29.2506 35.9145C29.3945 36.0033 29.5127 36.1282 29.5935 36.2767C29.6743 36.4253 29.7148 36.5924 29.7112 36.7614C29.7017 37.4238 29.1611 37.8559 28.4911 37.8559H28.5007ZM32.688 37.8559H31.8848V37.6046C31.7929 37.7156 31.6759 37.8031 31.5436 37.86C31.4112 37.917 31.2672 37.9416 31.1235 37.932C30.5829 37.932 30.1242 37.5513 30.1242 36.8243V35.1817H30.9236V36.7044C30.9169 36.7682 30.9241 36.8328 30.9448 36.8935C30.9656 36.9543 30.9993 37.0098 31.0437 37.0562C31.0881 37.1026 31.1421 37.1387 31.2019 37.1621C31.2617 37.1855 31.3258 37.1956 31.3899 37.1916C31.685 37.1916 31.8867 37.0203 31.8867 36.6415V35.1817H32.6899L32.688 37.8559ZM34.2107 37.932C33.6739 37.932 33.259 37.7284 33.0592 37.2944L33.7539 36.8985C33.7824 36.9955 33.8433 37.0798 33.9264 37.1373C34.0095 37.1948 34.1099 37.222 34.2107 37.2144C34.401 37.2144 34.4981 37.1554 34.4981 37.0489C34.4981 36.7557 33.1829 36.9099 33.1829 35.9849C33.1829 35.4025 33.6739 35.1074 34.2297 35.1074C34.4388 35.1004 34.6459 35.1496 34.8294 35.2501C35.0129 35.3506 35.1661 35.4985 35.2728 35.6784L34.5895 36.0458C34.5585 35.9762 34.5081 35.917 34.4443 35.8755C34.3804 35.8339 34.3059 35.8118 34.2297 35.8117C34.0927 35.8117 34.007 35.865 34.007 35.962C34.007 36.2666 35.3222 36.0629 35.3222 37.0527C35.3203 37.6693 34.7855 37.932 34.2088 37.932H34.2107ZM36.5252 37.8578H35.7219V35.1836H36.5175L36.5252 37.8578ZM36.1235 34.9476C36.0282 34.9479 35.9349 34.92 35.8555 34.8673C35.7761 34.8147 35.714 34.7396 35.6773 34.6516C35.6406 34.5637 35.6308 34.4668 35.6491 34.3732C35.6675 34.2797 35.7132 34.1937 35.7805 34.1262C35.8477 34.0587 35.9335 34.0126 36.027 33.9939C36.1205 33.9751 36.2174 33.9846 36.3055 34.0209C36.3936 34.0573 36.4689 34.1191 36.5219 34.1983C36.5749 34.2775 36.6032 34.3707 36.6032 34.466C36.6022 34.5934 36.5511 34.7153 36.461 34.8054C36.371 34.8955 36.2491 34.9466 36.1216 34.9476H36.1235ZM39.679 37.8578H38.8777V36.3351C38.8844 36.2713 38.8772 36.2067 38.8565 36.1459C38.8357 36.0852 38.802 36.0297 38.7576 35.9833C38.7132 35.9369 38.6592 35.9007 38.5994 35.8773C38.5396 35.854 38.4754 35.8439 38.4114 35.8478C38.1183 35.8478 37.9127 36.0191 37.9127 36.3979V37.8597H37.1133V35.1817H37.9127V35.4348C38.0051 35.3245 38.1221 35.2373 38.2544 35.1805C38.3866 35.1236 38.5304 35.0986 38.674 35.1074C39.2146 35.1074 39.6733 35.4881 39.6733 36.2152L39.679 37.8578ZM42.8442 36.8414H40.9409C41.0418 37.1193 41.2873 37.2221 41.5804 37.2221C41.6755 37.2247 41.7702 37.2082 41.8588 37.1736C41.9474 37.1389 42.0282 37.0868 42.0962 37.0203L42.7377 37.3877C42.604 37.5688 42.4274 37.7139 42.2237 37.8099C42.0201 37.9059 41.7957 37.9499 41.5709 37.9377C40.6573 37.9377 40.0901 37.3248 40.0901 36.5273C40.0842 36.3395 40.1171 36.1524 40.1866 35.9778C40.2561 35.8031 40.3607 35.6447 40.4941 35.5122C40.6274 35.3797 40.7866 35.2761 40.9617 35.2078C41.1368 35.1395 41.3241 35.1079 41.5119 35.1151C41.6953 35.1138 41.8769 35.1499 42.0459 35.2212C42.2148 35.2924 42.3675 35.3973 42.4947 35.5294C42.6218 35.6615 42.7207 35.8181 42.7854 35.9897C42.8501 36.1612 42.8792 36.3442 42.8709 36.5273C42.8717 36.6327 42.8622 36.7379 42.8424 36.8414H42.8442ZM44.188 37.932C43.6513 37.932 43.2363 37.7284 43.0365 37.2944L43.7312 36.8985C43.7594 36.9957 43.8202 37.0802 43.9034 37.1377C43.9866 37.1953 44.0871 37.2224 44.188 37.2144C44.3783 37.2144 44.4754 37.1554 44.4754 37.0489C44.4754 36.7557 43.1583 36.9099 43.1583 35.9849C43.1583 35.4025 43.6513 35.1074 44.207 35.1074C44.4161 35.1004 44.6233 35.1496 44.8068 35.2501C44.9903 35.3506 45.1434 35.4985 45.2501 35.6784L44.5649 36.0458C44.5355 35.9754 44.4857 35.9155 44.4219 35.8737C44.3581 35.832 44.2833 35.8104 44.207 35.8117C44.07 35.8117 43.9825 35.865 43.9825 35.962C43.9825 36.2666 45.2996 36.0629 45.2996 37.0527C45.2977 37.6693 44.7628 37.932 44.1861 37.932H44.188ZM46.5272 37.932C45.9924 37.932 45.587 37.7284 45.3852 37.2944L46.0818 36.8985C46.1096 36.9952 46.1697 37.0794 46.2522 37.1369C46.3347 37.1945 46.4345 37.2218 46.5348 37.2144C46.7252 37.2144 46.8241 37.1554 46.8241 37.0489C46.8241 36.7557 45.5089 36.9099 45.5089 35.9849C45.5089 35.4025 46 35.1074 46.5577 35.1074C46.7665 35.1005 46.9733 35.1499 47.1565 35.2503C47.3396 35.3508 47.4924 35.4987 47.5988 35.6784L46.9155 36.0458C46.8849 35.9763 46.8348 35.9172 46.7713 35.8757C46.7078 35.8341 46.6336 35.8119 46.5577 35.8117C46.4187 35.8117 46.3331 35.865 46.3331 35.962C46.3331 36.2666 47.6464 36.0629 47.6464 37.0527C47.6369 37.6693 47.1039 37.932 46.5253 37.932H46.5272ZM51.8109 37.8559L51.6206 37.2677H50.2292L50.0389 37.8559H49.1024L50.3758 34.1139H51.4664L52.7397 37.8559H51.8109ZM53.975 37.932C53.4402 37.932 53.0348 37.7284 52.833 37.2944L53.5296 36.8985C53.5573 36.9952 53.6175 37.0794 53.7 37.1369C53.7825 37.1945 53.8823 37.2218 53.9826 37.2144C54.173 37.2144 54.2719 37.1554 54.2719 37.0489C54.2719 36.7557 52.9567 36.9099 52.9567 35.9849C52.9567 35.4025 53.4478 35.1074 54.0035 35.1074C54.2126 35.1004 54.4198 35.1496 54.6033 35.2501C54.7868 35.3506 54.9399 35.4985 55.0466 35.6784L54.3633 36.0458C54.3324 35.9762 54.2819 35.917 54.2181 35.8755C54.1542 35.8339 54.0797 35.8118 54.0035 35.8117C53.8665 35.8117 53.7809 35.865 53.7809 35.962C53.7809 36.2666 55.0942 36.0629 55.0942 37.0527C55.0847 37.6693 54.5517 37.932 53.9731 37.932H53.975ZM56.318 37.932C55.7813 37.932 55.3759 37.7284 55.176 37.2944L55.8707 36.8985C55.8988 36.9953 55.9594 37.0796 56.0422 37.1371C56.125 37.1946 56.2251 37.2219 56.3256 37.2144C56.516 37.2144 56.6149 37.1554 56.6149 37.0489C56.6149 36.7557 55.2997 36.9099 55.2997 35.9849C55.2997 35.4025 55.7889 35.1074 56.3466 35.1074C56.5556 35.1006 56.7627 35.1499 56.9461 35.2504C57.1296 35.3508 57.2828 35.4986 57.3896 35.6784L56.7044 36.0458C56.674 35.9762 56.624 35.9169 56.5604 35.8754C56.4968 35.8338 56.4225 35.8116 56.3466 35.8117C56.2076 35.8117 56.122 35.865 56.122 35.962C56.122 36.2666 57.4372 36.0629 57.4372 37.0527C57.4277 37.6693 56.8928 37.932 56.3123 37.932H56.318ZM59.0855 37.932C58.8065 37.9305 58.5342 37.8464 58.3029 37.6903C58.0717 37.5342 57.8919 37.3131 57.7861 37.0549C57.6804 36.7967 57.6535 36.513 57.7089 36.2396C57.7642 35.9661 57.8993 35.7152 58.0971 35.5184C58.295 35.3217 58.5466 35.1879 58.8204 35.1341C59.0941 35.0802 59.3777 35.1086 59.6353 35.2157C59.8929 35.3228 60.113 35.5038 60.2679 35.7359C60.4227 35.968 60.5054 36.2407 60.5054 36.5197C60.5069 36.7064 60.4711 36.8915 60.4001 37.0642C60.3291 37.2369 60.2242 37.3936 60.0918 37.5252C59.9593 37.6568 59.8019 37.7605 59.6288 37.8304C59.4556 37.9003 59.2703 37.9348 59.0836 37.932H59.0855ZM62.2317 37.1402C62.3381 37.1458 62.4439 37.1204 62.5362 37.067C62.6284 37.0136 62.7032 36.9346 62.7513 36.8395L63.4498 37.2411C63.3291 37.4543 63.1531 37.6309 62.9404 37.7525C62.7277 37.8741 62.4862 37.9361 62.2412 37.932C61.9943 37.9324 61.7515 37.868 61.5372 37.7452C61.3229 37.6225 61.1445 37.4457 61.0199 37.2325C60.8952 37.0193 60.8287 36.7771 60.8269 36.5302C60.825 36.2832 60.888 36.0401 61.0095 35.8251C61.131 35.61 61.3067 35.4306 61.5192 35.3047C61.7316 35.1788 61.9734 35.1109 62.2203 35.1076C62.4673 35.1043 62.7108 35.1658 62.9265 35.286C63.1423 35.4062 63.3227 35.5809 63.4498 35.7926L62.7513 36.1981C62.7025 36.1036 62.6276 36.0253 62.5354 35.9723C62.4433 35.9193 62.3379 35.8939 62.2317 35.8992C62.0671 35.8992 61.9093 35.9646 61.793 36.081C61.6766 36.1973 61.6112 36.3552 61.6112 36.5197C61.6112 36.6843 61.6766 36.8421 61.793 36.9585C61.9093 37.0748 62.0671 37.1402 62.2317 37.1402ZM64.5728 37.8578H63.7715V35.1836H64.5728V37.8578ZM64.1712 34.9476C64.076 34.9476 63.9829 34.9193 63.9037 34.8664C63.8245 34.8135 63.7628 34.7383 63.7263 34.6503C63.6899 34.5623 63.6803 34.4655 63.6989 34.3721C63.7175 34.2787 63.7634 34.1929 63.8307 34.1255C63.8981 34.0582 63.9839 34.0123 64.0773 33.9937C64.1707 33.9751 64.2675 33.9847 64.3555 34.0211C64.4435 34.0576 64.5187 34.1193 64.5716 34.1985C64.6245 34.2777 64.6528 34.3708 64.6528 34.466C64.6518 34.5938 64.6004 34.7159 64.5099 34.8061C64.4194 34.8962 64.2971 34.9471 64.1693 34.9476H64.1712ZM67.9037 37.8559H67.1024V37.6046C67.002 37.7148 66.8783 37.8014 66.7404 37.858C66.6025 37.9146 66.4537 37.9399 66.3049 37.932C65.6044 37.932 65.0277 37.3153 65.0277 36.5197C65.0277 35.7241 65.5987 35.1074 66.3049 35.1074C66.4537 35.0996 66.6025 35.1248 66.7404 35.1815C66.8783 35.2381 67.002 35.3246 67.1024 35.4348V35.1817H67.9037V37.8559ZM70.0602 35.9525H69.5063V36.9042C69.5063 37.1345 69.7061 37.1554 70.0602 37.1345V37.8616C69.0095 37.9682 68.705 37.6541 68.705 36.9099V35.9582H68.2767V35.1969H68.705V34.6887L69.5063 34.4489V35.1969H70.0602V35.9525ZM71.3145 37.8559H70.5113V35.1836H71.3126L71.3145 37.8559ZM70.9129 34.9457C70.8176 34.9457 70.7245 34.9174 70.6453 34.8645C70.5661 34.8116 70.5044 34.7364 70.468 34.6484C70.4315 34.5604 70.422 34.4636 70.4406 34.3702C70.4591 34.2768 70.505 34.191 70.5723 34.1236C70.6397 34.0563 70.7255 34.0104 70.8189 33.9918C70.9123 33.9732 71.0091 33.9828 71.0971 34.0192C71.1851 34.0557 71.2603 34.1174 71.3132 34.1966C71.3662 34.2758 71.3944 34.3689 71.3944 34.4641C71.3934 34.592 71.3421 34.7144 71.2517 34.8049C71.1613 34.8953 71.0389 34.9466 70.9109 34.9476L70.9129 34.9457ZM73.1854 37.9301C72.9064 37.929 72.6339 37.8452 72.4024 37.6893C72.1709 37.5334 71.9908 37.3125 71.8848 37.0543C71.7787 36.7962 71.7516 36.5124 71.8067 36.2388C71.8618 35.9652 71.9968 35.7141 72.1945 35.5172C72.3923 35.3202 72.6439 35.1863 72.9177 35.1323C73.1915 35.0782 73.4752 35.1065 73.7329 35.2136C73.9907 35.3207 74.2109 35.5017 74.3658 35.7338C74.5207 35.9659 74.6034 36.2387 74.6034 36.5178C74.6052 36.7045 74.5697 36.8897 74.4989 37.0624C74.4281 37.2352 74.3235 37.3921 74.1912 37.5238C74.0589 37.6556 73.9016 37.7596 73.7286 37.8297C73.5555 37.8998 73.3702 37.9345 73.1835 37.932L73.1854 37.9301ZM77.624 37.8559H76.8208V36.3332C76.8279 36.2694 76.8209 36.2049 76.8004 36.1442C76.7799 36.0834 76.7464 36.0278 76.7021 35.9814C76.6578 35.935 76.604 35.8988 76.5443 35.8754C76.4845 35.852 76.4204 35.8419 76.3564 35.8459C76.0614 35.8459 75.8596 36.0172 75.8596 36.396V37.8578H75.0564V35.1817H75.8596V35.4348C75.9516 35.3239 76.0685 35.2363 76.2009 35.1794C76.3332 35.1225 76.4772 35.0978 76.621 35.1074C77.1615 35.1074 77.6202 35.4881 77.6202 36.2152L77.624 37.8559Z" fill="#161616"/>
<path d="M73.1784 35.888C73.0528 35.885 72.9292 35.9195 72.8233 35.987C72.7174 36.0546 72.634 36.1522 72.5838 36.2674C72.5337 36.3825 72.519 36.5101 72.5416 36.6336C72.5642 36.7572 72.6232 36.8712 72.7109 36.9611C72.7987 37.051 72.9112 37.1127 73.0342 37.1384C73.1572 37.164 73.285 37.1524 73.4013 37.1051C73.5177 37.0577 73.6173 36.9768 73.6874 36.8725C73.7576 36.7683 73.795 36.6456 73.7951 36.5199C73.7999 36.437 73.7873 36.354 73.7583 36.2761C73.7292 36.1983 73.6842 36.1274 73.6261 36.0679C73.5681 36.0085 73.4983 35.9618 73.4212 35.9308C73.3441 35.8998 73.2614 35.8852 73.1784 35.888Z" fill="#161616"/>
<path d="M14.1309 35.8658C14.0011 35.8624 13.8733 35.8978 13.7637 35.9674C13.6541 36.037 13.5677 36.1378 13.5157 36.2567C13.4636 36.3757 13.4482 36.5074 13.4715 36.6352C13.4947 36.7629 13.5555 36.8808 13.6461 36.9739C13.7366 37.0669 13.8529 37.1308 13.98 37.1574C14.1071 37.184 14.2392 37.1721 14.3595 37.1233C14.4798 37.0744 14.5828 36.9908 14.6553 36.8831C14.7278 36.7754 14.7666 36.6485 14.7666 36.5186C14.7726 36.4328 14.7604 36.3467 14.7308 36.266C14.7012 36.1852 14.6549 36.1116 14.5949 36.05C14.5349 35.9883 14.4625 35.9401 14.3826 35.9083C14.3026 35.8766 14.2169 35.8621 14.1309 35.8658Z" fill="#161616"/>
<path d="M78.7337 32.812H0V39.7649H78.7337V32.812Z" fill="#161616"/>
</g>
</svg>
