<svg width="93" height="72" fill="none" xmlns="http://www.w3.org/2000/svg"><path d="M68.326 24.121a22.329 22.329 0 01-1.267 5.865 22.267 22.267 0 01-7.105 9.879 22.104 22.104 0 01-13.833 4.837 22.21 22.21 0 01-8.524-1.701 22.27 22.27 0 01-7.226-4.846 22.358 22.358 0 01-4.828-7.252 22.424 22.424 0 01-1.695-8.555 22.393 22.393 0 016.525-15.803A22.23 22.23 0 0146.12 0a22.141 22.141 0 019.099 1.943 22.215 22.215 0 017.508 5.512l-4.314 3.685a16.575 16.575 0 00-5.57-4.037 16.522 16.522 0 00-6.723-1.422 16.582 16.582 0 00-11.741 4.883 16.703 16.703 0 00-.001 23.569 16.58 16.58 0 0011.742 4.882 16.48 16.48 0 0010.958-4.147 16.6 16.6 0 003.802-4.882H49.423l1.137-5.865h17.766z" fill="#161616"/><path d="M48.309 15.321a5.36 5.36 0 01-1.563 3.78 5.32 5.32 0 01-3.768 1.565 5.32 5.32 0 01-3.765-1.567 5.358 5.358 0 01-.002-7.56 5.32 5.32 0 013.767-1.568c1.413 0 2.77.563 3.77 1.567a5.36 5.36 0 011.56 3.783zM21.65 22.35a24.607 24.607 0 012.87-11.553 24.507 24.507 0 017.953-8.836C21.649 5.066 10.825 11.862 0 22.35c10.824 10.491 21.648 17.288 32.473 20.39a24.508 24.508 0 01-7.953-8.837 24.609 24.609 0 01-2.87-11.554zM59.766 1.96a24.507 24.507 0 017.953 8.837A24.608 24.608 0 0170.59 22.35a24.609 24.609 0 01-2.871 11.554 24.506 24.506 0 01-7.953 8.836c10.824-3.105 21.648-9.902 32.472-20.39C81.414 11.86 70.59 5.062 59.766 1.96zM1.621 62.46v-2.677l8.57-4.014v3.174l-4.628 2.102 4.628 2.103v3.325l-8.57-4.014zm89.031-2.677v2.676l-8.57 4.014V63.3l4.628-2.102-4.628-2.103V55.77l8.57 4.013zm-68.96 11.942c-3.429 0-5.333-.84-5.333-2.37 0-.841.686-1.491 1.829-1.72-.78-.44-1.257-1.128-1.257-1.874 0-.994.667-1.739 1.905-2.178a3.223 3.223 0 01-1.466-2.733 3.12 3.12 0 011.219-2.524c.819-.669 1.885-1.013 3.18-1.013 1.372 0 2.533.401 3.353 1.166.533-.688 1.333-1.013 2.495-1.013v2.447a4.982 4.982 0 00-1.545.191c.059.244.09.494.095.745a3.131 3.131 0 01-1.219 2.543c-.819.668-1.866.994-3.18.994a6.694 6.694 0 01-1.372-.153c-.457.134-.704.306-.704.554 0 .363.228.478.78.478h3.752c2.19 0 3.429 1.013 3.429 2.753 0 2.312-2.247 3.707-5.961 3.707zm.038-2.083c2.038 0 3.01-.325 3.01-.994 0-.363-.325-.574-.858-.574h-2.819c-1.276 0-1.81.21-1.81.746.001.554.801.822 2.477.822zm.057-10.226c-.895 0-1.41.516-1.41 1.434 0 .898.553 1.453 1.41 1.453.857 0 1.39-.535 1.39-1.453s-.495-1.434-1.39-1.434zm7.87 6.767c-.915-.937-1.372-2.18-1.372-3.747 0-1.49.476-2.714 1.41-3.67.933-.975 2.133-1.453 3.599-1.453 1.352 0 2.457.42 3.276 1.28.838.86 1.257 1.989 1.257 3.422 0 .459-.038.88-.057 1.204h-6.342c.21 1.242.876 1.835 2.229 1.835a3.382 3.382 0 002.304-1.032l1.676 1.873c-1.01 1.147-2.362 1.663-4.285 1.663-1.543 0-2.781-.458-3.695-1.376zm1.828-4.912h3.219c-.019-1.07-.552-1.626-1.466-1.626-.915 0-1.524.555-1.753 1.626zm8.957 4.912c-.915-.937-1.372-2.18-1.372-3.747 0-1.49.476-2.714 1.41-3.67.933-.975 2.133-1.453 3.599-1.453 1.352 0 2.457.42 3.276 1.28.838.86 1.257 1.989 1.257 3.422 0 .459-.038.88-.057 1.204h-6.342c.21 1.242.876 1.835 2.228 1.835a3.382 3.382 0 002.305-1.032l1.676 1.873c-1.01 1.147-2.362 1.663-4.285 1.663-1.543 0-2.781-.458-3.695-1.376zm1.828-4.912h3.22c-.02-1.071-.553-1.625-1.467-1.625-.915 0-1.524.554-1.753 1.625zm14.26.124l3.828 5.945h-3.81l-2.323-3.823-.705.745v3.078h-3.2V53.387h3.2v7.244l2.857-3.078h3.847l-3.695 3.842zm4.9 5.945V53.387h3.2V67.34h-3.2zm6.27-1.157c-.915-.937-1.372-2.18-1.372-3.747 0-1.49.476-2.714 1.41-3.67.933-.975 2.133-1.453 3.599-1.453 1.352 0 2.457.42 3.276 1.28.838.86 1.257 1.989 1.257 3.422 0 .459-.038.88-.057 1.204h-6.342c.21 1.242.876 1.835 2.228 1.835a3.383 3.383 0 002.304-1.032l1.677 1.873c-1.01 1.147-2.363 1.663-4.286 1.663-1.542 0-2.78-.458-3.695-1.376zm1.828-4.912h3.219c-.02-1.071-.552-1.625-1.467-1.625-.914 0-1.523.554-1.752 1.625z" fill="#161616"/></svg>