<svg width="105" height="39" fill="none" xmlns="http://www.w3.org/2000/svg"><path d="M76.903 20.634H73.11v4.883h-7.037v-4.883H52.586V15.93L64.035 0h7.47l-10.39 14.908h5.178v-4.335h6.818v4.335h3.791v5.726zm1.878-6.488V0H86v13.927c0 4.37 1.825 6.123 4.846 6.123 3.02 0 4.814-1.752 4.814-6.123V0h7.114v14.146c0 7.615-4.45 11.863-11.996 11.863-7.548 0-11.992-4.266-11.992-11.864M24.869 9.198h-7.662c-.798-1.346-2.254-2.108-4.211-2.108-3.596 0-5.777 2.505-5.777 6.43 0 4.394 2.254 6.753 6.466 6.753a5.557 5.557 0 005.338-3.377h-7.155v-5.12h13.293v6.9c-1.524 3.737-5.476 7.876-12.16 7.876C5.155 26.552 0 21.182 0 13.52s5.115-13 12.96-13c6.46 0 10.891 3.34 11.909 8.67m16.127 17.18H28.324V.771h12.27c5.193 0 8.387 2.396 8.387 6.644 0 3.085-1.825 5.12-4.321 5.81a6.205 6.205 0 014.905 6.173c0 4.321-3.089 6.972-8.57 6.972zM39.034 6.434h-3.596v4.504h3.596c1.743 0 2.687-.726 2.687-2.218s-.944-2.281-2.687-2.281m.506 9.55h-4.106v4.645h4.138c1.78 0 2.688-.725 2.688-2.25 0-1.523-.981-2.395-2.738-2.395m17.131 12.333H2.996v3.048h53.657v-3.048z" fill="#161616"/><mask id="mask0_2395_2060" style="mask-type:luminance" maskUnits="userSpaceOnUse" x="2" y="28" width="55" height="4"><path d="M56.575 28.332H2.918v3.048h53.657v-3.048z" fill="#fff"/></mask><g mask="url(#mask0_2395_2060)"><path d="M56.569 28.332H2.928v3.048h53.64v-3.048z" fill="#161616"/></g><path d="M104.162 28.322H60.867v3.048h43.295v-3.048z" fill="#161616"/><mask id="mask1_2395_2060" style="mask-type:luminance" maskUnits="userSpaceOnUse" x="60" y="28" width="45" height="4"><path d="M104.228 28.332H60.934v3.048h43.294v-3.048z" fill="#fff"/></mask><g mask="url(#mask1_2395_2060)"><path d="M104.218 28.332h-43.28v3.048h43.28v-3.048z" fill="#161616"/></g><path d="M7.005 35.934h-.958a1.036 1.036 0 00-.972-.534 1.232 1.232 0 00-1.26 1.369 1.25 1.25 0 001.296 1.369 1.123 1.123 0 001.173-.954H4.86v-.634h2.245v.72a2.099 2.099 0 01-4.143-.497 2.053 2.053 0 012.113-2.117 1.907 1.907 0 011.93 1.3m1.861-1.275v3.482h1.364v.657H8.035v-4.14h.83zm4.174 4.185a2.122 2.122 0 112.118-2.122 2.077 2.077 0 01-2.117 2.122zm0-.74a1.37 1.37 0 10-1.268-1.368 1.252 1.252 0 001.268 1.368zm4.861.694h-1.784v-4.14h1.711c.867 0 1.37.457 1.37 1.068a.959.959 0 01-.708.949 1.004 1.004 0 01.803 1.004c0 .657-.506 1.118-1.369 1.118m-.196-3.468h-.78v1.036h.757c.393 0 .616-.178.616-.516s-.223-.52-.616-.52m.06 1.68h-.817v1.113h.835c.401 0 .639-.197.639-.548 0-.351-.256-.566-.657-.566zm5.145.995h-1.67l-.275.79h-.871l1.487-4.144h.968l1.487 4.144h-.876l-.25-.79zm-.827-2.395l-.598 1.734h1.2l-.602-1.734zm3.693-.95v3.482h1.364v.657h-2.195v-4.14h.83zm5.784 4.139h-1.779v-4.14h1.707c.867 0 1.369.457 1.369 1.068a.963.963 0 01-.707.949 1 1 0 01.798 1.004c0 .657-.502 1.118-1.369 1.118m-.196-3.468h-.758v1.036h.758c.392 0 .62-.178.62-.516s-.228-.52-.62-.52zm.06 1.68h-.818v1.113h.835c.407 0 .644-.197.644-.548 0-.351-.256-.566-.662-.566zm2.511-2.35h.817v2.56a.84.84 0 001.68 0v-2.56h.839v2.556a1.561 1.561 0 01-1.693 1.624 1.534 1.534 0 01-1.657-1.624l.014-2.556zm5.924 4.183c-.863 0-1.525-.456-1.538-1.232h.912a.565.565 0 00.63.552c.393 0 .62-.21.62-.506 0-.913-2.135-.356-2.126-1.857 0-.744.603-1.196 1.456-1.196s1.433.434 1.483 1.182h-.913a.548.548 0 00-.593-.493c-.324 0-.57.146-.57.484 0 .83 2.126.37 2.126 1.825 0 .652-.525 1.236-1.465 1.236m3.345-4.178h-.83v4.139h.83v-4.14zm4.714-.006v4.148h-.83l-1.88-2.839v2.839h-.831v-4.148h.83l1.88 2.852v-2.852h.83zm3.539.677h-1.57v1.036h1.393v.662h-1.392v1.095h1.57v.675h-2.405v-4.143h2.404v.675zm2.579 3.512c-.863 0-1.529-.456-1.538-1.232h.913a.565.565 0 00.63.552c.387 0 .62-.21.62-.506 0-.913-2.136-.356-2.131-1.857 0-.744.607-1.196 1.46-1.196.854 0 1.428.434 1.483 1.182h-.912a.547.547 0 00-.594-.493c-.324 0-.57.146-.57.484 0 .83 2.126.37 2.126 1.825 0 .652-.524 1.236-1.464 1.236m3.894.005c-.858 0-1.524-.456-1.533-1.232h.89a.565.565 0 00.63.552c.387 0 .62-.21.62-.506 0-.913-2.136-.356-2.13-1.857 0-.744.606-1.196 1.46-1.196.852 0 1.428.434 1.482 1.182h-.912a.548.548 0 00-.594-.493c-.328 0-.57.146-.57.484 0 .83 2.126.37 2.126 1.825 0 .652-.524 1.236-1.469 1.236m4.361-4.178h2.56v.67h-1.729v1.06h1.323v.661h-1.323v1.748h-.83v-4.14zm5.435 4.183a2.12 2.12 0 112.118-2.122 2.08 2.08 0 01-2.118 2.122zm0-.739a1.368 1.368 0 10-1.268-1.369 1.252 1.252 0 001.268 1.369zm4.63-3.444c.995 0 1.497.575 1.497 1.269a1.196 1.196 0 01-.944 1.19l.99 1.68H73l-.912-1.61h-.375v1.61h-.83v-4.14h1.538zm-.031.69h-.676v1.213h.694c.456 0 .67-.242.67-.616s-.205-.598-.67-.598m4.339-.689h.83v2.56a.84.84 0 001.68 0v-2.56h.834v2.556a1.561 1.561 0 01-1.693 1.624 1.53 1.53 0 01-1.651-1.624V34.68zm5.327 2.295v1.844h-.83v-4.14h.83v1.857l1.51-1.857h1l-1.707 2.053 1.756 2.086h-1.049l-1.51-1.844zm5.064-2.295c1 0 1.497.575 1.497 1.269a1.19 1.19 0 01-.945 1.19l.99 1.68h-.958l-.912-1.61h-.393v1.61h-.83v-4.14h1.551zm-.027.69h-.694v1.213h.694c.456 0 .67-.242.67-.616s-.21-.598-.67-.598zm5.136 2.655h-1.651l-.274.79h-.872l1.492-4.144h.963l1.492 4.144h-.88l-.27-.79zm-.825-2.395l-.598 1.734h1.195l-.597-1.734zm3.714-.95h-.83v4.139h.83v-4.14zm4.711-.006v4.148h-.83l-1.88-2.839v2.839h-.831v-4.148h.83l1.88 2.852v-2.852h.83zm3.633.678h-1.574v1.036h1.396v.661h-1.396v1.096h1.574v.675h-2.405v-4.143h2.405v.675z" fill="#161616"/></svg>