<svg width="181" height="43" viewBox="0 0 181 43" fill="none" xmlns="http://www.w3.org/2000/svg">
<path d="M79.3477 0.439453V42.0469H120.955V0.439453H79.3477ZM115.288 25.7818H104.696V36.3733H95.6173V25.7818H85.0271V16.7039H95.6173V6.11309H104.695V16.7039H115.286L115.288 25.7818Z" fill="#161616"/>
<path d="M0 12.1916L0.692966 11.7215C1.03929 12.3277 1.49738 12.5875 2.09088 12.5875C2.98147 12.5875 3.41461 12.0928 3.41461 10.8429V5.23828H4.45423V10.9297C4.45423 12.3649 3.78588 13.5027 2.15406 13.5027C1.17568 13.5027 0.445455 13.0699 0 12.1916Z" fill="#161616"/>
<path d="M6.07812 10.3523C6.07812 8.33628 7.38922 7.18555 8.86133 7.18555C10.3334 7.18555 11.6572 8.33628 11.6572 10.3523C11.6572 12.3444 10.3334 13.4948 8.86133 13.4948C7.38922 13.4948 6.07812 12.3444 6.07812 10.3523ZM10.5936 10.3523C10.5936 8.96704 9.90061 8.0392 8.86133 8.0392C7.83435 8.0392 7.14171 8.96704 7.14171 10.3523C7.14171 11.7256 7.83435 12.6415 8.86133 12.6415C9.90061 12.6415 10.5936 11.7256 10.5936 10.3523Z" fill="#161616"/>
<path d="M13.0625 5.43202C13.0625 5.03613 13.3469 4.76367 13.7428 4.76367C14.1387 4.76367 14.4232 5.03613 14.4232 5.43202C14.4232 5.84054 14.1387 6.10004 13.7428 6.10004C13.3469 6.10004 13.0625 5.84054 13.0625 5.43202ZM13.2245 7.33727H14.2515V13.3495H13.2245V7.33727Z" fill="#161616"/>
<path d="M16.3089 7.33425H17.1512L17.2381 8.20021H17.2734C17.8429 7.63133 18.461 7.18555 19.2901 7.18555C20.5645 7.18555 21.1334 8.00194 21.1334 9.53593V13.3464H20.1065V9.67232C20.1065 8.54653 19.7601 8.07646 18.9684 8.07646C18.3622 8.07646 17.9291 8.38585 17.3356 8.99199V13.3464H16.3086L16.3089 7.33425Z" fill="#161616"/>
<path d="M23.2265 11.4845V8.16841H22.3359V7.40158L23.2754 7.34003L23.3995 5.41016H24.2529V7.34003H25.886V8.16841H24.2532V11.5092C24.2532 12.2387 24.5007 12.6596 25.181 12.6596C25.4201 12.6616 25.6567 12.6109 25.874 12.5112L26.0842 13.2408C25.7274 13.4066 25.3396 13.4949 24.9461 13.4999C23.6597 13.5006 23.2265 12.6842 23.2265 11.4845Z" fill="#161616"/>
<path d="M29.3438 9.29265C29.3438 6.68212 30.8777 5.08594 32.9434 5.08594C33.9334 5.08594 34.7006 5.55601 35.1833 6.08797L34.6137 6.73169C34.1809 6.28624 33.649 6.00147 32.956 6.00147C31.4333 6.00147 30.42 7.25101 30.42 9.26771C30.42 11.3087 31.3851 12.5832 32.9187 12.5832C33.6985 12.5832 34.2794 12.2741 34.7977 11.7046L35.3669 12.3234C34.7109 13.0779 33.9191 13.4984 32.8802 13.4984C30.8528 13.4984 29.3438 11.9395 29.3438 9.29265Z" fill="#161616"/>
<path d="M36.8086 4.54053H37.8356V6.94048L37.7986 8.17739C38.3555 7.63344 38.9617 7.18767 39.7901 7.18767C41.0646 7.18767 41.6341 8.00406 41.6341 9.53805V13.3486H40.6068V9.67444C40.6068 8.54865 40.2608 8.07858 39.469 8.07858C38.8629 8.07858 38.4297 8.38796 37.8356 8.99411V13.3486H36.8086V4.54053Z" fill="#161616"/>
<path d="M43.168 11.7878C43.168 10.4518 44.2814 9.80839 46.855 9.52394C46.8424 8.7691 46.5959 8.0392 45.6178 8.0392C44.9248 8.0392 44.2941 8.34827 43.824 8.65798L43.4281 7.96501C43.9844 7.59407 44.826 7.18555 45.7908 7.18555C47.2509 7.18555 47.8817 8.16263 47.8817 9.6477V13.3455H47.0394L46.9399 12.6279H46.903C46.3338 13.1106 45.6781 13.4938 44.9235 13.4938C43.9228 13.4938 43.168 12.8757 43.168 11.7878ZM46.855 11.885V10.2525C44.826 10.4877 44.17 10.9455 44.17 11.7247C44.17 12.393 44.6281 12.6528 45.2093 12.6528C45.7905 12.6528 46.2738 12.393 46.855 11.885Z" fill="#161616"/>
<path d="M49.7344 7.33425H50.5767L50.6635 8.20021H50.7008C51.233 7.63133 51.8512 7.18555 52.5688 7.18555C53.4969 7.18555 53.9916 7.61869 54.2391 8.32364C54.8573 7.65595 55.4884 7.18555 56.2186 7.18555C57.4555 7.18555 58.0493 8.00194 58.0493 9.53593V13.3464H57.0223V9.67232C57.0223 8.54653 56.6637 8.07646 55.9089 8.07646C55.4388 8.07646 54.9567 8.37321 54.4002 8.99199V13.3464H53.3732V9.67232C53.3732 8.54653 53.0269 8.07646 52.2597 8.07646C51.8146 8.07646 51.3202 8.37321 50.7623 8.99199V13.3464H49.7344V7.33425Z" fill="#161616"/>
<path d="M60.9759 12.7304H60.9393L60.8398 13.3492H60.0234V4.54053H61.0501V6.94048L61.0135 8.0167C61.5701 7.54662 62.2378 7.18766 62.9061 7.18766C64.4527 7.18766 65.2941 8.38634 65.2941 10.2436C65.2941 12.2973 64.0568 13.4969 62.6835 13.4969C62.1253 13.4969 61.5066 13.2125 60.9759 12.7304ZM64.2298 10.2563C64.2298 8.93255 63.7717 8.05331 62.6463 8.05331C62.1389 8.05331 61.6196 8.32511 61.0501 8.8697V12.0122C61.5684 12.4696 62.1143 12.6303 62.5102 12.6303C63.4986 12.631 64.2282 11.7404 64.2282 10.2556L64.2298 10.2563Z" fill="#161616"/>
<path d="M66.4375 10.3403C66.4375 8.38585 67.7612 7.18555 69.1345 7.18555C70.6685 7.18555 71.5471 8.27408 71.5471 10.0067C71.55 10.2098 71.5333 10.4128 71.4972 10.6128H67.4522C67.5383 11.8497 68.2945 12.6661 69.4316 12.6661C70.0147 12.6661 70.5205 12.5041 70.941 12.221L71.2996 12.8767C70.7812 13.2476 70.1366 13.4948 69.3075 13.4948C67.6993 13.4948 66.4375 12.3318 66.4375 10.3403ZM70.6313 9.82199C70.6313 8.63433 70.0747 8.00292 69.1591 8.00292C68.3168 8.00292 67.5756 8.67094 67.4522 9.82199H70.6313Z" fill="#161616"/>
<path d="M73 7.33425H73.8423L73.9291 8.4231H73.9657C74.3869 7.66793 75.0054 7.18555 75.6734 7.18555C75.9452 7.18555 76.1308 7.2228 76.3165 7.30963L76.0942 8.18758C75.9176 8.1344 75.7337 8.10936 75.5493 8.11339C75.042 8.11339 74.4358 8.47235 74.0267 9.48669V13.3464H73V7.33425Z" fill="#161616"/>
<path d="M7.98438 22.1661C7.98438 20.1501 9.29547 18.999 10.7676 18.999C12.2397 18.999 13.5634 20.1501 13.5634 22.1661C13.5634 24.1582 12.2397 25.3086 10.7676 25.3086C9.29547 25.3086 7.98438 24.1582 7.98438 22.1661ZM12.4998 22.1661C12.4998 20.7808 11.8069 19.853 10.7676 19.853C9.74092 19.853 9.04796 20.7808 9.04796 22.1661C9.04796 23.5394 9.74092 24.4553 10.7676 24.4553C11.8069 24.4553 12.4998 23.5394 12.4998 22.1661Z" fill="#161616"/>
<path d="M15.2734 19.9715H14.457V19.2047L15.2734 19.1431V18.2036C15.2734 16.979 15.8303 16.1992 17.0306 16.1992C17.4016 16.1992 17.7848 16.286 18.0327 16.3975L17.8098 17.152C17.5746 17.0778 17.3523 17.0286 17.1414 17.0286C16.5725 17.0286 16.2991 17.4365 16.2991 18.2036V19.1431H17.5626V19.9715H16.2991V25.155H15.2721L15.2734 19.9715Z" fill="#161616"/>
<path d="M20.8047 21.097C20.8047 18.4868 22.3387 16.8906 24.4049 16.8906C25.3943 16.8906 26.1612 17.3607 26.6439 17.8927L26.075 18.5364C25.6418 18.0909 25.1099 17.8062 24.4176 17.8062C22.8949 17.8062 21.8812 19.0557 21.8812 21.0724C21.8812 23.1134 22.846 24.3879 24.38 24.3879C25.1575 24.3879 25.7407 24.0785 26.259 23.5093L26.8279 24.1281C26.1722 24.8826 25.3804 25.3031 24.3411 25.3031C22.3128 25.3031 20.8047 23.7442 20.8047 21.097Z" fill="#161616"/>
<path d="M27.8438 22.1661C27.8438 20.1501 29.1548 18.999 30.627 18.999C32.0991 18.999 33.4231 20.1501 33.4231 22.1661C33.4231 24.1582 32.0991 25.3086 30.627 25.3086C29.1548 25.3086 27.8438 24.1582 27.8438 22.1661ZM32.3595 22.1661C32.3595 20.7808 31.6666 19.853 30.627 19.853C29.6003 19.853 28.9073 20.7808 28.9073 22.1661C28.9073 23.5394 29.6003 24.4553 30.627 24.4553C31.6666 24.4553 32.3595 23.5394 32.3595 22.1661Z" fill="#161616"/>
<path d="M34.9414 19.148H35.7837L35.8705 20.014H35.9075C36.4394 19.4451 37.0582 18.999 37.7751 18.999C38.7033 18.999 39.1983 19.4325 39.4455 20.1374C40.0643 19.4697 40.6954 18.999 41.425 18.999C42.6622 18.999 43.256 19.8157 43.256 21.3497V25.1589H42.2281V21.4845C42.2281 20.359 41.8691 19.889 41.1146 19.889C40.6445 19.889 40.1618 20.1854 39.6052 20.8045V25.1589H38.5783V21.4845C38.5783 20.359 38.2319 19.889 37.4648 19.889C37.0197 19.889 36.5253 20.1854 35.9681 20.8045V25.1589H34.9414V19.148Z" fill="#161616"/>
<path d="M45.2305 19.148H46.0728L46.1596 20.014H46.1969C46.7291 19.4451 47.3473 18.999 48.0649 18.999C48.993 18.999 49.4877 19.4325 49.7352 20.1374C50.3534 19.4697 50.9845 18.999 51.7147 18.999C52.9516 18.999 53.5454 19.8157 53.5454 21.3497V25.1589H52.5184V21.4845C52.5184 20.359 52.1598 19.889 51.405 19.889C50.9349 19.889 50.4528 20.1854 49.8962 20.8045V25.1589H48.8693V21.4845C48.8693 20.359 48.5229 19.889 47.7558 19.889C47.3107 19.889 46.8163 20.1854 46.2584 20.8045V25.1589H45.2318L45.2305 19.148Z" fill="#161616"/>
<path d="M55.0312 22.1541C55.0312 20.1993 56.3553 18.999 57.7283 18.999C59.2619 18.999 60.1405 20.0879 60.1405 21.8205C60.1437 22.0236 60.1271 22.2266 60.091 22.4266H56.0462C56.1327 23.6635 56.8886 24.4799 58.0257 24.4799C58.6069 24.4799 59.1142 24.3179 59.535 24.0348L59.8927 24.6892C59.3744 25.0601 58.7303 25.3073 57.9013 25.3073C56.2931 25.3086 55.0312 24.1456 55.0312 22.1541ZM59.2253 21.6358C59.2253 20.4481 58.6684 19.8167 57.7532 19.8167C56.9109 19.8167 56.1697 20.4847 56.0456 21.6358H59.2253Z" fill="#161616"/>
<path d="M61.6328 19.148H62.4751L62.5619 20.2369H62.5989C63.02 19.4817 63.6382 18.999 64.3065 18.999C64.5783 18.999 64.764 19.0366 64.9493 19.1234L64.727 20.0014C64.5505 19.9482 64.3667 19.9232 64.1824 19.9272C63.6751 19.9272 63.069 20.2861 62.6598 21.3005V25.1589H61.6328V19.148Z" fill="#161616"/>
<path d="M65.3242 22.1661C65.3242 20.1501 66.6729 18.999 68.2189 18.999C69.0106 18.999 69.5549 19.3087 69.9754 19.7046L69.4678 20.348C69.1334 20.039 68.7502 19.8533 68.2675 19.8533C67.1786 19.8533 66.3868 20.7812 66.3868 22.1665C66.3868 23.5398 67.129 24.4556 68.2305 24.4556C68.7868 24.4556 69.2821 24.2081 69.6408 23.8864L70.0859 24.5418C69.5416 25.0371 68.8616 25.3089 68.1421 25.3089C66.5488 25.3086 65.3242 24.1582 65.3242 22.1661Z" fill="#161616"/>
<path d="M70.7461 22.1541C70.7461 20.1993 72.0701 18.999 73.4434 18.999C74.9768 18.999 75.8554 20.0879 75.8554 21.8205C75.8585 22.0236 75.842 22.2266 75.8058 22.4266H71.7604C71.8473 23.6635 72.6028 24.4799 73.7399 24.4799C74.323 24.4799 74.8287 24.3179 75.2492 24.0348L75.6079 24.6892C75.0895 25.0601 74.4455 25.3073 73.6161 25.3073C72.0079 25.3086 70.7461 24.1456 70.7461 22.1541ZM74.9402 21.6358C74.9402 20.4481 74.3833 19.8167 73.4681 19.8167C72.6258 19.8167 71.8845 20.4847 71.7604 21.6358H74.9402Z" fill="#161616"/>
<path d="M129.148 14.1387H132.125V14.6982H129.81V16.3125H131.763V16.872H129.81V18.7465H132.204V19.3053H129.148V14.1387Z" fill="#161616"/>
<path d="M132.961 18.3147C132.961 17.464 133.67 17.0545 135.308 16.8734C135.3 16.393 135.142 15.9284 134.52 15.9284C134.079 15.9284 133.678 16.125 133.378 16.322L133.126 15.8804C133.481 15.6446 134.016 15.3848 134.631 15.3848C135.559 15.3848 135.962 16.0068 135.962 16.9518V19.3067H135.426L135.363 18.8499H135.34C134.977 19.157 134.56 19.4007 134.079 19.4007C133.442 19.4013 132.961 19.0077 132.961 18.3147ZM135.308 18.3772V17.338C134.016 17.4876 133.599 17.7789 133.599 18.2752C133.599 18.7006 133.89 18.8658 134.26 18.8658C134.63 18.8658 134.937 18.7006 135.309 18.3772H135.308Z" fill="#161616"/>
<path d="M136.762 18.8499L137.061 18.4722C137.392 18.7479 137.738 18.8894 138.211 18.8894C138.715 18.8894 138.959 18.6303 138.959 18.2989C138.959 17.9049 138.534 17.7397 138.1 17.5822C137.526 17.3775 136.974 17.1018 136.974 16.4714C136.974 15.8558 137.462 15.3848 138.297 15.3848C138.733 15.3838 139.154 15.5373 139.487 15.8179L139.188 16.1957C138.92 15.9993 138.644 15.8889 138.305 15.8889C137.817 15.8889 137.604 16.1561 137.604 16.4396C137.604 16.7859 137.935 16.9275 138.416 17.0927C139.014 17.3059 139.589 17.5657 139.589 18.259C139.589 18.881 139.093 19.401 138.187 19.401C137.628 19.4013 137.116 19.1966 136.762 18.8499Z" fill="#161616"/>
<path d="M140.462 18.1117V16.0007H139.895V15.5148L140.493 15.4752L140.572 14.2461H141.116V15.4752H142.155V16.0007H141.116V18.1272C141.116 18.5918 141.273 18.8597 141.706 18.8597C141.858 18.861 142.009 18.8288 142.147 18.7654L142.281 19.23C142.054 19.3353 141.807 19.3916 141.556 19.3952C140.738 19.3956 140.462 18.8756 140.462 18.1117Z" fill="#161616"/>
<path d="M142.625 17.3914C142.625 16.1474 143.467 15.3828 144.342 15.3828C145.318 15.3828 145.878 16.0758 145.878 17.1782C145.88 17.3077 145.869 17.437 145.846 17.5644H143.27C143.325 18.3516 143.806 18.8716 144.531 18.8716C144.872 18.8767 145.207 18.7779 145.491 18.5885L145.72 19.0057C145.389 19.2416 144.98 19.3994 144.452 19.3994C143.426 19.4 142.625 18.6597 142.625 17.3914ZM145.294 17.061C145.294 16.3048 144.94 15.9034 144.357 15.9034C143.822 15.9034 143.349 16.3285 143.271 17.061H145.294Z" fill="#161616"/>
<path d="M146.805 15.4794H147.341L147.395 16.172H147.419C147.687 15.6916 148.08 15.3848 148.506 15.3848C148.679 15.3848 148.797 15.4084 148.915 15.4632L148.774 16.0227C148.662 15.9888 148.545 15.9729 148.428 15.9757C148.104 15.9757 147.719 16.2041 147.459 16.8504V19.3074H146.805V15.4794Z" fill="#161616"/>
<path d="M149.535 15.4797H150.071L150.126 16.0304H150.15C150.512 15.6682 150.906 15.3848 151.433 15.3848C152.243 15.3848 152.607 15.9047 152.607 16.8808V19.3067H151.953V16.9677C151.953 16.2511 151.733 15.952 151.229 15.952C150.843 15.952 150.567 16.1487 150.189 16.5352V19.3074H149.535V15.4797Z" fill="#161616"/>
<path d="M155.508 14.1387H158.485V14.6982H156.169V16.3125H158.123V16.872H156.169V18.7465H158.563V19.3053H155.508V14.1387Z" fill="#161616"/>
<path d="M159.52 17.8982V15.4727H160.173V17.8117C160.173 18.5205 160.394 18.8273 160.898 18.8273C161.284 18.8273 161.56 18.6307 161.914 18.1817V15.4727H162.567V19.3H162.032L161.977 18.7016H161.953C161.599 19.1189 161.221 19.3946 160.693 19.3946C159.882 19.3946 159.52 18.8746 159.52 17.8982Z" fill="#161616"/>
<path d="M163.867 15.4794H164.403L164.458 16.172H164.482C164.75 15.6916 165.143 15.3848 165.568 15.3848C165.742 15.3848 165.86 15.4084 165.978 15.4632L165.836 16.0227C165.724 15.9888 165.607 15.9729 165.49 15.9757C165.166 15.9757 164.781 16.2041 164.521 16.8504V19.3074H163.867V15.4794Z" fill="#161616"/>
<path d="M166.203 17.3989C166.203 16.1153 167.038 15.3828 167.975 15.3828C168.912 15.3828 169.755 16.1153 169.755 17.3989C169.755 18.6669 168.913 19.3994 167.975 19.3994C167.037 19.3994 166.203 18.6682 166.203 17.3989ZM169.077 17.3989C169.077 16.5167 168.636 15.9264 167.976 15.9264C167.322 15.9264 166.881 16.5167 166.881 17.3989C166.881 18.2736 167.322 18.8567 167.976 18.8567C168.638 18.8567 169.077 18.2736 169.077 17.3989Z" fill="#161616"/>
<path d="M170.781 15.4794H171.317L171.372 15.92H171.396C171.742 15.6284 172.175 15.3848 172.616 15.3848C173.601 15.3848 174.137 16.1487 174.137 17.338C174.137 18.6374 173.349 19.4013 172.475 19.4013C172.128 19.4013 171.766 19.2361 171.419 18.9604L171.435 19.6297V20.921H170.781V15.4794ZM173.459 17.338C173.459 16.4956 173.168 15.9362 172.451 15.9362C172.127 15.9362 171.805 16.1092 171.435 16.4561V18.4563C171.782 18.7479 172.112 18.8499 172.364 18.8499C172.995 18.8499 173.459 18.2827 173.459 17.338Z" fill="#161616"/>
<path d="M174.852 17.3914C174.852 16.1474 175.694 15.3828 176.569 15.3828C177.545 15.3828 178.104 16.0758 178.104 17.1782C178.106 17.3077 178.095 17.437 178.072 17.5644H175.497C175.552 18.3516 176.032 18.8716 176.757 18.8716C177.098 18.8767 177.433 18.7779 177.718 18.5885L177.946 19.0057C177.615 19.2416 177.206 19.3994 176.678 19.3994C175.655 19.4 174.852 18.6597 174.852 17.3914ZM177.521 17.061C177.521 16.3048 177.167 15.9034 176.584 15.9034C176.049 15.9034 175.576 16.3285 175.497 17.061H177.521Z" fill="#161616"/>
<path d="M128.734 41.3745L129.105 40.9417C129.483 41.3272 130.01 41.5641 130.554 41.5641C131.231 41.5641 131.633 41.2252 131.633 40.7289C131.633 40.2011 131.255 40.0359 130.774 39.8218L130.026 39.4907C129.546 39.2859 128.986 38.924 128.986 38.1598C128.986 37.3722 129.672 36.7891 130.609 36.7891C130.892 36.7874 131.173 36.8416 131.435 36.9484C131.697 37.0553 131.936 37.2127 132.137 37.4118L131.775 37.8527C131.46 37.5537 131.058 37.3722 130.609 37.3722C130.034 37.3722 129.656 37.6638 129.656 38.1203C129.656 38.6166 130.105 38.8055 130.506 38.9713L131.247 39.2953C131.845 39.5474 132.31 39.9108 132.31 40.6735C132.31 41.4928 131.633 42.1462 130.546 42.1462C129.806 42.1459 129.184 41.8543 128.734 41.3745Z" fill="#161616"/>
<path d="M132.969 40.1453C132.969 38.8614 133.804 38.1289 134.741 38.1289C135.678 38.1289 136.521 38.8614 136.521 40.1453C136.521 41.413 135.678 42.1455 134.741 42.1455C133.803 42.1455 132.969 41.413 132.969 40.1453ZM135.843 40.1453C135.843 39.2628 135.402 38.6725 134.742 38.6725C134.088 38.6725 133.647 39.2628 133.647 40.1453C133.647 41.02 134.088 41.6031 134.742 41.6031C135.402 41.6009 135.844 41.0193 135.844 40.1453H135.843Z" fill="#161616"/>
<path d="M137.488 40.6443V38.2188H138.142V40.5594C138.142 41.2683 138.363 41.575 138.867 41.575C139.253 41.575 139.528 41.3784 139.882 40.9294V38.2204H140.536V42.0477H140L139.946 41.4494H139.922C139.568 41.8666 139.189 42.1423 138.662 42.1423C137.851 42.1407 137.488 41.6207 137.488 40.6443Z" fill="#161616"/>
<path d="M141.966 40.8561V38.7445H141.398V38.2586L141.997 38.219L142.076 36.9902H142.619V38.219H143.659V38.7445H142.619V40.871C142.619 41.3356 142.777 41.6035 143.21 41.6035C143.362 41.6049 143.513 41.5727 143.651 41.5093L143.785 41.9738C143.558 42.0791 143.311 42.1354 143.06 42.139C142.241 42.14 141.966 41.6201 141.966 40.8561Z" fill="#161616"/>
<path d="M144.492 36.4414H145.146V37.9705L145.123 38.7578C145.477 38.4115 145.863 38.128 146.39 38.128C147.2 38.128 147.564 38.6479 147.564 39.6244V42.0499H146.91V39.7109C146.91 38.9946 146.69 38.6952 146.186 38.6952C145.799 38.6952 145.524 38.8919 145.146 39.2784V42.0506H144.492V36.4414Z" fill="#161616"/>
<path d="M150.105 39.467C150.105 37.8057 151.082 36.7891 152.398 36.7891C152.667 36.7893 152.933 36.8463 153.178 36.9562C153.424 37.0662 153.644 37.2267 153.823 37.4273L153.461 37.8368C153.185 37.5536 152.847 37.3722 152.405 37.3722C151.437 37.3722 150.791 38.1679 150.791 39.4518C150.791 40.7509 151.407 41.5624 152.382 41.5624C152.878 41.5624 153.248 41.3651 153.579 41.0029L153.941 41.3965C153.524 41.877 153.02 42.1449 152.358 42.1449C151.066 42.1449 150.105 41.1526 150.105 39.467Z" fill="#161616"/>
<path d="M154.625 41.0589C154.625 40.2081 155.334 39.7986 156.971 39.6175C156.964 39.1371 156.806 38.6725 156.184 38.6725C155.743 38.6725 155.342 38.8692 155.042 39.0661L154.79 38.6249C155.145 38.3887 155.68 38.1289 156.295 38.1289C157.224 38.1289 157.626 38.7509 157.626 39.6959V42.0509H157.09L157.027 41.5941H157.004C156.641 41.9012 156.224 42.1448 155.743 42.1448C155.105 42.1455 154.625 41.7518 154.625 41.0589ZM156.971 41.1214V40.0821C155.68 40.2318 155.263 40.523 155.263 41.0193C155.263 41.4447 155.554 41.6099 155.924 41.6099C156.294 41.6099 156.602 41.4447 156.971 41.1214Z" fill="#161616"/>
<path d="M158.766 40.6443V38.2188H159.419V40.5594C159.419 41.2683 159.64 41.575 160.144 41.575C160.53 41.575 160.805 41.3784 161.159 40.9294V38.2204H161.814V42.0477H161.278L161.223 41.4494H161.199C160.845 41.8666 160.467 42.1423 159.939 42.1423C159.128 42.1407 158.766 41.6207 158.766 40.6443Z" fill="#161616"/>
<path d="M162.805 40.1453C162.805 38.8614 163.663 38.1289 164.647 38.1289C165.152 38.1289 165.498 38.3256 165.766 38.5776L165.442 38.9871C165.23 38.7904 164.985 38.6725 164.678 38.6725C163.985 38.6725 163.48 39.2628 163.48 40.1453C163.48 41.02 163.952 41.6031 164.654 41.6031C165.008 41.6031 165.323 41.446 165.551 41.2413L165.834 41.6585C165.498 41.9707 165.057 42.145 164.598 42.1467C163.584 42.1455 162.805 41.413 162.805 40.1453Z" fill="#161616"/>
<path d="M166.367 41.0589C166.367 40.2081 167.076 39.7986 168.714 39.6175C168.706 39.1371 168.548 38.6725 167.926 38.6725C167.486 38.6725 167.084 38.8692 166.784 39.0661L166.532 38.6249C166.887 38.3887 167.422 38.1289 168.037 38.1289C168.966 38.1289 169.368 38.7509 169.368 39.6959V42.0509H168.832L168.769 41.5941H168.746C168.383 41.9012 167.966 42.1448 167.486 42.1448C166.848 42.1455 166.367 41.7518 166.367 41.0589ZM168.714 41.1214V40.0821C167.422 40.2318 167.005 40.523 167.005 41.0193C167.005 41.4447 167.297 41.6099 167.667 41.6099C168.037 41.6099 168.344 41.4447 168.714 41.1214Z" fill="#161616"/>
<path d="M170.164 41.5941L170.463 41.2163C170.794 41.492 171.14 41.6336 171.613 41.6336C172.117 41.6336 172.361 41.3744 172.361 41.043C172.361 40.6491 171.936 40.4838 171.503 40.3264C170.928 40.1216 170.377 39.8459 170.377 39.2155C170.377 38.6 170.864 38.1289 171.7 38.1289C172.135 38.1281 172.556 38.2816 172.889 38.5621L172.589 38.9398C172.322 38.7435 172.046 38.633 171.707 38.633C171.219 38.633 171.006 38.9003 171.006 39.1837C171.006 39.5301 171.337 39.6716 171.816 39.8369C172.415 40.05 172.989 40.3099 172.989 41.0032C172.989 41.6252 172.493 42.1451 171.588 42.1451C171.03 42.1455 170.517 41.9407 170.164 41.5941Z" fill="#161616"/>
<path d="M173.844 40.6443V38.2188H174.497V40.5594C174.497 41.2683 174.718 41.575 175.222 41.575C175.608 41.575 175.884 41.3784 176.238 40.9294V38.2204H176.892V42.0477H176.356L176.301 41.4494H176.277C175.923 41.8666 175.545 42.1423 175.017 42.1423C174.206 42.1407 173.844 41.6207 173.844 40.6443Z" fill="#161616"/>
<path d="M177.73 41.5941L178.03 41.2163C178.36 41.492 178.707 41.6336 179.18 41.6336C179.684 41.6336 179.928 41.3744 179.928 41.043C179.928 40.6491 179.502 40.4838 179.069 40.3264C178.494 40.1216 177.943 39.8459 177.943 39.2155C177.943 38.6 178.431 38.1289 179.266 38.1289C179.702 38.1281 180.123 38.2816 180.456 38.5621L180.156 38.9398C179.888 38.7435 179.613 38.633 179.274 38.633C178.786 38.633 178.573 38.9003 178.573 39.1837C178.573 39.5301 178.904 39.6716 179.384 39.8369C179.983 40.05 180.558 40.3099 180.558 41.0032C180.558 41.6252 180.061 42.1451 179.156 42.1451C178.596 42.1455 178.085 41.9407 177.73 41.5941Z" fill="#161616"/>
<path d="M128.82 28.0959C128.82 26.4343 129.797 25.418 131.112 25.418C131.381 25.4183 131.647 25.4752 131.893 25.5852C132.139 25.6952 132.358 25.8557 132.538 26.0562L132.176 26.4657C131.9 26.1822 131.562 26.0011 131.12 26.0011C130.152 26.0011 129.506 26.7968 129.506 28.0803C129.506 29.3794 130.121 30.191 131.097 30.191C131.593 30.191 131.963 29.994 132.294 29.6315L132.656 30.0254C132.239 30.5059 131.735 30.7738 131.073 30.7738C129.781 30.7738 128.82 29.7815 128.82 28.0959Z" fill="#161616"/>
<path d="M133.289 28.7664C133.289 27.5221 134.131 26.7578 135.006 26.7578C135.983 26.7578 136.542 27.4508 136.542 28.5532C136.544 28.6827 136.533 28.812 136.51 28.9394H133.935C133.99 29.7266 134.47 30.2466 135.195 30.2466C135.537 30.2518 135.872 30.1529 136.156 29.9631L136.384 30.3804C136.053 30.6166 135.644 30.7744 135.117 30.7744C134.093 30.775 133.289 30.036 133.289 28.7664ZM135.959 28.436C135.959 27.6798 135.605 27.2784 135.022 27.2784C134.486 27.2784 134.013 27.7035 133.935 28.436H135.959Z" fill="#161616"/>
<path d="M137.473 26.8527H138.008L138.064 27.4035H138.087C138.449 27.041 138.843 26.7578 139.371 26.7578C140.181 26.7578 140.544 27.2762 140.544 28.2539V30.6798H139.891V28.3407C139.891 27.6241 139.67 27.3251 139.166 27.3251C138.78 27.3251 138.505 27.5214 138.127 27.9082V30.6804H137.473V26.8527Z" fill="#161616"/>
<path d="M141.919 29.4831V27.3715H141.352V26.8855L141.95 26.846L142.029 25.6172H142.572V26.846H143.612V27.3715H142.572V29.498C142.572 29.9626 142.729 30.2305 143.162 30.2305C143.315 30.2317 143.465 30.1996 143.604 30.1362L143.737 30.6008C143.51 30.7061 143.263 30.7624 143.013 30.766C142.195 30.767 141.919 30.247 141.919 29.4831Z" fill="#161616"/>
<path d="M144.438 26.8521H144.973L145.028 27.5451H145.052C145.32 27.0646 145.714 26.7578 146.139 26.7578C146.312 26.7578 146.43 26.7815 146.548 26.8362L146.407 27.3957C146.294 27.3618 146.177 27.346 146.06 27.3487C145.736 27.3487 145.351 27.5755 145.092 28.2234V30.6804H144.438V26.8521Z" fill="#161616"/>
<path d="M146.77 29.6878C146.77 28.837 147.478 28.4275 149.116 28.2464C149.109 27.766 148.951 27.3014 148.329 27.3014C147.888 27.3014 147.486 27.4981 147.187 27.695L146.935 27.2535C147.29 27.0176 147.825 26.7578 148.439 26.7578C149.368 26.7578 149.77 27.3798 149.77 28.3248V30.6798H149.234L149.172 30.223H149.148C148.786 30.5298 148.368 30.7737 147.888 30.7737C147.25 30.7744 146.77 30.3804 146.77 29.6878ZM149.116 29.7503V28.7107C147.825 28.8607 147.407 29.1516 147.407 29.6482C147.407 30.0736 147.699 30.2388 148.069 30.2388C148.44 30.2388 148.746 30.0736 149.116 29.7503Z" fill="#161616"/>
<path d="M150.973 29.9058V25.0703H151.627V29.9531C151.627 30.1579 151.713 30.2288 151.816 30.2288C151.861 30.2301 151.906 30.2249 151.949 30.2133L152.036 30.7015C151.941 30.7488 151.823 30.7725 151.658 30.7725C151.169 30.7725 150.973 30.4572 150.973 29.9058Z" fill="#161616"/>
<path d="M155.685 25.5117H156.441L158.182 30.6784H157.481L156.993 29.1113H155.11L154.615 30.6784H153.945L155.685 25.5117ZM155.283 28.5761H156.827L156.583 27.7963C156.394 27.2216 156.229 26.6544 156.063 26.056H156.031C155.873 26.6544 155.707 27.2223 155.527 27.7963L155.283 28.5761Z" fill="#161616"/>
<path d="M158.578 30.223L158.877 29.8452C159.208 30.1209 159.555 30.2625 160.027 30.2625C160.531 30.2625 160.776 30.0033 160.776 29.6716C160.776 29.278 160.35 29.1127 159.917 28.9553C159.342 28.7502 158.791 28.4748 158.791 27.8444C158.791 27.2289 159.279 26.7578 160.114 26.7578C160.549 26.7571 160.971 26.9105 161.303 27.191L161.003 27.5687C160.735 27.3721 160.46 27.2619 160.121 27.2619C159.633 27.2619 159.42 27.5292 159.42 27.8127C159.42 28.1593 159.751 28.3009 160.231 28.4661C160.83 28.6793 161.405 28.9391 161.405 29.6324C161.405 30.2547 160.908 30.7747 160.003 30.7747C159.444 30.7744 158.933 30.5696 158.578 30.223Z" fill="#161616"/>
<path d="M162.207 25.6366C162.207 25.3846 162.388 25.2109 162.64 25.2109C162.892 25.2109 163.073 25.3846 163.073 25.6366C163.073 25.8958 162.892 26.062 162.64 26.062C162.388 26.062 162.207 25.8961 162.207 25.6366ZM162.309 26.8492H162.963V30.6769H162.309V26.8492Z" fill="#161616"/>
<path d="M163.992 29.6878C163.992 28.837 164.701 28.4275 166.339 28.2464C166.331 27.766 166.173 27.3014 165.551 27.3014C165.111 27.3014 164.709 27.4981 164.409 27.695L164.157 27.2535C164.512 27.0176 165.047 26.7578 165.662 26.7578C166.591 26.7578 166.993 27.3798 166.993 28.3248V30.6798H166.457L166.394 30.223H166.371C166.008 30.5298 165.591 30.7737 165.111 30.7737C164.473 30.7744 163.992 30.3804 163.992 29.6878ZM166.339 29.7503V28.7107C165.047 28.8607 164.63 29.1516 164.63 29.6482C164.63 30.0736 164.922 30.2388 165.292 30.2388C165.662 30.2388 165.969 30.0736 166.339 29.7503Z" fill="#161616"/>
<g opacity="0.5">
<path d="M125.127 12.7949C125.302 14.037 125.428 15.2791 125.552 16.5205L125.549 20.2462V27.701C125.549 30.1547 125.549 36.5035 125.549 38.8798C125.406 40.1216 125.298 41.3637 125.128 42.6054C124.956 41.3633 124.848 40.1212 124.706 38.8798V20.2471L124.703 16.5215C124.827 15.2794 124.953 14.0373 125.128 12.7959L125.127 12.7949Z" fill="#161616"/>
</g>
<path d="M56.9844 36.924L57.677 36.4539C58.0237 37.0601 58.4814 37.3199 59.0749 37.3199C59.9658 37.3199 60.399 36.8252 60.399 35.5753V29.9707H61.4383V35.6612C61.4383 37.0964 60.7699 38.2341 59.1381 38.2341C58.1597 38.2351 57.4295 37.8026 56.9844 36.924Z" fill="#161616"/>
<path d="M63.1406 34.0348C63.1406 31.4243 64.6746 29.8281 66.7402 29.8281C67.7303 29.8281 68.4974 30.2982 68.9801 30.8305L68.4106 31.4739C67.9781 31.0284 67.4458 30.7437 66.7529 30.7437C65.2302 30.7437 64.2168 31.9932 64.2168 34.0099C64.2168 36.0509 65.1819 37.3254 66.7156 37.3254C67.4954 37.3254 68.0763 37.0163 68.5962 36.4468L69.1654 37.0656C68.5094 37.8201 67.7176 38.2406 66.679 38.2406C64.65 38.2406 63.1406 36.6817 63.1406 34.0348Z" fill="#161616"/>
<path d="M69.8789 34.0329C69.8789 31.4224 71.4129 29.8262 73.4785 29.8262C74.4685 29.8262 75.2357 30.2962 75.7184 30.8285L75.1489 31.4719C74.7164 31.0265 74.1841 30.7417 73.4911 30.7417C71.9685 30.7417 70.9551 31.9912 70.9551 34.0079C70.9551 36.0489 71.9202 37.3234 73.4539 37.3234C74.2337 37.3234 74.8145 37.0144 75.3329 36.4448L75.9021 37.0636C75.2461 37.8181 74.4543 38.2386 73.4157 38.2386C71.3883 38.2386 69.8789 36.6797 69.8789 34.0329Z" fill="#161616"/>
<path d="M124.82 7.16278L125.358 6.53364C125.909 7.0941 126.675 7.43783 127.464 7.43783C128.449 7.43783 129.032 6.9454 129.032 6.22457C129.032 5.45806 128.481 5.21736 127.785 4.90829L126.699 4.42785C126.001 4.13045 125.188 3.60367 125.188 2.49344C125.188 1.34919 126.184 0.502012 127.546 0.502012C127.957 0.499497 128.365 0.578087 128.746 0.73329C129.127 0.888493 129.474 1.11726 129.766 1.40653L129.24 2.04701C128.782 1.61225 128.198 1.34919 127.546 1.34919C126.711 1.34919 126.161 1.77261 126.161 2.43642C126.161 3.15725 126.813 3.43197 127.397 3.67236L128.473 4.14178C129.343 4.50819 130.018 5.03464 130.018 6.14423C130.018 7.33481 129.034 8.28468 127.455 8.28468C126.378 8.28468 125.474 7.86125 124.82 7.16278Z" fill="#161616"/>
<path d="M130.754 2.5918H131.726L132.538 5.81948C132.664 6.32293 132.779 6.80337 132.87 7.3985H132.916C133.03 6.80337 133.133 6.32293 133.259 5.81948L134.095 2.5918H135.115L135.962 5.81948C136.087 6.32293 136.213 6.80337 136.328 7.3985H136.374C136.488 6.80337 136.58 6.32293 136.706 5.81948L137.518 2.5918H138.423L136.923 8.15399H135.721L134.966 5.16701C134.828 4.65191 134.725 4.17114 134.599 3.51867H134.553C134.451 4.17114 134.347 4.66357 134.199 5.16701L133.454 8.15399H132.309L130.754 2.5918Z" fill="#161616"/>
<path d="M139.453 0.827114C139.453 0.460707 139.717 0.208984 140.083 0.208984C140.449 0.208984 140.712 0.460707 140.712 0.827114C140.712 1.20486 140.449 1.44524 140.083 1.44524C139.717 1.44524 139.453 1.20486 139.453 0.827114ZM139.602 2.5895H140.552V8.15169H139.602V2.5895Z" fill="#161616"/>
<path d="M142.605 6.42032V3.35267H141.781V2.64351L142.651 2.58616L142.765 0.800781H143.555V2.58616H145.066V3.35267H143.555V6.443C143.555 7.11847 143.784 7.50755 144.413 7.50755C144.635 7.50933 144.854 7.46255 145.055 7.37051L145.249 8.04534C144.919 8.1988 144.56 8.28072 144.196 8.28572C143.006 8.28572 142.605 7.53023 142.605 6.42032Z" fill="#161616"/>
<path d="M145.719 7.65087L148.637 3.35863H146.039V2.5918H149.839V3.09557L146.921 7.37614H149.941V8.15367H145.719V7.65087Z" fill="#161616"/>
<path d="M150.641 5.36752C150.641 3.55945 151.865 2.44922 153.135 2.44922C154.554 2.44922 155.366 3.45611 155.366 5.05845C155.369 5.2465 155.354 5.43439 155.321 5.61956H151.579C151.659 6.76382 152.357 7.51931 153.41 7.51931C153.948 7.51931 154.417 7.37061 154.807 7.1069L155.138 7.71369C154.658 8.05677 154.062 8.28581 153.296 8.28581C151.808 8.28581 150.641 7.21024 150.641 5.36752ZM154.52 4.88707C154.52 3.78818 154.005 3.20244 153.158 3.20244C152.381 3.20244 151.693 3.82057 151.579 4.88707H154.52Z" fill="#161616"/>
<path d="M156.771 2.58626H157.548L157.628 3.59347H157.662C158.051 2.89565 158.624 2.44922 159.242 2.44922C159.493 2.44922 159.665 2.48162 159.837 2.56326L159.631 3.37609C159.468 3.32695 159.298 3.30377 159.127 3.30741C158.658 3.30741 158.097 3.63947 157.719 4.57801V8.14845H156.77L156.771 2.58626Z" fill="#161616"/>
<path d="M160.734 7.02717V0H161.684V7.09488C161.684 7.39261 161.81 7.49596 161.959 7.49596C162.024 7.49781 162.09 7.49006 162.153 7.47295L162.279 8.18277C162.141 8.25145 161.97 8.28546 161.728 8.28546C161.02 8.28611 160.734 7.82802 160.734 7.02717Z" fill="#161616"/>
<path d="M163.289 6.70518C163.289 5.46892 164.319 4.87379 166.699 4.6104C166.687 3.91355 166.46 3.23873 165.555 3.23873C164.914 3.23873 164.331 3.52479 163.896 3.81085L163.53 3.17005C164.045 2.82696 164.823 2.44922 165.716 2.44922C167.066 2.44922 167.649 3.35276 167.649 4.72671V8.1478H166.872L166.779 7.4827H166.747C166.221 7.92912 165.613 8.28387 164.916 8.28387C163.987 8.28517 163.289 7.71304 163.289 6.70518ZM166.699 6.79621V5.28652C164.823 5.50391 164.216 5.92733 164.216 6.64719C164.216 7.26532 164.639 7.5057 165.177 7.5057C165.716 7.5057 166.162 7.26661 166.699 6.79718V6.79621Z" fill="#161616"/>
<path d="M169.441 2.58755H170.219L170.298 3.38872H170.333C170.86 2.86228 171.432 2.44922 172.199 2.44922C173.377 2.44922 173.904 3.20406 173.904 4.62336V8.14975H172.955V4.75036C172.955 3.70945 172.635 3.27469 171.903 3.27469C171.341 3.27469 170.941 3.56075 170.391 4.12121V8.14975H169.441V2.58755Z" fill="#161616"/>
<path d="M175.266 5.37786C175.266 3.5698 176.41 2.44822 177.68 2.44822C178.321 2.44822 178.744 2.6886 179.235 3.08903L179.192 2.14013V0H180.142V8.14875H179.365L179.285 7.4966H179.25C178.815 7.9197 178.22 8.28611 177.568 8.28611C176.169 8.28611 175.266 7.23354 175.266 5.37786ZM179.192 6.72945V3.82281C178.723 3.39971 178.3 3.25069 177.842 3.25069C176.961 3.25069 176.251 4.09754 176.251 5.36814C176.251 6.6964 176.802 7.48526 177.774 7.48526C178.285 7.48364 178.733 7.23354 179.192 6.72945Z" fill="#161616"/>
</svg>
