<svg width="181" height="43" fill="none" xmlns="http://www.w3.org/2000/svg"><path d="M79.348.44v41.607h41.607V.439H79.348zm35.94 25.342h-10.592v10.591h-9.079V25.782h-10.59v-9.078h10.59V6.114h9.078v10.59h10.591l.002 9.078zM0 12.192l.693-.47c.346.606.804.866 1.398.866.89 0 1.324-.495 1.324-1.745V5.238h1.04v5.692c0 1.435-.67 2.573-2.3 2.573-.98 0-1.71-.433-2.155-1.311zm6.078-1.84c0-2.016 1.311-3.166 2.783-3.166s2.796 1.15 2.796 3.166c0 1.992-1.324 3.143-2.796 3.143-1.472 0-2.783-1.15-2.783-3.143zm4.516 0c0-1.385-.693-2.313-1.733-2.313-1.027 0-1.72.928-1.72 2.313 0 1.374.693 2.29 1.72 2.29 1.04 0 1.733-.916 1.733-2.29zm2.469-4.92c0-.396.284-.668.68-.668.396 0 .68.272.68.668 0 .409-.284.668-.68.668-.396 0-.68-.26-.68-.668zm.162 1.905h1.027v6.013h-1.027V7.337zm3.084-.003h.842l.087.866h.035c.57-.569 1.188-1.014 2.017-1.014 1.274 0 1.843.816 1.843 2.35v3.81h-1.026V9.672c0-1.125-.347-1.596-1.139-1.596-.606 0-1.039.31-1.632.916v4.354h-1.027V7.334zm6.918 4.151V8.168h-.891v-.766l.94-.062.123-1.93h.854v1.93h1.633v.828h-1.633v3.341c0 .73.248 1.15.928 1.15.24.003.476-.048.693-.148l.21.73a2.784 2.784 0 01-1.138.259c-1.286 0-1.72-.816-1.72-2.015zm6.117-2.192c0-2.61 1.534-4.207 3.6-4.207.99 0 1.757.47 2.24 1.002l-.57.644c-.433-.446-.965-.73-1.658-.73-1.523 0-2.536 1.249-2.536 3.266 0 2.04.965 3.315 2.499 3.315.78 0 1.36-.309 1.879-.878l.569.618c-.656.755-1.448 1.175-2.487 1.175-2.027 0-3.536-1.558-3.536-4.205zm7.465-4.753h1.027v2.4l-.037 1.237c.556-.544 1.163-.99 1.991-.99 1.275 0 1.844.817 1.844 2.351v3.81h-1.027V9.675c0-1.125-.346-1.595-1.138-1.595-.606 0-1.04.309-1.633.915v4.355h-1.027V4.54zm6.359 7.248c0-1.336 1.113-1.98 3.687-2.264-.013-.755-.26-1.485-1.237-1.485-.693 0-1.324.31-1.794.619l-.396-.693c.556-.37 1.398-.78 2.363-.78 1.46 0 2.09.978 2.09 2.463v3.697h-.842l-.1-.717h-.036c-.57.483-1.225.866-1.98.866-1 0-1.755-.618-1.755-1.706zm3.687.097v-1.633c-2.029.236-2.685.693-2.685 1.473 0 .668.458.928 1.04.928.58 0 1.064-.26 1.645-.768zm2.879-4.551h.843l.087.866h.037c.532-.569 1.15-1.014 1.868-1.014.928 0 1.423.433 1.67 1.138.618-.668 1.25-1.138 1.98-1.138 1.236 0 1.83.816 1.83 2.35v3.81h-1.027V9.672c0-1.125-.358-1.596-1.113-1.596-.47 0-.952.297-1.509.916v4.354h-1.027V9.672c0-1.125-.346-1.596-1.113-1.596-.445 0-.94.297-1.498.916v4.354h-1.028V7.334zm11.242 5.396h-.037l-.1.62h-.816V4.54h1.027v2.4l-.036 1.077c.556-.47 1.224-.83 1.892-.83 1.547 0 2.388 1.2 2.388 3.057 0 2.053-1.237 3.253-2.61 3.253-.559 0-1.177-.284-1.708-.767zm3.254-2.474c0-1.323-.458-2.203-1.584-2.203-.507 0-1.026.272-1.596.817v3.142c.518.458 1.064.618 1.46.618.989.001 1.718-.89 1.718-2.374h.002zm2.208.084c0-1.954 1.323-3.154 2.697-3.154 1.533 0 2.412 1.088 2.412 2.82.003.204-.014.407-.05.607h-4.045c.086 1.237.843 2.053 1.98 2.053.583 0 1.088-.162 1.509-.445l.359.656c-.519.37-1.163.618-1.992.618-1.609 0-2.87-1.163-2.87-3.155zm4.193-.518c0-1.188-.556-1.82-1.472-1.82-.842 0-1.583.669-1.707 1.82h3.18zM73 7.334h.842l.087 1.09h.037c.42-.756 1.04-1.238 1.707-1.238.272 0 .458.037.644.124l-.223.878a1.757 1.757 0 00-.545-.075c-.507 0-1.113.36-1.522 1.374v3.86H73V7.333zM7.984 22.166C7.984 20.15 9.295 19 10.768 19c1.472 0 2.795 1.151 2.795 3.167 0 1.992-1.323 3.143-2.795 3.143-1.473 0-2.784-1.15-2.784-3.143zm4.516 0c0-1.385-.693-2.313-1.732-2.313-1.027 0-1.72.928-1.72 2.313 0 1.373.693 2.29 1.72 2.29 1.039 0 1.732-.917 1.732-2.29zm2.773-2.195h-.816v-.766l.816-.062v-.94c0-1.224.557-2.004 1.758-2.004.37 0 .754.087 1.002.198l-.223.755a2.255 2.255 0 00-.669-.123c-.568 0-.842.407-.842 1.175v.94h1.264v.828h-1.264v5.183h-1.027l.001-5.184zm5.532 1.126c0-2.61 1.534-4.206 3.6-4.206.99 0 1.756.47 2.239 1.002l-.569.643c-.433-.445-.965-.73-1.657-.73-1.523 0-2.537 1.25-2.537 3.266 0 2.041.965 3.316 2.499 3.316.777 0 1.36-.31 1.879-.879l.569.62c-.656.754-1.448 1.174-2.487 1.174-2.028 0-3.536-1.559-3.536-4.206zm7.039 1.069c0-2.016 1.31-3.167 2.783-3.167 1.472 0 2.796 1.151 2.796 3.167 0 1.992-1.324 3.143-2.796 3.143-1.472 0-2.783-1.15-2.783-3.143zm4.515 0c0-1.385-.692-2.313-1.732-2.313-1.027 0-1.72.928-1.72 2.313 0 1.373.693 2.29 1.72 2.29 1.04 0 1.732-.917 1.732-2.29zm2.582-3.018h.843l.087.866h.036c.532-.569 1.151-1.015 1.868-1.015.928 0 1.423.434 1.67 1.138.62-.667 1.25-1.138 1.98-1.138 1.237 0 1.831.817 1.831 2.35v3.81h-1.028v-3.674c0-1.126-.359-1.596-1.113-1.596-.47 0-.953.296-1.51.916v4.354h-1.027v-3.674c0-1.126-.346-1.596-1.113-1.596-.445 0-.94.296-1.497.916v4.354h-1.027v-6.011zm10.289 0h.843l.087.866h.037c.532-.569 1.15-1.015 1.868-1.015.928 0 1.423.434 1.67 1.138.618-.667 1.25-1.138 1.98-1.138 1.237 0 1.83.817 1.83 2.35v3.81h-1.027v-3.674c0-1.126-.358-1.596-1.113-1.596-.47 0-.952.296-1.509.916v4.354H48.87v-3.674c0-1.126-.346-1.596-1.113-1.596-.445 0-.94.296-1.498.916v4.354h-1.026l-.002-6.011zm9.801 3.006c0-1.955 1.324-3.155 2.697-3.155 1.534 0 2.413 1.089 2.413 2.822.003.203-.014.406-.05.606h-4.045c.087 1.236.843 2.053 1.98 2.053a2.66 2.66 0 001.509-.445l.358.654c-.519.371-1.163.618-1.992.618-1.608.002-2.87-1.161-2.87-3.153zm4.194-.518c0-1.188-.557-1.82-1.472-1.82-.842 0-1.583.669-1.707 1.82h3.18zm2.408-2.488h.842l.087 1.089h.037c.421-.755 1.04-1.238 1.708-1.238.271 0 .457.038.642.124l-.222.878a1.755 1.755 0 00-.545-.074c-.507 0-1.113.36-1.522 1.373v3.859h-1.027v-6.011zm3.691 3.018c0-2.016 1.349-3.167 2.895-3.167.792 0 1.336.31 1.756.706l-.507.643c-.335-.309-.718-.495-1.2-.495-1.09 0-1.881.928-1.881 2.313 0 1.374.742 2.29 1.844 2.29.556 0 1.051-.248 1.41-.57l.445.656a2.87 2.87 0 01-1.944.767c-1.593 0-2.818-1.15-2.818-3.143zm5.422-.012C70.746 20.2 72.07 19 73.443 19c1.534 0 2.412 1.089 2.412 2.822.004.203-.013.406-.05.606H71.76c.087 1.236.843 2.053 1.98 2.053a2.66 2.66 0 001.51-.445l.358.654c-.519.371-1.163.618-1.992.618-1.608.002-2.87-1.161-2.87-3.153zm4.194-.518c0-1.188-.557-1.82-1.472-1.82-.842 0-1.584.669-1.708 1.82h3.18zm54.208-7.497h2.977v.56h-2.315v1.614h1.953v.559h-1.953v1.875h2.394v.558h-3.056V14.14zm3.813 4.176c0-.851.709-1.26 2.347-1.442-.008-.48-.166-.945-.788-.945-.441 0-.842.197-1.142.394l-.252-.442c.355-.235.89-.495 1.505-.495.928 0 1.331.622 1.331 1.567v2.355h-.536l-.063-.457h-.023c-.363.307-.78.55-1.261.55-.637.001-1.118-.392-1.118-1.085zm2.347.062v-1.039c-1.292.15-1.709.44-1.709.937 0 .426.291.59.661.59.37 0 .677-.164 1.049-.488h-.001zm1.454.473l.299-.378c.331.276.677.417 1.15.417.504 0 .748-.259.748-.59 0-.394-.425-.56-.859-.717-.574-.204-1.126-.48-1.126-1.11 0-.616.488-1.087 1.323-1.087.436-.001.857.152 1.19.433l-.299.378a1.43 1.43 0 00-.883-.307c-.488 0-.701.267-.701.55 0 .347.331.488.812.654.598.213 1.173.473 1.173 1.166 0 .622-.496 1.142-1.402 1.142-.559 0-1.071-.204-1.425-.551zm3.7-.738V16h-.567v-.486l.598-.04.079-1.229h.544v1.23h1.039V16h-1.039v2.126c0 .465.157.733.59.733.152.001.303-.031.441-.095l.134.465a1.783 1.783 0 01-.725.165c-.818 0-1.094-.52-1.094-1.283zm2.163-.721c0-1.244.842-2.008 1.717-2.008.976 0 1.536.693 1.536 1.795a2 2 0 01-.032.386h-2.576c.055.788.536 1.308 1.261 1.308.341.005.676-.094.96-.284l.229.418c-.331.236-.74.393-1.268.393-1.026.001-1.827-.74-1.827-2.008zm2.669-.33c0-.756-.354-1.158-.937-1.158-.535 0-1.008.425-1.086 1.158h2.023zm1.511-1.581h.536l.054.692h.024c.268-.48.661-.787 1.087-.787.173 0 .291.023.409.078l-.141.56a1.104 1.104 0 00-.346-.047c-.324 0-.709.228-.969.874v2.457h-.654V15.48zm2.73 0h.536l.055.55h.024c.362-.362.756-.645 1.283-.645.81 0 1.174.52 1.174 1.496v2.426h-.654v-2.34c0-.716-.22-1.015-.724-1.015-.386 0-.662.197-1.04.583v2.772h-.654V15.48zm5.973-1.341h2.977v.56h-2.316v1.614h1.954v.559h-1.954v1.875h2.394v.558h-3.055V14.14zm4.012 3.759v-2.425h.653v2.339c0 .708.221 1.015.725 1.015.386 0 .662-.196 1.016-.645v-2.71h.653V19.3h-.535l-.055-.598h-.024c-.354.417-.732.693-1.26.693-.811 0-1.173-.52-1.173-1.497zm4.347-2.418h.536l.055.692h.024c.268-.48.661-.787 1.086-.787a.91.91 0 01.41.078l-.142.56a1.104 1.104 0 00-.346-.047c-.324 0-.709.228-.969.874v2.457h-.654V15.48zm2.336 1.919c0-1.284.835-2.016 1.772-2.016s1.78.732 1.78 2.016c0 1.268-.842 2-1.78 2-.938 0-1.772-.73-1.772-2zm2.874 0c0-.882-.441-1.473-1.101-1.473-.654 0-1.095.59-1.095 1.473 0 .875.441 1.458 1.095 1.458.662 0 1.101-.583 1.101-1.458zm1.704-1.919h.536l.055.44h.024c.346-.292.779-.535 1.22-.535.985 0 1.521.764 1.521 1.953 0 1.3-.788 2.063-1.662 2.063-.347 0-.709-.165-1.056-.44l.016.669v1.291h-.654v-5.442zm2.678 1.858c0-.842-.291-1.402-1.008-1.402-.324 0-.646.173-1.016.52v2c.347.292.677.394.929.394.631 0 1.095-.567 1.095-1.512zm1.393.053c0-1.244.842-2.008 1.717-2.008.976 0 1.535.693 1.535 1.795a2 2 0 01-.032.386h-2.575c.055.788.535 1.308 1.26 1.308a1.69 1.69 0 00.961-.284l.228.418c-.331.236-.74.393-1.268.393-1.023.001-1.826-.74-1.826-2.008zm2.669-.33c0-.756-.354-1.158-.937-1.158-.535 0-1.008.425-1.087 1.158h2.024zm-48.787 24.313l.371-.432c.378.385.905.622 1.449.622.677 0 1.079-.339 1.079-.835 0-.528-.378-.693-.859-.907l-.748-.331c-.48-.205-1.04-.567-1.04-1.331 0-.788.686-1.37 1.623-1.37a2.155 2.155 0 011.528.622l-.362.44a1.68 1.68 0 00-1.166-.48c-.575 0-.953.292-.953.748 0 .497.449.686.85.851l.741.324c.598.252 1.063.616 1.063 1.378 0 .82-.677 1.473-1.764 1.473-.74 0-1.362-.292-1.812-.772zm4.235-1.229c0-1.284.835-2.016 1.772-2.016s1.78.732 1.78 2.016c0 1.268-.843 2-1.78 2-.938 0-1.772-.732-1.772-2zm2.874 0c0-.882-.441-1.473-1.101-1.473-.654 0-1.095.59-1.095 1.473 0 .875.441 1.458 1.095 1.458.66-.002 1.102-.584 1.102-1.458h-.001zm1.645.499V38.22h.654v2.34c0 .71.221 1.016.725 1.016.386 0 .661-.197 1.015-.646v-2.71h.654v3.828H140l-.054-.599h-.024c-.354.418-.733.693-1.26.693-.811-.001-1.174-.521-1.174-1.498zm4.478.212v-2.111h-.568v-.486l.599-.04.079-1.229h.543v1.229h1.04v.526h-1.04v2.126c0 .465.158.732.591.732.152.002.303-.03.441-.094l.134.465a1.783 1.783 0 01-.725.165c-.819.001-1.094-.519-1.094-1.283zm2.526-4.415h.654v1.53l-.023.787c.354-.347.74-.63 1.267-.63.81 0 1.174.52 1.174 1.496v2.426h-.654v-2.34c0-.715-.22-1.015-.724-1.015-.387 0-.662.197-1.04.583v2.773h-.654v-5.61zm5.613 3.026c0-1.661.977-2.678 2.293-2.678a1.91 1.91 0 011.425.638l-.362.41c-.276-.283-.614-.465-1.056-.465-.968 0-1.614.796-1.614 2.08 0 1.299.616 2.11 1.591 2.11.496 0 .866-.197 1.197-.56l.362.395c-.417.48-.921.748-1.583.748-1.292 0-2.253-.992-2.253-2.678zm4.52 1.592c0-.85.709-1.26 2.346-1.441-.007-.48-.165-.946-.787-.946-.441 0-.842.197-1.142.394l-.252-.441c.355-.236.89-.496 1.505-.496.929 0 1.331.622 1.331 1.567v2.355h-.536l-.063-.457h-.023c-.363.307-.78.55-1.261.55-.638.002-1.118-.392-1.118-1.085zm2.346.062v-1.039c-1.291.15-1.708.441-1.708.937 0 .426.291.59.661.59.37 0 .678-.164 1.047-.488zm1.795-.477V38.22h.653v2.34c0 .71.221 1.016.725 1.016.386 0 .661-.197 1.015-.646v-2.71h.655v3.828h-.536l-.055-.599h-.024c-.354.418-.732.693-1.26.693-.811-.001-1.173-.521-1.173-1.498zm4.039-.499c0-1.284.858-2.016 1.842-2.016.505 0 .851.197 1.119.449l-.324.41a1.084 1.084 0 00-.764-.316c-.693 0-1.198.59-1.198 1.473 0 .875.472 1.458 1.174 1.458.354 0 .669-.157.897-.362l.283.417a1.825 1.825 0 01-1.236.489c-1.014-.002-1.793-.734-1.793-2.002zm3.562.914c0-.85.709-1.26 2.347-1.441-.008-.48-.166-.946-.788-.946-.44 0-.842.197-1.142.394l-.252-.441c.355-.236.89-.496 1.505-.496.929 0 1.331.622 1.331 1.567v2.355h-.536l-.063-.457h-.023c-.363.307-.78.55-1.26.55-.638.002-1.119-.392-1.119-1.085zm2.347.062v-1.039c-1.292.15-1.709.441-1.709.937 0 .426.292.59.662.59.37 0 .677-.164 1.047-.488zm1.45.473l.299-.378c.331.276.677.418 1.15.418.504 0 .748-.26.748-.591 0-.394-.425-.56-.858-.717-.575-.204-1.126-.48-1.126-1.11 0-.616.487-1.087 1.323-1.087.435 0 .856.153 1.189.433l-.3.378a1.43 1.43 0 00-.882-.307c-.488 0-.701.267-.701.55 0 .347.331.489.81.654.599.213 1.173.473 1.173 1.166 0 .622-.496 1.142-1.401 1.142-.558 0-1.071-.204-1.424-.55zm3.68-.95V38.22h.653v2.34c0 .71.221 1.016.725 1.016.386 0 .662-.197 1.016-.646v-2.71h.654v3.828h-.536l-.055-.599h-.024c-.354.418-.732.693-1.26.693-.811-.001-1.173-.521-1.173-1.498zm3.886.95l.3-.378c.33.276.677.418 1.15.418.504 0 .748-.26.748-.591 0-.394-.426-.56-.859-.717-.575-.204-1.126-.48-1.126-1.11 0-.616.488-1.087 1.323-1.087.436 0 .857.153 1.19.433l-.3.378c-.268-.197-.543-.307-.882-.307-.488 0-.701.267-.701.55 0 .347.331.489.811.654.599.213 1.174.473 1.174 1.166 0 .622-.497 1.142-1.402 1.142-.56 0-1.071-.204-1.426-.55zm-48.91-13.498c0-1.662.977-2.678 2.292-2.678a1.918 1.918 0 011.426.638l-.362.41c-.276-.284-.614-.465-1.056-.465-.968 0-1.614.796-1.614 2.08 0 1.298.615 2.11 1.591 2.11.496 0 .866-.197 1.197-.56l.362.394c-.417.48-.921.749-1.583.749-1.292 0-2.253-.992-2.253-2.678zm4.469.67c0-1.244.842-2.008 1.717-2.008.977 0 1.536.693 1.536 1.795a2 2 0 01-.032.386h-2.575c.055.788.535 1.308 1.26 1.308.342.005.677-.094.961-.284l.228.417c-.331.237-.74.394-1.267.394-1.024.001-1.828-.738-1.828-2.008zm2.67-.33c0-.756-.354-1.158-.937-1.158-.536 0-1.009.425-1.087 1.158h2.024zm1.514-1.583h.535l.056.55h.023c.362-.362.756-.645 1.284-.645.81 0 1.173.518 1.173 1.496v2.426h-.653v-2.34c0-.716-.221-1.015-.725-1.015-.386 0-.661.196-1.039.583v2.772h-.654v-3.827zm4.446 2.63v-2.111h-.567v-.486l.598-.04.079-1.229h.543v1.229h1.04v.526h-1.04v2.126c0 .465.157.732.59.732.153.002.303-.03.442-.094l.133.465a1.783 1.783 0 01-.724.165c-.818.001-1.094-.519-1.094-1.283zm2.519-2.631h.535l.055.693h.024c.268-.48.662-.787 1.087-.787.173 0 .291.024.409.078l-.141.56a1.117 1.117 0 00-.347-.047c-.324 0-.709.227-.968.874v2.457h-.654v-3.828zm2.332 2.836c0-.851.708-1.26 2.346-1.442-.007-.48-.165-.945-.787-.945-.441 0-.843.197-1.142.394l-.252-.442c.355-.235.89-.495 1.504-.495.929 0 1.331.622 1.331 1.567v2.355h-.536l-.062-.457h-.024c-.362.307-.78.55-1.26.55-.638.001-1.118-.393-1.118-1.085zm2.346.062v-1.04c-1.291.15-1.709.442-1.709.938 0 .426.292.59.662.59.371 0 .677-.164 1.047-.488zm1.857.156V25.07h.654v4.883c0 .205.086.276.189.276a.46.46 0 00.133-.016l.087.488a.83.83 0 01-.378.072c-.489 0-.685-.316-.685-.867zm4.712-4.394h.756l1.741 5.166h-.701l-.488-1.567h-1.883l-.495 1.567h-.67l1.74-5.166zm-.402 3.064h1.544l-.244-.78a38.157 38.157 0 01-.52-1.74h-.032a39.196 39.196 0 01-.504 1.74l-.244.78zm3.295 1.647l.299-.378a1.68 1.68 0 001.15.418c.504 0 .749-.26.749-.591 0-.394-.426-.56-.859-.717-.575-.205-1.126-.48-1.126-1.11 0-.616.488-1.087 1.323-1.087.435 0 .857.152 1.189.433l-.3.378c-.268-.197-.543-.307-.882-.307-.488 0-.701.267-.701.55 0 .347.331.489.811.654.599.213 1.174.473 1.174 1.166 0 .623-.497 1.143-1.402 1.143-.559 0-1.07-.205-1.425-.552zm3.629-4.586c0-.252.181-.426.433-.426s.433.174.433.426c0 .259-.181.425-.433.425s-.433-.166-.433-.425zm.102 1.212h.654v3.828h-.654v-3.828zm1.683 2.839c0-.851.709-1.26 2.347-1.442-.008-.48-.166-.945-.788-.945-.44 0-.842.197-1.142.394l-.252-.442c.355-.235.89-.495 1.505-.495.929 0 1.331.622 1.331 1.567v2.355h-.536l-.063-.457h-.023c-.363.307-.78.55-1.26.55-.638.001-1.119-.393-1.119-1.085zm2.347.062v-1.04c-1.292.15-1.709.442-1.709.938 0 .426.292.59.662.59.37 0 .677-.164 1.047-.488z" fill="#161616"/><path d="M125.127 12.795a92.65 92.65 0 01.425 3.725l-.003 3.726V38.88c-.143 1.242-.251 2.484-.421 3.725-.172-1.242-.28-2.484-.422-3.725V20.247l-.003-3.726a92.27 92.27 0 01.425-3.725l-.001-.001z" fill="#161616" opacity=".5"/><path d="M56.984 36.924l.693-.47c.347.606.804.866 1.398.866.89 0 1.324-.495 1.324-1.745v-5.604h1.04v5.69c0 1.435-.67 2.573-2.3 2.573-.98.001-1.71-.431-2.155-1.31zm6.156-2.889c0-2.61 1.535-4.207 3.6-4.207.99 0 1.757.47 2.24 1.003l-.57.643c-.432-.446-.964-.73-1.657-.73-1.523 0-2.536 1.25-2.536 3.266 0 2.04.965 3.315 2.499 3.315.78 0 1.36-.309 1.88-.878l.57.619c-.657.754-1.448 1.175-2.487 1.175-2.029 0-3.538-1.56-3.538-4.206zm6.739-.002c0-2.61 1.534-4.207 3.6-4.207.99 0 1.757.47 2.24 1.002l-.57.644c-.433-.446-.965-.73-1.658-.73-1.522 0-2.536 1.25-2.536 3.266 0 2.04.965 3.315 2.499 3.315.78 0 1.36-.309 1.879-.878l.57.619c-.657.754-1.449 1.175-2.487 1.175-2.028 0-3.537-1.56-3.537-4.206zm54.941-26.87l.538-.63a2.99 2.99 0 002.106.905c.985 0 1.568-.493 1.568-1.213 0-.767-.551-1.008-1.247-1.317l-1.086-.48c-.698-.298-1.511-.824-1.511-1.935 0-1.144.996-1.991 2.358-1.991a3.131 3.131 0 012.22.905l-.526.64c-.458-.435-1.042-.698-1.694-.698-.835 0-1.385.424-1.385 1.087 0 .721.652.996 1.236 1.236l1.076.47c.87.366 1.545.893 1.545 2.002 0 1.19-.984 2.14-2.563 2.14-1.077 0-1.981-.423-2.635-1.121zm5.934-4.571h.972l.812 3.227c.126.504.241.984.332 1.58h.046c.114-.596.217-1.076.343-1.58l.836-3.227h1.02l.847 3.227c.125.504.251.984.366 1.58h.046c.114-.596.206-1.076.332-1.58l.812-3.227h.905l-1.5 5.562h-1.202l-.755-2.987a22.798 22.798 0 01-.367-1.648h-.046a12.392 12.392 0 01-.354 1.648l-.745 2.987h-1.145l-1.555-5.562zm8.699-1.765c0-.366.264-.618.63-.618s.629.252.629.618c0 .378-.263.618-.629.618s-.63-.24-.63-.618zm.149 1.763h.95v5.562h-.95V2.59zm3.003 3.83V3.353h-.824v-.71l.87-.057.114-1.785h.79v1.785h1.511v.767h-1.511v3.09c0 .675.229 1.065.858 1.065.222.001.441-.045.642-.137l.194.674c-.33.154-.689.236-1.053.24-1.19 0-1.591-.755-1.591-1.865zm3.114 1.23l2.918-4.291h-2.598v-.767h3.8v.504l-2.918 4.28h3.02v.778h-4.222V7.65zm4.922-2.282c0-1.809 1.224-2.919 2.494-2.919 1.419 0 2.231 1.007 2.231 2.61a2.92 2.92 0 01-.045.56h-3.742c.08 1.145.778 1.9 1.831 1.9.538 0 1.007-.148 1.397-.412l.331.607c-.48.343-1.076.572-1.842.572-1.488 0-2.655-1.076-2.655-2.918zm3.879-.48c0-1.1-.515-1.686-1.362-1.686-.777 0-1.465.619-1.579 1.685h2.941zm2.251-2.302h.777l.08 1.007h.034c.389-.697.962-1.144 1.58-1.144.251 0 .423.033.595.114l-.206.813a1.626 1.626 0 00-.504-.069c-.469 0-1.03.332-1.408 1.271v3.57h-.949l.001-5.562zm3.963 4.441V0h.95v7.095c0 .298.126.401.275.401a.67.67 0 00.194-.023l.126.71c-.138.068-.309.102-.551.102-.708.001-.994-.457-.994-1.258zm2.555-.322c0-1.236 1.03-1.831 3.41-2.095-.012-.696-.239-1.371-1.144-1.371-.641 0-1.224.286-1.659.572l-.366-.641c.515-.343 1.293-.72 2.186-.72 1.35 0 1.933.903 1.933 2.277v3.42h-.777l-.093-.664h-.032c-.526.446-1.134.8-1.831.8-.929.002-1.627-.57-1.627-1.578zm3.41.091v-1.51c-1.876.218-2.483.641-2.483 1.361 0 .618.423.859.961.859.539 0 .985-.24 1.522-.709zm2.742-4.208h.778l.079.8h.035c.527-.526 1.099-.939 1.866-.939 1.178 0 1.705.755 1.705 2.174V8.15h-.949v-3.4c0-1.04-.32-1.475-1.052-1.475-.562 0-.962.286-1.512.846V8.15h-.95V2.588zm5.825 2.79c0-1.808 1.144-2.93 2.414-2.93.641 0 1.064.24 1.555.641l-.043-.949V0h.95v8.149h-.777l-.08-.652h-.035c-.435.423-1.03.79-1.682.79-1.399 0-2.302-1.053-2.302-2.91zm3.926 1.351V3.823c-.469-.423-.892-.572-1.35-.572-.881 0-1.591.847-1.591 2.117 0 1.328.551 2.117 1.523 2.117.511-.001.959-.251 1.418-.756z" fill="#161616"/></svg>