<svg width="199" height="42" fill="none" xmlns="http://www.w3.org/2000/svg"><path d="M35.878 25.753c-.214.014-.338-.052-.466-.11-1.713-.77-3.431-1.531-5.14-2.317a1.135 1.135 0 00-.961-.031c-1.838.716-3.683 1.414-5.526 2.116-.534.204-.696.134-.912-.387l-.294-.707c-.195-.48-.129-.64.348-.824.985-.38 1.97-.758 2.956-1.136 1.202-.46 2.407-.913 3.608-1.38a.881.881 0 01.734.02c1.785.811 3.576 1.61 5.357 2.425a.682.682 0 00.562.023 1693.47 1693.47 0 016.326-2.256c.55-.197.72-.118.925.42.118.315.225.636.364.943.118.26.106.383-.207.491-2.05.71-4.091 1.446-6.135 2.174-.415.148-.827.302-1.243.45-.115.04-.239.07-.296.086zm-6.156 2.577c-.109.038-.252.083-.392.136-1.845.703-3.688 1.405-5.528 2.109-.558.213-.707.147-.934-.399-.097-.236-.193-.471-.288-.707-.184-.454-.118-.63.338-.805 1.05-.406 2.102-.804 3.153-1.205 1.118-.426 2.237-.843 3.346-1.282a1.05 1.05 0 01.896.027c1.762.807 3.532 1.594 5.298 2.396a.637.637 0 00.53.02 1614.98 1614.98 0 016.293-2.247c.611-.217.742-.163.977.43.123.313.224.636.37.938.125.262.078.368-.205.466-1.612.557-3.216 1.136-4.822 1.709-.875.31-1.75.619-2.623.937a.869.869 0 01-.702-.028c-1.755-.795-3.513-1.58-5.269-2.37a1.059 1.059 0 00-.438-.125zm6.142 7.754c-.217.012-.341-.055-.47-.112-1.713-.772-3.427-1.539-5.135-2.32a1.103 1.103 0 00-.93-.032c-1.847.72-3.702 1.42-5.553 2.13-.514.196-.687.128-.896-.367a31.829 31.829 0 01-.326-.806c-.156-.398-.086-.575.312-.732.648-.256 1.299-.5 1.949-.747 1.549-.59 3.1-1.175 4.645-1.776a.958.958 0 01.799.024c1.763.802 3.532 1.591 5.293 2.396a.758.758 0 00.626.023c2.105-.758 4.215-1.505 6.324-2.254.52-.185.677-.114.877.392.132.334.236.681.393 1.002.133.269.068.371-.203.465-1.577.548-3.149 1.11-4.722 1.669l-2.688.956c-.117.043-.24.073-.294.089zm-6.161 2.69c-.075.025-.208.062-.337.112l-5.556 2.121c-.576.219-.714.155-.95-.419-.103-.246-.213-.49-.31-.738-.153-.394-.077-.577.32-.731 1.06-.413 2.119-.815 3.182-1.22 1.148-.439 2.296-.872 3.444-1.319a.875.875 0 01.733.025c1.773.806 3.552 1.6 5.324 2.408a.77.77 0 00.629.027c2.105-.758 4.212-1.511 6.321-2.258.51-.181.69-.098.883.398.138.357.265.718.412 1.07.08.186.067.28-.147.354-2.57.907-5.136 1.821-7.7 2.742-.177.064-.313.004-.461-.06-1.766-.794-3.532-1.59-5.298-2.383-.136-.062-.27-.137-.49-.129zM7.698 30.7c-1.734.004-2.956-.461-4.072-1.213-.797-.538-1.649-.884-2.612-.935-.7-.04-1.122-.53-.978-1.098.107-.416.62-.701 1.173-.673 1.19.059 2.249.502 3.254 1.106.415.25.794.554 1.256.731 1.25.477 2.44.409 3.596-.294.66-.405 1.298-.858 2.019-1.15 1.574-.636 3.126-.5 4.65.2a10.37 10.37 0 011.505.86c.594.404 1.251.652 1.978.687.244.01.482.082.692.208.26.154.471.365.464.686-.007.322-.19.568-.486.707-.594.285-1.202.195-1.8.028-.939-.262-1.745-.801-2.562-1.303-1.53-.942-3.048-.948-4.586-.024-.594.357-1.163.758-1.802 1.038-.796.346-1.2.44-1.689.438zm-.406 10.593c-1.357 0-2.57-.472-3.673-1.216-.789-.534-1.624-.884-2.578-.92a1.255 1.255 0 01-.47-.118c-.313-.14-.551-.333-.555-.722-.004-.402.212-.656.536-.825.198-.099.42-.142.64-.124 1.341.07 2.512.603 3.606 1.332 1.487.99 2.996 1.14 4.564.186.661-.404 1.302-.85 2.028-1.138 1.52-.604 3.018-.482 4.49.169.617.272 1.187.625 1.747.998.56.374 1.195.55 1.865.605.221.008.437.071.628.184.294.19.55.413.498.804-.047.344-.376.639-.765.719-.786.161-1.52-.023-2.228-.35-.663-.307-1.284-.694-1.91-1.07-1.395-.841-2.804-.922-4.254-.135-.702.382-1.354.846-2.079 1.191-.666.318-1.363.434-2.09.43zm8.758-6.535c-1.263-1.076-3.216-1.207-4.651-.354-.755.45-1.481.951-2.305 1.28-.963.385-1.946.395-2.938.193a6.99 6.99 0 01-2.648-1.172 4.663 4.663 0 00-2.46-.852 1.236 1.236 0 01-.557-.176c-.392-.227-.53-.477-.476-.842.052-.341.33-.611.724-.707.503-.124.996-.01 1.48.093.93.198 1.781.617 2.544 1.165 1.33.957 3.178 1.203 4.778.111.706-.481 1.426-.963 2.261-1.201 1.43-.408 2.819-.265 4.16.372.545.255 1.068.552 1.566.889a3.858 3.858 0 001.88.664c.151.01.3.034.446.073.824.235.984.909.372 1.506-.06-.004-.118-.006-.14.067a.28.28 0 00-.2.072h-.008c-.589.072-1.165-.009-1.738-.133l-.068-.016c-.495-.262-.985-.53-1.485-.782-.177-.085-.316-.258-.538-.25zm-4.319-11.222c-.647.316-1.233.73-1.857 1.083-1.656.937-3.341.871-5.041.118a10.009 10.009 0 01-1.506-.855 4.28 4.28 0 00-2.119-.715 1.635 1.635 0 01-.698-.19c-.31-.171-.542-.397-.506-.794.027-.31.306-.644.641-.746.534-.163 1.065-.043 1.578.072.912.204 1.748.62 2.512 1.148 1.61 1.115 3.213 1.16 4.862.093.688-.446 1.373-.922 2.17-1.153 1.436-.417 2.84-.285 4.192.357.533.25 1.045.542 1.53.874.575.4 1.246.638 1.943.692.246.02.486.047.697.186.283.185.541.403.482.778-.06.374-.323.606-.682.714-.555.168-1.105.077-1.645-.07-.78-.212-1.441-.679-2.147-1.048-.198-.22-.471-.332-.722-.468-.942-.51-1.937-.648-2.977-.346h-.012a1.208 1.208 0 00-.695.27zM18 19.085c-.196 0-.394.004-.59 0-.48-.013-.586-.128-.547-.62.043-.534.197-1.046.348-1.558.304-1.02.7-2.011.937-3.053.244-1.08.16-2.14-.087-3.202-.26-1.116-.598-2.212-.803-3.343-.23-1.266-.067-2.478.368-3.658.394-1.066.841-2.112 1.006-3.246.042-.288.25-.376.492-.394.242-.02.487 0 .73-.007.177-.006.21.078.21.236 0 .516-.1 1.017-.235 1.509-.242.883-.517 1.755-.765 2.636-.27.973-.229 1.953-.004 2.927.225.975.556 1.915.875 2.859.635 1.879.55 3.732-.067 5.597-.308.933-.581 1.882-.64 2.875-.016.283-.16.451-.463.448H18v-.006zm-11.036.003c-.232 0-.464.007-.695 0-.368-.014-.519-.177-.471-.566.083-.693.272-1.362.486-2.025.344-1.067.765-2.112.917-3.236.146-1.083-.071-2.121-.333-3.16-.289-1.144-.642-2.275-.75-3.461-.101-1.115.14-2.17.536-3.194.373-.961.755-1.919.911-2.946.06-.38.279-.501.623-.492h.14c.697 0 .712 0 .647.716-.067.741-.29 1.451-.526 2.153-.397 1.182-.727 2.37-.581 3.64.099.86.37 1.674.637 2.487.399 1.211.811 2.416.836 3.712.018.927-.162 1.826-.42 2.704-.306 1.035-.63 2.062-.74 3.14-.05.492-.121.533-.623.537h-.591l-.003-.01zm-5.556-.001c-.22 0-.44.004-.661 0-.412-.01-.565-.19-.51-.598.107-.773.33-1.516.575-2.255.353-1.055.75-2.098.858-3.217.1-1.05-.144-2.051-.399-3.055C.935 8.637.506 7.329.544 5.935c.027-1.05.339-2.031.735-2.985.333-.791.577-1.617.726-2.462.06-.338.243-.471.563-.482.893-.024.915-.022.82.866-.086.81-.363 1.579-.615 2.35-.34 1.042-.61 2.097-.481 3.207.117 1.02.45 1.987.774 2.954.36 1.079.697 2.165.722 3.313.02.995-.2 1.96-.485 2.906-.294.977-.6 1.95-.676 2.978-.028.375-.177.501-.557.512-.118.004-.232 0-.348 0h-.314v-.005zm11.043 0c-.22 0-.44.004-.66 0-.413-.01-.566-.19-.51-.598.105-.773.328-1.516.574-2.255.35-1.055.75-2.097.858-3.217.1-1.05-.144-2.052-.399-3.056-.336-1.324-.765-2.632-.727-4.026.027-1.05.339-2.031.735-2.986.334-.79.577-1.616.726-2.461.06-.338.243-.471.563-.482.893-.024.915-.022.82.866-.085.81-.363 1.578-.614 2.35-.341 1.041-.61 2.097-.483 3.207.118 1.02.45 1.987.774 2.954.361 1.079.698 2.165.723 3.313.022.995-.2 1.959-.485 2.906-.294.977-.6 1.95-.676 2.978-.028.375-.177.501-.557.512h-.662v-.005zm23.992-5.664c-.942-.015-1.884-.188-2.82-.413-1.358-.327-2.704-.707-4.13-.648-.868.036-1.649.354-2.45.61-.77.246-1.524.558-2.326.686-.481.076-.979.235-1.454-.053-.409-.247-.565-.59-.485-1.088.053-.33.443-.74.824-.75 1.458-.036 2.808-.54 4.189-.914 1.452-.394 2.884-.236 4.312.163 1.06.294 2.088.684 3.172.884 1.177.216 2.344.17 3.52-.032 1.289-.221 2.537-.618 3.825-.846.163-.03.323-.06.48 0 .176.063.337.152.365.373a.433.433 0 01-.239.463 2.01 2.01 0 01-.509.215c-1.23.27-2.42.69-3.645.981-.862.2-1.723.36-2.63.369zm.103-5.356a11.941 11.941 0 01-2.472-.304c-1.125-.26-2.237-.578-3.39-.716-1.064-.126-2.093.025-3.105.383-.925.327-1.841.696-2.816.86-.395.067-.789.161-1.201.067-.47-.108-.846-.518-.835-.97.01-.452.434-.974.883-.976 1.417-.005 2.72-.514 4.054-.876 1.417-.384 2.813-.329 4.21.078 1.021.294 2.039.612 3.07.874 1.121.285 2.259.282 3.405.1 1.326-.209 2.615-.585 3.928-.848.246-.05.496-.129.752-.077.217.044.39.148.425.395.033.232-.093.38-.28.471a2.274 2.274 0 01-.516.203c-1.254.279-2.46.73-3.715 1.004-.788.175-1.58.362-2.397.332zm-.031-5.165c-1.468.06-2.79-.353-4.128-.673-.835-.198-1.678-.353-2.535-.365-1.024-.017-1.975.338-2.93.665-.994.34-1.983.715-3.057.721-.637.003-1.075-.365-1.095-.916-.022-.612.367-1.093 1.005-1.084 1.188.016 2.283-.361 3.382-.713 1.692-.54 3.355-.493 5.047.025 1.236.38 2.46.82 3.76.968 1.059.117 2.101.017 3.136-.207 1.177-.254 2.349-.521 3.524-.777.422-.092.765.041.833.3.073.29-.153.57-.592.68-1.502.377-2.962.91-4.487 1.2-.639.121-1.278.22-1.863.176zm-6.967 13.103c1.258-.059 2.373.323 3.49.657.91.272 1.818.578 2.755.7a8.889 8.889 0 003.11-.145 563.69 563.69 0 013.788-.842c.346-.076.683.08.76.333.078.253-.125.564-.491.652-1.776.427-3.495 1.078-5.309 1.349-1.413.21-2.786-.014-4.152-.365-1.334-.344-2.67-.66-4.069-.61-.759.026-1.446.294-2.147.52-.892.286-1.76.66-2.696.779-.482.059-.994.188-1.445-.14-.331-.24-.47-.712-.348-1.125.083-.276.503-.634.806-.639 1.27-.018 2.456-.412 3.656-.762.765-.224 1.541-.43 2.292-.362zm24.551-6.221h-2.31l-3.391-5.516h-.036l.048 5.516h-1.976V1.35h2.32l3.38 5.503h.037l-.048-5.503h1.976v8.434zm9.692 0h-2.26l-.655-1.657h-3.262l-.619 1.657h-2.214l3.532-8.434h1.976l3.502 8.434zm-3.473-3.289l-1.047-2.894L58.2 6.495h2.118zm9.502-3.406h-2.381v6.695h-2.035V3.089h-2.38v-1.74h6.795v1.74zm2.972 6.695h-2.05V1.35h2.047l.003 8.434zm10.469-4.259c0 1.327-.431 2.405-1.294 3.234-.864.83-1.963 1.245-3.297 1.245-1.325 0-2.42-.415-3.285-1.245-.865-.83-1.297-1.908-1.295-3.234 0-1.335.43-2.403 1.291-3.204.861-.8 1.958-1.202 3.291-1.204 1.341 0 2.442.401 3.303 1.204.861.802 1.29 1.87 1.286 3.204zm-2.178 0c0-.746-.226-1.361-.678-1.846-.452-.485-1.031-.727-1.737-.727-.707 0-1.284.242-1.732.727-.448.485-.672 1.1-.672 1.846 0 .763.224 1.39.672 1.882.448.492 1.025.739 1.732.739.706 0 1.285-.246 1.737-.739.452-.492.678-1.12.678-1.882zm11.23 4.259h-2.309l-3.392-5.516h-.035l.047 5.516h-1.976V1.35h2.322l3.38 5.503h.035l-.047-5.503h1.975v8.434zm9.693 0h-2.262l-.654-1.657h-3.261l-.619 1.657h-2.214l3.532-8.434h1.976l3.502 8.434zm-3.473-3.289l-1.047-2.894-1.072 2.894h2.119zm9.533 3.289h-5.308V1.35h2.047v6.657h3.261v1.777zm11.395 0H117.2l-.655-1.657h-3.261l-.617 1.657h-2.214l3.535-8.434h1.975l3.498 8.434zm-3.473-3.289l-1.048-2.894-1.071 2.894h2.119zm9.89-4.327l-1.295 1.37a1.854 1.854 0 00-.672-.525 1.907 1.907 0 00-.827-.202 1.668 1.668 0 00-.828.196c-.236.132-.353.348-.353.648a.702.702 0 00.083.354.72.72 0 00.28.261 3 3 0 00.387.191c.126.052.309.113.547.185.31.103.552.187.726.25.231.09.456.195.673.316.234.118.449.273.636.458.17.188.307.404.405.638.12.276.18.574.177.875 0 .913-.312 1.61-.935 2.09-.622.48-1.386.721-2.291.722a4.905 4.905 0 01-1.761-.322 3.714 3.714 0 01-1.392-.894l1.332-1.355c.22.273.499.493.816.644.311.16.655.246 1.005.25.341 0 .621-.074.839-.22.219-.147.328-.382.329-.703a.652.652 0 00-.089-.34 1.171 1.171 0 00-.197-.25 1.386 1.386 0 00-.381-.22 7.177 7.177 0 00-.464-.185 43.489 43.489 0 00-.619-.208 6.061 6.061 0 01-.797-.322 3.58 3.58 0 01-.667-.44 1.789 1.789 0 01-.511-.692 2.434 2.434 0 01-.177-.965 2.494 2.494 0 01.286-1.197c.178-.34.44-.627.762-.834a3.783 3.783 0 011.041-.458 4.347 4.347 0 012.655.113c.473.167.908.429 1.277.77zm7.041-.003l-1.295 1.37a1.853 1.853 0 00-.673-.524 1.908 1.908 0 00-.828-.202 1.668 1.668 0 00-.824.196c-.236.131-.353.347-.353.648a.702.702 0 00.083.353.72.72 0 00.28.262c.124.073.254.136.387.19.127.053.309.114.547.185.31.104.552.187.727.25.23.09.455.196.672.316.235.119.45.274.637.459.169.188.306.404.404.637.12.276.181.575.177.876 0 .913-.312 1.61-.934 2.09-.623.48-1.387.72-2.292.721a4.913 4.913 0 01-1.761-.321 3.733 3.733 0 01-1.393-.894l1.334-1.355c.22.273.498.493.814.643.312.16.656.246 1.006.25.341 0 .622-.073.839-.22.218-.146.328-.38.328-.697a.652.652 0 00-.089-.34 1.16 1.16 0 00-.197-.25 1.386 1.386 0 00-.381-.22 7.278 7.278 0 00-.464-.184 41.54 41.54 0 00-.619-.209 6.082 6.082 0 01-.797-.322 3.554 3.554 0 01-.667-.44 1.791 1.791 0 01-.511-.691 2.434 2.434 0 01-.177-.965 2.471 2.471 0 01.286-1.198c.176-.34.438-.628.76-.837a3.77 3.77 0 011.041-.458 4.341 4.341 0 012.655.113c.473.166.908.428 1.278.768zM143 5.525c0 1.327-.432 2.405-1.295 3.234-.865.83-1.963 1.245-3.297 1.245-1.325 0-2.42-.415-3.285-1.245-.865-.83-1.297-1.908-1.295-3.234 0-1.335.43-2.403 1.291-3.204.861-.8 1.958-1.202 3.292-1.204 1.341 0 2.441.401 3.302 1.204.861.802 1.29 1.87 1.287 3.204zm-2.179 0c0-.746-.226-1.361-.678-1.846-.453-.485-1.031-.727-1.739-.727-.705 0-1.283.242-1.732.727-.447.485-.671 1.1-.671 1.846 0 .763.224 1.39.671 1.882.449.492 1.027.739 1.732.739.708 0 1.287-.246 1.739-.739.452-.492.678-1.12.678-1.882zm10.898 3.085c-.802.93-1.894 1.394-3.274 1.394-1.308 0-2.392-.415-3.248-1.245-.858-.83-1.287-1.9-1.287-3.21 0-1.326.436-2.396 1.303-3.21.87-.815 1.958-1.222 3.268-1.222.607 0 1.211.11 1.779.328.575.219 1.033.522 1.376.911l-1.382 1.384a1.703 1.703 0 00-.732-.578 2.44 2.44 0 00-.969-.197c-.707 0-1.288.245-1.744.733-.456.489-.684 1.106-.684 1.853 0 .762.221 1.383.666 1.864.444.48 1.019.72 1.726.721.784 0 1.38-.286 1.784-.858l1.418 1.332zm2.915 1.174h-2.048V1.35h2.048v8.434zm9.759 0h-2.261l-.654-1.657h-3.261l-.619 1.657h-2.215l3.536-8.434h1.976l3.498 8.434zm-3.472-3.289l-1.053-2.894-1.07 2.894h2.123zm9.407-3.406h-2.38v6.695h-2.035V3.089h-2.382v-1.74h6.797v1.74zm2.972 6.695h-2.046V1.35h2.046v8.434zm10.558-4.259c0 1.327-.43 2.405-1.295 3.234-.862.83-1.961 1.245-3.295 1.245-1.326 0-2.421-.415-3.286-1.245-.864-.83-1.296-1.908-1.294-3.234 0-1.335.43-2.403 1.29-3.204.861-.8 1.957-1.202 3.292-1.204 1.34 0 2.441.401 3.302 1.204.861.802 1.29 1.87 1.286 3.204zm-2.177 0c0-.746-.226-1.361-.678-1.846-.453-.485-1.031-.727-1.738-.727-.706 0-1.284.242-1.732.727-.447.485-.671 1.1-.671 1.846 0 .763.224 1.39.671 1.882.448.492 1.026.739 1.732.739.707 0 1.285-.246 1.738-.739.452-.492.678-1.12.678-1.882zm11.144 4.259h-2.31l-3.39-5.516h-.036l.047 5.516h-1.976V1.35h2.32l3.38 5.503h.036l-.047-5.503h1.976v8.434zm-138.947 5.25c.801.81 1.202 1.838 1.203 3.083 0 1.244-.4 2.272-1.203 3.083-.803.81-1.814 1.216-3.035 1.215-1.213 0-2.22-.405-3.023-1.215-.802-.81-1.203-1.838-1.203-3.081 0-1.246.401-2.273 1.203-3.084.802-.81 1.81-1.215 3.023-1.216 1.22-.001 2.232.404 3.035 1.215zm-.467 5.714c.653-.718.979-1.596.979-2.633s-.328-1.915-.984-2.634c-.657-.718-1.511-1.077-2.563-1.077-1.052 0-1.904.359-2.556 1.077-.652.719-.979 1.597-.979 2.634s.327 1.915.98 2.633c.651.718 1.503 1.078 2.555 1.078 1.06.003 1.916-.356 2.568-1.076v-.002zm4.183-2.491v3.942h-.657v-8.16h4.837v.59h-4.18v3.053h3.881v.576l-3.881-.001zm9.332-.013v3.366h4.468v.589H66.28v-8.16h4.963v.59h-4.318v3.042h4.041v.576l-4.041-.003zm6.094 3.955h-.817l2.96-4.287-2.695-3.873h.818l2.28 3.365 2.256-3.365h.772l-2.66 3.86 2.982 4.302h-.818l-2.544-3.771-2.533 3.769zm9.75-7.575v7.572h-.659v-7.572h-2.74v-.589h6.137v.59H82.77zm4.648 3.667V22.2h-.656v-8.16h2.348c1.812 0 2.718.71 2.718 2.132 0 .614-.207 1.102-.621 1.464-.415.361-.93.565-1.544.61L92.07 22.2h-.794l-2.327-3.908h-1.531zm0-3.688v3.123h1.601c.691 0 1.223-.133 1.595-.398.372-.265.558-.65.558-1.158 0-1.045-.721-1.568-2.165-1.568l-1.589.001zm6.939 5.394l-.92 2.202h-.726l3.535-8.16h.656l3.466 8.16h-.726l-.921-2.202h-4.364zm2.2-5.266L94.6 19.398h3.881l-1.923-4.667zm11.152 5.899l.449.357c-.729.952-1.72 1.429-2.971 1.429-1.22 0-2.226-.405-3.016-1.216-.791-.81-1.187-1.837-1.187-3.081 0-1.245.4-2.273 1.198-3.083.799-.81 1.805-1.216 3.017-1.216a4.164 4.164 0 011.635.31 2.86 2.86 0 011.177.877l-.471.438a2.699 2.699 0 00-.985-.75 3.126 3.126 0 00-1.341-.287c-1.06 0-1.914.359-2.562 1.077-.648.719-.973 1.596-.973 2.634 0 1.037.324 1.915.973 2.633.649.72 1.503 1.078 2.562 1.078 1.019 0 1.851-.4 2.495-1.2zm4.36-6.006v7.572h-.656v-7.572h-2.741v-.589h6.138v.59h-2.741zm4.642-.584v8.159h-.656v-8.16h.656zm1.948 0l2.752 7.34h.023l2.752-7.34h.702l-3.108 8.159h-.737l-3.098-8.16h.714zm8.056 4.204v3.366h4.468v.589h-5.113v-8.16h4.963v.59h-4.318v3.042h4.042v.576l-4.042-.003zm9.738-4.204v8.159h-.656v-8.16h.656zm3.051 0l5.077 7.214h.023v-7.215h.656v8.16h-.828l-5.077-7.26h-.023V22.2h-.656v-8.16h.828zm8.051 8.159v-8.16h2.578a5.103 5.103 0 011.606.252c.503.165.972.417 1.387.744.429.345.769.787.99 1.29a4.528 4.528 0 010 3.585 3.424 3.424 0 01-.99 1.291 4.496 4.496 0 01-1.387.743 5.079 5.079 0 01-1.606.254l-2.578.001zm.656-7.572v6.984h1.75c1.19 0 2.127-.326 2.809-.98.683-.653 1.025-1.49 1.025-2.512 0-1.021-.342-1.859-1.025-2.513-.682-.654-1.619-.98-2.809-.979h-1.75zm11.118 7.788c-.568 0-1.061-.098-1.479-.295-.419-.196-.736-.46-.956-.79a3.585 3.585 0 01-.478-1.037 4.352 4.352 0 01-.15-1.152v-5.106h.656v5.026c0 .264.021.528.064.79.044.257.123.507.236.743.108.235.255.45.437.634.198.19.434.337.691.431.312.117.645.174.979.168.453 0 .843-.08 1.169-.242a1.85 1.85 0 00.754-.648 2.89 2.89 0 00.38-.876c.079-.327.118-.662.116-.997v-5.025h.657v5.105c.003.39-.048.777-.149 1.153a3.607 3.607 0 01-.478 1.037c-.22.33-.537.593-.956.79-.418.196-.915.293-1.493.29zm9.712-7.628l-.472.427c-.452-.553-1.051-.83-1.796-.83a2.123 2.123 0 00-1.311.432c-.385.288-.576.693-.576 1.216-.01.291.072.578.235.819.158.223.369.401.616.518.27.13.55.242.835.335.303.099.607.206.91.322.29.11.57.247.833.41.261.163.474.392.618.662.163.313.245.662.235 1.014 0 .738-.257 1.307-.772 1.709-.514.401-1.125.6-1.831.599-1.044 0-1.864-.393-2.463-1.178l.46-.404c.568.668 1.236 1.002 2.002 1.002a2.14 2.14 0 001.354-.455c.388-.304.581-.716.581-1.238a1.42 1.42 0 00-.236-.824 1.677 1.677 0 00-.611-.536 5.906 5.906 0 00-.828-.354 31.82 31.82 0 01-.915-.329 4.574 4.574 0 01-.835-.409 1.798 1.798 0 01-.611-.657c-.157-.28-.235-.616-.235-1.008 0-.707.257-1.253.771-1.637.514-.384 1.118-.575 1.81-.574.997 0 1.741.323 2.232.968zm4.254-.163v7.572h-.656v-7.572h-2.741v-.589h6.138v.59h-2.741zm4.649 3.667V22.2h-.655v-8.16h2.349c1.813 0 2.718.71 2.718 2.132 0 .614-.206 1.102-.622 1.464-.414.361-.928.565-1.542.61l2.406 3.954h-.794l-2.326-3.908h-1.534zm0-3.688v3.123h1.601c.691 0 1.221-.133 1.594-.398.374-.265.56-.65.559-1.158 0-1.045-.722-1.568-2.165-1.568l-1.589.001zm6.966-.563v8.159h-.656v-8.16h.656zm2.868 4.204v3.366h4.467v.589h-5.112v-8.16h4.962v.59h-4.317v3.042h4.042v.576l-4.042-.003zm10.706-3.454l-.472.426c-.452-.553-1.051-.83-1.796-.83a2.134 2.134 0 00-1.313.433c-.383.288-.574.693-.574 1.216-.01.29.072.577.234.818.159.223.37.401.617.518.27.13.548.242.833.335.305.1.608.207.911.322.291.11.571.247.834.41.261.164.472.392.618.663.163.312.244.661.234 1.014 0 .737-.257 1.307-.771 1.708-.514.402-1.125.601-1.831.6-1.044 0-1.866-.393-2.465-1.179l.462-.404c.568.668 1.234 1.002 2 1.002.491.009.969-.152 1.354-.455.388-.303.583-.716.583-1.237a1.42 1.42 0 00-.236-.825 1.685 1.685 0 00-.611-.536 5.895 5.895 0 00-.828-.354 30.654 30.654 0 01-.915-.328 4.535 4.535 0 01-.837-.41 1.796 1.796 0 01-.609-.656c-.157-.28-.235-.617-.235-1.009 0-.707.257-1.252.771-1.636.514-.385 1.116-.577 1.809-.577.997.002 1.742.325 2.233.97zM53.878 27.232c.801.81 1.202 1.838 1.203 3.083 0 1.245-.4 2.272-1.203 3.083-.803.81-1.814 1.216-3.035 1.215-1.213 0-2.22-.405-3.023-1.215-.802-.81-1.203-1.838-1.203-3.083s.401-2.273 1.203-3.083 1.81-1.216 3.023-1.216c1.22.002 2.232.407 3.035 1.216zm-.467 5.715c.653-.718.979-1.596.979-2.634 0-1.038-.328-1.916-.984-2.633-.657-.719-1.511-1.078-2.563-1.078-1.052 0-1.904.359-2.556 1.078-.652.718-.979 1.596-.979 2.633s.327 1.915.98 2.634c.651.718 1.503 1.077 2.555 1.077 1.06.001 1.916-.357 2.568-1.076v-.001zm4.183-2.497v3.942h-.657v-8.16h4.837v.589h-4.18v3.054h3.881v.576l-3.881-.001zm11.673 4.161c-.57 0-1.062-.098-1.48-.294-.418-.197-.737-.46-.956-.79a3.622 3.622 0 01-.478-1.037 4.301 4.301 0 01-.15-1.153v-5.106h.657v5.03c-.001.263.02.528.063.789.044.257.124.507.236.743.107.235.255.45.437.634.198.19.433.337.691.432.313.116.645.173.979.167.453 0 .842-.08 1.168-.242.306-.143.567-.367.755-.648a2.89 2.89 0 00.38-.876c.08-.326.119-.661.118-.997v-5.025h.656v5.106c.003.389-.048.776-.15 1.152a3.62 3.62 0 01-.477 1.038c-.219.33-.538.593-.956.789-.418.196-.916.292-1.493.288zm5.89-8.38v3.689l3.95-3.689h.942l-4.121 3.712 4.341 4.449h-.956l-4.157-4.36v4.36H74.5v-8.16h.657zm7.019 4.253v3.907h-.657v-8.16h2.35c1.811 0 2.717.711 2.717 2.133 0 .614-.207 1.102-.621 1.463-.415.361-.93.565-1.543.611l2.406 3.954h-.795l-2.325-3.908h-1.532zm0-3.687v3.122h1.6c.692 0 1.223-.133 1.596-.398.372-.265.558-.65.558-1.158 0-1.044-.722-1.567-2.165-1.567h-1.589zm6.845 5.393l-.92 2.202h-.726l3.532-8.16h.656l3.466 8.16h-.725l-.921-2.202H89.02zm2.2-5.267l-1.958 4.668h3.88l-1.922-4.668zm5.795-.692v8.16h-.657v-8.16h.657zm3.051 0l5.078 7.215h.023v-7.215h.657v8.16h-.829l-5.08-7.26h-.024v7.26h-.654v-8.16h.829zm8.695 4.206v3.365h4.468v.59h-5.113v-8.16h4.961v.589h-4.318v3.042h4.042v.576l-4.04-.002z" fill="#161616"/></svg>