<svg width="199" height="42" viewBox="0 0 199 42" fill="none" xmlns="http://www.w3.org/2000/svg">
<path d="M35.8779 25.7527C35.6636 25.7669 35.54 25.701 35.4123 25.6438C33.6988 24.8726 31.981 24.1118 30.2729 23.326C30.1246 23.2506 29.9615 23.2087 29.7954 23.2033C29.6292 23.1979 29.4639 23.2291 29.311 23.2948C27.4732 24.0112 25.6283 24.7087 23.7853 25.411C23.2515 25.6148 23.0891 25.5448 22.8735 25.0245C22.7764 24.7889 22.6775 24.5532 22.5793 24.3175C22.3838 23.8368 22.4503 23.677 22.9265 23.4927C23.9115 23.1132 24.8969 22.7349 25.8827 22.3574C27.0853 21.8972 28.2902 21.4436 29.4905 20.9763C29.6073 20.9267 29.7333 20.903 29.86 20.9066C29.9869 20.91 30.1113 20.941 30.2251 20.997C32.01 21.8083 33.8006 22.6079 35.5818 23.4215C35.6684 23.4652 35.7633 23.4901 35.8602 23.4942C35.9573 23.4984 36.0539 23.4817 36.144 23.4455C38.2505 22.6891 40.3591 21.9367 42.4696 21.1885C43.02 20.9922 43.1894 21.0706 43.3949 21.6097C43.5126 21.9244 43.6198 22.2449 43.7593 22.5524C43.877 22.8128 43.8652 22.9348 43.5516 23.0432C41.5018 23.7537 39.461 24.489 37.4173 25.2172C37.0023 25.365 36.5896 25.5189 36.1741 25.6661C36.0592 25.7073 35.9351 25.7363 35.8779 25.7527Z" fill="#161616"/>
<path d="M29.7216 28.3302C29.6134 28.3678 29.4698 28.4127 29.3297 28.4662C27.4852 29.1685 25.6425 29.8715 23.8016 30.5749C23.2437 30.7876 23.0953 30.7221 22.8681 30.176C22.7712 29.9404 22.6749 29.7046 22.5797 29.4691C22.396 29.0148 22.462 28.8398 22.9176 28.6643C23.9671 28.2583 25.0196 27.86 26.0709 27.4594C27.1893 27.0334 28.3078 26.6163 29.4174 26.1774C29.5593 26.1155 29.7134 26.0857 29.8683 26.0903C30.0231 26.0949 30.175 26.1337 30.3132 26.2039C32.0745 27.011 33.845 27.7976 35.6111 28.5999C35.6928 28.6409 35.7825 28.6638 35.8739 28.6671C35.9652 28.6705 36.0562 28.6541 36.1409 28.6194C38.2368 27.8665 40.3346 27.1179 42.4341 26.3735C43.0451 26.1556 43.1757 26.2103 43.4107 26.8031C43.5343 27.1159 43.6349 27.4388 43.7803 27.741C43.9062 28.0032 43.8592 28.1091 43.576 28.207C41.9643 28.7643 40.3603 29.3428 38.7538 29.9157C37.8791 30.2267 37.0038 30.5348 36.1314 30.8529C36.0188 30.8974 35.8981 30.9179 35.777 30.913C35.656 30.9082 35.5373 30.8781 35.4286 30.8247C33.6745 30.0299 31.9161 29.2451 30.1601 28.4544C30.0248 28.3817 29.8751 28.3393 29.7216 28.3302Z" fill="#161616"/>
<path d="M35.8645 36.084C35.6468 36.0957 35.5225 36.0291 35.3937 35.972C33.6813 35.2003 31.9671 34.4331 30.2589 33.6519C30.1156 33.5792 29.9583 33.5386 29.7977 33.5331C29.6373 33.5275 29.4775 33.557 29.3295 33.6195C27.4817 34.3395 25.6269 35.0406 23.7755 35.7493C23.2617 35.9455 23.0886 35.8777 22.8802 35.3828C22.7676 35.1158 22.6587 34.8473 22.5535 34.5775C22.3976 34.1786 22.4675 34.0024 22.8661 33.8451C23.5136 33.5894 24.1647 33.3456 24.8146 33.0981C26.3639 32.5089 27.9155 31.9233 29.4601 31.3217C29.5872 31.268 29.7243 31.2423 29.8622 31.2465C30 31.2508 30.1354 31.2849 30.2589 31.3464C32.022 32.1484 33.7909 32.9372 35.552 33.7415C35.6486 33.7898 35.7544 33.8168 35.8624 33.8209C35.9703 33.8249 36.0778 33.806 36.1777 33.765C38.2833 33.0067 40.393 32.2602 42.5016 31.5109C43.0214 31.3259 43.1792 31.3965 43.3792 31.9032C43.5105 32.2373 43.6146 32.5844 43.772 32.9049C43.9049 33.174 43.8396 33.276 43.5688 33.3703C41.9918 33.9176 40.4202 34.4803 38.8466 35.0388C37.95 35.3569 37.054 35.6757 36.1589 35.9951C36.0418 36.0375 35.9187 36.0681 35.8645 36.084Z" fill="#161616"/>
<path d="M29.7026 38.774C29.6284 38.7987 29.4948 38.8364 29.366 38.886C27.5133 39.5929 25.6611 40.2999 23.8097 41.007C23.234 41.226 23.0957 41.1618 22.8591 40.588C22.7571 40.3417 22.6471 40.0984 22.5505 39.8504C22.3969 39.4557 22.4729 39.273 22.8696 39.1186C23.9293 38.7062 24.9888 38.3045 26.0524 37.8985C27.2003 37.4601 28.3482 37.0271 29.4955 36.5805C29.6122 36.5312 29.7384 36.508 29.8651 36.5122C29.9918 36.5165 30.1161 36.5482 30.2294 36.6052C32.0025 37.4113 33.7807 38.2048 35.5532 39.0125C35.6501 39.0613 35.7562 39.089 35.8645 39.0939C35.9729 39.0986 36.0811 39.0803 36.1818 39.0404C38.2872 38.2819 40.3943 37.529 42.5034 36.782C43.0132 36.6006 43.1937 36.6843 43.3862 37.1803C43.5241 37.5367 43.6511 37.8978 43.7983 38.2501C43.8772 38.4364 43.8654 38.5307 43.6506 38.6037C41.0817 39.511 38.515 40.425 35.9505 41.3457C35.7738 41.4099 35.638 41.3504 35.4896 41.2868C33.7237 40.4915 31.9576 39.6968 30.1917 38.903C30.0563 38.8406 29.9228 38.7658 29.7026 38.774Z" fill="#161616"/>
<path d="M7.6983 30.6991C5.96366 30.7044 4.74223 30.239 3.62558 29.4866C2.82914 28.9493 1.97737 28.6029 1.01362 28.5516C0.314427 28.5122 -0.108266 28.0214 0.0359603 27.454C0.142534 27.0375 0.656412 26.753 1.2086 26.7806C2.3999 26.8396 3.45778 27.2826 4.46311 27.8865C4.87811 28.1363 5.2566 28.4414 5.7194 28.6182C6.96964 29.0948 8.15979 29.027 9.31475 28.3236C9.97531 27.9194 10.6133 27.4664 11.3339 27.1747C12.9078 26.5385 14.4601 26.6745 15.9842 27.3739C16.5089 27.6178 17.0125 27.9055 17.4893 28.2335C18.0833 28.6382 18.7402 28.8856 19.4666 28.9209C19.7112 28.9317 19.9492 29.0031 20.1594 29.129C20.4184 29.2827 20.6304 29.4942 20.6232 29.8153C20.6162 30.1365 20.4325 30.3827 20.137 30.5223C19.5426 30.8069 18.935 30.7168 18.337 30.55C17.3981 30.2884 16.5922 29.7488 15.7747 29.2474C14.2442 28.3047 12.7272 28.2989 11.189 29.2233C10.5951 29.5804 10.0264 29.9809 9.38662 30.2607C8.59133 30.6071 8.18697 30.7009 7.6983 30.6991Z" fill="#161616"/>
<path d="M7.29198 41.2926C5.93452 41.2926 4.72194 40.8212 3.61936 40.0772C2.83013 39.5427 1.99538 39.1933 1.04113 39.1562C0.878076 39.148 0.718135 39.108 0.570307 39.0385C0.25828 38.8982 0.0199218 38.7061 0.0156654 38.3167C0.0122276 37.9149 0.228322 37.6609 0.551972 37.4919C0.750058 37.393 0.971227 37.3502 1.19191 37.3682C2.53333 37.4382 3.70367 37.9709 4.79789 38.7003C6.28485 39.6907 7.79407 39.8408 9.36174 38.8859C10.0233 38.4822 10.6644 38.0363 11.3901 37.7476C12.9101 37.1442 14.4075 37.2657 15.8809 37.9166C16.4966 38.1888 17.0665 38.5418 17.6269 38.9152C18.1872 39.2888 18.8218 39.4649 19.4916 39.5204C19.7131 39.528 19.9291 39.5911 20.1198 39.7041C20.4141 39.8945 20.6707 40.1167 20.6178 40.5078C20.5713 40.8519 20.2416 41.147 19.8525 41.2266C19.0667 41.388 18.3326 41.2042 17.6251 40.8766C16.9617 40.5696 16.3406 40.1831 15.7156 39.8061C14.3204 38.9659 12.9112 38.8846 11.4613 39.6723C10.7591 40.0541 10.1074 40.5184 9.3822 40.863C8.71591 41.1812 8.01901 41.2973 7.29198 41.2926Z" fill="#161616"/>
<path d="M16.0493 34.7578C14.7873 33.6819 12.8336 33.5513 11.399 34.4044C10.6443 34.8539 9.91797 35.3552 9.09386 35.6846C8.13077 36.0693 7.14787 36.0793 6.15646 35.8773C5.20155 35.6759 4.29919 35.2768 3.50766 34.7054C2.78489 34.1935 1.93149 33.898 1.04714 33.8535C0.850196 33.8398 0.659477 33.7792 0.490858 33.6767C0.0994333 33.45 -0.0389007 33.2002 0.0151228 32.8348C0.0670182 32.4938 0.344176 32.2238 0.739203 32.1279C1.24195 32.0041 1.73455 32.1184 2.21847 32.2215C3.1498 32.4194 4.00026 32.8384 4.76265 33.3863C6.09294 34.343 7.94136 34.5894 9.54062 33.497C10.247 33.0157 10.967 32.5337 11.8022 32.2957C13.2327 31.888 14.6206 32.0311 15.9627 32.6681C16.507 32.9225 17.0304 33.2196 17.5279 33.5565C18.086 33.9391 18.7344 34.1683 19.4088 34.221C19.559 34.2307 19.7082 34.2549 19.8537 34.2936C20.6778 34.5293 20.8379 35.2026 20.2258 35.7995C20.1669 35.7959 20.108 35.7941 20.0868 35.8666C20.0132 35.8632 19.9413 35.8891 19.8866 35.9385H19.8779C19.2893 36.011 18.713 35.9303 18.1395 35.8065L18.0719 35.79C17.5774 35.5279 17.0866 35.2598 16.5873 35.0083C16.4101 34.9229 16.2713 34.7501 16.0493 34.7578Z" fill="#161616"/>
<path d="M11.7311 23.5358C11.0836 23.8516 10.4979 24.2663 9.87449 24.6193C8.2181 25.556 6.53289 25.49 4.83279 24.7371C4.30712 24.496 3.80339 24.2098 3.327 23.8816C2.69624 23.46 1.96496 23.2135 1.20797 23.1675C0.964046 23.1572 0.725524 23.0924 0.509757 22.9778C0.199531 22.8059 -0.0317876 22.5801 0.00357329 22.1831C0.0305851 21.8732 0.309705 21.5391 0.645143 21.4371C1.1785 21.2741 1.71006 21.3942 2.2228 21.5091C3.13514 21.713 3.97103 22.1283 4.73505 22.6574C6.34447 23.7721 7.94798 23.8174 9.59668 22.7499C10.2849 22.3044 10.97 21.8284 11.7665 21.5969C13.2028 21.1802 14.6073 21.3122 15.9593 21.9544C16.4924 22.2036 17.0041 22.4956 17.4899 22.8276C18.0643 23.2274 18.7349 23.4664 19.4324 23.5198C19.6778 23.5393 19.9175 23.5669 20.1293 23.7061C20.4119 23.8911 20.6704 24.109 20.6109 24.4837C20.5513 24.8584 20.2883 25.0899 19.9286 25.1985C19.3735 25.3663 18.8237 25.2751 18.284 25.1277C17.5034 24.9156 16.8429 24.449 16.1366 24.0802C15.9387 23.8592 15.6657 23.7478 15.4149 23.6123C14.473 23.1015 13.4782 22.9643 12.4375 23.2659H12.4257C12.1716 23.2805 11.9285 23.3747 11.7311 23.5358Z" fill="#161616"/>
<path d="M18.0008 19.0848C17.8037 19.0848 17.6064 19.0889 17.4093 19.0848C16.9295 19.0724 16.8236 18.957 16.863 18.465C16.9059 17.9307 17.0596 17.4186 17.2114 16.9074C17.5146 15.8863 17.9119 14.8959 18.1479 13.8537C18.3922 12.7749 18.3081 11.7144 18.0609 10.6516C17.8012 9.53559 17.4633 8.44039 17.2579 7.30867C17.0283 6.04305 17.1909 4.83112 17.6264 3.65111C18.0196 2.58521 18.467 1.53945 18.6324 0.404792C18.6743 0.117321 18.882 0.0294066 19.124 0.0105802C19.3659 -0.0082462 19.6107 0.01058 19.8544 0.00419535C20.0311 -0.00235296 20.0646 0.0824469 20.0646 0.23977C20.0646 0.755941 19.9633 1.25672 19.8292 1.74867C19.5866 2.63236 19.3122 3.50378 19.0639 4.38518C18.7931 5.35842 18.8355 6.33772 19.0603 7.31211C19.2852 8.28666 19.6161 9.22749 19.9345 10.1708C20.5697 12.0497 20.4849 13.9025 19.868 15.7678C19.5596 16.7011 19.287 17.6496 19.2287 18.643C19.2122 18.9264 19.0686 19.0943 18.7654 19.0914C18.5101 19.0914 18.2552 19.0914 18.0003 19.0914L18.0008 19.0848Z" fill="#161616"/>
<path d="M6.96434 19.0878C6.73236 19.0878 6.4999 19.095 6.26858 19.0878C5.90122 19.0744 5.74995 18.9111 5.79759 18.5217C5.88059 17.8294 6.07016 17.1601 6.2838 16.4973C6.62824 15.4297 7.04914 14.3851 7.20106 13.2609C7.34692 12.1782 7.12984 11.1399 6.86775 10.1019C6.57946 8.95722 6.22569 7.826 6.1178 6.63994C6.01663 5.52526 6.25745 4.47016 6.65411 3.44617C7.02671 2.48455 7.40929 1.52718 7.56531 0.500242C7.62424 0.120931 7.84378 -0.00102694 8.18822 0.0083044C8.23471 0.0083044 8.2812 0.0083044 8.32769 0.0083044C9.02525 0.0083044 9.03999 0.00830242 8.97516 0.723542C8.90755 1.4653 8.68491 2.1753 8.449 2.87695C8.05152 4.05941 7.72198 5.24728 7.868 6.51749C7.96688 7.37646 8.23766 8.19124 8.50483 9.00437C8.90395 10.215 9.316 11.4199 9.34137 12.716C9.35889 13.6434 9.17947 14.5424 8.92048 15.4202C8.61549 16.4549 8.29168 17.4823 8.18167 18.56C8.13108 19.0524 8.05987 19.0932 7.55827 19.0973C7.36116 19.0973 7.1639 19.0973 6.96663 19.0973L6.96434 19.0878Z" fill="#161616"/>
<path d="M1.40847 19.0867C1.18828 19.0867 0.967607 19.0908 0.746928 19.0867C0.334876 19.0767 0.18181 18.8969 0.237635 18.4893C0.343717 17.7163 0.566196 16.9734 0.811594 16.2339C1.16488 15.1793 1.56219 14.1365 1.66991 13.0166C1.77059 11.9678 1.52618 10.9656 1.27128 9.96177C0.934702 8.63738 0.506115 7.3287 0.543768 5.93472C0.570779 4.88438 0.882806 3.90393 1.27898 2.94951C1.61229 2.1588 1.85589 1.33306 2.00535 0.488004C2.06429 0.149784 2.24797 0.0166895 2.56752 0.0060485C3.46104 -0.0175254 3.48347 -0.0157282 3.38868 0.872059C3.30224 1.68225 3.02492 2.45053 2.77298 3.2211C2.43214 4.26392 2.16316 5.31853 2.29151 6.42912C2.40922 7.44951 2.74171 8.41572 3.06552 9.38257C3.42634 10.4619 3.76308 11.5484 3.7878 12.696C3.80892 13.6912 3.5889 14.6551 3.30339 15.6025C3.00904 16.5792 2.70242 17.5526 2.62695 18.58C2.59928 18.9547 2.45047 19.0814 2.07018 19.0921C1.95247 19.0955 1.83755 19.0921 1.72165 19.0921H1.40847V19.0867Z" fill="#161616"/>
<path d="M12.4515 19.0867C12.2313 19.0867 12.0106 19.0914 11.7904 19.0867C11.3784 19.0767 11.2246 18.8971 11.2806 18.4893C11.3865 17.7158 11.609 16.9729 11.8551 16.2341C12.2054 15.1795 12.6057 14.1366 12.7127 13.0166C12.8134 11.9672 12.5692 10.9651 12.3143 9.96112C11.9782 8.63672 11.5491 7.32886 11.5868 5.93489C11.6138 4.88438 11.9258 3.90393 12.322 2.94886C12.6556 2.15848 12.8992 1.3329 13.0483 0.488004C13.1071 0.149784 13.2908 0.0166892 13.611 0.00604824C14.504 -0.0175257 14.5265 -0.0157235 14.4317 0.872064C14.3457 1.68225 14.0684 2.44988 13.8165 3.22111C13.4756 4.26343 13.2062 5.31853 13.3343 6.42913C13.4522 7.44903 13.7847 8.41572 14.1085 9.38258C14.4693 10.4619 14.8061 11.5484 14.8308 12.696C14.8526 13.6905 14.6317 14.6545 14.3462 15.6018C14.052 16.5793 13.7452 17.5526 13.6699 18.58C13.6423 18.9547 13.4933 19.0814 13.113 19.0921C12.9953 19.0921 12.8812 19.0921 12.7651 19.0921H12.4515V19.0867Z" fill="#161616"/>
<path d="M36.4429 13.4227C35.5011 13.408 34.5593 13.2352 33.6234 13.0103C32.2648 12.6832 30.9186 12.3032 29.4922 12.3622C28.6252 12.398 27.844 12.7156 27.0435 12.972C26.2724 13.2176 25.5189 13.5299 24.7166 13.6578C24.2356 13.7344 23.7382 13.8933 23.2627 13.6047C22.8541 13.3583 22.698 13.0155 22.7781 12.5166C22.8305 12.1877 23.2208 11.7771 23.6022 11.7676C25.0603 11.7311 26.4095 11.2274 27.7905 10.8526C29.2427 10.4586 30.6749 10.6171 32.1035 11.0158C33.1631 11.3105 34.1908 11.7005 35.2751 11.8997C36.4524 12.1165 37.6192 12.0693 38.7941 11.8678C40.0838 11.6469 41.3322 11.2504 42.6203 11.0217C42.7833 10.9929 42.9428 10.9628 43.0995 11.0217C43.2759 11.0848 43.4374 11.1743 43.4655 11.3953C43.4816 11.488 43.4668 11.5834 43.4238 11.6671C43.3806 11.7506 43.3113 11.8179 43.2265 11.8585C43.0675 11.9532 42.8961 12.0256 42.7174 12.0734C41.4865 12.3427 40.2968 12.7634 39.0719 13.0543C38.2102 13.2536 37.3489 13.4132 36.4429 13.4227Z" fill="#161616"/>
<path d="M36.5458 8.06709C35.7134 8.05203 34.8847 7.95004 34.0735 7.7626C32.9485 7.50263 31.8366 7.18454 30.6841 7.04736C29.6204 6.92065 28.5914 7.07207 27.5789 7.42961C26.6543 7.7567 25.7377 8.12603 24.7635 8.29039C24.3679 8.35702 23.9741 8.45131 23.562 8.35702C23.0912 8.24913 22.7161 7.83855 22.7268 7.38656C22.7374 6.93472 23.1606 6.41282 23.6098 6.41102C25.0272 6.40628 26.3293 5.89666 27.6637 5.53486C29.0806 5.15129 30.4769 5.20613 31.8738 5.61262C32.895 5.90729 33.9128 6.22472 34.9435 6.48698C36.0655 6.77216 37.2028 6.76856 38.3489 6.58767C39.6751 6.37796 40.9637 6.00208 42.2774 5.73933C42.5235 5.68989 42.7731 5.61033 43.0285 5.66157C43.2464 5.70577 43.4194 5.81005 43.4541 6.05693C43.4872 6.28906 43.3612 6.4364 43.174 6.52824C43.011 6.61664 42.8378 6.68458 42.6584 6.73091C41.4045 7.00954 40.1972 7.46023 38.9433 7.73542C38.1553 7.91042 37.3634 8.09656 36.5458 8.06709Z" fill="#161616"/>
<path d="M36.5147 2.9023C35.0467 2.96124 33.7246 2.54886 32.3866 2.22897C31.5519 2.03105 30.709 1.87552 29.8525 1.86374C28.8276 1.84655 27.877 2.20245 26.9227 2.52888C25.9279 2.8694 24.9391 3.24412 23.8647 3.25002C23.2283 3.25296 22.7904 2.88527 22.7705 2.33374C22.748 1.72164 23.1367 1.24148 23.7753 1.24983C24.9632 1.2662 26.058 0.888531 27.157 0.537378C28.8494 -0.00334844 30.5124 0.0442918 32.2041 0.562263C33.4403 0.941083 34.664 1.38178 35.9632 1.52961C37.0227 1.64748 38.0652 1.54729 39.1001 1.32334C40.2774 1.06943 41.4489 0.801929 42.6238 0.545727C43.0458 0.453723 43.389 0.586984 43.4572 0.846788C43.5302 1.13606 43.3037 1.41649 42.8651 1.52666C41.3629 1.90319 39.903 2.43573 38.3779 2.72566C37.7391 2.84697 37.0998 2.94601 36.5147 2.9023Z" fill="#161616"/>
<path d="M29.5478 16.0052C30.8062 15.9462 31.9205 16.328 33.0383 16.662C33.9484 16.9336 34.8561 17.24 35.7927 17.3613C36.8298 17.4966 37.8828 17.4478 38.903 17.2171C40.1647 16.9319 41.4274 16.651 42.691 16.3745C43.0371 16.2985 43.3743 16.4547 43.4514 16.708C43.5286 16.9614 43.3262 17.2724 42.96 17.3602C41.1841 17.7868 39.4647 18.4384 37.651 18.7088C36.2383 18.9192 34.8655 18.6952 33.4993 18.3436C32.1654 18 30.8286 17.6842 29.43 17.7331C28.6713 17.7596 27.9837 18.0278 27.2832 18.254C26.3915 18.5404 25.5225 18.9133 24.5872 19.0328C24.1051 19.0917 23.5935 19.2214 23.142 18.8938C22.8107 18.6535 22.6712 18.1809 22.7942 17.7685C22.8772 17.4921 23.2969 17.1339 23.6001 17.1292C24.8698 17.1115 26.0565 16.7168 27.2562 16.3675C28.0213 16.143 28.7972 15.9379 29.5478 16.0052Z" fill="#161616"/>
<path d="M54.0989 9.78351H51.7896L48.3979 4.2677H48.3621L48.4097 9.78351H46.4336V1.34961H48.7546L52.1345 6.85297H52.1706L52.1228 1.34961H54.0989V9.78351Z" fill="#161616"/>
<path d="M63.7911 9.78351H61.5301L60.8756 8.12744H57.6139L56.9952 9.78351H54.7812L58.3132 1.34961H60.2892L63.7911 9.78351ZM60.3182 6.49544L59.2709 3.60076L58.1996 6.49544H60.3182Z" fill="#161616"/>
<path d="M69.8193 3.08884H67.4388V9.78351H65.4039V3.08884H63.0234V1.34961H69.8193V3.08884Z" fill="#161616"/>
<path d="M72.7918 9.78351H70.7422V1.34961H72.7895L72.7918 9.78351Z" fill="#161616"/>
<path d="M83.2614 5.52535C83.2614 6.85171 82.8299 7.92972 81.9665 8.75923C81.1031 9.5889 80.0043 10.0037 78.6701 10.0042C77.3449 10.0042 76.2497 9.58923 75.3848 8.75923C74.5199 7.92939 74.0882 6.85138 74.0898 5.52535C74.0898 4.18998 74.5202 3.12179 75.3813 2.32093C76.2423 1.52007 77.3393 1.11882 78.6724 1.11719C80.0133 1.11719 81.1142 1.51843 81.9753 2.32093C82.8363 3.12326 83.265 4.19146 83.2614 5.52535ZM81.0834 5.52535C81.0834 4.77917 80.8574 4.16363 80.4054 3.67889C79.9532 3.19431 79.374 2.95186 78.6676 2.95186C77.9614 2.95186 77.384 3.19431 76.9359 3.67889C76.4877 4.16363 76.2637 4.77917 76.2637 5.52535C76.2637 6.28773 76.4877 6.91506 76.9359 7.40717C77.384 7.89927 77.9614 8.14565 78.6676 8.14598C79.374 8.14598 79.9532 7.89976 80.4054 7.40717C80.8574 6.91457 81.0834 6.28741 81.0834 5.52535Z" fill="#161616"/>
<path d="M92.3131 9.78351H90.0045L86.6121 4.2677H86.5768L86.6239 9.78351H84.6484V1.34961H86.9695L90.3494 6.85297H90.3853L90.3376 1.34961H92.3131V9.78351Z" fill="#161616"/>
<path d="M102.006 9.78351H99.7443L99.0898 8.12744H95.8287L95.2101 9.78351H92.9961L96.5279 1.34961H98.504L102.006 9.78351ZM98.5329 6.49544L97.4858 3.60076L96.4143 6.49544H98.5329Z" fill="#161616"/>
<path d="M108.066 9.78351H102.758V1.34961H104.805V8.00712H108.066V9.78351Z" fill="#161616"/>
<path d="M119.461 9.78351H117.2L116.545 8.12744H113.284L112.667 9.78351H110.453L113.988 1.34961H115.963L119.461 9.78351ZM115.988 6.49544L114.94 3.60076L113.869 6.49544H115.988Z" fill="#161616"/>
<path d="M125.878 2.16766L124.583 3.5374C124.403 3.31263 124.172 3.13304 123.911 3.01304C123.654 2.88421 123.371 2.81512 123.084 2.81103C122.795 2.80382 122.51 2.87143 122.256 3.00715C122.02 3.13877 121.903 3.35487 121.903 3.65527C121.899 3.77838 121.928 3.90018 121.986 4.00871C122.054 4.11971 122.151 4.21024 122.266 4.27032C122.39 4.343 122.519 4.40669 122.653 4.4612C122.779 4.5131 122.962 4.57432 123.2 4.6457C123.51 4.74933 123.752 4.83282 123.926 4.89601C124.157 4.98572 124.382 5.09115 124.599 5.2118C124.833 5.33033 125.048 5.48503 125.235 5.67018C125.405 5.85845 125.542 6.07389 125.64 6.30766C125.76 6.58367 125.82 6.88211 125.817 7.18317C125.817 8.09633 125.505 8.79324 124.882 9.27356C124.26 9.75388 123.496 9.99436 122.591 9.99469C121.989 9.99633 121.392 9.8873 120.83 9.67301C120.304 9.48327 119.829 9.17778 119.438 8.77916L120.77 7.42415C120.99 7.69738 121.269 7.91724 121.586 8.06752C121.897 8.22796 122.241 8.31374 122.591 8.31799C122.932 8.31799 123.212 8.24449 123.43 8.09764C123.649 7.95063 123.758 7.71637 123.759 7.39468C123.761 7.2755 123.73 7.15812 123.67 7.05531C123.616 6.96347 123.55 6.87917 123.473 6.80501C123.359 6.71186 123.23 6.63753 123.092 6.58465C122.91 6.50607 122.755 6.44452 122.628 6.40016C122.501 6.35579 122.295 6.28621 122.009 6.19159C121.736 6.10335 121.47 5.99596 121.212 5.86991C120.974 5.74827 120.75 5.60061 120.545 5.42921C120.321 5.24405 120.146 5.00684 120.034 4.7382C119.91 4.4319 119.85 4.1035 119.857 3.77314C119.851 3.35634 119.949 2.94461 120.143 2.57594C120.321 2.23658 120.583 1.94943 120.905 1.74218C121.227 1.53755 121.578 1.383 121.946 1.28396C122.328 1.17968 122.722 1.12762 123.118 1.12893C123.624 1.13122 124.126 1.22192 124.601 1.39692C125.074 1.56357 125.509 1.826 125.878 2.16766Z" fill="#161616"/>
<path d="M132.919 2.16521L131.624 3.53495C131.443 3.31001 131.213 3.13043 130.951 3.0106C130.694 2.88176 130.411 2.81267 130.123 2.80858C129.836 2.80203 129.552 2.86948 129.299 3.0047C129.063 3.13632 128.946 3.35241 128.946 3.65282C128.942 3.77593 128.971 3.89789 129.029 4.00643C129.097 4.11726 129.194 4.20763 129.309 4.26787C129.433 4.34056 129.563 4.40424 129.696 4.45892C129.823 4.51065 130.005 4.5722 130.243 4.64325C130.553 4.74688 130.795 4.83037 130.97 4.89356C131.2 4.98344 131.425 5.08887 131.642 5.20936C131.877 5.32804 132.092 5.48275 132.279 5.66774C132.448 5.856 132.585 6.0716 132.683 6.30522C132.803 6.58123 132.864 6.87967 132.86 7.18072C132.86 8.09405 132.548 8.79079 131.926 9.27111C131.303 9.75142 130.539 9.99191 129.634 9.99224C129.033 9.99388 128.436 9.88485 127.873 9.67055C127.348 9.48082 126.872 9.1755 126.48 8.77688L127.814 7.4217C128.034 7.69493 128.312 7.91479 128.628 8.06507C128.94 8.22551 129.284 8.31129 129.634 8.31555C129.975 8.31555 130.256 8.24188 130.473 8.0952C130.691 7.94851 130.801 7.71572 130.801 7.39813C130.803 7.27895 130.772 7.16157 130.712 7.05876C130.658 6.9666 130.592 6.88245 130.515 6.80845C130.401 6.7153 130.272 6.64098 130.134 6.5881C129.952 6.50952 129.797 6.44813 129.67 6.4036C129.544 6.35924 129.337 6.28983 129.051 6.19504C128.778 6.1068 128.512 5.99925 128.254 5.87335C128.016 5.75205 127.792 5.60422 127.587 5.43265C127.363 5.24733 127.188 5.01012 127.076 4.74164C126.952 4.43534 126.892 4.10695 126.899 3.77658C126.892 3.35978 126.99 2.94806 127.185 2.57939C127.361 2.23904 127.623 1.95059 127.945 1.74219C128.267 1.53755 128.618 1.38301 128.986 1.28381C129.368 1.17969 129.763 1.12746 130.159 1.12894C130.665 1.13123 131.166 1.22192 131.641 1.39693C132.114 1.56309 132.549 1.82453 132.919 2.16521Z" fill="#161616"/>
<path d="M143 5.52535C143 6.85171 142.568 7.92972 141.705 8.75923C140.84 9.5889 139.742 10.0037 138.408 10.0042C137.083 10.0042 135.988 9.58923 135.123 8.75923C134.258 7.92939 133.826 6.85138 133.828 5.52535C133.828 4.18998 134.258 3.12179 135.119 2.32093C135.98 1.52007 137.077 1.11882 138.411 1.11719C139.752 1.11719 140.852 1.51843 141.713 2.32093C142.574 3.12326 143.003 4.19146 143 5.52535ZM140.821 5.52535C140.821 4.77917 140.595 4.16363 140.143 3.67889C139.69 3.19431 139.112 2.95186 138.404 2.95186C137.699 2.95186 137.121 3.19431 136.672 3.67889C136.225 4.16363 136.001 4.77917 136.001 5.52535C136.001 6.28773 136.225 6.91506 136.672 7.40717C137.121 7.89927 137.699 8.14565 138.404 8.14598C139.112 8.14598 139.691 7.89976 140.143 7.40717C140.595 6.91457 140.821 6.28741 140.821 5.52535Z" fill="#161616"/>
<path d="M151.719 8.61025C150.917 9.53913 149.825 10.0037 148.445 10.0042C147.137 10.0042 146.053 9.58923 145.197 8.75923C144.339 7.92939 143.91 6.85924 143.91 5.54892C143.91 4.22289 144.346 3.15273 145.213 2.33861C146.083 1.52433 147.171 1.11719 148.481 1.11719C149.088 1.11686 149.692 1.22786 150.26 1.44477C150.835 1.66365 151.293 1.96749 151.636 2.35629L150.254 3.74028C150.069 3.48342 149.815 3.28321 149.522 3.16223C149.216 3.0311 148.885 2.96414 148.553 2.96545C147.846 2.96545 147.265 3.2097 146.809 3.69837C146.353 4.18704 146.125 4.80438 146.125 5.55072C146.125 6.31311 146.346 6.93438 146.791 7.41486C147.235 7.89518 147.81 8.1355 148.517 8.13599C149.301 8.13599 149.897 7.85 150.301 7.27817L151.719 8.61025Z" fill="#161616"/>
<path d="M154.634 9.78351H152.586V1.34961H154.634V9.78351Z" fill="#161616"/>
<path d="M164.393 9.78351H162.132L161.478 8.12744H158.217L157.598 9.78351H155.383L158.919 1.34961H160.895L164.393 9.78351ZM160.921 6.49544L159.868 3.60076L158.798 6.49544H160.921Z" fill="#161616"/>
<path d="M170.328 3.08884H167.948V9.78351H165.913V3.08884H163.531V1.34961H170.328V3.08884Z" fill="#161616"/>
<path d="M173.3 9.78351H171.254V1.34961H173.3V9.78351Z" fill="#161616"/>
<path d="M183.858 5.52535C183.858 6.85171 183.428 7.92972 182.563 8.75923C181.701 9.5889 180.602 10.0037 179.268 10.0042C177.942 10.0042 176.847 9.58923 175.982 8.75923C175.118 7.92939 174.686 6.85138 174.688 5.52535C174.688 4.18998 175.118 3.12179 175.978 2.32093C176.839 1.52007 177.935 1.11882 179.27 1.11719C180.61 1.11719 181.711 1.51843 182.572 2.32093C183.433 3.12326 183.862 4.19146 183.858 5.52535ZM181.681 5.52535C181.681 4.77917 181.455 4.16363 181.003 3.67889C180.55 3.19431 179.972 2.95186 179.265 2.95186C178.559 2.95186 177.981 3.19431 177.533 3.67889C177.086 4.16363 176.862 4.77917 176.862 5.52535C176.862 6.28773 177.086 6.91506 177.533 7.40717C177.981 7.89927 178.559 8.14565 179.265 8.14598C179.972 8.14598 180.55 7.89976 181.003 7.40717C181.455 6.91457 181.681 6.28741 181.681 5.52535Z" fill="#161616"/>
<path d="M192.825 9.78351H190.515L187.125 4.2677H187.089L187.136 9.78351H185.16V1.34961H187.48L190.86 6.85297H190.896L190.849 1.34961H192.825V9.78351Z" fill="#161616"/>
<path d="M53.8776 15.0336C54.6793 15.8442 55.0804 16.872 55.0807 18.1167C55.0812 19.3613 54.6801 20.3891 53.8776 21.1998C53.075 22.0105 52.0636 22.4156 50.8431 22.4151C49.6304 22.4151 48.6229 22.01 47.8204 21.1998C47.0179 20.3894 46.6169 19.3623 46.6172 18.1185C46.6172 16.8733 47.0183 15.8456 47.8204 15.0354C48.6224 14.225 49.6301 13.8197 50.8431 13.8193C52.0639 13.818 53.0755 14.2229 53.8776 15.0336ZM53.4114 20.7484C54.0636 20.0296 54.3897 19.1518 54.3897 18.1149C54.3897 17.0779 54.0616 16.2001 53.4055 15.4813C52.7489 14.763 51.8948 14.4038 50.8431 14.4038C49.7913 14.4038 48.9394 14.763 48.2872 15.4813C47.6346 16.1997 47.3082 17.0776 47.3082 18.1149C47.3082 19.1521 47.6346 20.0301 48.2872 20.7484C48.9394 21.4665 49.7913 21.8256 50.8431 21.826C51.9027 21.8287 52.7587 21.4702 53.4114 20.7502V20.7484Z" fill="#161616"/>
<path d="M57.5938 18.2568V22.1989H56.9375V14.0391H61.7738V14.6282H57.5945V17.6819H61.4753V18.258L57.5938 18.2568Z" fill="#161616"/>
<path d="M66.9258 18.2444V21.6097H71.3937V22.1989H66.2812V14.0391H71.2441V14.6281H66.9258V17.6706H70.9674V18.2468L66.9258 18.2444Z" fill="#161616"/>
<path d="M73.0208 22.1989H72.2031L75.1623 17.9116L72.468 14.0391H73.2857L75.5655 17.4042L77.8224 14.0391H78.5941L75.934 17.8998L78.9161 22.2007H78.0984L75.5537 18.43L73.0208 22.1989Z" fill="#161616"/>
<path d="M82.7693 14.6243V22.1963H82.1112V14.6243H79.3711V14.0352H85.5083V14.6243H82.7693Z" fill="#161616"/>
<path d="M87.418 18.2915V22.1989H86.7617V14.0391H89.1104C90.9222 14.0391 91.8281 14.7497 91.8281 16.1712C91.8281 16.7854 91.6209 17.2733 91.2065 17.6347C90.7922 17.996 90.2777 18.1997 89.6631 18.2457L92.0701 22.1989H91.2755L88.9492 18.2915H87.418ZM87.418 14.6034V17.7259H89.0191C89.7103 17.7259 90.2418 17.5935 90.6138 17.3283C90.9859 17.0632 91.172 16.6771 91.1725 16.17C91.1725 15.1248 90.4507 14.6022 89.0075 14.6022L87.418 14.6034Z" fill="#161616"/>
<path d="M94.3573 19.9972L93.4367 22.1989H92.7109L96.2462 14.0391H96.902L100.368 22.1989H99.6422L98.721 19.9972H94.3573ZM96.5571 14.7307L94.5993 19.398H98.4802L96.5571 14.7307Z" fill="#161616"/>
<path d="M107.709 20.6293L108.158 20.9868C107.429 21.9393 106.438 22.4155 105.187 22.4155C103.967 22.4155 102.961 22.0105 102.171 21.2001C101.38 20.3898 100.984 19.3627 100.984 18.1188C100.984 16.8737 101.384 15.8461 102.182 15.0357C102.981 14.2254 103.987 13.82 105.199 13.8197C105.759 13.8122 106.315 13.9181 106.834 14.1308C107.296 14.3154 107.701 14.6173 108.011 15.0069L107.54 15.4447C107.274 15.122 106.937 14.8658 106.555 14.6957C106.135 14.5016 105.677 14.4032 105.214 14.4076C104.154 14.4076 103.3 14.7669 102.652 15.4853C102.004 16.2036 101.679 17.0814 101.679 18.1188C101.679 19.1558 102.003 20.0336 102.652 20.7524C103.301 21.4711 104.155 21.8304 105.214 21.8299C106.233 21.8304 107.065 21.4302 107.709 20.6293Z" fill="#161616"/>
<path d="M112.069 14.6243V22.1963H111.413V14.6243H108.672V14.0352H114.81V14.6243H112.069Z" fill="#161616"/>
<path d="M116.711 14.0391V22.1989H116.055V14.0391H116.711Z" fill="#161616"/>
<path d="M118.659 14.0391L121.411 21.3805H121.434L124.186 14.0391H124.888L121.78 22.1989H121.043L117.945 14.0391H118.659Z" fill="#161616"/>
<path d="M126.715 18.2444V21.6097H131.183V22.1989H126.07V14.0391H131.033V14.6281H126.715V17.6706H130.757V18.2468L126.715 18.2444Z" fill="#161616"/>
<path d="M136.453 14.0391V22.1989H135.797V14.0391H136.453Z" fill="#161616"/>
<path d="M139.504 14.0391L144.581 21.254H144.604V14.0391H145.26V22.1989H144.432L139.355 14.9393H139.332V22.2001H138.676V14.0402L139.504 14.0391Z" fill="#161616"/>
<path d="M147.555 22.199V14.0391H150.133C150.678 14.0367 151.22 14.1218 151.739 14.2912C152.242 14.4561 152.711 14.7077 153.126 15.0348C153.555 15.3797 153.895 15.8224 154.116 16.3256C154.36 16.8917 154.486 17.5015 154.486 18.1179C154.486 18.7341 154.36 19.3441 154.116 19.9102C153.895 20.4134 153.555 20.8561 153.126 21.201C152.711 21.5281 152.242 21.7795 151.739 21.9439C151.22 22.1143 150.678 22.2001 150.133 22.1978L147.555 22.199ZM148.211 14.6271V21.6111H149.961C151.151 21.6111 152.088 21.2845 152.77 20.6313C153.453 19.9781 153.795 19.1407 153.795 18.119C153.795 17.0978 153.453 16.2603 152.77 15.6063C152.088 14.9523 151.151 14.6258 149.961 14.6271H148.211Z" fill="#161616"/>
<path d="M159.329 22.4149C158.761 22.4149 158.268 22.3166 157.85 22.1202C157.431 21.9239 157.114 21.6607 156.894 21.3308C156.68 21.0125 156.519 20.6624 156.416 20.2932C156.315 19.9177 156.264 19.53 156.266 19.1409V14.0352H156.922V19.0607C156.922 19.3252 156.943 19.5893 156.986 19.8502C157.03 20.1076 157.109 20.3576 157.222 20.5938C157.33 20.8289 157.477 21.0435 157.659 21.2277C157.857 21.4177 158.093 21.5649 158.35 21.6595C158.662 21.7761 158.995 21.8327 159.329 21.8268C159.782 21.8268 160.172 21.7461 160.498 21.5847C160.804 21.4416 161.064 21.2175 161.252 20.9366C161.426 20.6679 161.555 20.3718 161.632 20.0606C161.711 19.7343 161.75 19.3995 161.748 19.0636V14.0386H162.405V19.1443C162.408 19.5334 162.357 19.9211 162.256 20.2968C162.153 20.6658 161.991 21.016 161.778 21.3342C161.558 21.6643 161.241 21.9273 160.822 22.1238C160.404 22.3202 159.907 22.4172 159.329 22.4149Z" fill="#161616"/>
<path d="M169.041 14.7874L168.569 15.2138C168.117 14.6605 167.518 14.384 166.773 14.3843C166.3 14.3782 165.839 14.5302 165.462 14.8162C165.077 15.1041 164.886 15.5095 164.886 16.0322C164.876 16.3231 164.958 16.6096 165.121 16.8506C165.279 17.0735 165.49 17.2521 165.737 17.369C166.007 17.499 166.287 17.6108 166.572 17.7036C166.875 17.803 167.179 17.9104 167.482 18.026C167.772 18.1353 168.052 18.2725 168.315 18.4354C168.576 18.5993 168.789 18.8277 168.933 19.0983C169.096 19.4105 169.178 19.7596 169.168 20.1123C169.168 20.8498 168.911 21.4193 168.396 21.8207C167.882 22.2221 167.271 22.4219 166.565 22.4199C165.521 22.4199 164.701 22.0272 164.102 21.2417L164.562 20.838C165.13 21.5058 165.798 21.8396 166.564 21.8396C167.053 21.8482 167.531 21.6876 167.918 21.3848C168.306 21.0811 168.499 20.6687 168.499 20.1475C168.507 19.8548 168.425 19.5665 168.263 19.3227C168.107 19.0966 167.896 18.9125 167.652 18.7866C167.386 18.6481 167.109 18.5299 166.824 18.4331C166.521 18.3293 166.215 18.2198 165.909 18.1044C165.618 17.997 165.338 17.86 165.074 17.6955C164.819 17.5316 164.607 17.3057 164.463 17.0385C164.306 16.7581 164.228 16.4218 164.228 16.0299C164.228 15.3228 164.485 14.7774 164.999 14.3931C165.513 14.0091 166.117 13.8177 166.809 13.8193C167.806 13.8193 168.55 14.142 169.041 14.7874Z" fill="#161616"/>
<path d="M173.295 14.6243V22.1963H172.639V14.6243H169.898V14.0352H176.036V14.6243H173.295Z" fill="#161616"/>
<path d="M177.944 18.2915V22.1989H177.289V14.0391H179.638C181.451 14.0391 182.356 14.7497 182.356 16.1712C182.356 16.7854 182.15 17.2733 181.734 17.6347C181.32 17.996 180.806 18.1997 180.192 18.2457L182.598 22.1989H181.804L179.478 18.2915H177.944ZM177.944 14.6034V17.7259H179.545C180.236 17.7259 180.766 17.5935 181.139 17.3283C181.513 17.0632 181.699 16.6771 181.698 16.17C181.698 15.1248 180.976 14.6022 179.533 14.6022L177.944 14.6034Z" fill="#161616"/>
<path d="M184.91 14.0391V22.1989H184.254V14.0391H184.91Z" fill="#161616"/>
<path d="M187.778 18.2444V21.6097H192.245V22.1989H187.133V14.0391H192.095V14.6281H187.778V17.6706H191.82V18.2468L187.778 18.2444Z" fill="#161616"/>
<path d="M198.484 14.7898L198.012 15.2163C197.56 14.6629 196.961 14.3863 196.216 14.3867C195.743 14.3807 195.282 14.5326 194.903 14.8186C194.52 15.1066 194.329 15.5119 194.329 16.0346C194.319 16.3254 194.401 16.6119 194.563 16.853C194.722 17.076 194.933 17.2544 195.18 17.3715C195.45 17.5013 195.728 17.6131 196.013 17.7061C196.318 17.8055 196.621 17.9128 196.924 18.0284C197.215 18.1378 197.495 18.2748 197.758 18.4379C198.019 18.6017 198.23 18.8301 198.376 19.1005C198.539 19.4129 198.62 19.7621 198.61 20.1146C198.61 20.8522 198.353 21.4218 197.839 21.8232C197.325 22.2246 196.714 22.4243 196.008 22.4223C194.964 22.4223 194.142 22.0296 193.543 21.244L194.005 20.8404C194.573 21.5082 195.239 21.842 196.005 21.842C196.496 21.8507 196.974 21.6901 197.359 21.3872C197.747 21.0835 197.942 20.6712 197.942 20.1499C197.95 19.8572 197.868 19.5689 197.706 19.3252C197.549 19.0991 197.339 18.9149 197.095 18.789C196.829 18.6504 196.552 18.5322 196.267 18.4354C195.964 18.3318 195.658 18.2223 195.352 18.1067C195.059 17.9993 194.779 17.8623 194.515 17.6979C194.26 17.5339 194.05 17.3078 193.906 17.0409C193.749 16.7605 193.671 16.4242 193.671 16.0323C193.671 15.3253 193.928 14.7796 194.442 14.3956C194.956 14.0114 195.558 13.8193 196.251 13.8193C197.248 13.821 197.993 14.1445 198.484 14.7898Z" fill="#161616"/>
<path d="M53.8776 27.2316C54.6793 28.0423 55.0804 29.0701 55.0807 30.3148C55.0812 31.5596 54.6801 32.5872 53.8776 33.3979C53.075 34.2085 52.0636 34.6137 50.8431 34.6134C49.6304 34.6134 48.6229 34.2082 47.8204 33.3979C47.0179 32.5877 46.6169 31.5599 46.6172 30.3148C46.6172 29.0698 47.0183 28.042 47.8204 27.2316C48.6224 26.4215 49.6301 26.0161 50.8431 26.0156C52.0639 26.0176 53.0755 26.4229 53.8776 27.2316ZM53.4114 32.9467C54.0636 32.2287 54.3897 31.3507 54.3897 30.3131C54.3897 29.2754 54.0616 28.3974 53.4055 27.6796C52.7489 26.961 51.8948 26.6019 50.8431 26.6019C49.7913 26.6019 48.9394 26.961 48.2872 27.6796C47.6346 28.3982 47.3082 29.2762 47.3082 30.3131C47.3082 31.35 47.6346 32.2278 48.2872 32.9467C48.9394 33.665 49.7913 34.0242 50.8431 34.0242C51.9027 34.0254 52.7587 33.6668 53.4114 32.9483V32.9467Z" fill="#161616"/>
<path d="M57.5938 30.4499V34.3915H56.9375V26.2314H61.7738V26.8206H57.5945V29.8749H61.4753V30.451L57.5938 30.4499Z" fill="#161616"/>
<path d="M69.2667 34.6112C68.6979 34.6112 68.2047 34.5129 67.7867 34.3166C67.3688 34.1202 67.0501 33.8571 66.8307 33.5271C66.6177 33.2088 66.4566 32.8585 66.3533 32.4897C66.2513 32.1141 66.2009 31.7263 66.2032 31.3372V26.2314H66.8597V31.2601C66.8587 31.5244 66.88 31.7887 66.9232 32.0495C66.9674 32.307 67.0466 32.5571 67.1586 32.793C67.2665 33.0283 67.4145 33.2427 67.596 33.4269C67.7939 33.6173 68.0294 33.7643 68.287 33.8588C68.6 33.9753 68.932 34.0321 69.266 34.0261C69.7188 34.0261 70.1083 33.9454 70.4344 33.7839C70.7402 33.6407 71.0011 33.4166 71.1891 33.136C71.3634 32.867 71.4916 32.5709 71.5687 32.2598C71.6481 31.9336 71.6876 31.5988 71.6866 31.263V26.238H72.3434V31.3437C72.3458 31.7328 72.2953 32.1205 72.1933 32.496C72.0901 32.865 71.9289 33.2152 71.7159 33.5336C71.497 33.864 71.1783 34.1271 70.76 34.323C70.3417 34.5192 69.8439 34.6151 69.2667 34.6112Z" fill="#161616"/>
<path d="M75.1568 26.2314V29.9196L79.1067 26.2314H80.0485L75.928 29.9432L80.2692 34.3919H79.3133L75.1563 30.0323V34.3919H74.5V26.2321L75.1568 26.2314Z" fill="#161616"/>
<path d="M82.176 30.4841V34.3915H81.5195V26.2314H83.8689C85.68 26.2314 86.5856 26.9423 86.5861 28.3637C86.5861 28.9783 86.3789 29.4661 85.9645 29.8271C85.55 30.1881 85.0358 30.3917 84.4216 30.4381L86.8281 34.3915H86.0333L83.7076 30.4841H82.176ZM82.176 26.7966V29.9191H83.7764C84.4676 29.9191 84.9993 29.7865 85.3717 29.5213C85.7442 29.2563 85.9301 28.8701 85.9298 28.3631C85.9298 27.3186 85.2082 26.7962 83.7653 26.7959L82.176 26.7966Z" fill="#161616"/>
<path d="M89.0214 32.1898L88.1002 34.3915H87.375L90.9068 26.2314H91.5633L95.0292 34.3915H94.3039L93.3827 32.1898H89.0214ZM91.2207 26.9231L89.2634 31.5906H93.1437L91.2207 26.9231Z" fill="#161616"/>
<path d="M97.0157 26.2314V34.3915H96.3594V26.2314H97.0157Z" fill="#161616"/>
<path d="M100.067 26.2314L105.145 33.4464H105.168V26.2314H105.825V34.3915H104.996L99.9152 27.1305H99.8923V34.3915H99.2383V26.2314H100.067Z" fill="#161616"/>
<path d="M108.762 30.4369V33.8023H113.23V34.3913H108.117V26.2314H113.078V26.8206H108.76V29.8631H112.802V30.4392L108.762 30.4369Z" fill="#161616"/>
</svg>
