<svg width="140" height="20" viewBox="0 0 140 20" fill="none" xmlns="http://www.w3.org/2000/svg">
<path d="M17.7692 19.3057H31.9512V15.7913H21.3118V11.5169H28.868V8.19262H21.3118V3.83874H31.9398V0.375488H17.7578L17.7692 19.3057Z" fill="#161616"/>
<path d="M41.0738 0.375488H33.6367V19.3057H41.0738C47.6996 19.3057 50.6211 14.4667 50.5389 9.67889C50.4594 5.00166 47.5663 0.375488 41.0738 0.375488ZM41.0738 15.8708H37.1794V3.75648H41.0738C45.1866 3.75648 46.9168 6.7035 46.9962 9.65053C47.0784 12.7337 45.3738 15.8708 41.0738 15.8708Z" fill="#161616"/>
<path d="M59.7261 0.375488H52.2891V19.3057H59.7261C66.352 19.3057 69.2735 14.4667 69.1912 9.67889C69.1118 5.00166 66.2158 0.375488 59.7261 0.375488ZM59.7261 15.8708H55.8317V3.75648H59.7261C63.8361 3.75648 65.5663 6.7035 65.6485 9.65053C65.7308 12.7337 64.0261 15.8708 59.7261 15.8708Z" fill="#161616"/>
<path d="M90.5469 3.62033H96.5487V19.3057H100.12V3.62033H106.124V0.375488H90.5469V3.62033Z" fill="#161616"/>
<path d="M107.914 19.3057H122.096V15.7913H111.462V11.5169H119.019V8.19262H111.462V3.83874H122.096V0.375488H107.914V19.3057Z" fill="#161616"/>
<path d="M137.432 14.4685C136.146 15.6895 134.445 16.376 132.672 16.3888C127.992 16.3888 126.18 13.1155 126.148 9.97848C126.117 6.84142 128.094 3.40653 132.672 3.40653C134.37 3.38232 136.009 4.02257 137.242 5.19064L139.621 2.89314C138.712 1.97516 137.629 1.24674 136.437 0.75012C135.244 0.253497 133.964 -0.00146302 132.672 6.31477e-06C125.828 6.31477e-06 122.611 5.02895 122.637 9.97848C122.662 14.928 125.641 19.7414 132.672 19.7414C135.404 19.7414 137.917 18.8479 139.865 16.9277L137.432 14.4685Z" fill="#161616"/>
<path d="M85.2643 13.2338L72.3927 0.39058L69.8711 2.91214L82.737 15.7526H69.8711V19.3293H85.2444C86.1948 19.3285 87.106 18.9504 87.7777 18.2782C88.4495 17.6059 88.8268 16.6944 88.8268 15.744V0.359375H85.2643V13.2338Z" fill="#161616"/>
<path d="M8.92333 0.361328C5.95078 0.361328 2.96688 0.389694 0 0.389694V19.3312H3.56253V13.7492H5.58772L11.1783 19.3312H16.2299L10.5032 13.6187C18.1644 12.1778 17.6141 0.361328 8.92333 0.361328ZM3.56253 10.476V3.77069H8.92333C13.4616 3.77069 13.4956 10.476 8.92333 10.476H3.56253Z" fill="#161616"/>
</svg>
