<svg width="140" height="20" fill="none" xmlns="http://www.w3.org/2000/svg"><path d="M17.77 19.306h14.18V15.79H21.31v-4.274h7.557V8.193h-7.556V3.839H31.94V.375H17.758l.011 18.93zM41.074.375h-7.437v18.93h7.437c6.626 0 9.547-4.838 9.465-9.626-.08-4.677-2.973-9.304-9.465-9.304zm0 15.496h-3.895V3.756h3.895c4.113 0 5.843 2.948 5.922 5.895.082 3.083-1.622 6.22-5.922 6.22zM59.726.375H52.29v18.93h7.437c6.626 0 9.547-4.838 9.465-9.626-.08-4.677-2.975-9.304-9.465-9.304zm0 15.496h-3.894V3.756h3.894c4.11 0 5.84 2.948 5.922 5.895.083 3.083-1.622 6.22-5.922 6.22zM90.547 3.62h6.002v15.686h3.571V3.62h6.004V.375H90.547V3.62zm17.367 15.686h14.182V15.79h-10.634v-4.274h7.557V8.193h-7.557V3.839h10.634V.375h-14.182v18.93zm29.518-4.837a6.986 6.986 0 01-4.76 1.92c-4.68 0-6.492-3.273-6.524-6.41-.031-3.138 1.946-6.572 6.524-6.572a6.509 6.509 0 014.57 1.784l2.379-2.298A9.769 9.769 0 00132.672 0c-6.844 0-10.061 5.029-10.035 9.978.025 4.95 3.004 9.763 10.035 9.763 2.732 0 5.245-.893 7.193-2.813l-2.433-2.46zm-52.168-1.235L72.393.39 69.87 2.912l12.866 12.84H69.871v3.577h15.373a3.586 3.586 0 003.583-3.585V.359h-3.563v12.875z" fill="#161616"/><path d="M8.923.361C5.951.361 2.967.39 0 .39v18.94h3.563v-5.58h2.025l5.59 5.582h5.052l-5.727-5.712C18.164 12.178 17.614.36 8.923.36zm-5.36 10.115V3.771h5.36c4.539 0 4.573 6.705 0 6.705h-5.36z" fill="#161616"/></svg>