<svg width="208" height="42" fill="none" xmlns="http://www.w3.org/2000/svg"><path d="M0 19.801l2.86-4.18a9.216 9.216 0 006.407 2.863c1.287 0 2.536-.515 2.536-1.65 0-.793-.734-1.308-1.83-1.737a50.602 50.602 0 01-4.882-1.832 6.227 6.227 0 01-3.728-5.87c0-3.969 3.452-6.965 8.4-6.965a12.53 12.53 0 018.027 2.863l-2.64 4.341a9.08 9.08 0 00-5.282-1.908c-1.65 0-2.412.706-2.412 1.47 0 .954.953 1.374 1.792 1.679 1.201.458 3.06 1.069 4.586 1.708 2.374 1.012 4.3 2.691 4.3 5.926 0 4.122-3.423 7.214-8.943 7.214A12.06 12.06 0 010 19.801zm20.469-3.844V6.414h5.358v9.543a2.713 2.713 0 002.703 2.87 2.705 2.705 0 002.545-1.785c.126-.347.18-.717.158-1.085V6.414h5.405v9.543c0 5.038-3.117 7.786-8.123 7.786-5.005 0-8.046-2.748-8.046-7.786zM58.3 14.859c0 4.885-3.423 8.884-8.21 8.884a6.852 6.852 0 01-4.766-1.832v8.34h-5.406V6.45h5.32v1.556a6.676 6.676 0 014.853-1.985c4.814 0 8.209 3.941 8.209 8.837zm-5.492.057a3.812 3.812 0 10-7.627 0 3.819 3.819 0 003.813 3.817 3.812 3.812 0 003.814-3.817zm24.823 1.709H65.599a3.99 3.99 0 004.129 2.662 9.907 9.907 0 005.09-1.556l2.108 3.636a12.823 12.823 0 01-7.446 2.319c-6.293 0-9.315-4.18-9.315-8.798a8.604 8.604 0 012.56-6.412 8.576 8.576 0 016.45-2.453c4.853 0 8.638 3.092 8.638 8.435-.003.726-.064 1.45-.182 2.167zm-12.089-3.703h7.141a3.455 3.455 0 00-3.518-2.596 3.611 3.611 0 00-3.623 2.596zM80.41 6.45h5.158v2.08a5.172 5.172 0 014.49-2.538 5.307 5.307 0 012.098.458l-.42 5.134a7.06 7.06 0 00-2.23-.4c-2.107 0-3.719 1.221-3.719 4.857v7.271H80.41V6.45zM94.023 0h5.254v8.741a5.961 5.961 0 015.282-2.748c3.327 0 6.492 2.233 6.492 6.966v10.354h-5.396V14.39c0-2.233-1.135-3.483-2.965-3.483a3.284 3.284 0 00-3.144 2.248 3.3 3.3 0 00-.155 1.36v8.797h-5.368V0zm36.94 16.625h-12.022a3.969 3.969 0 004.119 2.662 9.912 9.912 0 005.091-1.556l2.107 3.636a12.826 12.826 0 01-7.446 2.319c-6.293 0-9.315-4.18-9.315-8.798a8.587 8.587 0 019.009-8.865c4.853 0 8.638 3.092 8.638 8.435a13.57 13.57 0 01-.181 2.167zm-12.089-3.703h7.141a3.452 3.452 0 00-3.509-2.596 3.63 3.63 0 00-3.632 2.596zm14.868-6.472h5.158v2.08a5.17 5.17 0 014.49-2.538 5.35 5.35 0 012.107.458l-.429 5.134a7.055 7.055 0 00-2.23-.4c-2.107 0-3.719 1.221-3.719 4.857v7.271h-5.377V6.45zm12.422 8.437a9.192 9.192 0 012.79-6.305 9.178 9.178 0 0115.563 6.305c0 4.915-3.642 8.885-9.191 8.885-5.548 0-9.162-3.97-9.162-8.884zm12.976 0a3.825 3.825 0 00-2.394-3.485 3.808 3.808 0 00-4.136.864 3.819 3.819 0 002.716 6.496 3.816 3.816 0 003.814-3.903v.028zm24.697 1.738h-12.023a3.98 3.98 0 004.119 2.662 9.915 9.915 0 005.1-1.556l2.108 3.636a12.856 12.856 0 01-7.446 2.319c-6.293 0-9.315-4.18-9.315-8.798a8.587 8.587 0 019.01-8.865c4.852 0 8.637 3.092 8.637 8.435-.006.726-.07 1.45-.19 2.167zm-12.089-3.703h7.15a3.455 3.455 0 00-3.518-2.596 3.631 3.631 0 00-3.632 2.596zm13.584 7.951l2.412-3.635a8.024 8.024 0 005.034 2.109c.953 0 1.802-.344 1.802-1.079 0-.334-.181-.64-.953-.954-.772-.315-3.175-1.012-4.186-1.47a4.765 4.765 0 01-2.308-1.784 4.78 4.78 0 01-.838-2.796c0-3.178 2.717-5.344 6.96-5.344a9.527 9.527 0 016.292 2.195l-2.317 3.55a7.62 7.62 0 00-4.061-1.441c-.887 0-1.525.4-1.525.954 0 .554.343.954 1.525 1.212 1.367.358 2.696.85 3.966 1.47 2.05 1.04 2.86 2.347 2.86 4.275 0 3.244-2.717 5.62-7.236 5.62a10.682 10.682 0 01-7.427-2.882zm16.648.003a2.873 2.873 0 01.885-2.073 2.864 2.864 0 012.109-.79 2.9 2.9 0 010 5.802 2.93 2.93 0 01-2.994-2.94zM54.977 41.324v-8.691h1.319l3.082 5.683 3.07-5.683h1.293v8.69h-1.43v-5.855l-2.49 4.536h-.924l-2.49-4.511v5.83h-1.43zm12.539 0l3.932-8.691h1.295l3.932 8.69h-1.603l-.862-2.009h-4.241l-.85 2.01h-1.603zm4.56-6.978l-1.565 3.71h3.156l-1.566-3.71h-.025zm8.314 6.978v-8.691h3.773c.953 0 1.689.23 2.206.69.518.452.777 1.089.777 1.91 0 .65-.169 1.188-.505 1.616-.337.419-.822.702-1.455.85.42.132.764.448 1.035.95l1.455 2.675h-1.738l-1.504-2.774c-.148-.271-.325-.456-.53-.555-.197-.098-.452-.148-.764-.148h-1.171v3.477H80.39zm1.579-4.648h1.922c1.151 0 1.727-.468 1.727-1.405 0-.929-.576-1.393-1.727-1.393H81.97v2.798zm9.641 4.648v-8.691h1.577v3.846h.025l3.834-3.846h1.923l-4.229 4.179 4.438 4.512H97.23l-4.018-4.02h-.025v4.02H91.61zm10.988 0v-8.691h5.781v1.257h-4.265v2.392h3.994v1.257h-3.994v2.527h4.265v1.258h-5.781zm12.12 0v-7.372h-2.984v-1.32h7.545v1.32h-2.983v7.372h-1.578zm8.329 0v-8.691h1.578v8.69h-1.578zm6.285 0v-8.691h1.184l4.672 6.065v-6.065h1.466v8.69h-1.171l-4.684-6.09v6.09h-1.467zm16.138.129c-.961 0-1.775-.18-2.441-.543a3.627 3.627 0 01-1.504-1.54c-.345-.666-.517-1.455-.517-2.367 0-.92.176-1.714.53-2.38a3.668 3.668 0 011.528-1.553c.666-.37 1.463-.554 2.392-.554.608 0 1.179.09 1.713.27.535.173.978.416 1.332.728l-.53 1.233a3.852 3.852 0 00-1.184-.654 4.264 4.264 0 00-1.331-.197c-.921 0-1.619.267-2.096.801-.468.535-.703 1.303-.703 2.306 0 1.01.243 1.779.728 2.305.485.526 1.204.789 2.157.789.271 0 .547-.02.826-.062.288-.05.571-.119.851-.21v-2.021h-1.997v-1.171h3.315v4.179a6.086 6.086 0 01-1.429.468 8.026 8.026 0 01-1.64.173z" fill="#161616"/></svg>