<svg width="128" height="75" viewBox="0 0 128 75" fill="none" xmlns="http://www.w3.org/2000/svg">
<path d="M5.27296 48.8246V49.1391H4.02939V48.7528C4.02939 47.696 3.62875 47.067 2.68674 47.067C1.74473 47.067 1.34265 47.696 1.34265 48.7385C1.34265 51.3821 5.30168 51.6392 5.30168 54.9549C5.30168 56.7413 4.44009 57.8987 2.64366 57.8987C0.847235 57.8987 0 56.7413 0 54.9549V54.2828H1.23639V55.0267C1.23639 56.0836 1.66719 56.7125 2.61494 56.7125C3.5627 56.7125 4.00067 56.0836 4.00067 55.0267C4.00067 52.3974 0.0574399 52.1403 0.0574399 48.8246C0.0574399 47.0095 0.900367 45.8809 2.67238 45.8809C4.44439 45.8809 5.27296 47.0383 5.27296 48.8246Z" fill="#161616"/>
<path d="M8.81383 53.5669L6.32812 46.0078H7.68226L9.52608 51.8092L11.3843 46.0078H12.6264L10.112 53.5669V57.7959H8.81095L8.81383 53.5669Z" fill="#161616"/>
<path d="M15.1705 57.7959H13.9844V46.0078H15.6559L18.3843 54.5376V46.0078H19.5417V57.7959H18.1861L15.1705 48.2652V57.7959Z" fill="#161616"/>
<path d="M25.4957 51.2246V52.4107H22.6094V56.611H26.1534V57.8115H21.2969V46.0234H26.1548V47.2239H22.6108V51.2548H25.4957V51.2246Z" fill="#161616"/>
<path d="M30.4353 46C32.2934 46 33.0646 46.9434 33.0646 48.7011V49.6575C33.0646 50.9585 32.6079 51.7583 31.5927 52.0872C32.6653 52.4017 33.0789 53.2877 33.0789 54.5442V56.388C33.0789 56.9164 33.0933 57.4032 33.3216 57.8024H31.9933C31.8353 57.4592 31.7793 57.1591 31.7793 56.3736V54.5169C31.7793 53.1871 31.1504 52.7592 30.0633 52.7592H29.1357V57.8024H27.8203V46.0144H30.4353V46ZM30.0992 51.5587C31.1432 51.5587 31.7722 51.2155 31.7722 49.9432V48.8189C31.7722 47.762 31.3859 47.2048 30.4137 47.2048H29.1285V51.563L30.0992 51.5587Z" fill="#161616"/>
<path d="M40.0634 48.8534V49.8686H38.8198V48.7959C38.8198 47.739 38.4063 47.0957 37.4341 47.0957C36.4907 47.0957 36.0484 47.739 36.0484 48.7959V55.0267C36.0484 56.0836 36.4907 56.7269 37.4341 56.7269C38.3775 56.7269 38.8198 56.0836 38.8198 55.0267V52.6688H37.6064V51.4827H40.0634V54.9549C40.0634 56.7413 39.2205 57.913 37.4054 57.913C35.5903 57.913 34.7617 56.7269 34.7617 54.9549V48.8534C34.7617 47.067 35.6046 45.8809 37.4054 45.8809C39.2061 45.8809 40.0634 47.067 40.0634 48.8534Z" fill="#161616"/>
<path d="M43.5482 53.5669L41.0625 46.0078H42.4195L44.2633 51.8092L46.1201 46.0078H47.3636L44.8492 53.5669V57.7959H43.5482V53.5669Z" fill="#161616"/>
<path d="M54.5515 46C56.3953 46 57.2239 47.1143 57.2239 48.9294V54.873C57.2239 56.6737 56.381 57.7881 54.5515 57.7881H51.793V46H54.5515ZM54.5214 56.6019C55.4634 56.6019 55.9214 56.016 55.9214 54.9304V48.872C55.9214 47.8007 55.4634 47.2005 54.507 47.2005H53.0911V56.6019H54.5214Z" fill="#161616"/>
<path d="M63.0831 51.2246V52.4107H60.1967V56.611H63.7408V57.8115H58.8828V46.0234H63.7408V47.2239H60.1967V51.2548H63.0831V51.2246Z" fill="#161616"/>
<path d="M66.3324 46L68.2465 56.2602L70.1507 46H71.3655L69.1641 57.7881H67.2184L64.9883 46H66.3324Z" fill="#161616"/>
<path d="M76.9945 51.2246V52.4107H74.1225V56.611H77.6666V57.8115H72.8086V46.0234H77.6666V47.2239H74.1225V51.2548H76.9945V51.2246Z" fill="#161616"/>
<path d="M79.2812 57.7959V46.0078H80.5966V56.6097H83.9683V57.8102H79.2812V57.7959Z" fill="#161616"/>
<path d="M85.2852 48.8534C85.2852 47.0526 86.1712 45.8809 87.9848 45.8809C89.7985 45.8809 90.7003 47.0383 90.7003 48.8534V54.9549C90.7003 56.7413 89.8143 57.913 87.9848 57.913C86.1855 57.913 85.2852 56.7269 85.2852 54.9549V48.8534ZM86.5704 55.0123C86.5704 56.0836 87.0284 56.7125 87.9719 56.7125C88.9153 56.7125 89.372 56.0836 89.372 55.0123V48.7816C89.372 47.7247 88.9283 47.0813 87.9719 47.0813C87.0155 47.0813 86.5704 47.7247 86.5704 48.7816V55.0123Z" fill="#161616"/>
<path d="M94.9483 45.998C96.805 45.998 97.592 47.098 97.592 48.8844V50.2988C97.592 52.1656 96.7203 53.1421 94.8478 53.1421H93.6904V57.7861H92.375V45.998H94.9483ZM94.8478 51.9703C95.8199 51.9703 96.2909 51.5137 96.2909 50.3907V48.8169C96.2909 47.7456 95.9047 47.2028 94.9483 47.2028H93.6904V51.9761L94.8478 51.9703Z" fill="#161616"/>
<path d="M103.415 57.7737H102.157L100.2 48.3881V57.7895H99.0508V46H100.893L102.837 55.4158L104.704 46H106.548V57.7881H105.305V48.3005L103.415 57.7737Z" fill="#161616"/>
<path d="M112.462 51.2246V52.4107H109.576V56.611H113.12V57.8115H108.262V46.0234H113.12V47.2239H109.576V51.2548H112.462V51.2246Z" fill="#161616"/>
<path d="M115.921 57.7959H114.734V46.0078H116.406L119.134 54.5376V46.0078H120.292V57.7959H118.935L115.919 48.2652L115.921 57.7959Z" fill="#161616"/>
<path d="M123.755 57.8005V47.1985H121.582V45.998H127.227V47.1985H125.054V57.8005H123.755Z" fill="#161616"/>
<path d="M36.187 65.6952V66.7592H34.9448V65.6291C34.9448 64.5722 34.5298 63.9289 33.5591 63.9289C32.6157 63.9289 32.1719 64.5722 32.1719 65.6291V71.8599C32.1719 72.9168 32.6157 73.5601 33.5591 73.5601C34.5025 73.5601 34.9448 72.9168 34.9448 71.8599V70.3248H36.187V71.7967C36.187 73.5831 35.344 74.7548 33.5304 74.7548C31.7167 74.7548 30.8867 73.5687 30.8867 71.7967V65.6952C30.8867 63.9088 31.7296 62.7227 33.5304 62.7227C35.3311 62.7227 36.187 63.9088 36.187 65.6952Z" fill="#161616"/>
<path d="M37.6875 65.6952C37.6875 63.8944 38.5735 62.7227 40.3886 62.7227C42.2037 62.7227 43.1041 63.8801 43.1041 65.6952V71.7967C43.1041 73.5831 42.2181 74.7548 40.3886 74.7548C38.5879 74.7548 37.6875 73.5687 37.6875 71.7967V65.6952ZM38.9957 71.8541C38.9957 72.9254 39.4523 73.5543 40.3958 73.5543C41.3392 73.5543 41.7959 72.9254 41.7959 71.8541V65.6234C41.7959 64.5665 41.3536 63.9231 40.3958 63.9231C39.438 63.9231 38.9957 64.5665 38.9957 65.6234V71.8541Z" fill="#161616"/>
<path d="M45.9439 74.6435H44.7578V62.8555H46.4293L49.1577 71.3867V62.8555H50.3151V74.6435H48.9581L45.9425 65.1129L45.9439 74.6435Z" fill="#161616"/>
<path d="M57.2062 65.6664V65.9809H55.9683V65.5961C55.9683 64.5378 55.5677 63.9088 54.6242 63.9088C53.6808 63.9088 53.2816 64.5377 53.2816 65.5817C53.2816 68.2239 57.2392 68.4824 57.2392 71.7967C57.2392 73.5831 56.3776 74.7405 54.5812 74.7405C52.7847 74.7405 51.9375 73.5831 51.9375 71.7967V71.1261H53.1667V71.8685C53.1667 72.9254 53.6104 73.5543 54.5524 73.5543C55.4945 73.5543 55.9396 72.9254 55.9396 71.8685C55.9396 69.2392 51.9949 68.9821 51.9949 65.6664C51.9949 63.8513 52.8379 62.7227 54.6099 62.7227C56.3819 62.7227 57.2062 63.8872 57.2062 65.6664Z" fill="#161616"/>
<path d="M60.0261 71.8603C60.0261 72.9172 60.4397 73.5606 61.4119 73.5606C62.3553 73.5606 62.7689 72.9172 62.7689 71.8603V62.8438H63.9995V71.7914C63.9995 73.5778 63.171 74.7783 61.3559 74.7783C59.5408 74.7783 58.7266 73.5778 58.7266 71.7914V62.8438H60.0276V71.8603H60.0261Z" fill="#161616"/>
<path d="M65.7266 74.6435V62.8555H67.0419V73.4588H70.4136V74.6608H65.7266V74.6435Z" fill="#161616"/>
<path d="M72.6634 74.6462V64.0442H70.4922V62.8438H76.1356V64.0442H73.9644V74.6462H72.6634Z" fill="#161616"/>
<path d="M78.771 62.8438V74.6318H77.457V62.8438H78.771Z" fill="#161616"/>
<path d="M81.7096 74.6435H80.5234V62.8555H82.1949L84.9233 71.3867V62.8555H86.0807V74.6435H84.7237L81.7081 65.1129L81.7096 74.6435Z" fill="#161616"/>
<path d="M93.0243 65.6952V66.7104H91.7808V65.6377C91.7808 64.5808 91.3672 63.9375 90.395 63.9375C89.4516 63.9375 89.0093 64.5808 89.0093 65.6377V71.8685C89.0093 72.9254 89.4516 73.5687 90.395 73.5687C91.3385 73.5687 91.7808 72.9254 91.7808 71.8685V69.5106H90.5674V68.3245H93.0243V71.7967C93.0243 73.5831 92.1814 74.7548 90.3663 74.7548C88.5512 74.7548 87.7227 73.5687 87.7227 71.7967V65.6952C87.7227 63.9088 88.5656 62.7227 90.3663 62.7227C92.1671 62.7227 93.0243 63.9088 93.0243 65.6952Z" fill="#161616"/>
<path d="M65.7391 24.7467L77.2414 17.7735L77.2716 17.8223C76.6262 14.6987 74.9235 11.8932 72.4504 9.87898C69.9773 7.86473 66.8853 6.76498 63.6957 6.76519V6.37891C59.9174 6.37929 56.294 7.88037 53.6223 10.552C50.9507 13.2237 49.4496 16.8471 49.4492 20.6254H49.8355C49.8355 21.0404 49.8542 21.4539 49.8901 21.8618L62.31 13.2803L65.5539 15.5377L68.1114 13.981L69.2113 15.7861L65.4677 18.0578L62.3085 15.8421L50.285 24.1522C50.4427 24.7593 50.6423 25.3547 50.8823 25.9342L62.2798 17.8855L65.5237 20.1443L72.7826 15.743L73.8826 17.5437L65.4519 22.6587L62.2798 20.4588L51.8416 27.8197C52.1373 28.3053 52.4624 28.7724 52.8152 29.2184L62.4938 22.4879L65.7391 24.7467Z" fill="#161616"/>
<path d="M77.5557 20.6291C77.5557 20.4367 77.5557 20.2457 77.5443 20.0547L65.6528 27.2591L62.4936 25.0591L54.2539 30.7801C56.8144 33.1721 60.1902 34.4985 63.6941 34.4893V34.8827C67.4724 34.8824 71.0958 33.3813 73.7675 30.7096C76.4391 28.038 77.9402 24.4145 77.9406 20.6363L77.5557 20.6291Z" fill="#161616"/>
<path d="M63.6818 0C59.626 9.94456e-09 55.6613 1.20269 52.2891 3.45598C48.9169 5.70926 46.2886 8.91194 44.7366 12.659C43.1846 16.4061 42.7786 20.5292 43.5699 24.507C44.3613 28.4848 46.3144 32.1386 49.1824 35.0064C52.0503 37.8741 55.7043 39.827 59.6821 40.6181C63.66 41.4091 67.7831 41.0028 71.53 39.4506C75.277 37.8983 78.4795 35.2698 80.7325 31.8974C82.9856 28.525 84.188 24.5603 84.1877 20.5045C84.1873 15.0663 82.0267 9.85085 78.1811 6.00555C74.3356 2.16024 69.12 -1.33344e-08 63.6818 0ZM81.9188 19.3328L80.233 19.462C80.2186 19.1906 80.1899 18.9335 80.1612 18.6621L81.8341 18.4611C81.8585 18.7469 81.8858 19.047 81.9145 19.3328H81.9188ZM81.6762 17.4186L80.019 17.7058C79.9759 17.4487 79.9185 17.1773 79.8611 16.9203L81.5024 16.5469C81.574 16.8343 81.6306 17.1253 81.6718 17.4186H81.6762ZM81.2339 15.5317L79.6184 15.9898C79.548 15.7327 79.4619 15.4757 79.3757 15.233L80.9625 14.6888C81.0572 14.9602 81.1434 15.2459 81.2296 15.5317H81.2339ZM80.6049 13.6893L79.0469 14.3326C78.9478 14.0885 78.8329 13.8458 78.718 13.6031L80.2473 12.8852C80.3723 13.1609 80.4857 13.4323 80.6006 13.6893H80.6049ZM79.7792 11.946L78.293 12.7459C78.1637 12.5175 78.0359 12.2749 77.8923 12.0451L79.3355 11.1734C79.492 11.4176 79.6356 11.689 79.7792 11.946ZM78.2283 9.58812C78.3992 9.81644 78.5859 10.0591 78.7424 10.3061L77.3567 11.2496C77.2002 11.0356 77.0422 10.8073 76.8857 10.6062L78.2283 9.58812ZM77.5563 8.75237L76.2854 9.85234C76.1131 9.65273 75.9279 9.4517 75.7426 9.25209L76.9704 8.09468C77.1715 8.30147 77.3711 8.51687 77.5563 8.75237ZM76.228 7.33792L75.0706 8.58005C74.871 8.39481 74.67 8.22392 74.4704 8.03724L75.5703 6.75203C75.7986 6.9301 76.014 7.1297 76.228 7.33074V7.33792ZM74.7532 6.08717L73.7251 7.42982L73.0817 6.95881L74.0381 5.57308C74.2851 5.74397 74.5278 5.91485 74.7532 6.08717ZM72.3695 4.54348C72.6265 4.68708 72.8836 4.83067 73.1421 4.9872L72.2704 6.43037C72.0407 6.28677 71.8123 6.15897 71.5697 6.02973L72.3695 4.54348ZM70.6262 3.71491C70.8976 3.82979 71.169 3.94323 71.4404 4.07247L70.7124 5.6018C70.4697 5.48692 70.227 5.3864 69.9829 5.27296L70.6262 3.71491ZM68.7968 3.08594C69.084 3.1721 69.3712 3.25826 69.6411 3.35735L69.0825 4.93694C68.8255 4.85078 68.5684 4.76462 68.3257 4.69426L68.7968 3.08594ZM66.8969 2.64366L67.7686 2.81454L67.3823 4.45732C67.1253 4.40131 66.8539 4.34387 66.5968 4.30079L66.8969 2.64366ZM64.954 2.40098C65.2412 2.41534 65.5399 2.44262 65.8257 2.4857L65.639 4.1572C65.382 4.12848 65.1106 4.09976 64.8392 4.0854L64.954 2.40098ZM63.9101 2.3579L63.8957 4.04375C63.6243 4.04375 63.3529 4.04375 63.0815 4.05811L63.0241 2.37226C63.3098 2.3579 63.6099 2.3579 63.9101 2.3579ZM61.9528 2.44262L62.1165 4.11555C61.8595 4.14427 61.6024 4.17155 61.331 4.21463L61.0884 2.54314C61.3669 2.50006 61.667 2.47134 61.9528 2.44262ZM60.0386 2.72982L60.366 4.38839C60.1234 4.43147 59.852 4.48747 59.5949 4.55927L59.1799 2.93086C59.4671 2.8648 59.7529 2.78582 60.0386 2.72838V2.72982ZM58.1719 3.20226L58.6859 4.80196C58.4289 4.90248 58.1719 4.98864 57.9292 5.07336L57.3433 3.49377C57.6089 3.38607 57.8947 3.28698 58.1661 3.20082L58.1719 3.20226ZM56.3568 3.88723L57.0288 5.43092C56.7861 5.5458 56.5434 5.65924 56.3108 5.77412L55.554 4.25915C55.8082 4.12991 56.0853 4.00067 56.351 3.88579L56.3568 3.88723ZM54.6422 4.77323L55.4851 6.23077C55.2435 6.35419 55.0099 6.4928 54.7858 6.64577L53.8854 5.23132C54.1224 5.07192 54.3794 4.9154 54.6364 4.7718L54.6422 4.77323ZM52.985 5.83156L53.9701 7.20293C53.7705 7.34653 53.5566 7.50306 53.3426 7.67394L52.2843 6.36001C52.5069 6.16758 52.751 6.00101 52.9793 5.83012L52.985 5.83156ZM51.4844 7.04641L52.6131 8.3029C52.4044 8.46879 52.2086 8.65024 52.0272 8.84571L50.8411 7.64666C51.0493 7.44418 51.2647 7.23022 51.4787 7.04497L51.4844 7.04641ZM50.1131 8.40342L51.3696 9.53211C51.1843 9.73171 51.0134 9.93275 50.8411 10.1467L49.5415 9.07547C49.721 8.84427 49.9206 8.61595 50.1073 8.40199L50.1131 8.40342ZM48.8781 9.90116L50.2351 10.8863C50.0915 11.116 49.935 11.3443 49.7928 11.5583L48.3784 10.6292C48.5349 10.388 48.7058 10.1453 48.8781 9.90116ZM47.8198 11.5439L49.2773 12.3869C49.1639 12.6152 49.0346 12.8593 48.9068 13.0876L47.4062 12.3165C47.534 12.0551 47.6776 11.7881 47.8198 11.5454V11.5439ZM46.9582 13.2872L48.5019 13.9593C48.3884 14.202 48.2879 14.459 48.1874 14.7017L46.6164 14.1014C46.7198 13.8315 46.8347 13.5601 46.9625 13.2887L46.9582 13.2872ZM46.2589 15.1023L47.8586 15.6164C47.7882 15.8591 47.715 16.1161 47.6446 16.3746L46.0162 15.9438C46.0909 15.6609 46.177 15.3752 46.2632 15.1038L46.2589 15.1023ZM45.7721 16.9691L47.4306 17.298C47.3732 17.5694 47.3301 17.8422 47.287 18.0992L45.6155 17.8408C45.6629 17.5607 45.7204 17.2606 45.7764 16.9749L45.7721 16.9691ZM45.4849 18.8991L47.1578 19.0556C47.1434 19.3126 47.1291 19.5855 47.1147 19.8569L45.4289 19.7851C45.449 19.5051 45.459 19.205 45.4906 18.9048L45.4849 18.8991ZM45.4145 20.8276L47.1004 20.8133C47.1004 21.0847 47.1147 21.3561 47.1291 21.6145L45.4432 21.7136C45.4346 21.4336 45.4202 21.1335 45.4202 20.8334L45.4145 20.8276ZM45.5279 22.772L47.2009 22.5709C47.2296 22.828 47.2712 23.0994 47.3143 23.3722L45.6572 23.6436C45.6198 23.3636 45.5768 23.0635 45.5337 22.7777L45.5279 22.772ZM45.8625 24.6919L47.5067 24.32C47.5627 24.577 47.6345 24.8355 47.7063 25.0925L46.0765 25.5535C46.0061 25.2663 45.92 24.9791 45.8625 24.6919ZM46.4053 26.5587L48.0065 26.0144C48.0926 26.2729 48.1917 26.5156 48.2779 26.7726L46.7055 27.3872C46.592 27.1216 46.4915 26.8358 46.4053 26.5587ZM47.1348 28.358L48.6641 27.64C48.7776 27.8826 48.8925 28.1253 49.0203 28.358L47.5211 29.1449C47.3775 28.8936 47.2483 28.6207 47.1348 28.3637V28.358ZM48.0352 30.0596L49.4798 29.1937C49.6234 29.422 49.767 29.6504 49.9106 29.8643L48.5105 30.8078C48.3497 30.5651 48.1773 30.308 48.0352 30.0654V30.0596ZM49.1208 31.6737L50.4634 30.6584C50.6214 30.8738 50.7923 31.0892 50.9646 31.2874L49.6722 32.3601C49.4927 32.1361 49.306 31.9077 49.1208 31.6794V31.6737ZM50.3787 33.1456L51.6065 31.9881C51.7932 32.1877 51.9784 32.3744 52.1651 32.5625L50.9933 33.7774C50.7722 33.5807 50.5783 33.3653 50.3787 33.1513V33.1456ZM51.7788 34.4882L52.8788 33.2174C53.0784 33.3882 53.2938 33.5606 53.4934 33.7314L52.4652 35.0454L51.7788 34.4882ZM54.0506 36.1611C53.8079 36.0032 53.5508 35.8467 53.3081 35.6743L54.2645 34.2886C54.4799 34.4466 54.7082 34.5887 54.9366 34.7323L54.0506 36.1611ZM55.7651 37.1031C55.4937 36.9753 55.2367 36.8461 54.9796 36.7039L55.7795 35.2177C56.0078 35.3455 56.2519 35.4747 56.4975 35.5896L55.7651 37.1031ZM57.5515 37.847C57.2801 37.7465 56.9943 37.6474 56.7229 37.5325L57.3663 35.9745C57.6089 36.075 57.866 36.1755 58.1087 36.2617L57.5515 37.847ZM59.4183 38.4042C59.1311 38.3324 58.8439 38.2606 58.5567 38.1758L59.0277 36.5603C59.2847 36.6321 59.5418 36.7039 59.7988 36.7614L59.4183 38.4042ZM61.3181 38.7474L60.4465 38.6181L60.7466 36.961L61.5321 37.0888L61.3181 38.7474ZM63.2653 38.9082C62.9781 38.9082 62.6794 38.8938 62.3793 38.8651L62.4942 37.1793L63.294 37.2223L63.2653 38.9082ZM64.3236 38.8938L64.2662 37.208L65.066 37.1649L65.2096 38.8507L64.3236 38.8938ZM66.2522 38.7229L66.0239 37.0515L66.8093 36.9222L67.1238 38.5793C66.8395 38.6382 66.5394 38.6813 66.2536 38.7244L66.2522 38.7229ZM68.1534 38.351L67.7384 36.7226L68.5096 36.5072L68.9963 38.1227C68.7221 38.2103 68.4349 38.2807 68.1549 38.3525L68.1534 38.351ZM63.6803 35.3498V35.749C61.6945 35.7517 59.7278 35.3625 57.8926 34.6038C56.0575 33.8452 54.39 32.7319 52.9858 31.3278C51.5816 29.9238 50.4682 28.2564 49.7093 26.4214C48.9505 24.5863 48.5612 22.6195 48.5636 20.6338H48.9643C48.96 18.7013 49.3384 16.7871 50.0778 15.0017C50.8172 13.2163 51.9029 11.595 53.2722 10.2314C54.6121 8.88767 56.1987 7.81501 57.945 7.07226C59.757 6.30325 61.7061 5.90952 63.6746 5.91485V5.51564C65.6613 5.51186 67.6293 5.90027 69.4656 6.6586C71.3019 7.41693 72.9705 8.53026 74.3757 9.93477C75.7808 11.3393 76.895 13.0073 77.6542 14.8433C78.4134 16.6793 78.8027 18.647 78.7999 20.6338H78.3992C78.4035 22.5662 78.0251 24.4804 77.2857 26.2658C76.5463 28.0512 75.4606 29.6725 74.0913 31.0361C72.7518 32.3804 71.1651 33.4532 69.4185 34.1953C67.6044 34.9654 65.6526 35.3587 63.6818 35.3512L63.6803 35.3498ZM70.0145 37.7809L69.4286 36.2013C69.6713 36.1166 69.9297 36.0161 70.1724 35.9027L70.8287 37.4449C70.5635 37.5716 70.2917 37.6837 70.0145 37.7809ZM71.8008 37.0098L71.0584 35.4948C71.3011 35.38 71.5294 35.2522 71.7764 35.1229L72.5906 36.5948C72.3121 36.7542 72.055 36.8806 71.798 37.0098H71.8008ZM73.4867 36.0664L72.5863 34.6519C72.8161 34.5083 73.0301 34.3647 73.2584 34.2082L74.2305 35.581C73.9706 35.7375 73.7279 35.9084 73.4838 36.0664H73.4867ZM75.0663 34.9377L74.0238 33.6223C74.2377 33.4514 74.4373 33.2805 74.6369 33.1082L75.7527 34.3805L75.0663 34.9377ZM76.5238 33.6453L75.3276 32.4462C75.5129 32.261 75.6996 32.0614 75.8848 31.8718L77.1284 33.0206C76.9288 33.2375 76.7277 33.4371 76.5138 33.651L76.5238 33.6453ZM77.8377 32.2165L76.5454 31.1452C76.7162 30.9456 76.8742 30.7302 77.0451 30.5163L78.4021 31.5215C78.1853 31.7512 78.0144 31.9939 77.8277 32.2222L77.8377 32.2165ZM78.9865 30.6455L77.5563 29.7178L77.9871 29.0314L79.4446 29.893C79.2852 30.1486 79.1287 30.4071 78.9707 30.6512L78.9865 30.6455ZM79.9731 28.9582L78.4725 28.1871C78.6017 27.9444 78.7151 27.7017 78.8157 27.4576L80.345 28.1584C80.21 28.4355 80.0865 28.7127 79.9573 28.9639L79.9731 28.9582ZM80.7586 27.1862L79.1876 26.5859C79.2867 26.3433 79.3728 26.0862 79.459 25.8292L81.0587 26.3576C80.9582 26.6348 80.8576 26.9205 80.7428 27.1919L80.7586 27.1862ZM81.3588 25.3438L79.7304 24.913C79.8022 24.656 79.8596 24.3989 79.9156 24.1275L81.5598 24.4851C81.4866 24.778 81.4292 25.0638 81.343 25.3496L81.3588 25.3438ZM81.7594 23.4426L80.0664 23.1913C80.1095 22.9342 80.1368 22.6628 80.1655 22.3914L81.8384 22.5623C81.8218 22.859 81.7902 23.1548 81.7436 23.4483L81.7594 23.4426ZM81.959 21.514L80.2732 21.4279C80.2876 21.1565 80.2876 20.8994 80.2876 20.628V20.4141L81.9734 20.3997V20.6424C81.9576 20.9339 81.9576 21.2196 81.9433 21.5198L81.959 21.514Z" fill="#161616"/>
</svg>
