<svg width="151" height="21" fill="none" xmlns="http://www.w3.org/2000/svg"><path d="M150.359 16.697H42.621v3.304H150.36v-3.304z" fill="#161616"/><path d="M39.035.234v8.189l2.343 8.445h.463l2.34-8.445V.234h3.332v8.64l-3.36 11.122h-5.09L35.734 8.875V.235h3.301zM60.8 16.93v3.03h-9.788V.14h9.505v3.03h-6.394v5.464h4.783v3.03h-4.783v5.267h6.676zM77.514.139V19.96h-3.111l-7.72-13.733V19.96h-3.117V.139h3.116l7.725 13.733V.139h3.107zM91.762 3.17h-4.498v16.79h-3.111V3.17h-4.528V.138h12.137v3.03zM103.511.139h3.111v13.76c0 4.73-2.262 6.2-5.968 6.2s-5.998-1.468-5.998-6.2V.14h3.111v13.733c0 2.692 1.188 3.2 2.887 3.2s2.857-.508 2.857-3.2V.139zm15.766 19.821l-3.366-7.474c-.312 0-.595.028-.905.028h-2.15v7.447h-3.114V.139h5.264c3.225 0 6.714.991 6.732 6.172-.028 3.086-1.245 4.701-2.914 5.494l3.764 8.156h-3.311zm-4.271-10.477c2.179 0 3.593-.623 3.593-3V6.17c0-2.408-1.414-3-3.593-3h-2.15v6.313h2.15zm19.585 7.447v3.03h-9.794V.14h9.507v3.03h-6.389v5.464h4.78v3.03h-4.78v5.267h6.676zm2.704-3.394l3.114-.56v.694c0 2.04.764 3.397 3.678 3.397 2.178 0 3.167-.961 3.167-2.085 0-1.784-1.583-2.35-4.667-4.134-3.708-2.275-4.725-3.401-4.725-6.063 0-3.538 3.056-4.785 5.913-4.785 2.856 0 6.018 1.33 6.018 5.466v.558l-3.111.568c0-2.011-.567-3.568-3.113-3.568-1.725 0-2.602.65-2.602 1.698 0 1.416 1.868 2.125 5.516 4.305 2.688 1.754 3.878 3.114 3.878 5.89 0 4.17-3.51 5.18-6.367 5.18-2.856 0-6.713-1.188-6.713-5.465l.014-1.096zM0 3.507V.203h11.653v3.304h-4.12v16.465H4.09V3.507H0zM17.21.203h5.361l3.216 11.122v8.647h-3.33v-5.874h-5.134v5.874h-3.33v-8.64L17.21.203zm4.938 10.591l-1.975-7.287h-.565l-1.974 7.287h4.514z" fill="#161616"/></svg>